<?xml version="1.0" encoding="utf-8" standalone="no"?>
<!DOCTYPE svg PUBLIC "-//W3C//DTD SVG 1.1//EN"
  "http://www.w3.org/Graphics/SVG/1.1/DTD/svg11.dtd">
<!-- Created with matplotlib (https://matplotlib.org/) -->
<svg height="864pt" version="1.1" viewBox="0 0 1440 864" width="1440pt" xmlns="http://www.w3.org/2000/svg" xmlns:xlink="http://www.w3.org/1999/xlink">
 <metadata>
  <rdf:RDF xmlns:cc="http://creativecommons.org/ns#" xmlns:dc="http://purl.org/dc/elements/1.1/" xmlns:rdf="http://www.w3.org/1999/02/22-rdf-syntax-ns#">
   <cc:Work>
    <dc:type rdf:resource="http://purl.org/dc/dcmitype/StillImage"/>
    <dc:date>2021-12-06T16:38:21.129846</dc:date>
    <dc:format>image/svg+xml</dc:format>
    <dc:creator>
     <cc:Agent>
      <dc:title>Matplotlib v3.3.2, https://matplotlib.org/</dc:title>
     </cc:Agent>
    </dc:creator>
   </cc:Work>
  </rdf:RDF>
 </metadata>
 <defs>
  <style type="text/css">*{stroke-linecap:butt;stroke-linejoin:round;}</style>
 </defs>
 <g id="figure_1">
  <g id="patch_1">
   <path d="M 0 864 
L 1440 864 
L 1440 0 
L 0 0 
z
" style="fill:#ffffff;"/>
  </g>
  <g id="axes_1">
   <g id="patch_2">
    <path d="M 180 768.96 
L 1296 768.96 
L 1296 103.68 
L 180 103.68 
z
" style="fill:#eaeaf2;"/>
   </g>
   <g id="matplotlib.axis_1">
    <g id="xtick_1">
     <g id="line2d_1">
      <path clip-path="url(#p167c0b4de2)" d="M 230.727273 768.96 
L 230.727273 103.68 
" style="fill:none;stroke:#ffffff;stroke-linecap:round;"/>
     </g>
     <g id="text_1">
      <!-- 0 -->
      <g style="fill:#262626;" transform="translate(221.551726 802.080781)scale(0.33 -0.33)">
       <defs>
        <path d="M 4.15625 35.296875 
Q 4.15625 48 6.765625 55.734375 
Q 9.375 63.484375 14.515625 67.671875 
Q 19.671875 71.875 27.484375 71.875 
Q 33.25 71.875 37.59375 69.546875 
Q 41.9375 67.234375 44.765625 62.859375 
Q 47.609375 58.5 49.21875 52.21875 
Q 50.828125 45.953125 50.828125 35.296875 
Q 50.828125 22.703125 48.234375 14.96875 
Q 45.65625 7.234375 40.5 3 
Q 35.359375 -1.21875 27.484375 -1.21875 
Q 17.140625 -1.21875 11.234375 6.203125 
Q 4.15625 15.140625 4.15625 35.296875 
z
M 13.1875 35.296875 
Q 13.1875 17.671875 17.3125 11.828125 
Q 21.4375 6 27.484375 6 
Q 33.546875 6 37.671875 11.859375 
Q 41.796875 17.71875 41.796875 35.296875 
Q 41.796875 52.984375 37.671875 58.78125 
Q 33.546875 64.59375 27.390625 64.59375 
Q 21.34375 64.59375 17.71875 59.46875 
Q 13.1875 52.9375 13.1875 35.296875 
z
" id="ArialMT-48"/>
       </defs>
       <use xlink:href="#ArialMT-48"/>
      </g>
     </g>
    </g>
    <g id="xtick_2">
     <g id="line2d_2">
      <path clip-path="url(#p167c0b4de2)" d="M 373.620999 768.96 
L 373.620999 103.68 
" style="fill:none;stroke:#ffffff;stroke-linecap:round;"/>
     </g>
     <g id="text_2">
      <!-- 10 -->
      <g style="fill:#262626;" transform="translate(355.269905 802.080781)scale(0.33 -0.33)">
       <defs>
        <path d="M 37.25 0 
L 28.46875 0 
L 28.46875 56 
Q 25.296875 52.984375 20.140625 49.953125 
Q 14.984375 46.921875 10.890625 45.40625 
L 10.890625 53.90625 
Q 18.265625 57.375 23.78125 62.296875 
Q 29.296875 67.234375 31.59375 71.875 
L 37.25 71.875 
z
" id="ArialMT-49"/>
       </defs>
       <use xlink:href="#ArialMT-49"/>
       <use x="55.615234" xlink:href="#ArialMT-48"/>
      </g>
     </g>
    </g>
    <g id="xtick_3">
     <g id="line2d_3">
      <path clip-path="url(#p167c0b4de2)" d="M 516.514725 768.96 
L 516.514725 103.68 
" style="fill:none;stroke:#ffffff;stroke-linecap:round;"/>
     </g>
     <g id="text_3">
      <!-- 20 -->
      <g style="fill:#262626;" transform="translate(498.163631 802.080781)scale(0.33 -0.33)">
       <defs>
        <path d="M 50.34375 8.453125 
L 50.34375 0 
L 3.03125 0 
Q 2.9375 3.171875 4.046875 6.109375 
Q 5.859375 10.9375 9.828125 15.625 
Q 13.8125 20.3125 21.34375 26.46875 
Q 33.015625 36.03125 37.109375 41.625 
Q 41.21875 47.21875 41.21875 52.203125 
Q 41.21875 57.421875 37.46875 61 
Q 33.734375 64.59375 27.734375 64.59375 
Q 21.390625 64.59375 17.578125 60.78125 
Q 13.765625 56.984375 13.71875 50.25 
L 4.6875 51.171875 
Q 5.609375 61.28125 11.65625 66.578125 
Q 17.71875 71.875 27.9375 71.875 
Q 38.234375 71.875 44.234375 66.15625 
Q 50.25 60.453125 50.25 52 
Q 50.25 47.703125 48.484375 43.546875 
Q 46.734375 39.40625 42.65625 34.8125 
Q 38.578125 30.21875 29.109375 22.21875 
Q 21.1875 15.578125 18.9375 13.203125 
Q 16.703125 10.84375 15.234375 8.453125 
z
" id="ArialMT-50"/>
       </defs>
       <use xlink:href="#ArialMT-50"/>
       <use x="55.615234" xlink:href="#ArialMT-48"/>
      </g>
     </g>
    </g>
    <g id="xtick_4">
     <g id="line2d_4">
      <path clip-path="url(#p167c0b4de2)" d="M 659.408451 768.96 
L 659.408451 103.68 
" style="fill:none;stroke:#ffffff;stroke-linecap:round;"/>
     </g>
     <g id="text_4">
      <!-- 30 -->
      <g style="fill:#262626;" transform="translate(641.057357 802.080781)scale(0.33 -0.33)">
       <defs>
        <path d="M 4.203125 18.890625 
L 12.984375 20.0625 
Q 14.5 12.59375 18.140625 9.296875 
Q 21.78125 6 27 6 
Q 33.203125 6 37.46875 10.296875 
Q 41.75 14.59375 41.75 20.953125 
Q 41.75 27 37.796875 30.921875 
Q 33.84375 34.859375 27.734375 34.859375 
Q 25.25 34.859375 21.53125 33.890625 
L 22.515625 41.609375 
Q 23.390625 41.5 23.921875 41.5 
Q 29.546875 41.5 34.03125 44.421875 
Q 38.53125 47.359375 38.53125 53.46875 
Q 38.53125 58.296875 35.25 61.46875 
Q 31.984375 64.65625 26.8125 64.65625 
Q 21.6875 64.65625 18.265625 61.421875 
Q 14.84375 58.203125 13.875 51.765625 
L 5.078125 53.328125 
Q 6.6875 62.15625 12.390625 67.015625 
Q 18.109375 71.875 26.609375 71.875 
Q 32.46875 71.875 37.390625 69.359375 
Q 42.328125 66.84375 44.9375 62.5 
Q 47.5625 58.15625 47.5625 53.265625 
Q 47.5625 48.640625 45.0625 44.828125 
Q 42.578125 41.015625 37.703125 38.765625 
Q 44.046875 37.3125 47.5625 32.6875 
Q 51.078125 28.078125 51.078125 21.140625 
Q 51.078125 11.765625 44.234375 5.25 
Q 37.40625 -1.265625 26.953125 -1.265625 
Q 17.53125 -1.265625 11.296875 4.34375 
Q 5.078125 9.96875 4.203125 18.890625 
z
" id="ArialMT-51"/>
       </defs>
       <use xlink:href="#ArialMT-51"/>
       <use x="55.615234" xlink:href="#ArialMT-48"/>
      </g>
     </g>
    </g>
    <g id="xtick_5">
     <g id="line2d_5">
      <path clip-path="url(#p167c0b4de2)" d="M 802.302177 768.96 
L 802.302177 103.68 
" style="fill:none;stroke:#ffffff;stroke-linecap:round;"/>
     </g>
     <g id="text_5">
      <!-- 40 -->
      <g style="fill:#262626;" transform="translate(783.951083 802.080781)scale(0.33 -0.33)">
       <defs>
        <path d="M 32.328125 0 
L 32.328125 17.140625 
L 1.265625 17.140625 
L 1.265625 25.203125 
L 33.9375 71.578125 
L 41.109375 71.578125 
L 41.109375 25.203125 
L 50.78125 25.203125 
L 50.78125 17.140625 
L 41.109375 17.140625 
L 41.109375 0 
z
M 32.328125 25.203125 
L 32.328125 57.46875 
L 9.90625 25.203125 
z
" id="ArialMT-52"/>
       </defs>
       <use xlink:href="#ArialMT-52"/>
       <use x="55.615234" xlink:href="#ArialMT-48"/>
      </g>
     </g>
    </g>
    <g id="xtick_6">
     <g id="line2d_6">
      <path clip-path="url(#p167c0b4de2)" d="M 945.195903 768.96 
L 945.195903 103.68 
" style="fill:none;stroke:#ffffff;stroke-linecap:round;"/>
     </g>
     <g id="text_6">
      <!-- 50 -->
      <g style="fill:#262626;" transform="translate(926.844809 802.080781)scale(0.33 -0.33)">
       <defs>
        <path d="M 4.15625 18.75 
L 13.375 19.53125 
Q 14.40625 12.796875 18.140625 9.390625 
Q 21.875 6 27.15625 6 
Q 33.5 6 37.890625 10.78125 
Q 42.28125 15.578125 42.28125 23.484375 
Q 42.28125 31 38.0625 35.34375 
Q 33.84375 39.703125 27 39.703125 
Q 22.75 39.703125 19.328125 37.765625 
Q 15.921875 35.84375 13.96875 32.765625 
L 5.71875 33.84375 
L 12.640625 70.609375 
L 48.25 70.609375 
L 48.25 62.203125 
L 19.671875 62.203125 
L 15.828125 42.96875 
Q 22.265625 47.46875 29.34375 47.46875 
Q 38.71875 47.46875 45.15625 40.96875 
Q 51.609375 34.46875 51.609375 24.265625 
Q 51.609375 14.546875 45.953125 7.46875 
Q 39.0625 -1.21875 27.15625 -1.21875 
Q 17.390625 -1.21875 11.203125 4.25 
Q 5.03125 9.71875 4.15625 18.75 
z
" id="ArialMT-53"/>
       </defs>
       <use xlink:href="#ArialMT-53"/>
       <use x="55.615234" xlink:href="#ArialMT-48"/>
      </g>
     </g>
    </g>
    <g id="xtick_7">
     <g id="line2d_7">
      <path clip-path="url(#p167c0b4de2)" d="M 1088.089629 768.96 
L 1088.089629 103.68 
" style="fill:none;stroke:#ffffff;stroke-linecap:round;"/>
     </g>
     <g id="text_7">
      <!-- 60 -->
      <g style="fill:#262626;" transform="translate(1069.738535 802.080781)scale(0.33 -0.33)">
       <defs>
        <path d="M 49.75 54.046875 
L 41.015625 53.375 
Q 39.84375 58.546875 37.703125 60.890625 
Q 34.125 64.65625 28.90625 64.65625 
Q 24.703125 64.65625 21.53125 62.3125 
Q 17.390625 59.28125 14.984375 53.46875 
Q 12.59375 47.65625 12.5 36.921875 
Q 15.671875 41.75 20.265625 44.09375 
Q 24.859375 46.4375 29.890625 46.4375 
Q 38.671875 46.4375 44.84375 39.96875 
Q 51.03125 33.5 51.03125 23.25 
Q 51.03125 16.5 48.125 10.71875 
Q 45.21875 4.9375 40.140625 1.859375 
Q 35.0625 -1.21875 28.609375 -1.21875 
Q 17.625 -1.21875 10.6875 6.859375 
Q 3.765625 14.9375 3.765625 33.5 
Q 3.765625 54.25 11.421875 63.671875 
Q 18.109375 71.875 29.4375 71.875 
Q 37.890625 71.875 43.28125 67.140625 
Q 48.6875 62.40625 49.75 54.046875 
z
M 13.875 23.1875 
Q 13.875 18.65625 15.796875 14.5 
Q 17.71875 10.359375 21.1875 8.171875 
Q 24.65625 6 28.46875 6 
Q 34.03125 6 38.03125 10.484375 
Q 42.046875 14.984375 42.046875 22.703125 
Q 42.046875 30.125 38.078125 34.390625 
Q 34.125 38.671875 28.125 38.671875 
Q 22.171875 38.671875 18.015625 34.390625 
Q 13.875 30.125 13.875 23.1875 
z
" id="ArialMT-54"/>
       </defs>
       <use xlink:href="#ArialMT-54"/>
       <use x="55.615234" xlink:href="#ArialMT-48"/>
      </g>
     </g>
    </g>
    <g id="xtick_8">
     <g id="line2d_8">
      <path clip-path="url(#p167c0b4de2)" d="M 1230.983355 768.96 
L 1230.983355 103.68 
" style="fill:none;stroke:#ffffff;stroke-linecap:round;"/>
     </g>
     <g id="text_8">
      <!-- 70 -->
      <g style="fill:#262626;" transform="translate(1212.632261 802.080781)scale(0.33 -0.33)">
       <defs>
        <path d="M 4.734375 62.203125 
L 4.734375 70.65625 
L 51.078125 70.65625 
L 51.078125 63.8125 
Q 44.234375 56.546875 37.515625 44.484375 
Q 30.8125 32.421875 27.15625 19.671875 
Q 24.515625 10.6875 23.78125 0 
L 14.75 0 
Q 14.890625 8.453125 18.0625 20.40625 
Q 21.234375 32.375 27.171875 43.484375 
Q 33.109375 54.59375 39.796875 62.203125 
z
" id="ArialMT-55"/>
       </defs>
       <use xlink:href="#ArialMT-55"/>
       <use x="55.615234" xlink:href="#ArialMT-48"/>
      </g>
     </g>
    </g>
    <g id="text_9">
     <!-- Epoch -->
     <g style="fill:#262626;" transform="translate(686.964375 838.407656)scale(0.36 -0.36)">
      <defs>
       <path d="M 7.90625 0 
L 7.90625 71.578125 
L 59.671875 71.578125 
L 59.671875 63.140625 
L 17.390625 63.140625 
L 17.390625 41.21875 
L 56.984375 41.21875 
L 56.984375 32.8125 
L 17.390625 32.8125 
L 17.390625 8.453125 
L 61.328125 8.453125 
L 61.328125 0 
z
" id="ArialMT-69"/>
       <path d="M 6.59375 -19.875 
L 6.59375 51.859375 
L 14.59375 51.859375 
L 14.59375 45.125 
Q 17.4375 49.078125 21 51.046875 
Q 24.5625 53.03125 29.640625 53.03125 
Q 36.28125 53.03125 41.359375 49.609375 
Q 46.4375 46.1875 49.015625 39.953125 
Q 51.609375 33.734375 51.609375 26.3125 
Q 51.609375 18.359375 48.75 11.984375 
Q 45.90625 5.609375 40.453125 2.21875 
Q 35.015625 -1.171875 29 -1.171875 
Q 24.609375 -1.171875 21.109375 0.6875 
Q 17.625 2.546875 15.375 5.375 
L 15.375 -19.875 
z
M 14.546875 25.640625 
Q 14.546875 15.625 18.59375 10.84375 
Q 22.65625 6.0625 28.421875 6.0625 
Q 34.28125 6.0625 38.453125 11.015625 
Q 42.625 15.96875 42.625 26.375 
Q 42.625 36.28125 38.546875 41.203125 
Q 34.46875 46.140625 28.8125 46.140625 
Q 23.1875 46.140625 18.859375 40.890625 
Q 14.546875 35.640625 14.546875 25.640625 
z
" id="ArialMT-112"/>
       <path d="M 3.328125 25.921875 
Q 3.328125 40.328125 11.328125 47.265625 
Q 18.015625 53.03125 27.640625 53.03125 
Q 38.328125 53.03125 45.109375 46.015625 
Q 51.90625 39.015625 51.90625 26.65625 
Q 51.90625 16.65625 48.90625 10.90625 
Q 45.90625 5.171875 40.15625 2 
Q 34.421875 -1.171875 27.640625 -1.171875 
Q 16.75 -1.171875 10.03125 5.8125 
Q 3.328125 12.796875 3.328125 25.921875 
z
M 12.359375 25.921875 
Q 12.359375 15.96875 16.703125 11.015625 
Q 21.046875 6.0625 27.640625 6.0625 
Q 34.1875 6.0625 38.53125 11.03125 
Q 42.875 16.015625 42.875 26.21875 
Q 42.875 35.84375 38.5 40.796875 
Q 34.125 45.75 27.640625 45.75 
Q 21.046875 45.75 16.703125 40.8125 
Q 12.359375 35.890625 12.359375 25.921875 
z
" id="ArialMT-111"/>
       <path d="M 40.4375 19 
L 49.078125 17.875 
Q 47.65625 8.9375 41.8125 3.875 
Q 35.984375 -1.171875 27.484375 -1.171875 
Q 16.84375 -1.171875 10.375 5.78125 
Q 3.90625 12.75 3.90625 25.734375 
Q 3.90625 34.125 6.6875 40.421875 
Q 9.46875 46.734375 15.15625 49.875 
Q 20.84375 53.03125 27.546875 53.03125 
Q 35.984375 53.03125 41.359375 48.75 
Q 46.734375 44.484375 48.25 36.625 
L 39.703125 35.296875 
Q 38.484375 40.53125 35.375 43.15625 
Q 32.28125 45.796875 27.875 45.796875 
Q 21.234375 45.796875 17.078125 41.03125 
Q 12.9375 36.28125 12.9375 25.984375 
Q 12.9375 15.53125 16.9375 10.796875 
Q 20.953125 6.0625 27.390625 6.0625 
Q 32.5625 6.0625 36.03125 9.234375 
Q 39.5 12.40625 40.4375 19 
z
" id="ArialMT-99"/>
       <path d="M 6.59375 0 
L 6.59375 71.578125 
L 15.375 71.578125 
L 15.375 45.90625 
Q 21.53125 53.03125 30.90625 53.03125 
Q 36.671875 53.03125 40.921875 50.75 
Q 45.171875 48.484375 47 44.484375 
Q 48.828125 40.484375 48.828125 32.859375 
L 48.828125 0 
L 40.046875 0 
L 40.046875 32.859375 
Q 40.046875 39.453125 37.1875 42.453125 
Q 34.328125 45.453125 29.109375 45.453125 
Q 25.203125 45.453125 21.75 43.421875 
Q 18.3125 41.40625 16.84375 37.9375 
Q 15.375 34.46875 15.375 28.375 
L 15.375 0 
z
" id="ArialMT-104"/>
      </defs>
      <use xlink:href="#ArialMT-69"/>
      <use x="66.699219" xlink:href="#ArialMT-112"/>
      <use x="122.314453" xlink:href="#ArialMT-111"/>
      <use x="177.929688" xlink:href="#ArialMT-99"/>
      <use x="227.929688" xlink:href="#ArialMT-104"/>
     </g>
    </g>
   </g>
   <g id="matplotlib.axis_2">
    <g id="ytick_1">
     <g id="line2d_9">
      <path clip-path="url(#p167c0b4de2)" d="M 180 658.134082 
L 1296 658.134082 
" style="fill:none;stroke:#ffffff;stroke-linecap:round;"/>
     </g>
     <g id="text_10">
      <!-- 0.2 -->
      <g style="fill:#262626;" transform="translate(124.63 669.944473)scale(0.33 -0.33)">
       <defs>
        <path d="M 9.078125 0 
L 9.078125 10.015625 
L 19.09375 10.015625 
L 19.09375 0 
z
" id="ArialMT-46"/>
       </defs>
       <use xlink:href="#ArialMT-48"/>
       <use x="55.615234" xlink:href="#ArialMT-46"/>
       <use x="83.398438" xlink:href="#ArialMT-50"/>
      </g>
     </g>
    </g>
    <g id="ytick_2">
     <g id="line2d_10">
      <path clip-path="url(#p167c0b4de2)" d="M 180 526.045638 
L 1296 526.045638 
" style="fill:none;stroke:#ffffff;stroke-linecap:round;"/>
     </g>
     <g id="text_11">
      <!-- 0.4 -->
      <g style="fill:#262626;" transform="translate(124.63 537.856029)scale(0.33 -0.33)">
       <use xlink:href="#ArialMT-48"/>
       <use x="55.615234" xlink:href="#ArialMT-46"/>
       <use x="83.398438" xlink:href="#ArialMT-52"/>
      </g>
     </g>
    </g>
    <g id="ytick_3">
     <g id="line2d_11">
      <path clip-path="url(#p167c0b4de2)" d="M 180 393.957194 
L 1296 393.957194 
" style="fill:none;stroke:#ffffff;stroke-linecap:round;"/>
     </g>
     <g id="text_12">
      <!-- 0.6 -->
      <g style="fill:#262626;" transform="translate(124.63 405.767584)scale(0.33 -0.33)">
       <use xlink:href="#ArialMT-48"/>
       <use x="55.615234" xlink:href="#ArialMT-46"/>
       <use x="83.398438" xlink:href="#ArialMT-54"/>
      </g>
     </g>
    </g>
    <g id="ytick_4">
     <g id="line2d_12">
      <path clip-path="url(#p167c0b4de2)" d="M 180 261.868749 
L 1296 261.868749 
" style="fill:none;stroke:#ffffff;stroke-linecap:round;"/>
     </g>
     <g id="text_13">
      <!-- 0.8 -->
      <g style="fill:#262626;" transform="translate(124.63 273.67914)scale(0.33 -0.33)">
       <defs>
        <path d="M 17.671875 38.8125 
Q 12.203125 40.828125 9.5625 44.53125 
Q 6.9375 48.25 6.9375 53.421875 
Q 6.9375 61.234375 12.546875 66.546875 
Q 18.171875 71.875 27.484375 71.875 
Q 36.859375 71.875 42.578125 66.421875 
Q 48.296875 60.984375 48.296875 53.171875 
Q 48.296875 48.1875 45.671875 44.5 
Q 43.0625 40.828125 37.75 38.8125 
Q 44.34375 36.671875 47.78125 31.875 
Q 51.21875 27.09375 51.21875 20.453125 
Q 51.21875 11.28125 44.71875 5.03125 
Q 38.234375 -1.21875 27.640625 -1.21875 
Q 17.046875 -1.21875 10.546875 5.046875 
Q 4.046875 11.328125 4.046875 20.703125 
Q 4.046875 27.6875 7.59375 32.390625 
Q 11.140625 37.109375 17.671875 38.8125 
z
M 15.921875 53.71875 
Q 15.921875 48.640625 19.1875 45.40625 
Q 22.46875 42.1875 27.6875 42.1875 
Q 32.765625 42.1875 36.015625 45.375 
Q 39.265625 48.578125 39.265625 53.21875 
Q 39.265625 58.0625 35.90625 61.359375 
Q 32.5625 64.65625 27.59375 64.65625 
Q 22.5625 64.65625 19.234375 61.421875 
Q 15.921875 58.203125 15.921875 53.71875 
z
M 13.09375 20.65625 
Q 13.09375 16.890625 14.875 13.375 
Q 16.65625 9.859375 20.171875 7.921875 
Q 23.6875 6 27.734375 6 
Q 34.03125 6 38.125 10.046875 
Q 42.234375 14.109375 42.234375 20.359375 
Q 42.234375 26.703125 38.015625 30.859375 
Q 33.796875 35.015625 27.4375 35.015625 
Q 21.234375 35.015625 17.15625 30.90625 
Q 13.09375 26.8125 13.09375 20.65625 
z
" id="ArialMT-56"/>
       </defs>
       <use xlink:href="#ArialMT-48"/>
       <use x="55.615234" xlink:href="#ArialMT-46"/>
       <use x="83.398438" xlink:href="#ArialMT-56"/>
      </g>
     </g>
    </g>
    <g id="ytick_5">
     <g id="line2d_13">
      <path clip-path="url(#p167c0b4de2)" d="M 180 129.780305 
L 1296 129.780305 
" style="fill:none;stroke:#ffffff;stroke-linecap:round;"/>
     </g>
     <g id="text_14">
      <!-- 1.0 -->
      <g style="fill:#262626;" transform="translate(124.63 141.590696)scale(0.33 -0.33)">
       <use xlink:href="#ArialMT-49"/>
       <use x="55.615234" xlink:href="#ArialMT-46"/>
       <use x="83.398438" xlink:href="#ArialMT-48"/>
      </g>
     </g>
    </g>
    <g id="text_15">
     <!-- Validation Accuracy -->
     <g style="fill:#262626;" transform="translate(113.053125 592.07625)rotate(-90)scale(0.36 -0.36)">
      <defs>
       <path d="M 28.171875 0 
L 0.4375 71.578125 
L 10.6875 71.578125 
L 29.296875 19.578125 
Q 31.546875 13.328125 33.0625 7.859375 
Q 34.71875 13.71875 36.921875 19.578125 
L 56.25 71.578125 
L 65.921875 71.578125 
L 37.890625 0 
z
" id="ArialMT-86"/>
       <path d="M 40.4375 6.390625 
Q 35.546875 2.25 31.03125 0.53125 
Q 26.515625 -1.171875 21.34375 -1.171875 
Q 12.796875 -1.171875 8.203125 3 
Q 3.609375 7.171875 3.609375 13.671875 
Q 3.609375 17.484375 5.34375 20.625 
Q 7.078125 23.78125 9.890625 25.6875 
Q 12.703125 27.59375 16.21875 28.5625 
Q 18.796875 29.25 24.03125 29.890625 
Q 34.671875 31.15625 39.703125 32.90625 
Q 39.75 34.71875 39.75 35.203125 
Q 39.75 40.578125 37.25 42.78125 
Q 33.890625 45.75 27.25 45.75 
Q 21.046875 45.75 18.09375 43.578125 
Q 15.140625 41.40625 13.71875 35.890625 
L 5.125 37.0625 
Q 6.296875 42.578125 8.984375 45.96875 
Q 11.671875 49.359375 16.75 51.1875 
Q 21.828125 53.03125 28.515625 53.03125 
Q 35.15625 53.03125 39.296875 51.46875 
Q 43.453125 49.90625 45.40625 47.53125 
Q 47.359375 45.171875 48.140625 41.546875 
Q 48.578125 39.3125 48.578125 33.453125 
L 48.578125 21.734375 
Q 48.578125 9.46875 49.140625 6.21875 
Q 49.703125 2.984375 51.375 0 
L 42.1875 0 
Q 40.828125 2.734375 40.4375 6.390625 
z
M 39.703125 26.03125 
Q 34.90625 24.078125 25.34375 22.703125 
Q 19.921875 21.921875 17.671875 20.9375 
Q 15.4375 19.96875 14.203125 18.09375 
Q 12.984375 16.21875 12.984375 13.921875 
Q 12.984375 10.40625 15.640625 8.0625 
Q 18.3125 5.71875 23.4375 5.71875 
Q 28.515625 5.71875 32.46875 7.9375 
Q 36.421875 10.15625 38.28125 14.015625 
Q 39.703125 17 39.703125 22.796875 
z
" id="ArialMT-97"/>
       <path d="M 6.390625 0 
L 6.390625 71.578125 
L 15.1875 71.578125 
L 15.1875 0 
z
" id="ArialMT-108"/>
       <path d="M 6.640625 61.46875 
L 6.640625 71.578125 
L 15.4375 71.578125 
L 15.4375 61.46875 
z
M 6.640625 0 
L 6.640625 51.859375 
L 15.4375 51.859375 
L 15.4375 0 
z
" id="ArialMT-105"/>
       <path d="M 40.234375 0 
L 40.234375 6.546875 
Q 35.296875 -1.171875 25.734375 -1.171875 
Q 19.53125 -1.171875 14.328125 2.25 
Q 9.125 5.671875 6.265625 11.796875 
Q 3.421875 17.921875 3.421875 25.875 
Q 3.421875 33.640625 6 39.96875 
Q 8.59375 46.296875 13.765625 49.65625 
Q 18.953125 53.03125 25.34375 53.03125 
Q 30.03125 53.03125 33.6875 51.046875 
Q 37.359375 49.078125 39.65625 45.90625 
L 39.65625 71.578125 
L 48.390625 71.578125 
L 48.390625 0 
z
M 12.453125 25.875 
Q 12.453125 15.921875 16.640625 10.984375 
Q 20.84375 6.0625 26.5625 6.0625 
Q 32.328125 6.0625 36.34375 10.765625 
Q 40.375 15.484375 40.375 25.140625 
Q 40.375 35.796875 36.265625 40.765625 
Q 32.171875 45.75 26.171875 45.75 
Q 20.3125 45.75 16.375 40.96875 
Q 12.453125 36.1875 12.453125 25.875 
z
" id="ArialMT-100"/>
       <path d="M 25.78125 7.859375 
L 27.046875 0.09375 
Q 23.34375 -0.6875 20.40625 -0.6875 
Q 15.625 -0.6875 12.984375 0.828125 
Q 10.359375 2.34375 9.28125 4.8125 
Q 8.203125 7.28125 8.203125 15.1875 
L 8.203125 45.015625 
L 1.765625 45.015625 
L 1.765625 51.859375 
L 8.203125 51.859375 
L 8.203125 64.703125 
L 16.9375 69.96875 
L 16.9375 51.859375 
L 25.78125 51.859375 
L 25.78125 45.015625 
L 16.9375 45.015625 
L 16.9375 14.703125 
Q 16.9375 10.9375 17.40625 9.859375 
Q 17.875 8.796875 18.921875 8.15625 
Q 19.96875 7.515625 21.921875 7.515625 
Q 23.390625 7.515625 25.78125 7.859375 
z
" id="ArialMT-116"/>
       <path d="M 6.59375 0 
L 6.59375 51.859375 
L 14.5 51.859375 
L 14.5 44.484375 
Q 20.21875 53.03125 31 53.03125 
Q 35.6875 53.03125 39.625 51.34375 
Q 43.5625 49.65625 45.515625 46.921875 
Q 47.46875 44.1875 48.25 40.4375 
Q 48.734375 37.984375 48.734375 31.890625 
L 48.734375 0 
L 39.9375 0 
L 39.9375 31.546875 
Q 39.9375 36.921875 38.90625 39.578125 
Q 37.890625 42.234375 35.28125 43.8125 
Q 32.671875 45.40625 29.15625 45.40625 
Q 23.53125 45.40625 19.453125 41.84375 
Q 15.375 38.28125 15.375 28.328125 
L 15.375 0 
z
" id="ArialMT-110"/>
       <path id="ArialMT-32"/>
       <path d="M -0.140625 0 
L 27.34375 71.578125 
L 37.546875 71.578125 
L 66.84375 0 
L 56.0625 0 
L 47.703125 21.6875 
L 17.78125 21.6875 
L 9.90625 0 
z
M 20.515625 29.390625 
L 44.78125 29.390625 
L 37.3125 49.21875 
Q 33.890625 58.25 32.234375 64.0625 
Q 30.859375 57.171875 28.375 50.390625 
z
" id="ArialMT-65"/>
       <path d="M 40.578125 0 
L 40.578125 7.625 
Q 34.515625 -1.171875 24.125 -1.171875 
Q 19.53125 -1.171875 15.546875 0.578125 
Q 11.578125 2.34375 9.640625 5 
Q 7.71875 7.671875 6.9375 11.53125 
Q 6.390625 14.109375 6.390625 19.734375 
L 6.390625 51.859375 
L 15.1875 51.859375 
L 15.1875 23.09375 
Q 15.1875 16.21875 15.71875 13.8125 
Q 16.546875 10.359375 19.234375 8.375 
Q 21.921875 6.390625 25.875 6.390625 
Q 29.828125 6.390625 33.296875 8.421875 
Q 36.765625 10.453125 38.203125 13.9375 
Q 39.65625 17.4375 39.65625 24.078125 
L 39.65625 51.859375 
L 48.4375 51.859375 
L 48.4375 0 
z
" id="ArialMT-117"/>
       <path d="M 6.5 0 
L 6.5 51.859375 
L 14.40625 51.859375 
L 14.40625 44 
Q 17.4375 49.515625 20 51.265625 
Q 22.5625 53.03125 25.640625 53.03125 
Q 30.078125 53.03125 34.671875 50.203125 
L 31.640625 42.046875 
Q 28.421875 43.953125 25.203125 43.953125 
Q 22.3125 43.953125 20.015625 42.21875 
Q 17.71875 40.484375 16.75 37.40625 
Q 15.28125 32.71875 15.28125 27.15625 
L 15.28125 0 
z
" id="ArialMT-114"/>
       <path d="M 6.203125 -19.96875 
L 5.21875 -11.71875 
Q 8.109375 -12.5 10.25 -12.5 
Q 13.1875 -12.5 14.9375 -11.515625 
Q 16.703125 -10.546875 17.828125 -8.796875 
Q 18.65625 -7.46875 20.515625 -2.25 
Q 20.75 -1.515625 21.296875 -0.09375 
L 1.609375 51.859375 
L 11.078125 51.859375 
L 21.875 21.828125 
Q 23.96875 16.109375 25.640625 9.8125 
Q 27.15625 15.875 29.25 21.625 
L 40.328125 51.859375 
L 49.125 51.859375 
L 29.390625 -0.875 
Q 26.21875 -9.421875 24.46875 -12.640625 
Q 22.125 -17 19.09375 -19.015625 
Q 16.0625 -21.046875 11.859375 -21.046875 
Q 9.328125 -21.046875 6.203125 -19.96875 
z
" id="ArialMT-121"/>
      </defs>
      <use xlink:href="#ArialMT-86"/>
      <use x="59.324219" xlink:href="#ArialMT-97"/>
      <use x="114.939453" xlink:href="#ArialMT-108"/>
      <use x="137.15625" xlink:href="#ArialMT-105"/>
      <use x="159.373047" xlink:href="#ArialMT-100"/>
      <use x="214.988281" xlink:href="#ArialMT-97"/>
      <use x="270.603516" xlink:href="#ArialMT-116"/>
      <use x="298.386719" xlink:href="#ArialMT-105"/>
      <use x="320.603516" xlink:href="#ArialMT-111"/>
      <use x="376.21875" xlink:href="#ArialMT-110"/>
      <use x="431.833984" xlink:href="#ArialMT-32"/>
      <use x="454.117188" xlink:href="#ArialMT-65"/>
      <use x="520.816406" xlink:href="#ArialMT-99"/>
      <use x="570.816406" xlink:href="#ArialMT-99"/>
      <use x="620.816406" xlink:href="#ArialMT-117"/>
      <use x="676.431641" xlink:href="#ArialMT-114"/>
      <use x="709.732422" xlink:href="#ArialMT-97"/>
      <use x="765.347656" xlink:href="#ArialMT-99"/>
      <use x="815.347656" xlink:href="#ArialMT-121"/>
     </g>
    </g>
   </g>
   <g id="PolyCollection_1">
    <defs>
     <path d="M 230.727273 -510.322309 
L 230.727273 -431.46812 
L 245.016645 -491.351321 
L 259.306018 -548.195764 
L 273.595391 -585.602798 
L 287.884763 -606.915899 
L 302.174136 -628.912507 
L 316.463508 -645.189942 
L 330.752881 -660.141715 
L 345.042254 -672.779527 
L 359.331626 -682.169384 
L 373.620999 -686.133784 
L 387.910371 -689.113376 
L 402.199744 -699.699609 
L 416.489117 -698.181234 
L 430.778489 -700.406019 
L 445.067862 -706.855399 
L 459.357234 -705.954387 
L 473.646607 -705.799074 
L 487.93598 -707.319863 
L 502.225352 -704.473475 
L 516.514725 -711.789145 
L 530.804097 -707.927746 
L 545.09347 -711.569763 
L 559.382843 -710.075497 
L 573.672215 -712.420403 
L 587.961588 -713.272678 
L 602.25096 -711.008799 
L 616.540333 -712.921921 
L 630.829706 -712.083985 
L 645.119078 -710.534438 
L 659.408451 -711.267905 
L 673.697823 -713.554547 
L 687.987196 -710.498319 
L 702.276569 -709.729984 
L 716.565941 -712.731575 
L 730.855314 -714.729556 
L 745.144686 -712.760082 
L 759.434059 -714.982487 
L 773.723431 -705.642508 
L 788.012804 -707.184204 
L 802.302177 -712.064048 
L 816.591549 -706.160988 
L 830.880922 -715.652307 
L 845.170294 -709.733167 
L 859.459667 -708.001474 
L 873.74904 -714.44063 
L 888.038412 -710.562011 
L 902.327785 -717.564206 
L 902.327785 -719.040326 
L 902.327785 -719.040326 
L 888.038412 -724.215965 
L 873.74904 -724.773357 
L 859.459667 -714.903674 
L 845.170294 -719.982534 
L 830.880922 -720.325991 
L 816.591549 -720.751479 
L 802.302177 -722.221034 
L 788.012804 -723.053396 
L 773.723431 -719.69808 
L 759.434059 -722.777679 
L 745.144686 -722.905084 
L 730.855314 -723.301482 
L 716.565941 -722.020302 
L 702.276569 -723.150239 
L 687.987196 -720.579036 
L 673.697823 -723.571905 
L 659.408451 -723.369552 
L 645.119078 -722.517307 
L 630.829706 -723.476809 
L 616.540333 -722.452492 
L 602.25096 -723.881001 
L 587.961588 -722.176293 
L 573.672215 -723.475895 
L 559.382843 -720.701377 
L 545.09347 -719.833363 
L 530.804097 -720.344089 
L 516.514725 -720.709951 
L 502.225352 -720.61488 
L 487.93598 -718.91663 
L 473.646607 -720.211264 
L 459.357234 -718.82084 
L 445.067862 -717.676285 
L 430.778489 -715.010116 
L 416.489117 -715.477896 
L 402.199744 -712.028554 
L 387.910371 -709.60252 
L 373.620999 -704.492936 
L 359.331626 -704.351863 
L 345.042254 -696.067298 
L 330.752881 -689.534626 
L 316.463508 -685.559469 
L 302.174136 -670.628326 
L 287.884763 -658.354661 
L 273.595391 -636.03838 
L 259.306018 -609.010341 
L 245.016645 -571.167911 
L 230.727273 -510.322309 
z
" id="m56170c69ef" style="stroke:#f7b89c;stroke-opacity:0.2;"/>
    </defs>
    <g clip-path="url(#p167c0b4de2)">
     <use style="fill:#f7b89c;fill-opacity:0.2;stroke:#f7b89c;stroke-opacity:0.2;" x="0" xlink:href="#m56170c69ef" y="864"/>
    </g>
   </g>
   <g id="PolyCollection_2">
    <defs>
     <path d="M 230.727273 -246.571053 
L 230.727273 -185.479404 
L 245.016645 -136.037348 
L 259.306018 -125.28 
L 273.595391 -127.302223 
L 287.884763 -132.614659 
L 302.174136 -144.04596 
L 316.463508 -159.821867 
L 330.752881 -183.563333 
L 345.042254 -230.971698 
L 359.331626 -271.724634 
L 373.620999 -327.374845 
L 387.910371 -382.846499 
L 402.199744 -437.641113 
L 416.489117 -492.733497 
L 430.778489 -541.803794 
L 445.067862 -567.113125 
L 459.357234 -591.112396 
L 473.646607 -611.079317 
L 487.93598 -621.484753 
L 502.225352 -633.384184 
L 516.514725 -629.863649 
L 530.804097 -647.326751 
L 545.09347 -657.162936 
L 559.382843 -666.091686 
L 573.672215 -655.984524 
L 587.961588 -669.798878 
L 602.25096 -667.88952 
L 616.540333 -668.332733 
L 630.829706 -676.142617 
L 645.119078 -674.573906 
L 659.408451 -680.632841 
L 673.697823 -674.685052 
L 687.987196 -674.103785 
L 702.276569 -679.078792 
L 716.565941 -680.174809 
L 730.855314 -674.446119 
L 745.144686 -679.207317 
L 759.434059 -680.18654 
L 773.723431 -675.541184 
L 788.012804 -683.304044 
L 802.302177 -678.132065 
L 816.591549 -673.799027 
L 830.880922 -683.640556 
L 845.170294 -678.818836 
L 859.459667 -688.373544 
L 873.74904 -685.071079 
L 888.038412 -678.707863 
L 902.327785 -683.048577 
L 916.617157 -683.072405 
L 930.90653 -684.657555 
L 945.195903 -669.570513 
L 959.485275 -684.519327 
L 973.774648 -689.458999 
L 988.06402 -684.842701 
L 1002.353393 -685.557933 
L 1016.642766 -694.070239 
L 1030.932138 -681.442363 
L 1045.221511 -689.641718 
L 1059.510883 -683.003196 
L 1073.800256 -677.047447 
L 1088.089629 -681.946725 
L 1102.379001 -674.754433 
L 1116.668374 -655.136789 
L 1130.957746 -688.724811 
L 1145.247119 -654.624667 
L 1159.536492 -669.410369 
L 1159.536492 -709.265265 
L 1159.536492 -709.265265 
L 1145.247119 -708.133518 
L 1130.957746 -696.474342 
L 1116.668374 -708.926123 
L 1102.379001 -708.2702 
L 1088.089629 -705.252953 
L 1073.800256 -700.236475 
L 1059.510883 -699.673526 
L 1045.221511 -699.602016 
L 1030.932138 -702.452063 
L 1016.642766 -707.776962 
L 1002.353393 -702.859475 
L 988.06402 -702.18302 
L 973.774648 -702.655075 
L 959.485275 -700.18692 
L 945.195903 -702.262645 
L 930.90653 -698.245312 
L 916.617157 -700.661453 
L 902.327785 -700.985019 
L 888.038412 -698.956606 
L 873.74904 -701.661098 
L 859.459667 -703.901702 
L 845.170294 -704.930637 
L 830.880922 -699.992931 
L 816.591549 -703.269186 
L 802.302177 -698.395801 
L 788.012804 -700.459923 
L 773.723431 -699.425329 
L 759.434059 -700.912095 
L 745.144686 -701.388078 
L 730.855314 -696.960411 
L 716.565941 -698.536792 
L 702.276569 -698.175135 
L 687.987196 -702.10638 
L 673.697823 -697.710568 
L 659.408451 -695.241998 
L 645.119078 -695.542831 
L 630.829706 -694.652571 
L 616.540333 -690.633113 
L 602.25096 -687.423154 
L 587.961588 -689.271355 
L 573.672215 -688.351223 
L 559.382843 -685.289467 
L 545.09347 -680.040423 
L 530.804097 -680.691474 
L 516.514725 -679.418991 
L 502.225352 -675.585332 
L 487.93598 -665.82664 
L 473.646607 -662.628342 
L 459.357234 -645.628588 
L 445.067862 -639.149919 
L 430.778489 -607.74803 
L 416.489117 -589.982581 
L 402.199744 -555.659113 
L 387.910371 -506.546926 
L 373.620999 -448.178633 
L 359.331626 -383.552334 
L 345.042254 -333.149808 
L 330.752881 -288.585093 
L 316.463508 -252.310079 
L 302.174136 -217.602558 
L 287.884763 -200.730435 
L 273.595391 -182.001486 
L 259.306018 -184.058502 
L 245.016645 -197.098992 
L 230.727273 -246.571053 
z
" id="m3e24273b6d" style="stroke:#f7b89c;stroke-opacity:0.2;"/>
    </defs>
    <g clip-path="url(#p167c0b4de2)">
     <use style="fill:#f7b89c;fill-opacity:0.2;stroke:#f7b89c;stroke-opacity:0.2;" x="0" xlink:href="#m3e24273b6d" y="864"/>
    </g>
   </g>
   <g id="PolyCollection_3">
    <defs>
     <path d="M 230.727273 -603.04919 
L 230.727273 -582.060227 
L 245.016645 -654.009649 
L 259.306018 -681.003848 
L 273.595391 -698.658225 
L 287.884763 -704.376318 
L 302.174136 -708.712368 
L 316.463508 -714.170475 
L 330.752881 -715.100564 
L 345.042254 -717.165102 
L 359.331626 -717.751474 
L 373.620999 -718.223279 
L 387.910371 -719.329192 
L 402.199744 -719.30461 
L 416.489117 -720.166615 
L 430.778489 -720.579571 
L 445.067862 -722.592308 
L 459.357234 -721.769487 
L 473.646607 -721.386052 
L 487.93598 -722.497454 
L 502.225352 -723.372686 
L 516.514725 -721.61153 
L 530.804097 -723.40721 
L 545.09347 -723.078315 
L 559.382843 -722.813048 
L 573.672215 -723.510631 
L 587.961588 -724.854244 
L 602.25096 -722.556794 
L 616.540333 -724.171792 
L 630.829706 -725.266594 
L 645.119078 -723.494784 
L 659.408451 -724.562705 
L 673.697823 -724.503673 
L 687.987196 -724.731435 
L 702.276569 -721.528494 
L 716.565941 -725.67343 
L 730.855314 -723.145637 
L 745.144686 -723.237432 
L 759.434059 -725.446987 
L 773.723431 -725.574566 
L 788.012804 -725.626127 
L 802.302177 -724.268568 
L 816.591549 -724.904115 
L 830.880922 -726.283357 
L 830.880922 -727.021444 
L 830.880922 -727.021444 
L 816.591549 -727.530868 
L 802.302177 -730.08 
L 788.012804 -728.722435 
L 773.723431 -728.326689 
L 759.434059 -729.553923 
L 745.144686 -728.501727 
L 730.855314 -727.929299 
L 716.565941 -729.979853 
L 702.276569 -727.675803 
L 687.987196 -729.551902 
L 673.697823 -728.931594 
L 659.408451 -729.211793 
L 645.119078 -728.635774 
L 630.829706 -728.162463 
L 616.540333 -728.516243 
L 602.25096 -728.932755 
L 587.961588 -728.367055 
L 573.672215 -728.007722 
L 559.382843 -728.584871 
L 545.09347 -727.654347 
L 530.804097 -728.645076 
L 516.514725 -726.857164 
L 502.225352 -727.65323 
L 487.93598 -727.328132 
L 473.646607 -726.873879 
L 459.357234 -726.281705 
L 445.067862 -727.094105 
L 430.778489 -726.897539 
L 416.489117 -725.657868 
L 402.199744 -725.49351 
L 387.910371 -725.50371 
L 373.620999 -723.774067 
L 359.331626 -723.062938 
L 345.042254 -723.162226 
L 330.752881 -722.008475 
L 316.463508 -720.416146 
L 302.174136 -717.03703 
L 287.884763 -713.718807 
L 273.595391 -707.433614 
L 259.306018 -694.957976 
L 245.016645 -667.937339 
L 230.727273 -603.04919 
z
" id="m9b8910276d" style="stroke:#aac7fd;stroke-opacity:0.2;"/>
    </defs>
    <g clip-path="url(#p167c0b4de2)">
     <use style="fill:#aac7fd;fill-opacity:0.2;stroke:#aac7fd;stroke-opacity:0.2;" x="0" xlink:href="#m9b8910276d" y="864"/>
    </g>
   </g>
   <g id="PolyCollection_4">
    <defs>
     <path d="M 230.727273 -226.550257 
L 230.727273 -169.977402 
L 245.016645 -221.337576 
L 259.306018 -324.299625 
L 273.595391 -485.760495 
L 287.884763 -598.470891 
L 302.174136 -647.162395 
L 316.463508 -678.84538 
L 330.752881 -687.720871 
L 345.042254 -693.281217 
L 359.331626 -700.037173 
L 373.620999 -702.579266 
L 387.910371 -705.537644 
L 402.199744 -707.533008 
L 416.489117 -709.731053 
L 430.778489 -713.017142 
L 445.067862 -712.067134 
L 459.357234 -713.26772 
L 473.646607 -712.286261 
L 487.93598 -714.080697 
L 502.225352 -715.310901 
L 516.514725 -715.903314 
L 530.804097 -716.838025 
L 545.09347 -716.899058 
L 559.382843 -718.890446 
L 573.672215 -717.936613 
L 587.961588 -718.252304 
L 602.25096 -716.902511 
L 616.540333 -719.196121 
L 630.829706 -719.178222 
L 645.119078 -719.925739 
L 659.408451 -720.690717 
L 673.697823 -719.375417 
L 687.987196 -720.319058 
L 702.276569 -718.950493 
L 716.565941 -720.30688 
L 730.855314 -720.942275 
L 745.144686 -721.062154 
L 759.434059 -719.782372 
L 773.723431 -719.755859 
L 788.012804 -721.850699 
L 802.302177 -720.558208 
L 816.591549 -723.403621 
L 830.880922 -723.185022 
L 845.170294 -721.550599 
L 859.459667 -721.115813 
L 873.74904 -723.987588 
L 888.038412 -724.283071 
L 902.327785 -723.924054 
L 916.617157 -725.364749 
L 930.90653 -722.17614 
L 945.195903 -720.184656 
L 959.485275 -722.684615 
L 973.774648 -722.898595 
L 988.06402 -722.626008 
L 1002.353393 -724.641019 
L 1016.642766 -725.815535 
L 1016.642766 -726.184578 
L 1016.642766 -726.184578 
L 1002.353393 -726.750203 
L 988.06402 -726.895147 
L 973.774648 -726.62254 
L 959.485275 -726.967016 
L 945.195903 -728.162247 
L 930.90653 -727.605948 
L 916.617157 -728.592416 
L 902.327785 -728.336965 
L 888.038412 -727.369104 
L 873.74904 -728.348003 
L 859.459667 -727.864821 
L 845.170294 -727.753092 
L 830.880922 -727.452387 
L 816.591549 -726.609311 
L 802.302177 -726.054212 
L 788.012804 -727.07609 
L 773.723431 -726.213594 
L 759.434059 -726.503106 
L 745.144686 -725.980051 
L 730.855314 -726.252147 
L 716.565941 -726.255194 
L 702.276569 -726.584061 
L 687.987196 -725.447437 
L 673.697823 -726.772137 
L 659.408451 -726.444688 
L 645.119078 -725.904957 
L 630.829706 -724.434474 
L 616.540333 -724.93846 
L 602.25096 -724.075065 
L 587.961588 -724.8308 
L 573.672215 -724.408653 
L 559.382843 -724.776923 
L 545.09347 -722.541058 
L 530.804097 -722.723868 
L 516.514725 -722.78878 
L 502.225352 -721.919927 
L 487.93598 -722.036774 
L 473.646607 -720.247619 
L 459.357234 -721.614627 
L 445.067862 -718.814108 
L 430.778489 -719.969033 
L 416.489117 -717.966711 
L 402.199744 -716.041881 
L 387.910371 -715.636589 
L 373.620999 -712.036648 
L 359.331626 -708.925019 
L 345.042254 -706.095732 
L 330.752881 -701.618533 
L 316.463508 -694.576615 
L 302.174136 -672.836234 
L 287.884763 -634.616916 
L 273.595391 -547.776863 
L 259.306018 -409.346693 
L 245.016645 -272.173235 
L 230.727273 -226.550257 
z
" id="mc380761368" style="stroke:#aac7fd;stroke-opacity:0.2;"/>
    </defs>
    <g clip-path="url(#p167c0b4de2)">
     <use style="fill:#aac7fd;fill-opacity:0.2;stroke:#aac7fd;stroke-opacity:0.2;" x="0" xlink:href="#mc380761368" y="864"/>
    </g>
   </g>
   <g id="line2d_14">
    <path clip-path="url(#p167c0b4de2)" d="M 230.727273 393.104785 
L 245.016645 332.740384 
L 259.306018 285.396948 
L 273.595391 253.179411 
L 287.884763 231.36472 
L 302.174136 214.229583 
L 316.463508 198.625295 
L 330.752881 189.16183 
L 345.042254 179.576588 
L 359.331626 170.739377 
L 373.620999 168.68664 
L 387.910371 164.642052 
L 402.199744 158.135918 
L 416.489117 157.170435 
L 430.778489 156.291933 
L 445.067862 151.734158 
L 459.357234 151.612386 
L 473.646607 150.994831 
L 487.93598 150.881754 
L 502.225352 151.455822 
L 516.514725 147.750452 
L 530.804097 149.864083 
L 545.09347 148.298437 
L 559.382843 148.611563 
L 573.672215 146.051851 
L 587.961588 146.275514 
L 602.25096 146.5551 
L 616.540333 146.312793 
L 630.829706 146.219603 
L 645.119078 147.474128 
L 659.408451 146.681272 
L 673.697823 145.436774 
L 687.987196 148.461323 
L 702.276569 147.559889 
L 716.565941 146.624061 
L 730.855314 144.984481 
L 745.144686 146.167417 
L 759.434059 145.119917 
L 773.723431 151.329706 
L 788.012804 148.8812 
L 802.302177 146.857459 
L 816.591549 150.543767 
L 830.880922 146.010851 
L 845.170294 149.14215 
L 859.459667 152.547426 
L 873.74904 144.393006 
L 888.038412 146.611012 
L 902.327785 145.697734 
L 916.617157 144.132073 
L 930.90653 150.133725 
L 945.195903 154.83065 
L 959.485275 153.525962 
L 973.774648 142.827384 
L 988.06402 151.438413 
L 1002.353393 141.000789 
L 1016.642766 161.876077 
" style="fill:none;stroke:#f7b89c;stroke-linecap:round;stroke-width:3;"/>
    <defs>
     <path d="M 0 3 
C 0.795609 3 1.55874 2.683901 2.12132 2.12132 
C 2.683901 1.55874 3 0.795609 3 0 
C 3 -0.795609 2.683901 -1.55874 2.12132 -2.12132 
C 1.55874 -2.683901 0.795609 -3 0 -3 
C -0.795609 -3 -1.55874 -2.683901 -2.12132 -2.12132 
C -2.683901 -1.55874 -3 -0.795609 -3 0 
C -3 0.795609 -2.683901 1.55874 -2.12132 2.12132 
C -1.55874 2.683901 -0.795609 3 0 3 
z
" id="ma3a4b2e712" style="stroke:#ffffff;stroke-width:0.75;"/>
    </defs>
    <g clip-path="url(#p167c0b4de2)">
     <use style="fill:#f7b89c;stroke:#ffffff;stroke-width:0.75;" x="230.727273" xlink:href="#ma3a4b2e712" y="393.104785"/>
     <use style="fill:#f7b89c;stroke:#ffffff;stroke-width:0.75;" x="245.016645" xlink:href="#ma3a4b2e712" y="332.740384"/>
     <use style="fill:#f7b89c;stroke:#ffffff;stroke-width:0.75;" x="259.306018" xlink:href="#ma3a4b2e712" y="285.396948"/>
     <use style="fill:#f7b89c;stroke:#ffffff;stroke-width:0.75;" x="273.595391" xlink:href="#ma3a4b2e712" y="253.179411"/>
     <use style="fill:#f7b89c;stroke:#ffffff;stroke-width:0.75;" x="287.884763" xlink:href="#ma3a4b2e712" y="231.36472"/>
     <use style="fill:#f7b89c;stroke:#ffffff;stroke-width:0.75;" x="302.174136" xlink:href="#ma3a4b2e712" y="214.229583"/>
     <use style="fill:#f7b89c;stroke:#ffffff;stroke-width:0.75;" x="316.463508" xlink:href="#ma3a4b2e712" y="198.625295"/>
     <use style="fill:#f7b89c;stroke:#ffffff;stroke-width:0.75;" x="330.752881" xlink:href="#ma3a4b2e712" y="189.16183"/>
     <use style="fill:#f7b89c;stroke:#ffffff;stroke-width:0.75;" x="345.042254" xlink:href="#ma3a4b2e712" y="179.576588"/>
     <use style="fill:#f7b89c;stroke:#ffffff;stroke-width:0.75;" x="359.331626" xlink:href="#ma3a4b2e712" y="170.739377"/>
     <use style="fill:#f7b89c;stroke:#ffffff;stroke-width:0.75;" x="373.620999" xlink:href="#ma3a4b2e712" y="168.68664"/>
     <use style="fill:#f7b89c;stroke:#ffffff;stroke-width:0.75;" x="387.910371" xlink:href="#ma3a4b2e712" y="164.642052"/>
     <use style="fill:#f7b89c;stroke:#ffffff;stroke-width:0.75;" x="402.199744" xlink:href="#ma3a4b2e712" y="158.135918"/>
     <use style="fill:#f7b89c;stroke:#ffffff;stroke-width:0.75;" x="416.489117" xlink:href="#ma3a4b2e712" y="157.170435"/>
     <use style="fill:#f7b89c;stroke:#ffffff;stroke-width:0.75;" x="430.778489" xlink:href="#ma3a4b2e712" y="156.291933"/>
     <use style="fill:#f7b89c;stroke:#ffffff;stroke-width:0.75;" x="445.067862" xlink:href="#ma3a4b2e712" y="151.734158"/>
     <use style="fill:#f7b89c;stroke:#ffffff;stroke-width:0.75;" x="459.357234" xlink:href="#ma3a4b2e712" y="151.612386"/>
     <use style="fill:#f7b89c;stroke:#ffffff;stroke-width:0.75;" x="473.646607" xlink:href="#ma3a4b2e712" y="150.994831"/>
     <use style="fill:#f7b89c;stroke:#ffffff;stroke-width:0.75;" x="487.93598" xlink:href="#ma3a4b2e712" y="150.881754"/>
     <use style="fill:#f7b89c;stroke:#ffffff;stroke-width:0.75;" x="502.225352" xlink:href="#ma3a4b2e712" y="151.455822"/>
     <use style="fill:#f7b89c;stroke:#ffffff;stroke-width:0.75;" x="516.514725" xlink:href="#ma3a4b2e712" y="147.750452"/>
     <use style="fill:#f7b89c;stroke:#ffffff;stroke-width:0.75;" x="530.804097" xlink:href="#ma3a4b2e712" y="149.864083"/>
     <use style="fill:#f7b89c;stroke:#ffffff;stroke-width:0.75;" x="545.09347" xlink:href="#ma3a4b2e712" y="148.298437"/>
     <use style="fill:#f7b89c;stroke:#ffffff;stroke-width:0.75;" x="559.382843" xlink:href="#ma3a4b2e712" y="148.611563"/>
     <use style="fill:#f7b89c;stroke:#ffffff;stroke-width:0.75;" x="573.672215" xlink:href="#ma3a4b2e712" y="146.051851"/>
     <use style="fill:#f7b89c;stroke:#ffffff;stroke-width:0.75;" x="587.961588" xlink:href="#ma3a4b2e712" y="146.275514"/>
     <use style="fill:#f7b89c;stroke:#ffffff;stroke-width:0.75;" x="602.25096" xlink:href="#ma3a4b2e712" y="146.5551"/>
     <use style="fill:#f7b89c;stroke:#ffffff;stroke-width:0.75;" x="616.540333" xlink:href="#ma3a4b2e712" y="146.312793"/>
     <use style="fill:#f7b89c;stroke:#ffffff;stroke-width:0.75;" x="630.829706" xlink:href="#ma3a4b2e712" y="146.219603"/>
     <use style="fill:#f7b89c;stroke:#ffffff;stroke-width:0.75;" x="645.119078" xlink:href="#ma3a4b2e712" y="147.474128"/>
     <use style="fill:#f7b89c;stroke:#ffffff;stroke-width:0.75;" x="659.408451" xlink:href="#ma3a4b2e712" y="146.681272"/>
     <use style="fill:#f7b89c;stroke:#ffffff;stroke-width:0.75;" x="673.697823" xlink:href="#ma3a4b2e712" y="145.436774"/>
     <use style="fill:#f7b89c;stroke:#ffffff;stroke-width:0.75;" x="687.987196" xlink:href="#ma3a4b2e712" y="148.461323"/>
     <use style="fill:#f7b89c;stroke:#ffffff;stroke-width:0.75;" x="702.276569" xlink:href="#ma3a4b2e712" y="147.559889"/>
     <use style="fill:#f7b89c;stroke:#ffffff;stroke-width:0.75;" x="716.565941" xlink:href="#ma3a4b2e712" y="146.624061"/>
     <use style="fill:#f7b89c;stroke:#ffffff;stroke-width:0.75;" x="730.855314" xlink:href="#ma3a4b2e712" y="144.984481"/>
     <use style="fill:#f7b89c;stroke:#ffffff;stroke-width:0.75;" x="745.144686" xlink:href="#ma3a4b2e712" y="146.167417"/>
     <use style="fill:#f7b89c;stroke:#ffffff;stroke-width:0.75;" x="759.434059" xlink:href="#ma3a4b2e712" y="145.119917"/>
     <use style="fill:#f7b89c;stroke:#ffffff;stroke-width:0.75;" x="773.723431" xlink:href="#ma3a4b2e712" y="151.329706"/>
     <use style="fill:#f7b89c;stroke:#ffffff;stroke-width:0.75;" x="788.012804" xlink:href="#ma3a4b2e712" y="148.8812"/>
     <use style="fill:#f7b89c;stroke:#ffffff;stroke-width:0.75;" x="802.302177" xlink:href="#ma3a4b2e712" y="146.857459"/>
     <use style="fill:#f7b89c;stroke:#ffffff;stroke-width:0.75;" x="816.591549" xlink:href="#ma3a4b2e712" y="150.543767"/>
     <use style="fill:#f7b89c;stroke:#ffffff;stroke-width:0.75;" x="830.880922" xlink:href="#ma3a4b2e712" y="146.010851"/>
     <use style="fill:#f7b89c;stroke:#ffffff;stroke-width:0.75;" x="845.170294" xlink:href="#ma3a4b2e712" y="149.14215"/>
     <use style="fill:#f7b89c;stroke:#ffffff;stroke-width:0.75;" x="859.459667" xlink:href="#ma3a4b2e712" y="152.547426"/>
     <use style="fill:#f7b89c;stroke:#ffffff;stroke-width:0.75;" x="873.74904" xlink:href="#ma3a4b2e712" y="144.393006"/>
     <use style="fill:#f7b89c;stroke:#ffffff;stroke-width:0.75;" x="888.038412" xlink:href="#ma3a4b2e712" y="146.611012"/>
     <use style="fill:#f7b89c;stroke:#ffffff;stroke-width:0.75;" x="902.327785" xlink:href="#ma3a4b2e712" y="145.697734"/>
     <use style="fill:#f7b89c;stroke:#ffffff;stroke-width:0.75;" x="916.617157" xlink:href="#ma3a4b2e712" y="144.132073"/>
     <use style="fill:#f7b89c;stroke:#ffffff;stroke-width:0.75;" x="930.90653" xlink:href="#ma3a4b2e712" y="150.133725"/>
     <use style="fill:#f7b89c;stroke:#ffffff;stroke-width:0.75;" x="945.195903" xlink:href="#ma3a4b2e712" y="154.83065"/>
     <use style="fill:#f7b89c;stroke:#ffffff;stroke-width:0.75;" x="959.485275" xlink:href="#ma3a4b2e712" y="153.525962"/>
     <use style="fill:#f7b89c;stroke:#ffffff;stroke-width:0.75;" x="973.774648" xlink:href="#ma3a4b2e712" y="142.827384"/>
     <use style="fill:#f7b89c;stroke:#ffffff;stroke-width:0.75;" x="988.06402" xlink:href="#ma3a4b2e712" y="151.438413"/>
     <use style="fill:#f7b89c;stroke:#ffffff;stroke-width:0.75;" x="1002.353393" xlink:href="#ma3a4b2e712" y="141.000789"/>
     <use style="fill:#f7b89c;stroke:#ffffff;stroke-width:0.75;" x="1016.642766" xlink:href="#ma3a4b2e712" y="161.876077"/>
    </g>
   </g>
   <g id="line2d_15">
    <path clip-path="url(#p167c0b4de2)" d="M 230.727273 647.974772 
L 245.016645 697.43183 
L 259.306018 709.330749 
L 273.595391 709.348145 
L 287.884763 697.327453 
L 302.174136 683.175741 
L 316.463508 657.934027 
L 330.752881 627.925787 
L 345.042254 581.939247 
L 359.331626 536.361516 
L 373.620999 476.223261 
L 387.910371 419.303287 
L 402.199744 367.349887 
L 416.489117 322.641961 
L 430.778489 289.224088 
L 445.067862 260.868478 
L 459.357234 245.629508 
L 473.646607 227.14617 
L 487.93598 220.344304 
L 502.225352 209.515242 
L 516.514725 209.35868 
L 530.804097 199.990888 
L 545.09347 195.39832 
L 559.382843 188.309424 
L 573.672215 191.832127 
L 587.961588 184.464884 
L 602.25096 186.343663 
L 616.540333 184.517077 
L 630.829706 178.602406 
L 645.119078 178.941631 
L 659.408451 176.062581 
L 673.697823 177.80219 
L 687.987196 175.894918 
L 702.276569 175.373037 
L 716.565941 174.644199 
L 730.855314 178.296735 
L 745.144686 173.702302 
L 759.434059 173.450683 
L 773.723431 176.516743 
L 788.012804 172.118017 
L 802.302177 175.736067 
L 816.591549 175.465894 
L 830.880922 172.183257 
L 845.170294 172.125263 
L 859.459667 167.862377 
L 873.74904 170.633912 
L 888.038412 175.167766 
L 902.327785 171.983202 
L 916.617157 172.133071 
L 930.90653 172.548567 
L 945.195903 178.083421 
L 959.485275 171.646877 
L 973.774648 167.942963 
L 988.06402 170.48714 
L 1002.353393 169.791296 
L 1016.642766 163.0764 
L 1030.932138 172.052787 
L 1045.221511 169.378133 
L 1059.510883 172.661639 
L 1073.800256 175.358039 
L 1088.089629 170.400161 
L 1102.379001 172.487683 
L 1116.668374 181.968544 
L 1130.957746 171.400423 
L 1145.247119 182.620907 
L 1159.536492 174.662183 
L 1173.825864 181.185723 
L 1188.115237 163.441719 
L 1202.404609 200.234415 
L 1216.693982 172.835608 
L 1230.983355 161.615124 
L 1245.272727 163.180765 
" style="fill:none;stroke:#f7b89c;stroke-dasharray:12,4.5;stroke-dashoffset:0;stroke-width:3;"/>
    <defs>
     <path d="M -1.5 3 
L 0 1.5 
L 1.5 3 
L 3 1.5 
L 1.5 0 
L 3 -1.5 
L 1.5 -3 
L 0 -1.5 
L -1.5 -3 
L -3 -1.5 
L -1.5 0 
L -3 1.5 
z
" id="m82ff46227c" style="stroke:#ffffff;stroke-linejoin:miter;stroke-width:0.75;"/>
    </defs>
    <g clip-path="url(#p167c0b4de2)">
     <use style="fill:#f7b89c;stroke:#ffffff;stroke-linejoin:miter;stroke-width:0.75;" x="230.727273" xlink:href="#m82ff46227c" y="647.974772"/>
     <use style="fill:#f7b89c;stroke:#ffffff;stroke-linejoin:miter;stroke-width:0.75;" x="245.016645" xlink:href="#m82ff46227c" y="697.43183"/>
     <use style="fill:#f7b89c;stroke:#ffffff;stroke-linejoin:miter;stroke-width:0.75;" x="259.306018" xlink:href="#m82ff46227c" y="709.330749"/>
     <use style="fill:#f7b89c;stroke:#ffffff;stroke-linejoin:miter;stroke-width:0.75;" x="273.595391" xlink:href="#m82ff46227c" y="709.348145"/>
     <use style="fill:#f7b89c;stroke:#ffffff;stroke-linejoin:miter;stroke-width:0.75;" x="287.884763" xlink:href="#m82ff46227c" y="697.327453"/>
     <use style="fill:#f7b89c;stroke:#ffffff;stroke-linejoin:miter;stroke-width:0.75;" x="302.174136" xlink:href="#m82ff46227c" y="683.175741"/>
     <use style="fill:#f7b89c;stroke:#ffffff;stroke-linejoin:miter;stroke-width:0.75;" x="316.463508" xlink:href="#m82ff46227c" y="657.934027"/>
     <use style="fill:#f7b89c;stroke:#ffffff;stroke-linejoin:miter;stroke-width:0.75;" x="330.752881" xlink:href="#m82ff46227c" y="627.925787"/>
     <use style="fill:#f7b89c;stroke:#ffffff;stroke-linejoin:miter;stroke-width:0.75;" x="345.042254" xlink:href="#m82ff46227c" y="581.939247"/>
     <use style="fill:#f7b89c;stroke:#ffffff;stroke-linejoin:miter;stroke-width:0.75;" x="359.331626" xlink:href="#m82ff46227c" y="536.361516"/>
     <use style="fill:#f7b89c;stroke:#ffffff;stroke-linejoin:miter;stroke-width:0.75;" x="373.620999" xlink:href="#m82ff46227c" y="476.223261"/>
     <use style="fill:#f7b89c;stroke:#ffffff;stroke-linejoin:miter;stroke-width:0.75;" x="387.910371" xlink:href="#m82ff46227c" y="419.303287"/>
     <use style="fill:#f7b89c;stroke:#ffffff;stroke-linejoin:miter;stroke-width:0.75;" x="402.199744" xlink:href="#m82ff46227c" y="367.349887"/>
     <use style="fill:#f7b89c;stroke:#ffffff;stroke-linejoin:miter;stroke-width:0.75;" x="416.489117" xlink:href="#m82ff46227c" y="322.641961"/>
     <use style="fill:#f7b89c;stroke:#ffffff;stroke-linejoin:miter;stroke-width:0.75;" x="430.778489" xlink:href="#m82ff46227c" y="289.224088"/>
     <use style="fill:#f7b89c;stroke:#ffffff;stroke-linejoin:miter;stroke-width:0.75;" x="445.067862" xlink:href="#m82ff46227c" y="260.868478"/>
     <use style="fill:#f7b89c;stroke:#ffffff;stroke-linejoin:miter;stroke-width:0.75;" x="459.357234" xlink:href="#m82ff46227c" y="245.629508"/>
     <use style="fill:#f7b89c;stroke:#ffffff;stroke-linejoin:miter;stroke-width:0.75;" x="473.646607" xlink:href="#m82ff46227c" y="227.14617"/>
     <use style="fill:#f7b89c;stroke:#ffffff;stroke-linejoin:miter;stroke-width:0.75;" x="487.93598" xlink:href="#m82ff46227c" y="220.344304"/>
     <use style="fill:#f7b89c;stroke:#ffffff;stroke-linejoin:miter;stroke-width:0.75;" x="502.225352" xlink:href="#m82ff46227c" y="209.515242"/>
     <use style="fill:#f7b89c;stroke:#ffffff;stroke-linejoin:miter;stroke-width:0.75;" x="516.514725" xlink:href="#m82ff46227c" y="209.35868"/>
     <use style="fill:#f7b89c;stroke:#ffffff;stroke-linejoin:miter;stroke-width:0.75;" x="530.804097" xlink:href="#m82ff46227c" y="199.990888"/>
     <use style="fill:#f7b89c;stroke:#ffffff;stroke-linejoin:miter;stroke-width:0.75;" x="545.09347" xlink:href="#m82ff46227c" y="195.39832"/>
     <use style="fill:#f7b89c;stroke:#ffffff;stroke-linejoin:miter;stroke-width:0.75;" x="559.382843" xlink:href="#m82ff46227c" y="188.309424"/>
     <use style="fill:#f7b89c;stroke:#ffffff;stroke-linejoin:miter;stroke-width:0.75;" x="573.672215" xlink:href="#m82ff46227c" y="191.832127"/>
     <use style="fill:#f7b89c;stroke:#ffffff;stroke-linejoin:miter;stroke-width:0.75;" x="587.961588" xlink:href="#m82ff46227c" y="184.464884"/>
     <use style="fill:#f7b89c;stroke:#ffffff;stroke-linejoin:miter;stroke-width:0.75;" x="602.25096" xlink:href="#m82ff46227c" y="186.343663"/>
     <use style="fill:#f7b89c;stroke:#ffffff;stroke-linejoin:miter;stroke-width:0.75;" x="616.540333" xlink:href="#m82ff46227c" y="184.517077"/>
     <use style="fill:#f7b89c;stroke:#ffffff;stroke-linejoin:miter;stroke-width:0.75;" x="630.829706" xlink:href="#m82ff46227c" y="178.602406"/>
     <use style="fill:#f7b89c;stroke:#ffffff;stroke-linejoin:miter;stroke-width:0.75;" x="645.119078" xlink:href="#m82ff46227c" y="178.941631"/>
     <use style="fill:#f7b89c;stroke:#ffffff;stroke-linejoin:miter;stroke-width:0.75;" x="659.408451" xlink:href="#m82ff46227c" y="176.062581"/>
     <use style="fill:#f7b89c;stroke:#ffffff;stroke-linejoin:miter;stroke-width:0.75;" x="673.697823" xlink:href="#m82ff46227c" y="177.80219"/>
     <use style="fill:#f7b89c;stroke:#ffffff;stroke-linejoin:miter;stroke-width:0.75;" x="687.987196" xlink:href="#m82ff46227c" y="175.894918"/>
     <use style="fill:#f7b89c;stroke:#ffffff;stroke-linejoin:miter;stroke-width:0.75;" x="702.276569" xlink:href="#m82ff46227c" y="175.373037"/>
     <use style="fill:#f7b89c;stroke:#ffffff;stroke-linejoin:miter;stroke-width:0.75;" x="716.565941" xlink:href="#m82ff46227c" y="174.644199"/>
     <use style="fill:#f7b89c;stroke:#ffffff;stroke-linejoin:miter;stroke-width:0.75;" x="730.855314" xlink:href="#m82ff46227c" y="178.296735"/>
     <use style="fill:#f7b89c;stroke:#ffffff;stroke-linejoin:miter;stroke-width:0.75;" x="745.144686" xlink:href="#m82ff46227c" y="173.702302"/>
     <use style="fill:#f7b89c;stroke:#ffffff;stroke-linejoin:miter;stroke-width:0.75;" x="759.434059" xlink:href="#m82ff46227c" y="173.450683"/>
     <use style="fill:#f7b89c;stroke:#ffffff;stroke-linejoin:miter;stroke-width:0.75;" x="773.723431" xlink:href="#m82ff46227c" y="176.516743"/>
     <use style="fill:#f7b89c;stroke:#ffffff;stroke-linejoin:miter;stroke-width:0.75;" x="788.012804" xlink:href="#m82ff46227c" y="172.118017"/>
     <use style="fill:#f7b89c;stroke:#ffffff;stroke-linejoin:miter;stroke-width:0.75;" x="802.302177" xlink:href="#m82ff46227c" y="175.736067"/>
     <use style="fill:#f7b89c;stroke:#ffffff;stroke-linejoin:miter;stroke-width:0.75;" x="816.591549" xlink:href="#m82ff46227c" y="175.465894"/>
     <use style="fill:#f7b89c;stroke:#ffffff;stroke-linejoin:miter;stroke-width:0.75;" x="830.880922" xlink:href="#m82ff46227c" y="172.183257"/>
     <use style="fill:#f7b89c;stroke:#ffffff;stroke-linejoin:miter;stroke-width:0.75;" x="845.170294" xlink:href="#m82ff46227c" y="172.125263"/>
     <use style="fill:#f7b89c;stroke:#ffffff;stroke-linejoin:miter;stroke-width:0.75;" x="859.459667" xlink:href="#m82ff46227c" y="167.862377"/>
     <use style="fill:#f7b89c;stroke:#ffffff;stroke-linejoin:miter;stroke-width:0.75;" x="873.74904" xlink:href="#m82ff46227c" y="170.633912"/>
     <use style="fill:#f7b89c;stroke:#ffffff;stroke-linejoin:miter;stroke-width:0.75;" x="888.038412" xlink:href="#m82ff46227c" y="175.167766"/>
     <use style="fill:#f7b89c;stroke:#ffffff;stroke-linejoin:miter;stroke-width:0.75;" x="902.327785" xlink:href="#m82ff46227c" y="171.983202"/>
     <use style="fill:#f7b89c;stroke:#ffffff;stroke-linejoin:miter;stroke-width:0.75;" x="916.617157" xlink:href="#m82ff46227c" y="172.133071"/>
     <use style="fill:#f7b89c;stroke:#ffffff;stroke-linejoin:miter;stroke-width:0.75;" x="930.90653" xlink:href="#m82ff46227c" y="172.548567"/>
     <use style="fill:#f7b89c;stroke:#ffffff;stroke-linejoin:miter;stroke-width:0.75;" x="945.195903" xlink:href="#m82ff46227c" y="178.083421"/>
     <use style="fill:#f7b89c;stroke:#ffffff;stroke-linejoin:miter;stroke-width:0.75;" x="959.485275" xlink:href="#m82ff46227c" y="171.646877"/>
     <use style="fill:#f7b89c;stroke:#ffffff;stroke-linejoin:miter;stroke-width:0.75;" x="973.774648" xlink:href="#m82ff46227c" y="167.942963"/>
     <use style="fill:#f7b89c;stroke:#ffffff;stroke-linejoin:miter;stroke-width:0.75;" x="988.06402" xlink:href="#m82ff46227c" y="170.48714"/>
     <use style="fill:#f7b89c;stroke:#ffffff;stroke-linejoin:miter;stroke-width:0.75;" x="1002.353393" xlink:href="#m82ff46227c" y="169.791296"/>
     <use style="fill:#f7b89c;stroke:#ffffff;stroke-linejoin:miter;stroke-width:0.75;" x="1016.642766" xlink:href="#m82ff46227c" y="163.0764"/>
     <use style="fill:#f7b89c;stroke:#ffffff;stroke-linejoin:miter;stroke-width:0.75;" x="1030.932138" xlink:href="#m82ff46227c" y="172.052787"/>
     <use style="fill:#f7b89c;stroke:#ffffff;stroke-linejoin:miter;stroke-width:0.75;" x="1045.221511" xlink:href="#m82ff46227c" y="169.378133"/>
     <use style="fill:#f7b89c;stroke:#ffffff;stroke-linejoin:miter;stroke-width:0.75;" x="1059.510883" xlink:href="#m82ff46227c" y="172.661639"/>
     <use style="fill:#f7b89c;stroke:#ffffff;stroke-linejoin:miter;stroke-width:0.75;" x="1073.800256" xlink:href="#m82ff46227c" y="175.358039"/>
     <use style="fill:#f7b89c;stroke:#ffffff;stroke-linejoin:miter;stroke-width:0.75;" x="1088.089629" xlink:href="#m82ff46227c" y="170.400161"/>
     <use style="fill:#f7b89c;stroke:#ffffff;stroke-linejoin:miter;stroke-width:0.75;" x="1102.379001" xlink:href="#m82ff46227c" y="172.487683"/>
     <use style="fill:#f7b89c;stroke:#ffffff;stroke-linejoin:miter;stroke-width:0.75;" x="1116.668374" xlink:href="#m82ff46227c" y="181.968544"/>
     <use style="fill:#f7b89c;stroke:#ffffff;stroke-linejoin:miter;stroke-width:0.75;" x="1130.957746" xlink:href="#m82ff46227c" y="171.400423"/>
     <use style="fill:#f7b89c;stroke:#ffffff;stroke-linejoin:miter;stroke-width:0.75;" x="1145.247119" xlink:href="#m82ff46227c" y="182.620907"/>
     <use style="fill:#f7b89c;stroke:#ffffff;stroke-linejoin:miter;stroke-width:0.75;" x="1159.536492" xlink:href="#m82ff46227c" y="174.662183"/>
     <use style="fill:#f7b89c;stroke:#ffffff;stroke-linejoin:miter;stroke-width:0.75;" x="1173.825864" xlink:href="#m82ff46227c" y="181.185723"/>
     <use style="fill:#f7b89c;stroke:#ffffff;stroke-linejoin:miter;stroke-width:0.75;" x="1188.115237" xlink:href="#m82ff46227c" y="163.441719"/>
     <use style="fill:#f7b89c;stroke:#ffffff;stroke-linejoin:miter;stroke-width:0.75;" x="1202.404609" xlink:href="#m82ff46227c" y="200.234415"/>
     <use style="fill:#f7b89c;stroke:#ffffff;stroke-linejoin:miter;stroke-width:0.75;" x="1216.693982" xlink:href="#m82ff46227c" y="172.835608"/>
     <use style="fill:#f7b89c;stroke:#ffffff;stroke-linejoin:miter;stroke-width:0.75;" x="1230.983355" xlink:href="#m82ff46227c" y="161.615124"/>
     <use style="fill:#f7b89c;stroke:#ffffff;stroke-linejoin:miter;stroke-width:0.75;" x="1245.272727" xlink:href="#m82ff46227c" y="163.180765"/>
    </g>
   </g>
   <g id="line2d_16">
    <path clip-path="url(#p167c0b4de2)" d="M 230.727273 271.445292 
L 245.016645 203.026506 
L 259.306018 176.019088 
L 273.595391 160.954081 
L 287.884763 154.952438 
L 302.174136 151.125301 
L 316.463508 146.70669 
L 330.752881 145.44548 
L 345.042254 143.836336 
L 359.331626 143.592794 
L 373.620999 143.001327 
L 387.910371 141.583549 
L 402.199744 141.60094 
L 416.489117 141.087758 
L 430.778489 140.261445 
L 445.067862 139.156794 
L 459.357234 139.974404 
L 473.646607 139.870035 
L 487.93598 139.087207 
L 502.225352 138.487042 
L 516.514725 139.765653 
L 530.804097 137.973857 
L 545.09347 138.633669 
L 559.382843 138.301041 
L 573.672215 138.240824 
L 587.961588 137.38935 
L 602.25096 138.255226 
L 616.540333 137.655983 
L 630.829706 137.285471 
L 645.119078 137.934721 
L 659.408451 137.112751 
L 673.697823 137.282367 
L 687.987196 136.858331 
L 702.276569 139.397852 
L 716.565941 136.173358 
L 730.855314 138.462532 
L 745.144686 138.13042 
L 759.434059 136.499545 
L 773.723431 137.049373 
L 788.012804 136.825719 
L 802.302177 136.825716 
L 816.591549 137.782509 
L 830.880922 137.347599 
" style="fill:none;stroke:#aac7fd;stroke-linecap:round;stroke-width:3;"/>
    <defs>
     <path d="M 0 3 
C 0.795609 3 1.55874 2.683901 2.12132 2.12132 
C 2.683901 1.55874 3 0.795609 3 0 
C 3 -0.795609 2.683901 -1.55874 2.12132 -2.12132 
C 1.55874 -2.683901 0.795609 -3 0 -3 
C -0.795609 -3 -1.55874 -2.683901 -2.12132 -2.12132 
C -2.683901 -1.55874 -3 -0.795609 -3 0 
C -3 0.795609 -2.683901 1.55874 -2.12132 2.12132 
C -1.55874 2.683901 -0.795609 3 0 3 
z
" id="mb85de52fd3" style="stroke:#ffffff;stroke-width:0.75;"/>
    </defs>
    <g clip-path="url(#p167c0b4de2)">
     <use style="fill:#aac7fd;stroke:#ffffff;stroke-width:0.75;" x="230.727273" xlink:href="#mb85de52fd3" y="271.445292"/>
     <use style="fill:#aac7fd;stroke:#ffffff;stroke-width:0.75;" x="245.016645" xlink:href="#mb85de52fd3" y="203.026506"/>
     <use style="fill:#aac7fd;stroke:#ffffff;stroke-width:0.75;" x="259.306018" xlink:href="#mb85de52fd3" y="176.019088"/>
     <use style="fill:#aac7fd;stroke:#ffffff;stroke-width:0.75;" x="273.595391" xlink:href="#mb85de52fd3" y="160.954081"/>
     <use style="fill:#aac7fd;stroke:#ffffff;stroke-width:0.75;" x="287.884763" xlink:href="#mb85de52fd3" y="154.952438"/>
     <use style="fill:#aac7fd;stroke:#ffffff;stroke-width:0.75;" x="302.174136" xlink:href="#mb85de52fd3" y="151.125301"/>
     <use style="fill:#aac7fd;stroke:#ffffff;stroke-width:0.75;" x="316.463508" xlink:href="#mb85de52fd3" y="146.70669"/>
     <use style="fill:#aac7fd;stroke:#ffffff;stroke-width:0.75;" x="330.752881" xlink:href="#mb85de52fd3" y="145.44548"/>
     <use style="fill:#aac7fd;stroke:#ffffff;stroke-width:0.75;" x="345.042254" xlink:href="#mb85de52fd3" y="143.836336"/>
     <use style="fill:#aac7fd;stroke:#ffffff;stroke-width:0.75;" x="359.331626" xlink:href="#mb85de52fd3" y="143.592794"/>
     <use style="fill:#aac7fd;stroke:#ffffff;stroke-width:0.75;" x="373.620999" xlink:href="#mb85de52fd3" y="143.001327"/>
     <use style="fill:#aac7fd;stroke:#ffffff;stroke-width:0.75;" x="387.910371" xlink:href="#mb85de52fd3" y="141.583549"/>
     <use style="fill:#aac7fd;stroke:#ffffff;stroke-width:0.75;" x="402.199744" xlink:href="#mb85de52fd3" y="141.60094"/>
     <use style="fill:#aac7fd;stroke:#ffffff;stroke-width:0.75;" x="416.489117" xlink:href="#mb85de52fd3" y="141.087758"/>
     <use style="fill:#aac7fd;stroke:#ffffff;stroke-width:0.75;" x="430.778489" xlink:href="#mb85de52fd3" y="140.261445"/>
     <use style="fill:#aac7fd;stroke:#ffffff;stroke-width:0.75;" x="445.067862" xlink:href="#mb85de52fd3" y="139.156794"/>
     <use style="fill:#aac7fd;stroke:#ffffff;stroke-width:0.75;" x="459.357234" xlink:href="#mb85de52fd3" y="139.974404"/>
     <use style="fill:#aac7fd;stroke:#ffffff;stroke-width:0.75;" x="473.646607" xlink:href="#mb85de52fd3" y="139.870035"/>
     <use style="fill:#aac7fd;stroke:#ffffff;stroke-width:0.75;" x="487.93598" xlink:href="#mb85de52fd3" y="139.087207"/>
     <use style="fill:#aac7fd;stroke:#ffffff;stroke-width:0.75;" x="502.225352" xlink:href="#mb85de52fd3" y="138.487042"/>
     <use style="fill:#aac7fd;stroke:#ffffff;stroke-width:0.75;" x="516.514725" xlink:href="#mb85de52fd3" y="139.765653"/>
     <use style="fill:#aac7fd;stroke:#ffffff;stroke-width:0.75;" x="530.804097" xlink:href="#mb85de52fd3" y="137.973857"/>
     <use style="fill:#aac7fd;stroke:#ffffff;stroke-width:0.75;" x="545.09347" xlink:href="#mb85de52fd3" y="138.633669"/>
     <use style="fill:#aac7fd;stroke:#ffffff;stroke-width:0.75;" x="559.382843" xlink:href="#mb85de52fd3" y="138.301041"/>
     <use style="fill:#aac7fd;stroke:#ffffff;stroke-width:0.75;" x="573.672215" xlink:href="#mb85de52fd3" y="138.240824"/>
     <use style="fill:#aac7fd;stroke:#ffffff;stroke-width:0.75;" x="587.961588" xlink:href="#mb85de52fd3" y="137.38935"/>
     <use style="fill:#aac7fd;stroke:#ffffff;stroke-width:0.75;" x="602.25096" xlink:href="#mb85de52fd3" y="138.255226"/>
     <use style="fill:#aac7fd;stroke:#ffffff;stroke-width:0.75;" x="616.540333" xlink:href="#mb85de52fd3" y="137.655983"/>
     <use style="fill:#aac7fd;stroke:#ffffff;stroke-width:0.75;" x="630.829706" xlink:href="#mb85de52fd3" y="137.285471"/>
     <use style="fill:#aac7fd;stroke:#ffffff;stroke-width:0.75;" x="645.119078" xlink:href="#mb85de52fd3" y="137.934721"/>
     <use style="fill:#aac7fd;stroke:#ffffff;stroke-width:0.75;" x="659.408451" xlink:href="#mb85de52fd3" y="137.112751"/>
     <use style="fill:#aac7fd;stroke:#ffffff;stroke-width:0.75;" x="673.697823" xlink:href="#mb85de52fd3" y="137.282367"/>
     <use style="fill:#aac7fd;stroke:#ffffff;stroke-width:0.75;" x="687.987196" xlink:href="#mb85de52fd3" y="136.858331"/>
     <use style="fill:#aac7fd;stroke:#ffffff;stroke-width:0.75;" x="702.276569" xlink:href="#mb85de52fd3" y="139.397852"/>
     <use style="fill:#aac7fd;stroke:#ffffff;stroke-width:0.75;" x="716.565941" xlink:href="#mb85de52fd3" y="136.173358"/>
     <use style="fill:#aac7fd;stroke:#ffffff;stroke-width:0.75;" x="730.855314" xlink:href="#mb85de52fd3" y="138.462532"/>
     <use style="fill:#aac7fd;stroke:#ffffff;stroke-width:0.75;" x="745.144686" xlink:href="#mb85de52fd3" y="138.13042"/>
     <use style="fill:#aac7fd;stroke:#ffffff;stroke-width:0.75;" x="759.434059" xlink:href="#mb85de52fd3" y="136.499545"/>
     <use style="fill:#aac7fd;stroke:#ffffff;stroke-width:0.75;" x="773.723431" xlink:href="#mb85de52fd3" y="137.049373"/>
     <use style="fill:#aac7fd;stroke:#ffffff;stroke-width:0.75;" x="788.012804" xlink:href="#mb85de52fd3" y="136.825719"/>
     <use style="fill:#aac7fd;stroke:#ffffff;stroke-width:0.75;" x="802.302177" xlink:href="#mb85de52fd3" y="136.825716"/>
     <use style="fill:#aac7fd;stroke:#ffffff;stroke-width:0.75;" x="816.591549" xlink:href="#mb85de52fd3" y="137.782509"/>
     <use style="fill:#aac7fd;stroke:#ffffff;stroke-width:0.75;" x="830.880922" xlink:href="#mb85de52fd3" y="137.347599"/>
    </g>
   </g>
   <g id="line2d_17">
    <path clip-path="url(#p167c0b4de2)" d="M 230.727273 665.73617 
L 245.016645 617.244594 
L 259.306018 497.176841 
L 273.595391 347.231321 
L 287.884763 247.456097 
L 302.174136 204.000685 
L 316.463508 177.289002 
L 330.752881 169.330298 
L 345.042254 164.311525 
L 359.331626 159.518904 
L 373.620999 156.692043 
L 387.910371 153.412883 
L 402.199744 152.212556 
L 416.489117 150.151118 
L 430.778489 147.506912 
L 445.067862 148.559379 
L 459.357234 146.558826 
L 473.646607 147.73306 
L 487.93598 145.941264 
L 502.225352 145.384586 
L 516.514725 144.653953 
L 530.804097 144.219053 
L 545.09347 144.279942 
L 559.382843 142.166316 
L 573.672215 142.827367 
L 587.961588 142.458448 
L 602.25096 143.511212 
L 616.540333 141.93271 
L 630.829706 142.193652 
L 645.119078 141.084652 
L 659.408451 140.432298 
L 673.697823 140.926223 
L 687.987196 141.116753 
L 702.276569 141.232723 
L 716.565941 140.718963 
L 730.855314 140.402789 
L 745.144686 140.478898 
L 759.434059 140.857261 
L 773.723431 141.015274 
L 788.012804 139.536606 
L 802.302177 140.69379 
L 816.591549 138.993534 
L 830.880922 138.681296 
L 845.170294 139.348155 
L 859.459667 139.509683 
L 873.74904 137.832205 
L 888.038412 138.173912 
L 902.327785 137.86949 
L 916.617157 137.021417 
L 930.90653 139.108956 
L 945.195903 139.826548 
L 959.485275 139.174185 
L 973.774648 139.239433 
L 988.06402 139.239423 
L 1002.353393 138.304389 
L 1016.642766 137.999943 
L 1030.932138 138.913241 
L 1045.221511 139.696062 
L 1059.510883 135.521004 
" style="fill:none;stroke:#aac7fd;stroke-dasharray:12,4.5;stroke-dashoffset:0;stroke-width:3;"/>
    <defs>
     <path d="M -1.5 3 
L 0 1.5 
L 1.5 3 
L 3 1.5 
L 1.5 0 
L 3 -1.5 
L 1.5 -3 
L 0 -1.5 
L -1.5 -3 
L -3 -1.5 
L -1.5 0 
L -3 1.5 
z
" id="mefe8d56e54" style="stroke:#ffffff;stroke-linejoin:miter;stroke-width:0.75;"/>
    </defs>
    <g clip-path="url(#p167c0b4de2)">
     <use style="fill:#aac7fd;stroke:#ffffff;stroke-linejoin:miter;stroke-width:0.75;" x="230.727273" xlink:href="#mefe8d56e54" y="665.73617"/>
     <use style="fill:#aac7fd;stroke:#ffffff;stroke-linejoin:miter;stroke-width:0.75;" x="245.016645" xlink:href="#mefe8d56e54" y="617.244594"/>
     <use style="fill:#aac7fd;stroke:#ffffff;stroke-linejoin:miter;stroke-width:0.75;" x="259.306018" xlink:href="#mefe8d56e54" y="497.176841"/>
     <use style="fill:#aac7fd;stroke:#ffffff;stroke-linejoin:miter;stroke-width:0.75;" x="273.595391" xlink:href="#mefe8d56e54" y="347.231321"/>
     <use style="fill:#aac7fd;stroke:#ffffff;stroke-linejoin:miter;stroke-width:0.75;" x="287.884763" xlink:href="#mefe8d56e54" y="247.456097"/>
     <use style="fill:#aac7fd;stroke:#ffffff;stroke-linejoin:miter;stroke-width:0.75;" x="302.174136" xlink:href="#mefe8d56e54" y="204.000685"/>
     <use style="fill:#aac7fd;stroke:#ffffff;stroke-linejoin:miter;stroke-width:0.75;" x="316.463508" xlink:href="#mefe8d56e54" y="177.289002"/>
     <use style="fill:#aac7fd;stroke:#ffffff;stroke-linejoin:miter;stroke-width:0.75;" x="330.752881" xlink:href="#mefe8d56e54" y="169.330298"/>
     <use style="fill:#aac7fd;stroke:#ffffff;stroke-linejoin:miter;stroke-width:0.75;" x="345.042254" xlink:href="#mefe8d56e54" y="164.311525"/>
     <use style="fill:#aac7fd;stroke:#ffffff;stroke-linejoin:miter;stroke-width:0.75;" x="359.331626" xlink:href="#mefe8d56e54" y="159.518904"/>
     <use style="fill:#aac7fd;stroke:#ffffff;stroke-linejoin:miter;stroke-width:0.75;" x="373.620999" xlink:href="#mefe8d56e54" y="156.692043"/>
     <use style="fill:#aac7fd;stroke:#ffffff;stroke-linejoin:miter;stroke-width:0.75;" x="387.910371" xlink:href="#mefe8d56e54" y="153.412883"/>
     <use style="fill:#aac7fd;stroke:#ffffff;stroke-linejoin:miter;stroke-width:0.75;" x="402.199744" xlink:href="#mefe8d56e54" y="152.212556"/>
     <use style="fill:#aac7fd;stroke:#ffffff;stroke-linejoin:miter;stroke-width:0.75;" x="416.489117" xlink:href="#mefe8d56e54" y="150.151118"/>
     <use style="fill:#aac7fd;stroke:#ffffff;stroke-linejoin:miter;stroke-width:0.75;" x="430.778489" xlink:href="#mefe8d56e54" y="147.506912"/>
     <use style="fill:#aac7fd;stroke:#ffffff;stroke-linejoin:miter;stroke-width:0.75;" x="445.067862" xlink:href="#mefe8d56e54" y="148.559379"/>
     <use style="fill:#aac7fd;stroke:#ffffff;stroke-linejoin:miter;stroke-width:0.75;" x="459.357234" xlink:href="#mefe8d56e54" y="146.558826"/>
     <use style="fill:#aac7fd;stroke:#ffffff;stroke-linejoin:miter;stroke-width:0.75;" x="473.646607" xlink:href="#mefe8d56e54" y="147.73306"/>
     <use style="fill:#aac7fd;stroke:#ffffff;stroke-linejoin:miter;stroke-width:0.75;" x="487.93598" xlink:href="#mefe8d56e54" y="145.941264"/>
     <use style="fill:#aac7fd;stroke:#ffffff;stroke-linejoin:miter;stroke-width:0.75;" x="502.225352" xlink:href="#mefe8d56e54" y="145.384586"/>
     <use style="fill:#aac7fd;stroke:#ffffff;stroke-linejoin:miter;stroke-width:0.75;" x="516.514725" xlink:href="#mefe8d56e54" y="144.653953"/>
     <use style="fill:#aac7fd;stroke:#ffffff;stroke-linejoin:miter;stroke-width:0.75;" x="530.804097" xlink:href="#mefe8d56e54" y="144.219053"/>
     <use style="fill:#aac7fd;stroke:#ffffff;stroke-linejoin:miter;stroke-width:0.75;" x="545.09347" xlink:href="#mefe8d56e54" y="144.279942"/>
     <use style="fill:#aac7fd;stroke:#ffffff;stroke-linejoin:miter;stroke-width:0.75;" x="559.382843" xlink:href="#mefe8d56e54" y="142.166316"/>
     <use style="fill:#aac7fd;stroke:#ffffff;stroke-linejoin:miter;stroke-width:0.75;" x="573.672215" xlink:href="#mefe8d56e54" y="142.827367"/>
     <use style="fill:#aac7fd;stroke:#ffffff;stroke-linejoin:miter;stroke-width:0.75;" x="587.961588" xlink:href="#mefe8d56e54" y="142.458448"/>
     <use style="fill:#aac7fd;stroke:#ffffff;stroke-linejoin:miter;stroke-width:0.75;" x="602.25096" xlink:href="#mefe8d56e54" y="143.511212"/>
     <use style="fill:#aac7fd;stroke:#ffffff;stroke-linejoin:miter;stroke-width:0.75;" x="616.540333" xlink:href="#mefe8d56e54" y="141.93271"/>
     <use style="fill:#aac7fd;stroke:#ffffff;stroke-linejoin:miter;stroke-width:0.75;" x="630.829706" xlink:href="#mefe8d56e54" y="142.193652"/>
     <use style="fill:#aac7fd;stroke:#ffffff;stroke-linejoin:miter;stroke-width:0.75;" x="645.119078" xlink:href="#mefe8d56e54" y="141.084652"/>
     <use style="fill:#aac7fd;stroke:#ffffff;stroke-linejoin:miter;stroke-width:0.75;" x="659.408451" xlink:href="#mefe8d56e54" y="140.432298"/>
     <use style="fill:#aac7fd;stroke:#ffffff;stroke-linejoin:miter;stroke-width:0.75;" x="673.697823" xlink:href="#mefe8d56e54" y="140.926223"/>
     <use style="fill:#aac7fd;stroke:#ffffff;stroke-linejoin:miter;stroke-width:0.75;" x="687.987196" xlink:href="#mefe8d56e54" y="141.116753"/>
     <use style="fill:#aac7fd;stroke:#ffffff;stroke-linejoin:miter;stroke-width:0.75;" x="702.276569" xlink:href="#mefe8d56e54" y="141.232723"/>
     <use style="fill:#aac7fd;stroke:#ffffff;stroke-linejoin:miter;stroke-width:0.75;" x="716.565941" xlink:href="#mefe8d56e54" y="140.718963"/>
     <use style="fill:#aac7fd;stroke:#ffffff;stroke-linejoin:miter;stroke-width:0.75;" x="730.855314" xlink:href="#mefe8d56e54" y="140.402789"/>
     <use style="fill:#aac7fd;stroke:#ffffff;stroke-linejoin:miter;stroke-width:0.75;" x="745.144686" xlink:href="#mefe8d56e54" y="140.478898"/>
     <use style="fill:#aac7fd;stroke:#ffffff;stroke-linejoin:miter;stroke-width:0.75;" x="759.434059" xlink:href="#mefe8d56e54" y="140.857261"/>
     <use style="fill:#aac7fd;stroke:#ffffff;stroke-linejoin:miter;stroke-width:0.75;" x="773.723431" xlink:href="#mefe8d56e54" y="141.015274"/>
     <use style="fill:#aac7fd;stroke:#ffffff;stroke-linejoin:miter;stroke-width:0.75;" x="788.012804" xlink:href="#mefe8d56e54" y="139.536606"/>
     <use style="fill:#aac7fd;stroke:#ffffff;stroke-linejoin:miter;stroke-width:0.75;" x="802.302177" xlink:href="#mefe8d56e54" y="140.69379"/>
     <use style="fill:#aac7fd;stroke:#ffffff;stroke-linejoin:miter;stroke-width:0.75;" x="816.591549" xlink:href="#mefe8d56e54" y="138.993534"/>
     <use style="fill:#aac7fd;stroke:#ffffff;stroke-linejoin:miter;stroke-width:0.75;" x="830.880922" xlink:href="#mefe8d56e54" y="138.681296"/>
     <use style="fill:#aac7fd;stroke:#ffffff;stroke-linejoin:miter;stroke-width:0.75;" x="845.170294" xlink:href="#mefe8d56e54" y="139.348155"/>
     <use style="fill:#aac7fd;stroke:#ffffff;stroke-linejoin:miter;stroke-width:0.75;" x="859.459667" xlink:href="#mefe8d56e54" y="139.509683"/>
     <use style="fill:#aac7fd;stroke:#ffffff;stroke-linejoin:miter;stroke-width:0.75;" x="873.74904" xlink:href="#mefe8d56e54" y="137.832205"/>
     <use style="fill:#aac7fd;stroke:#ffffff;stroke-linejoin:miter;stroke-width:0.75;" x="888.038412" xlink:href="#mefe8d56e54" y="138.173912"/>
     <use style="fill:#aac7fd;stroke:#ffffff;stroke-linejoin:miter;stroke-width:0.75;" x="902.327785" xlink:href="#mefe8d56e54" y="137.86949"/>
     <use style="fill:#aac7fd;stroke:#ffffff;stroke-linejoin:miter;stroke-width:0.75;" x="916.617157" xlink:href="#mefe8d56e54" y="137.021417"/>
     <use style="fill:#aac7fd;stroke:#ffffff;stroke-linejoin:miter;stroke-width:0.75;" x="930.90653" xlink:href="#mefe8d56e54" y="139.108956"/>
     <use style="fill:#aac7fd;stroke:#ffffff;stroke-linejoin:miter;stroke-width:0.75;" x="945.195903" xlink:href="#mefe8d56e54" y="139.826548"/>
     <use style="fill:#aac7fd;stroke:#ffffff;stroke-linejoin:miter;stroke-width:0.75;" x="959.485275" xlink:href="#mefe8d56e54" y="139.174185"/>
     <use style="fill:#aac7fd;stroke:#ffffff;stroke-linejoin:miter;stroke-width:0.75;" x="973.774648" xlink:href="#mefe8d56e54" y="139.239433"/>
     <use style="fill:#aac7fd;stroke:#ffffff;stroke-linejoin:miter;stroke-width:0.75;" x="988.06402" xlink:href="#mefe8d56e54" y="139.239423"/>
     <use style="fill:#aac7fd;stroke:#ffffff;stroke-linejoin:miter;stroke-width:0.75;" x="1002.353393" xlink:href="#mefe8d56e54" y="138.304389"/>
     <use style="fill:#aac7fd;stroke:#ffffff;stroke-linejoin:miter;stroke-width:0.75;" x="1016.642766" xlink:href="#mefe8d56e54" y="137.999943"/>
     <use style="fill:#aac7fd;stroke:#ffffff;stroke-linejoin:miter;stroke-width:0.75;" x="1030.932138" xlink:href="#mefe8d56e54" y="138.913241"/>
     <use style="fill:#aac7fd;stroke:#ffffff;stroke-linejoin:miter;stroke-width:0.75;" x="1045.221511" xlink:href="#mefe8d56e54" y="139.696062"/>
     <use style="fill:#aac7fd;stroke:#ffffff;stroke-linejoin:miter;stroke-width:0.75;" x="1059.510883" xlink:href="#mefe8d56e54" y="135.521004"/>
    </g>
   </g>
   <g id="line2d_18"/>
   <g id="line2d_19"/>
   <g id="line2d_20"/>
   <g id="line2d_21"/>
   <g id="patch_3">
    <path d="M 180 768.96 
L 180 103.68 
" style="fill:none;stroke:#ffffff;stroke-linecap:square;stroke-linejoin:miter;stroke-width:1.25;"/>
   </g>
   <g id="patch_4">
    <path d="M 1296 768.96 
L 1296 103.68 
" style="fill:none;stroke:#ffffff;stroke-linecap:square;stroke-linejoin:miter;stroke-width:1.25;"/>
   </g>
   <g id="patch_5">
    <path d="M 180 768.96 
L 1296 768.96 
" style="fill:none;stroke:#ffffff;stroke-linecap:square;stroke-linejoin:miter;stroke-width:1.25;"/>
   </g>
   <g id="patch_6">
    <path d="M 180 103.68 
L 1296 103.68 
" style="fill:none;stroke:#ffffff;stroke-linecap:square;stroke-linejoin:miter;stroke-width:1.25;"/>
   </g>
   <g id="legend_1">
    <g id="patch_7">
     <path d="M 1102.75875 759.96 
L 1283.4 759.96 
Q 1287 759.96 1287 756.36 
L 1287 604.960313 
Q 1287 601.360312 1283.4 601.360312 
L 1102.75875 601.360312 
Q 1099.15875 601.360312 1099.15875 604.960313 
L 1099.15875 756.36 
Q 1099.15875 759.96 1102.75875 759.96 
z
" style="fill:#eaeaf2;opacity:0.8;stroke:#cccccc;stroke-linejoin:miter;"/>
    </g>
    <g id="text_16">
     <!-- Input -->
     <g style="fill:#262626;" transform="translate(1156.75875 621.444375)scale(0.18 -0.18)">
      <defs>
       <path d="M 9.328125 0 
L 9.328125 71.578125 
L 18.796875 71.578125 
L 18.796875 0 
z
" id="ArialMT-73"/>
      </defs>
      <use xlink:href="#ArialMT-73"/>
      <use x="27.783203" xlink:href="#ArialMT-110"/>
      <use x="83.398438" xlink:href="#ArialMT-112"/>
      <use x="139.013672" xlink:href="#ArialMT-117"/>
      <use x="194.628906" xlink:href="#ArialMT-116"/>
     </g>
    </g>
    <g id="line2d_22">
     <path d="M 1106.35875 640.605938 
L 1142.35875 640.605938 
" style="fill:none;stroke:#f7b89c;stroke-linecap:round;stroke-width:1.5;"/>
    </g>
    <g id="line2d_23"/>
    <g id="text_17">
     <!-- raw -->
     <g style="fill:#262626;" transform="translate(1156.75875 646.905938)scale(0.18 -0.18)">
      <defs>
       <path d="M 16.15625 0 
L 0.296875 51.859375 
L 9.375 51.859375 
L 17.625 21.921875 
L 20.703125 10.796875 
Q 20.90625 11.625 23.390625 21.484375 
L 31.640625 51.859375 
L 40.671875 51.859375 
L 48.4375 21.78125 
L 51.03125 11.859375 
L 54 21.875 
L 62.890625 51.859375 
L 71.4375 51.859375 
L 55.21875 0 
L 46.09375 0 
L 37.84375 31.0625 
L 35.84375 39.890625 
L 25.34375 0 
z
" id="ArialMT-119"/>
      </defs>
      <use xlink:href="#ArialMT-114"/>
      <use x="33.300781" xlink:href="#ArialMT-97"/>
      <use x="88.916016" xlink:href="#ArialMT-119"/>
     </g>
    </g>
    <g id="line2d_24">
     <path d="M 1106.35875 666.0675 
L 1142.35875 666.0675 
" style="fill:none;stroke:#aac7fd;stroke-linecap:round;stroke-width:1.5;"/>
    </g>
    <g id="line2d_25"/>
    <g id="text_18">
     <!-- features -->
     <g style="fill:#262626;" transform="translate(1156.75875 672.3675)scale(0.18 -0.18)">
      <defs>
       <path d="M 8.6875 0 
L 8.6875 45.015625 
L 0.921875 45.015625 
L 0.921875 51.859375 
L 8.6875 51.859375 
L 8.6875 57.375 
Q 8.6875 62.59375 9.625 65.140625 
Q 10.890625 68.5625 14.078125 70.671875 
Q 17.28125 72.796875 23.046875 72.796875 
Q 26.765625 72.796875 31.25 71.921875 
L 29.9375 64.265625 
Q 27.203125 64.75 24.75 64.75 
Q 20.75 64.75 19.09375 63.03125 
Q 17.4375 61.328125 17.4375 56.640625 
L 17.4375 51.859375 
L 27.546875 51.859375 
L 27.546875 45.015625 
L 17.4375 45.015625 
L 17.4375 0 
z
" id="ArialMT-102"/>
       <path d="M 42.09375 16.703125 
L 51.171875 15.578125 
Q 49.03125 7.625 43.21875 3.21875 
Q 37.40625 -1.171875 28.375 -1.171875 
Q 17 -1.171875 10.328125 5.828125 
Q 3.65625 12.84375 3.65625 25.484375 
Q 3.65625 38.578125 10.390625 45.796875 
Q 17.140625 53.03125 27.875 53.03125 
Q 38.28125 53.03125 44.875 45.953125 
Q 51.46875 38.875 51.46875 26.03125 
Q 51.46875 25.25 51.421875 23.6875 
L 12.75 23.6875 
Q 13.234375 15.140625 17.578125 10.59375 
Q 21.921875 6.0625 28.421875 6.0625 
Q 33.25 6.0625 36.671875 8.59375 
Q 40.09375 11.140625 42.09375 16.703125 
z
M 13.234375 30.90625 
L 42.1875 30.90625 
Q 41.609375 37.453125 38.875 40.71875 
Q 34.671875 45.796875 27.984375 45.796875 
Q 21.921875 45.796875 17.796875 41.75 
Q 13.671875 37.703125 13.234375 30.90625 
z
" id="ArialMT-101"/>
       <path d="M 3.078125 15.484375 
L 11.765625 16.84375 
Q 12.5 11.625 15.84375 8.84375 
Q 19.1875 6.0625 25.203125 6.0625 
Q 31.25 6.0625 34.171875 8.515625 
Q 37.109375 10.984375 37.109375 14.3125 
Q 37.109375 17.28125 34.515625 19 
Q 32.71875 20.171875 25.53125 21.96875 
Q 15.875 24.421875 12.140625 26.203125 
Q 8.40625 27.984375 6.46875 31.125 
Q 4.546875 34.28125 4.546875 38.09375 
Q 4.546875 41.546875 6.125 44.5 
Q 7.71875 47.46875 10.453125 49.421875 
Q 12.5 50.921875 16.03125 51.96875 
Q 19.578125 53.03125 23.640625 53.03125 
Q 29.734375 53.03125 34.34375 51.265625 
Q 38.96875 49.515625 41.15625 46.5 
Q 43.359375 43.5 44.1875 38.484375 
L 35.59375 37.3125 
Q 35.015625 41.3125 32.203125 43.546875 
Q 29.390625 45.796875 24.265625 45.796875 
Q 18.21875 45.796875 15.625 43.796875 
Q 13.03125 41.796875 13.03125 39.109375 
Q 13.03125 37.40625 14.109375 36.03125 
Q 15.1875 34.625 17.484375 33.6875 
Q 18.796875 33.203125 25.25 31.453125 
Q 34.578125 28.953125 38.25 27.359375 
Q 41.9375 25.78125 44.03125 22.75 
Q 46.140625 19.734375 46.140625 15.234375 
Q 46.140625 10.84375 43.578125 6.953125 
Q 41.015625 3.078125 36.171875 0.953125 
Q 31.34375 -1.171875 25.25 -1.171875 
Q 15.140625 -1.171875 9.84375 3.03125 
Q 4.546875 7.234375 3.078125 15.484375 
z
" id="ArialMT-115"/>
      </defs>
      <use xlink:href="#ArialMT-102"/>
      <use x="27.783203" xlink:href="#ArialMT-101"/>
      <use x="83.398438" xlink:href="#ArialMT-97"/>
      <use x="139.013672" xlink:href="#ArialMT-116"/>
      <use x="166.796875" xlink:href="#ArialMT-117"/>
      <use x="222.412109" xlink:href="#ArialMT-114"/>
      <use x="255.712891" xlink:href="#ArialMT-101"/>
      <use x="311.328125" xlink:href="#ArialMT-115"/>
     </g>
    </g>
    <g id="text_19">
     <!-- Model -->
     <g style="fill:#262626;" transform="translate(1156.75875 697.829062)scale(0.18 -0.18)">
      <defs>
       <path d="M 7.421875 0 
L 7.421875 71.578125 
L 21.6875 71.578125 
L 38.625 20.90625 
Q 40.96875 13.8125 42.046875 10.296875 
Q 43.265625 14.203125 45.84375 21.78125 
L 62.984375 71.578125 
L 75.734375 71.578125 
L 75.734375 0 
L 66.609375 0 
L 66.609375 59.90625 
L 45.796875 0 
L 37.25 0 
L 16.546875 60.9375 
L 16.546875 0 
z
" id="ArialMT-77"/>
      </defs>
      <use xlink:href="#ArialMT-77"/>
      <use x="83.300781" xlink:href="#ArialMT-111"/>
      <use x="138.916016" xlink:href="#ArialMT-100"/>
      <use x="194.53125" xlink:href="#ArialMT-101"/>
      <use x="250.146484" xlink:href="#ArialMT-108"/>
     </g>
    </g>
    <g id="line2d_26">
     <path d="M 1106.35875 716.990625 
L 1142.35875 716.990625 
" style="fill:none;stroke:#333333;stroke-linecap:round;stroke-width:1.5;"/>
    </g>
    <g id="line2d_27">
     <defs>
      <path d="M 0 3 
C 0.795609 3 1.55874 2.683901 2.12132 2.12132 
C 2.683901 1.55874 3 0.795609 3 0 
C 3 -0.795609 2.683901 -1.55874 2.12132 -2.12132 
C 1.55874 -2.683901 0.795609 -3 0 -3 
C -0.795609 -3 -1.55874 -2.683901 -2.12132 -2.12132 
C -2.683901 -1.55874 -3 -0.795609 -3 0 
C -3 0.795609 -2.683901 1.55874 -2.12132 2.12132 
C -1.55874 2.683901 -0.795609 3 0 3 
z
" id="m8d52e49a8f" style="stroke:#333333;"/>
     </defs>
     <g>
      <use style="fill:#333333;stroke:#333333;" x="1124.35875" xlink:href="#m8d52e49a8f" y="716.990625"/>
     </g>
    </g>
    <g id="text_20">
     <!-- retrained -->
     <g style="fill:#262626;" transform="translate(1156.75875 723.290625)scale(0.18 -0.18)">
      <use xlink:href="#ArialMT-114"/>
      <use x="33.300781" xlink:href="#ArialMT-101"/>
      <use x="88.916016" xlink:href="#ArialMT-116"/>
      <use x="116.699219" xlink:href="#ArialMT-114"/>
      <use x="150" xlink:href="#ArialMT-97"/>
      <use x="205.615234" xlink:href="#ArialMT-105"/>
      <use x="227.832031" xlink:href="#ArialMT-110"/>
      <use x="283.447266" xlink:href="#ArialMT-101"/>
      <use x="339.0625" xlink:href="#ArialMT-100"/>
     </g>
    </g>
    <g id="line2d_28">
     <path d="M 1106.35875 742.671563 
L 1142.35875 742.671563 
" style="fill:none;stroke:#333333;stroke-dasharray:6,2.25;stroke-dashoffset:0;stroke-width:1.5;"/>
    </g>
    <g id="line2d_29">
     <defs>
      <path d="M -1.5 3 
L 0 1.5 
L 1.5 3 
L 3 1.5 
L 1.5 0 
L 3 -1.5 
L 1.5 -3 
L 0 -1.5 
L -1.5 -3 
L -3 -1.5 
L -1.5 0 
L -3 1.5 
z
" id="m6bb013f8ca" style="stroke:#333333;stroke-linejoin:miter;"/>
     </defs>
     <g>
      <use style="fill:#333333;stroke:#333333;stroke-linejoin:miter;" x="1124.35875" xlink:href="#m6bb013f8ca" y="742.671563"/>
     </g>
    </g>
    <g id="text_21">
     <!-- subject-specific -->
     <g style="fill:#262626;" transform="translate(1156.75875 748.971563)scale(0.18 -0.18)">
      <defs>
       <path d="M 14.703125 0 
L 6.546875 0 
L 6.546875 71.578125 
L 15.328125 71.578125 
L 15.328125 46.046875 
Q 20.90625 53.03125 29.546875 53.03125 
Q 34.328125 53.03125 38.59375 51.09375 
Q 42.875 49.171875 45.625 45.671875 
Q 48.390625 42.1875 49.953125 37.25 
Q 51.515625 32.328125 51.515625 26.703125 
Q 51.515625 13.375 44.921875 6.09375 
Q 38.328125 -1.171875 29.109375 -1.171875 
Q 19.921875 -1.171875 14.703125 6.5 
z
M 14.59375 26.3125 
Q 14.59375 17 17.140625 12.84375 
Q 21.296875 6.0625 28.375 6.0625 
Q 34.125 6.0625 38.328125 11.0625 
Q 42.53125 16.0625 42.53125 25.984375 
Q 42.53125 36.140625 38.5 40.96875 
Q 34.46875 45.796875 28.765625 45.796875 
Q 23 45.796875 18.796875 40.796875 
Q 14.59375 35.796875 14.59375 26.3125 
z
" id="ArialMT-98"/>
       <path d="M 6.546875 61.375 
L 6.546875 71.578125 
L 15.328125 71.578125 
L 15.328125 61.375 
z
M -4.59375 -20.125 
L -2.9375 -12.640625 
Q -0.296875 -13.328125 1.21875 -13.328125 
Q 3.90625 -13.328125 5.21875 -11.546875 
Q 6.546875 -9.765625 6.546875 -2.640625 
L 6.546875 51.859375 
L 15.328125 51.859375 
L 15.328125 -2.828125 
Q 15.328125 -12.40625 12.84375 -16.15625 
Q 9.671875 -21.046875 2.296875 -21.046875 
Q -1.265625 -21.046875 -4.59375 -20.125 
z
" id="ArialMT-106"/>
       <path d="M 3.171875 21.484375 
L 3.171875 30.328125 
L 30.171875 30.328125 
L 30.171875 21.484375 
z
" id="ArialMT-45"/>
      </defs>
      <use xlink:href="#ArialMT-115"/>
      <use x="50" xlink:href="#ArialMT-117"/>
      <use x="105.615234" xlink:href="#ArialMT-98"/>
      <use x="161.230469" xlink:href="#ArialMT-106"/>
      <use x="183.447266" xlink:href="#ArialMT-101"/>
      <use x="239.0625" xlink:href="#ArialMT-99"/>
      <use x="289.0625" xlink:href="#ArialMT-116"/>
      <use x="316.845703" xlink:href="#ArialMT-45"/>
      <use x="350.146484" xlink:href="#ArialMT-115"/>
      <use x="400.146484" xlink:href="#ArialMT-112"/>
      <use x="455.761719" xlink:href="#ArialMT-101"/>
      <use x="511.376953" xlink:href="#ArialMT-99"/>
      <use x="561.376953" xlink:href="#ArialMT-105"/>
      <use x="583.59375" xlink:href="#ArialMT-102"/>
      <use x="611.376953" xlink:href="#ArialMT-105"/>
      <use x="633.59375" xlink:href="#ArialMT-99"/>
     </g>
    </g>
   </g>
  </g>
 </g>
 <defs>
  <clipPath id="p167c0b4de2">
   <rect height="665.28" width="1116" x="180" y="103.68"/>
  </clipPath>
 </defs>
</svg>
