<?xml version="1.0" encoding="utf-8" standalone="no"?>
<!DOCTYPE svg PUBLIC "-//W3C//DTD SVG 1.1//EN"
  "http://www.w3.org/Graphics/SVG/1.1/DTD/svg11.dtd">
<!-- Created with matplotlib (https://matplotlib.org/) -->
<svg height="541.109531pt" version="1.1" viewBox="0 0 1366.259444 541.109531" width="1366.259444pt" xmlns="http://www.w3.org/2000/svg" xmlns:xlink="http://www.w3.org/1999/xlink">
 <metadata>
  <rdf:RDF xmlns:cc="http://creativecommons.org/ns#" xmlns:dc="http://purl.org/dc/elements/1.1/" xmlns:rdf="http://www.w3.org/1999/02/22-rdf-syntax-ns#">
   <cc:Work>
    <dc:type rdf:resource="http://purl.org/dc/dcmitype/StillImage"/>
    <dc:date>2022-09-09T09:22:55.866915</dc:date>
    <dc:format>image/svg+xml</dc:format>
    <dc:creator>
     <cc:Agent>
      <dc:title>Matplotlib v3.3.2, https://matplotlib.org/</dc:title>
     </cc:Agent>
    </dc:creator>
   </cc:Work>
  </rdf:RDF>
 </metadata>
 <defs>
  <style type="text/css">*{stroke-linecap:butt;stroke-linejoin:round;}</style>
 </defs>
 <g id="figure_1">
  <g id="patch_1">
   <path d="M 0 541.109531 
L 1366.259444 541.109531 
L 1366.259444 0 
L 0 0 
z
" style="fill:#ffffff;"/>
  </g>
  <g id="axes_1">
   <g id="patch_2">
    <path d="M 99.915 457.306875 
L 434.608542 457.306875 
L 434.608542 39.406875 
L 99.915 39.406875 
z
" style="fill:#eaeaf2;"/>
   </g>
   <g id="matplotlib.axis_1">
    <g id="xtick_1">
     <g id="line2d_1">
      <path clip-path="url(#p027ac29a9a)" d="M 115.128343 457.306875 
L 115.128343 39.406875 
" style="fill:none;stroke:#ffffff;stroke-linecap:round;"/>
     </g>
     <g id="text_1">
      <!-- 0 -->
      <g style="fill:#262626;" transform="translate(105.952796 490.427656)scale(0.33 -0.33)">
       <defs>
        <path d="M 4.15625 35.296875 
Q 4.15625 48 6.765625 55.734375 
Q 9.375 63.484375 14.515625 67.671875 
Q 19.671875 71.875 27.484375 71.875 
Q 33.25 71.875 37.59375 69.546875 
Q 41.9375 67.234375 44.765625 62.859375 
Q 47.609375 58.5 49.21875 52.21875 
Q 50.828125 45.953125 50.828125 35.296875 
Q 50.828125 22.703125 48.234375 14.96875 
Q 45.65625 7.234375 40.5 3 
Q 35.359375 -1.21875 27.484375 -1.21875 
Q 17.140625 -1.21875 11.234375 6.203125 
Q 4.15625 15.140625 4.15625 35.296875 
z
M 13.1875 35.296875 
Q 13.1875 17.671875 17.3125 11.828125 
Q 21.4375 6 27.484375 6 
Q 33.546875 6 37.671875 11.859375 
Q 41.796875 17.71875 41.796875 35.296875 
Q 41.796875 52.984375 37.671875 58.78125 
Q 33.546875 64.59375 27.390625 64.59375 
Q 21.34375 64.59375 17.71875 59.46875 
Q 13.1875 52.9375 13.1875 35.296875 
z
" id="ArialMT-48"/>
       </defs>
       <use xlink:href="#ArialMT-48"/>
      </g>
     </g>
    </g>
    <g id="xtick_2">
     <g id="line2d_2">
      <path clip-path="url(#p027ac29a9a)" d="M 248.578718 457.306875 
L 248.578718 39.406875 
" style="fill:none;stroke:#ffffff;stroke-linecap:round;"/>
     </g>
     <g id="text_2">
      <!-- 25 -->
      <g style="fill:#262626;" transform="translate(230.227624 490.427656)scale(0.33 -0.33)">
       <defs>
        <path d="M 50.34375 8.453125 
L 50.34375 0 
L 3.03125 0 
Q 2.9375 3.171875 4.046875 6.109375 
Q 5.859375 10.9375 9.828125 15.625 
Q 13.8125 20.3125 21.34375 26.46875 
Q 33.015625 36.03125 37.109375 41.625 
Q 41.21875 47.21875 41.21875 52.203125 
Q 41.21875 57.421875 37.46875 61 
Q 33.734375 64.59375 27.734375 64.59375 
Q 21.390625 64.59375 17.578125 60.78125 
Q 13.765625 56.984375 13.71875 50.25 
L 4.6875 51.171875 
Q 5.609375 61.28125 11.65625 66.578125 
Q 17.71875 71.875 27.9375 71.875 
Q 38.234375 71.875 44.234375 66.15625 
Q 50.25 60.453125 50.25 52 
Q 50.25 47.703125 48.484375 43.546875 
Q 46.734375 39.40625 42.65625 34.8125 
Q 38.578125 30.21875 29.109375 22.21875 
Q 21.1875 15.578125 18.9375 13.203125 
Q 16.703125 10.84375 15.234375 8.453125 
z
" id="ArialMT-50"/>
        <path d="M 4.15625 18.75 
L 13.375 19.53125 
Q 14.40625 12.796875 18.140625 9.390625 
Q 21.875 6 27.15625 6 
Q 33.5 6 37.890625 10.78125 
Q 42.28125 15.578125 42.28125 23.484375 
Q 42.28125 31 38.0625 35.34375 
Q 33.84375 39.703125 27 39.703125 
Q 22.75 39.703125 19.328125 37.765625 
Q 15.921875 35.84375 13.96875 32.765625 
L 5.71875 33.84375 
L 12.640625 70.609375 
L 48.25 70.609375 
L 48.25 62.203125 
L 19.671875 62.203125 
L 15.828125 42.96875 
Q 22.265625 47.46875 29.34375 47.46875 
Q 38.71875 47.46875 45.15625 40.96875 
Q 51.609375 34.46875 51.609375 24.265625 
Q 51.609375 14.546875 45.953125 7.46875 
Q 39.0625 -1.21875 27.15625 -1.21875 
Q 17.390625 -1.21875 11.203125 4.25 
Q 5.03125 9.71875 4.15625 18.75 
z
" id="ArialMT-53"/>
       </defs>
       <use xlink:href="#ArialMT-50"/>
       <use x="55.615234" xlink:href="#ArialMT-53"/>
      </g>
     </g>
    </g>
    <g id="xtick_3">
     <g id="line2d_3">
      <path clip-path="url(#p027ac29a9a)" d="M 382.029094 457.306875 
L 382.029094 39.406875 
" style="fill:none;stroke:#ffffff;stroke-linecap:round;"/>
     </g>
     <g id="text_3">
      <!-- 50 -->
      <g style="fill:#262626;" transform="translate(363.678 490.427656)scale(0.33 -0.33)">
       <use xlink:href="#ArialMT-53"/>
       <use x="55.615234" xlink:href="#ArialMT-48"/>
      </g>
     </g>
    </g>
    <g id="text_4">
     <!-- Epoch -->
     <g style="fill:#262626;" transform="translate(216.226146 526.754531)scale(0.36 -0.36)">
      <defs>
       <path d="M 7.90625 0 
L 7.90625 71.578125 
L 59.671875 71.578125 
L 59.671875 63.140625 
L 17.390625 63.140625 
L 17.390625 41.21875 
L 56.984375 41.21875 
L 56.984375 32.8125 
L 17.390625 32.8125 
L 17.390625 8.453125 
L 61.328125 8.453125 
L 61.328125 0 
z
" id="ArialMT-69"/>
       <path d="M 6.59375 -19.875 
L 6.59375 51.859375 
L 14.59375 51.859375 
L 14.59375 45.125 
Q 17.4375 49.078125 21 51.046875 
Q 24.5625 53.03125 29.640625 53.03125 
Q 36.28125 53.03125 41.359375 49.609375 
Q 46.4375 46.1875 49.015625 39.953125 
Q 51.609375 33.734375 51.609375 26.3125 
Q 51.609375 18.359375 48.75 11.984375 
Q 45.90625 5.609375 40.453125 2.21875 
Q 35.015625 -1.171875 29 -1.171875 
Q 24.609375 -1.171875 21.109375 0.6875 
Q 17.625 2.546875 15.375 5.375 
L 15.375 -19.875 
z
M 14.546875 25.640625 
Q 14.546875 15.625 18.59375 10.84375 
Q 22.65625 6.0625 28.421875 6.0625 
Q 34.28125 6.0625 38.453125 11.015625 
Q 42.625 15.96875 42.625 26.375 
Q 42.625 36.28125 38.546875 41.203125 
Q 34.46875 46.140625 28.8125 46.140625 
Q 23.1875 46.140625 18.859375 40.890625 
Q 14.546875 35.640625 14.546875 25.640625 
z
" id="ArialMT-112"/>
       <path d="M 3.328125 25.921875 
Q 3.328125 40.328125 11.328125 47.265625 
Q 18.015625 53.03125 27.640625 53.03125 
Q 38.328125 53.03125 45.109375 46.015625 
Q 51.90625 39.015625 51.90625 26.65625 
Q 51.90625 16.65625 48.90625 10.90625 
Q 45.90625 5.171875 40.15625 2 
Q 34.421875 -1.171875 27.640625 -1.171875 
Q 16.75 -1.171875 10.03125 5.8125 
Q 3.328125 12.796875 3.328125 25.921875 
z
M 12.359375 25.921875 
Q 12.359375 15.96875 16.703125 11.015625 
Q 21.046875 6.0625 27.640625 6.0625 
Q 34.1875 6.0625 38.53125 11.03125 
Q 42.875 16.015625 42.875 26.21875 
Q 42.875 35.84375 38.5 40.796875 
Q 34.125 45.75 27.640625 45.75 
Q 21.046875 45.75 16.703125 40.8125 
Q 12.359375 35.890625 12.359375 25.921875 
z
" id="ArialMT-111"/>
       <path d="M 40.4375 19 
L 49.078125 17.875 
Q 47.65625 8.9375 41.8125 3.875 
Q 35.984375 -1.171875 27.484375 -1.171875 
Q 16.84375 -1.171875 10.375 5.78125 
Q 3.90625 12.75 3.90625 25.734375 
Q 3.90625 34.125 6.6875 40.421875 
Q 9.46875 46.734375 15.15625 49.875 
Q 20.84375 53.03125 27.546875 53.03125 
Q 35.984375 53.03125 41.359375 48.75 
Q 46.734375 44.484375 48.25 36.625 
L 39.703125 35.296875 
Q 38.484375 40.53125 35.375 43.15625 
Q 32.28125 45.796875 27.875 45.796875 
Q 21.234375 45.796875 17.078125 41.03125 
Q 12.9375 36.28125 12.9375 25.984375 
Q 12.9375 15.53125 16.9375 10.796875 
Q 20.953125 6.0625 27.390625 6.0625 
Q 32.5625 6.0625 36.03125 9.234375 
Q 39.5 12.40625 40.4375 19 
z
" id="ArialMT-99"/>
       <path d="M 6.59375 0 
L 6.59375 71.578125 
L 15.375 71.578125 
L 15.375 45.90625 
Q 21.53125 53.03125 30.90625 53.03125 
Q 36.671875 53.03125 40.921875 50.75 
Q 45.171875 48.484375 47 44.484375 
Q 48.828125 40.484375 48.828125 32.859375 
L 48.828125 0 
L 40.046875 0 
L 40.046875 32.859375 
Q 40.046875 39.453125 37.1875 42.453125 
Q 34.328125 45.453125 29.109375 45.453125 
Q 25.203125 45.453125 21.75 43.421875 
Q 18.3125 41.40625 16.84375 37.9375 
Q 15.375 34.46875 15.375 28.375 
L 15.375 0 
z
" id="ArialMT-104"/>
      </defs>
      <use xlink:href="#ArialMT-69"/>
      <use x="66.699219" xlink:href="#ArialMT-112"/>
      <use x="122.314453" xlink:href="#ArialMT-111"/>
      <use x="177.929688" xlink:href="#ArialMT-99"/>
      <use x="227.929688" xlink:href="#ArialMT-104"/>
     </g>
    </g>
   </g>
   <g id="matplotlib.axis_2">
    <g id="ytick_1">
     <g id="line2d_4">
      <path clip-path="url(#p027ac29a9a)" d="M 99.915 389.494028 
L 434.608542 389.494028 
" style="fill:none;stroke:#ffffff;stroke-linecap:round;"/>
     </g>
     <g id="text_5">
      <!-- 0.6 -->
      <g style="fill:#262626;" transform="translate(44.545 401.304418)scale(0.33 -0.33)">
       <defs>
        <path d="M 9.078125 0 
L 9.078125 10.015625 
L 19.09375 10.015625 
L 19.09375 0 
z
" id="ArialMT-46"/>
        <path d="M 49.75 54.046875 
L 41.015625 53.375 
Q 39.84375 58.546875 37.703125 60.890625 
Q 34.125 64.65625 28.90625 64.65625 
Q 24.703125 64.65625 21.53125 62.3125 
Q 17.390625 59.28125 14.984375 53.46875 
Q 12.59375 47.65625 12.5 36.921875 
Q 15.671875 41.75 20.265625 44.09375 
Q 24.859375 46.4375 29.890625 46.4375 
Q 38.671875 46.4375 44.84375 39.96875 
Q 51.03125 33.5 51.03125 23.25 
Q 51.03125 16.5 48.125 10.71875 
Q 45.21875 4.9375 40.140625 1.859375 
Q 35.0625 -1.21875 28.609375 -1.21875 
Q 17.625 -1.21875 10.6875 6.859375 
Q 3.765625 14.9375 3.765625 33.5 
Q 3.765625 54.25 11.421875 63.671875 
Q 18.109375 71.875 29.4375 71.875 
Q 37.890625 71.875 43.28125 67.140625 
Q 48.6875 62.40625 49.75 54.046875 
z
M 13.875 23.1875 
Q 13.875 18.65625 15.796875 14.5 
Q 17.71875 10.359375 21.1875 8.171875 
Q 24.65625 6 28.46875 6 
Q 34.03125 6 38.03125 10.484375 
Q 42.046875 14.984375 42.046875 22.703125 
Q 42.046875 30.125 38.078125 34.390625 
Q 34.125 38.671875 28.125 38.671875 
Q 22.171875 38.671875 18.015625 34.390625 
Q 13.875 30.125 13.875 23.1875 
z
" id="ArialMT-54"/>
       </defs>
       <use xlink:href="#ArialMT-48"/>
       <use x="55.615234" xlink:href="#ArialMT-46"/>
       <use x="83.398438" xlink:href="#ArialMT-54"/>
      </g>
     </g>
    </g>
    <g id="ytick_2">
     <g id="line2d_5">
      <path clip-path="url(#p027ac29a9a)" d="M 99.915 305.913134 
L 434.608542 305.913134 
" style="fill:none;stroke:#ffffff;stroke-linecap:round;"/>
     </g>
     <g id="text_6">
      <!-- 0.7 -->
      <g style="fill:#262626;" transform="translate(44.545 317.723525)scale(0.33 -0.33)">
       <defs>
        <path d="M 4.734375 62.203125 
L 4.734375 70.65625 
L 51.078125 70.65625 
L 51.078125 63.8125 
Q 44.234375 56.546875 37.515625 44.484375 
Q 30.8125 32.421875 27.15625 19.671875 
Q 24.515625 10.6875 23.78125 0 
L 14.75 0 
Q 14.890625 8.453125 18.0625 20.40625 
Q 21.234375 32.375 27.171875 43.484375 
Q 33.109375 54.59375 39.796875 62.203125 
z
" id="ArialMT-55"/>
       </defs>
       <use xlink:href="#ArialMT-48"/>
       <use x="55.615234" xlink:href="#ArialMT-46"/>
       <use x="83.398438" xlink:href="#ArialMT-55"/>
      </g>
     </g>
    </g>
    <g id="ytick_3">
     <g id="line2d_6">
      <path clip-path="url(#p027ac29a9a)" d="M 99.915 222.332241 
L 434.608542 222.332241 
" style="fill:none;stroke:#ffffff;stroke-linecap:round;"/>
     </g>
     <g id="text_7">
      <!-- 0.8 -->
      <g style="fill:#262626;" transform="translate(44.545 234.142631)scale(0.33 -0.33)">
       <defs>
        <path d="M 17.671875 38.8125 
Q 12.203125 40.828125 9.5625 44.53125 
Q 6.9375 48.25 6.9375 53.421875 
Q 6.9375 61.234375 12.546875 66.546875 
Q 18.171875 71.875 27.484375 71.875 
Q 36.859375 71.875 42.578125 66.421875 
Q 48.296875 60.984375 48.296875 53.171875 
Q 48.296875 48.1875 45.671875 44.5 
Q 43.0625 40.828125 37.75 38.8125 
Q 44.34375 36.671875 47.78125 31.875 
Q 51.21875 27.09375 51.21875 20.453125 
Q 51.21875 11.28125 44.71875 5.03125 
Q 38.234375 -1.21875 27.640625 -1.21875 
Q 17.046875 -1.21875 10.546875 5.046875 
Q 4.046875 11.328125 4.046875 20.703125 
Q 4.046875 27.6875 7.59375 32.390625 
Q 11.140625 37.109375 17.671875 38.8125 
z
M 15.921875 53.71875 
Q 15.921875 48.640625 19.1875 45.40625 
Q 22.46875 42.1875 27.6875 42.1875 
Q 32.765625 42.1875 36.015625 45.375 
Q 39.265625 48.578125 39.265625 53.21875 
Q 39.265625 58.0625 35.90625 61.359375 
Q 32.5625 64.65625 27.59375 64.65625 
Q 22.5625 64.65625 19.234375 61.421875 
Q 15.921875 58.203125 15.921875 53.71875 
z
M 13.09375 20.65625 
Q 13.09375 16.890625 14.875 13.375 
Q 16.65625 9.859375 20.171875 7.921875 
Q 23.6875 6 27.734375 6 
Q 34.03125 6 38.125 10.046875 
Q 42.234375 14.109375 42.234375 20.359375 
Q 42.234375 26.703125 38.015625 30.859375 
Q 33.796875 35.015625 27.4375 35.015625 
Q 21.234375 35.015625 17.15625 30.90625 
Q 13.09375 26.8125 13.09375 20.65625 
z
" id="ArialMT-56"/>
       </defs>
       <use xlink:href="#ArialMT-48"/>
       <use x="55.615234" xlink:href="#ArialMT-46"/>
       <use x="83.398438" xlink:href="#ArialMT-56"/>
      </g>
     </g>
    </g>
    <g id="ytick_4">
     <g id="line2d_7">
      <path clip-path="url(#p027ac29a9a)" d="M 99.915 138.751347 
L 434.608542 138.751347 
" style="fill:none;stroke:#ffffff;stroke-linecap:round;"/>
     </g>
     <g id="text_8">
      <!-- 0.9 -->
      <g style="fill:#262626;" transform="translate(44.545 150.561738)scale(0.33 -0.33)">
       <defs>
        <path d="M 5.46875 16.546875 
L 13.921875 17.328125 
Q 14.984375 11.375 18.015625 8.6875 
Q 21.046875 6 25.78125 6 
Q 29.828125 6 32.875 7.859375 
Q 35.9375 9.71875 37.890625 12.8125 
Q 39.84375 15.921875 41.15625 21.1875 
Q 42.484375 26.46875 42.484375 31.9375 
Q 42.484375 32.515625 42.4375 33.6875 
Q 39.796875 29.5 35.234375 26.875 
Q 30.671875 24.265625 25.34375 24.265625 
Q 16.453125 24.265625 10.296875 30.703125 
Q 4.15625 37.15625 4.15625 47.703125 
Q 4.15625 58.59375 10.578125 65.234375 
Q 17 71.875 26.65625 71.875 
Q 33.640625 71.875 39.421875 68.109375 
Q 45.21875 64.359375 48.21875 57.390625 
Q 51.21875 50.4375 51.21875 37.25 
Q 51.21875 23.53125 48.234375 15.40625 
Q 45.265625 7.28125 39.375 3.03125 
Q 33.5 -1.21875 25.59375 -1.21875 
Q 17.1875 -1.21875 11.859375 3.4375 
Q 6.546875 8.109375 5.46875 16.546875 
z
M 41.453125 48.140625 
Q 41.453125 55.71875 37.421875 60.15625 
Q 33.40625 64.59375 27.734375 64.59375 
Q 21.875 64.59375 17.53125 59.8125 
Q 13.1875 55.03125 13.1875 47.40625 
Q 13.1875 40.578125 17.3125 36.296875 
Q 21.4375 32.03125 27.484375 32.03125 
Q 33.59375 32.03125 37.515625 36.296875 
Q 41.453125 40.578125 41.453125 48.140625 
z
" id="ArialMT-57"/>
       </defs>
       <use xlink:href="#ArialMT-48"/>
       <use x="55.615234" xlink:href="#ArialMT-46"/>
       <use x="83.398438" xlink:href="#ArialMT-57"/>
      </g>
     </g>
    </g>
    <g id="ytick_5">
     <g id="line2d_8">
      <path clip-path="url(#p027ac29a9a)" d="M 99.915 55.170453 
L 434.608542 55.170453 
" style="fill:none;stroke:#ffffff;stroke-linecap:round;"/>
     </g>
     <g id="text_9">
      <!-- 1.0 -->
      <g style="fill:#262626;" transform="translate(44.545 66.980844)scale(0.33 -0.33)">
       <defs>
        <path d="M 37.25 0 
L 28.46875 0 
L 28.46875 56 
Q 25.296875 52.984375 20.140625 49.953125 
Q 14.984375 46.921875 10.890625 45.40625 
L 10.890625 53.90625 
Q 18.265625 57.375 23.78125 62.296875 
Q 29.296875 67.234375 31.59375 71.875 
L 37.25 71.875 
z
" id="ArialMT-49"/>
       </defs>
       <use xlink:href="#ArialMT-49"/>
       <use x="55.615234" xlink:href="#ArialMT-46"/>
       <use x="83.398438" xlink:href="#ArialMT-48"/>
      </g>
     </g>
    </g>
    <g id="text_10">
     <!-- Validation Accuracy -->
     <g style="fill:#262626;" transform="translate(32.968125 404.113125)rotate(-90)scale(0.36 -0.36)">
      <defs>
       <path d="M 28.171875 0 
L 0.4375 71.578125 
L 10.6875 71.578125 
L 29.296875 19.578125 
Q 31.546875 13.328125 33.0625 7.859375 
Q 34.71875 13.71875 36.921875 19.578125 
L 56.25 71.578125 
L 65.921875 71.578125 
L 37.890625 0 
z
" id="ArialMT-86"/>
       <path d="M 40.4375 6.390625 
Q 35.546875 2.25 31.03125 0.53125 
Q 26.515625 -1.171875 21.34375 -1.171875 
Q 12.796875 -1.171875 8.203125 3 
Q 3.609375 7.171875 3.609375 13.671875 
Q 3.609375 17.484375 5.34375 20.625 
Q 7.078125 23.78125 9.890625 25.6875 
Q 12.703125 27.59375 16.21875 28.5625 
Q 18.796875 29.25 24.03125 29.890625 
Q 34.671875 31.15625 39.703125 32.90625 
Q 39.75 34.71875 39.75 35.203125 
Q 39.75 40.578125 37.25 42.78125 
Q 33.890625 45.75 27.25 45.75 
Q 21.046875 45.75 18.09375 43.578125 
Q 15.140625 41.40625 13.71875 35.890625 
L 5.125 37.0625 
Q 6.296875 42.578125 8.984375 45.96875 
Q 11.671875 49.359375 16.75 51.1875 
Q 21.828125 53.03125 28.515625 53.03125 
Q 35.15625 53.03125 39.296875 51.46875 
Q 43.453125 49.90625 45.40625 47.53125 
Q 47.359375 45.171875 48.140625 41.546875 
Q 48.578125 39.3125 48.578125 33.453125 
L 48.578125 21.734375 
Q 48.578125 9.46875 49.140625 6.21875 
Q 49.703125 2.984375 51.375 0 
L 42.1875 0 
Q 40.828125 2.734375 40.4375 6.390625 
z
M 39.703125 26.03125 
Q 34.90625 24.078125 25.34375 22.703125 
Q 19.921875 21.921875 17.671875 20.9375 
Q 15.4375 19.96875 14.203125 18.09375 
Q 12.984375 16.21875 12.984375 13.921875 
Q 12.984375 10.40625 15.640625 8.0625 
Q 18.3125 5.71875 23.4375 5.71875 
Q 28.515625 5.71875 32.46875 7.9375 
Q 36.421875 10.15625 38.28125 14.015625 
Q 39.703125 17 39.703125 22.796875 
z
" id="ArialMT-97"/>
       <path d="M 6.390625 0 
L 6.390625 71.578125 
L 15.1875 71.578125 
L 15.1875 0 
z
" id="ArialMT-108"/>
       <path d="M 6.640625 61.46875 
L 6.640625 71.578125 
L 15.4375 71.578125 
L 15.4375 61.46875 
z
M 6.640625 0 
L 6.640625 51.859375 
L 15.4375 51.859375 
L 15.4375 0 
z
" id="ArialMT-105"/>
       <path d="M 40.234375 0 
L 40.234375 6.546875 
Q 35.296875 -1.171875 25.734375 -1.171875 
Q 19.53125 -1.171875 14.328125 2.25 
Q 9.125 5.671875 6.265625 11.796875 
Q 3.421875 17.921875 3.421875 25.875 
Q 3.421875 33.640625 6 39.96875 
Q 8.59375 46.296875 13.765625 49.65625 
Q 18.953125 53.03125 25.34375 53.03125 
Q 30.03125 53.03125 33.6875 51.046875 
Q 37.359375 49.078125 39.65625 45.90625 
L 39.65625 71.578125 
L 48.390625 71.578125 
L 48.390625 0 
z
M 12.453125 25.875 
Q 12.453125 15.921875 16.640625 10.984375 
Q 20.84375 6.0625 26.5625 6.0625 
Q 32.328125 6.0625 36.34375 10.765625 
Q 40.375 15.484375 40.375 25.140625 
Q 40.375 35.796875 36.265625 40.765625 
Q 32.171875 45.75 26.171875 45.75 
Q 20.3125 45.75 16.375 40.96875 
Q 12.453125 36.1875 12.453125 25.875 
z
" id="ArialMT-100"/>
       <path d="M 25.78125 7.859375 
L 27.046875 0.09375 
Q 23.34375 -0.6875 20.40625 -0.6875 
Q 15.625 -0.6875 12.984375 0.828125 
Q 10.359375 2.34375 9.28125 4.8125 
Q 8.203125 7.28125 8.203125 15.1875 
L 8.203125 45.015625 
L 1.765625 45.015625 
L 1.765625 51.859375 
L 8.203125 51.859375 
L 8.203125 64.703125 
L 16.9375 69.96875 
L 16.9375 51.859375 
L 25.78125 51.859375 
L 25.78125 45.015625 
L 16.9375 45.015625 
L 16.9375 14.703125 
Q 16.9375 10.9375 17.40625 9.859375 
Q 17.875 8.796875 18.921875 8.15625 
Q 19.96875 7.515625 21.921875 7.515625 
Q 23.390625 7.515625 25.78125 7.859375 
z
" id="ArialMT-116"/>
       <path d="M 6.59375 0 
L 6.59375 51.859375 
L 14.5 51.859375 
L 14.5 44.484375 
Q 20.21875 53.03125 31 53.03125 
Q 35.6875 53.03125 39.625 51.34375 
Q 43.5625 49.65625 45.515625 46.921875 
Q 47.46875 44.1875 48.25 40.4375 
Q 48.734375 37.984375 48.734375 31.890625 
L 48.734375 0 
L 39.9375 0 
L 39.9375 31.546875 
Q 39.9375 36.921875 38.90625 39.578125 
Q 37.890625 42.234375 35.28125 43.8125 
Q 32.671875 45.40625 29.15625 45.40625 
Q 23.53125 45.40625 19.453125 41.84375 
Q 15.375 38.28125 15.375 28.328125 
L 15.375 0 
z
" id="ArialMT-110"/>
       <path id="ArialMT-32"/>
       <path d="M -0.140625 0 
L 27.34375 71.578125 
L 37.546875 71.578125 
L 66.84375 0 
L 56.0625 0 
L 47.703125 21.6875 
L 17.78125 21.6875 
L 9.90625 0 
z
M 20.515625 29.390625 
L 44.78125 29.390625 
L 37.3125 49.21875 
Q 33.890625 58.25 32.234375 64.0625 
Q 30.859375 57.171875 28.375 50.390625 
z
" id="ArialMT-65"/>
       <path d="M 40.578125 0 
L 40.578125 7.625 
Q 34.515625 -1.171875 24.125 -1.171875 
Q 19.53125 -1.171875 15.546875 0.578125 
Q 11.578125 2.34375 9.640625 5 
Q 7.71875 7.671875 6.9375 11.53125 
Q 6.390625 14.109375 6.390625 19.734375 
L 6.390625 51.859375 
L 15.1875 51.859375 
L 15.1875 23.09375 
Q 15.1875 16.21875 15.71875 13.8125 
Q 16.546875 10.359375 19.234375 8.375 
Q 21.921875 6.390625 25.875 6.390625 
Q 29.828125 6.390625 33.296875 8.421875 
Q 36.765625 10.453125 38.203125 13.9375 
Q 39.65625 17.4375 39.65625 24.078125 
L 39.65625 51.859375 
L 48.4375 51.859375 
L 48.4375 0 
z
" id="ArialMT-117"/>
       <path d="M 6.5 0 
L 6.5 51.859375 
L 14.40625 51.859375 
L 14.40625 44 
Q 17.4375 49.515625 20 51.265625 
Q 22.5625 53.03125 25.640625 53.03125 
Q 30.078125 53.03125 34.671875 50.203125 
L 31.640625 42.046875 
Q 28.421875 43.953125 25.203125 43.953125 
Q 22.3125 43.953125 20.015625 42.21875 
Q 17.71875 40.484375 16.75 37.40625 
Q 15.28125 32.71875 15.28125 27.15625 
L 15.28125 0 
z
" id="ArialMT-114"/>
       <path d="M 6.203125 -19.96875 
L 5.21875 -11.71875 
Q 8.109375 -12.5 10.25 -12.5 
Q 13.1875 -12.5 14.9375 -11.515625 
Q 16.703125 -10.546875 17.828125 -8.796875 
Q 18.65625 -7.46875 20.515625 -2.25 
Q 20.75 -1.515625 21.296875 -0.09375 
L 1.609375 51.859375 
L 11.078125 51.859375 
L 21.875 21.828125 
Q 23.96875 16.109375 25.640625 9.8125 
Q 27.15625 15.875 29.25 21.625 
L 40.328125 51.859375 
L 49.125 51.859375 
L 29.390625 -0.875 
Q 26.21875 -9.421875 24.46875 -12.640625 
Q 22.125 -17 19.09375 -19.015625 
Q 16.0625 -21.046875 11.859375 -21.046875 
Q 9.328125 -21.046875 6.203125 -19.96875 
z
" id="ArialMT-121"/>
      </defs>
      <use xlink:href="#ArialMT-86"/>
      <use x="59.324219" xlink:href="#ArialMT-97"/>
      <use x="114.939453" xlink:href="#ArialMT-108"/>
      <use x="137.15625" xlink:href="#ArialMT-105"/>
      <use x="159.373047" xlink:href="#ArialMT-100"/>
      <use x="214.988281" xlink:href="#ArialMT-97"/>
      <use x="270.603516" xlink:href="#ArialMT-116"/>
      <use x="298.386719" xlink:href="#ArialMT-105"/>
      <use x="320.603516" xlink:href="#ArialMT-111"/>
      <use x="376.21875" xlink:href="#ArialMT-110"/>
      <use x="431.833984" xlink:href="#ArialMT-32"/>
      <use x="454.117188" xlink:href="#ArialMT-65"/>
      <use x="520.816406" xlink:href="#ArialMT-99"/>
      <use x="570.816406" xlink:href="#ArialMT-99"/>
      <use x="620.816406" xlink:href="#ArialMT-117"/>
      <use x="676.431641" xlink:href="#ArialMT-114"/>
      <use x="709.732422" xlink:href="#ArialMT-97"/>
      <use x="765.347656" xlink:href="#ArialMT-99"/>
      <use x="815.347656" xlink:href="#ArialMT-121"/>
     </g>
    </g>
   </g>
   <g id="PolyCollection_1">
    <defs>
     <path d="M 115.128343 -202.590392 
L 115.128343 -102.798111 
L 120.466358 -178.582052 
L 125.804373 -250.520356 
L 131.142388 -297.860051 
L 136.480403 -324.832403 
L 141.818418 -352.669753 
L 147.156433 -373.269324 
L 152.494448 -392.191229 
L 157.832463 -408.184749 
L 163.170478 -420.067888 
L 168.508493 -425.084951 
L 173.846508 -428.855713 
L 179.184523 -442.252901 
L 184.522538 -440.331352 
L 189.860553 -443.146882 
L 195.198568 -451.308762 
L 200.536583 -450.168505 
L 205.874598 -449.971951 
L 211.212613 -451.896554 
L 216.550628 -448.294367 
L 221.888643 -457.552561 
L 227.226658 -452.665848 
L 232.564673 -457.274927 
L 237.902688 -455.38389 
L 243.240703 -458.351436 
L 248.578718 -459.430016 
L 253.916733 -456.56501 
L 259.254748 -458.986123 
L 264.592763 -457.92569 
L 269.930778 -455.964693 
L 275.268793 -456.892916 
L 280.606808 -459.786729 
L 285.944823 -455.918983 
L 291.282838 -454.946633 
L 296.620853 -458.745235 
L 301.958868 -461.273737 
L 307.296883 -458.78131 
L 312.634898 -461.593829 
L 317.972913 -449.773813 
L 323.310928 -451.724874 
L 328.648944 -457.900459 
L 333.986959 -450.429964 
L 339.324974 -462.441506 
L 344.662989 -454.950661 
L 350.001004 -452.759153 
L 355.339019 -460.908094 
L 360.677034 -455.999588 
L 366.015049 -464.86107 
L 366.015049 -466.729143 
L 366.015049 -466.729143 
L 360.677034 -473.279065 
L 355.339019 -473.984461 
L 350.001004 -461.494089 
L 344.662989 -467.921534 
L 339.324974 -468.35619 
L 333.986959 -468.894656 
L 328.648944 -470.754421 
L 323.310928 -471.8078 
L 317.972913 -467.561549 
L 312.634898 -471.458872 
L 307.296883 -471.620107 
L 301.958868 -472.121761 
L 296.620853 -470.500389 
L 291.282838 -471.930357 
L 285.944823 -468.676425 
L 280.606808 -472.463988 
L 275.268793 -472.207905 
L 269.930778 -471.129364 
L 264.592763 -472.343642 
L 259.254748 -471.047338 
L 253.916733 -472.855158 
L 248.578718 -470.697801 
L 243.240703 -472.342485 
L 237.902688 -468.831252 
L 232.564673 -467.732754 
L 227.226658 -468.379093 
L 221.888643 -468.842102 
L 216.550628 -468.721787 
L 211.212613 -466.572602 
L 205.874598 -468.211 
L 200.536583 -466.451377 
L 195.198568 -465.002909 
L 189.860553 -461.628794 
L 184.522538 -462.220783 
L 179.184523 -457.855541 
L 173.846508 -454.785324 
L 168.508493 -448.318995 
L 163.170478 -448.140463 
L 157.832463 -437.656104 
L 152.494448 -429.388817 
L 147.156433 -424.358139 
L 141.818418 -405.462342 
L 136.480403 -389.92966 
L 131.142388 -361.687754 
L 125.804373 -327.48298 
L 120.466358 -279.59228 
L 115.128343 -202.590392 
z
" id="m8ce6acd2b9" style="stroke:#f7b89c;stroke-opacity:0.2;"/>
    </defs>
    <g clip-path="url(#p027ac29a9a)">
     <use style="fill:#f7b89c;fill-opacity:0.2;stroke:#f7b89c;stroke-opacity:0.2;" x="0" xlink:href="#m8ce6acd2b9" y="541.109531"/>
    </g>
   </g>
   <g id="PolyCollection_2">
    <defs>
     <path d="M 115.128343 -319.938969 
L 115.128343 -293.376824 
L 120.466358 -384.43092 
L 125.804373 -418.592868 
L 131.142388 -440.934998 
L 136.480403 -448.171412 
L 141.818418 -453.65881 
L 147.156433 -460.566203 
L 152.494448 -461.743259 
L 157.832463 -464.355992 
L 163.170478 -465.098063 
L 168.508493 -465.695146 
L 173.846508 -467.094712 
L 179.184523 -467.063602 
L 184.522538 -468.154495 
L 189.860553 -468.677102 
L 195.198568 -471.224279 
L 200.536583 -470.182975 
L 205.874598 -469.697727 
L 211.212613 -471.104239 
L 216.550628 -472.211871 
L 221.888643 -469.983076 
L 227.226658 -472.255562 
L 232.564673 -471.839335 
L 237.902688 -471.503633 
L 243.240703 -472.386444 
L 248.578718 -474.086826 
L 253.916733 -471.179335 
L 259.254748 -473.223162 
L 264.592763 -474.608667 
L 269.930778 -472.366389 
L 275.268793 -473.717875 
L 280.606808 -473.643168 
L 285.944823 -473.931408 
L 291.282838 -469.877992 
L 296.620853 -475.12353 
L 301.958868 -471.924534 
L 307.296883 -472.040704 
L 312.634898 -474.836959 
L 317.972913 -474.998415 
L 323.310928 -475.063667 
L 328.648944 -473.345635 
L 333.986959 -474.149939 
L 339.324974 -475.89541 
L 339.324974 -476.829482 
L 339.324974 -476.829482 
L 333.986959 -477.474172 
L 328.648944 -480.700173 
L 323.310928 -478.982135 
L 317.972913 -478.481306 
L 312.634898 -480.034407 
L 307.296883 -478.702823 
L 301.958868 -477.978398 
L 296.620853 -480.573434 
L 291.282838 -477.657591 
L 285.944823 -480.03185 
L 280.606808 -479.246831 
L 275.268793 -479.601432 
L 269.930778 -478.872463 
L 264.592763 -478.273474 
L 259.254748 -478.721193 
L 253.916733 -479.248301 
L 248.578718 -478.532392 
L 243.240703 -478.077645 
L 237.902688 -478.808043 
L 232.564673 -477.630438 
L 227.226658 -478.884235 
L 221.888643 -476.621579 
L 216.550628 -477.629025 
L 211.212613 -477.217603 
L 205.874598 -476.642733 
L 200.536583 -475.89332 
L 195.198568 -476.921436 
L 189.860553 -476.672675 
L 184.522538 -475.103836 
L 179.184523 -474.895835 
L 173.846508 -474.908745 
L 168.508493 -472.71983 
L 163.170478 -471.819876 
L 157.832463 -471.945528 
L 152.494448 -470.485422 
L 147.156433 -468.470284 
L 141.818418 -464.193913 
L 136.480403 -459.994605 
L 131.142388 -452.040509 
L 125.804373 -436.252225 
L 120.466358 -402.056819 
L 115.128343 -319.938969 
z
" id="mcf90e2203a" style="stroke:#aac7fd;stroke-opacity:0.2;"/>
    </defs>
    <g clip-path="url(#p027ac29a9a)">
     <use style="fill:#aac7fd;fill-opacity:0.2;stroke:#aac7fd;stroke-opacity:0.2;" x="0" xlink:href="#mcf90e2203a" y="541.109531"/>
    </g>
   </g>
   <g id="line2d_9">
    <path clip-path="url(#p027ac29a9a)" d="M 115.128343 388.41528 
L 120.466358 312.022365 
L 125.804373 252.107863 
L 131.142388 211.335629 
L 136.480403 183.7285 
L 141.818418 162.043483 
L 147.156433 142.2958 
L 152.494448 130.319508 
L 157.832463 118.189104 
L 163.170478 107.005356 
L 168.508493 104.407558 
L 173.846508 99.289013 
L 179.184523 91.055311 
L 184.522538 89.833464 
L 189.860553 88.721693 
L 195.198568 82.953696 
L 200.536583 82.79959 
L 205.874598 82.018056 
L 211.212613 81.874953 
L 216.550628 82.601454 
L 221.888643 77.912199 
L 227.226658 80.587061 
L 232.564673 78.605691 
L 237.902688 79.00196 
L 243.240703 75.762571 
L 248.578718 76.045623 
L 253.916733 76.399447 
L 259.254748 76.092801 
L 264.592763 75.974865 
L 269.930778 77.562503 
L 275.268793 76.55912 
L 280.606808 74.984173 
L 285.944823 78.811827 
L 291.282838 77.671036 
L 296.620853 76.486719 
L 301.958868 74.411783 
L 307.296883 75.908823 
L 312.634898 74.583181 
L 317.972913 82.44185 
L 323.310928 79.343194 
L 328.648944 76.782091 
L 333.986959 81.447221 
L 339.324974 75.710683 
L 344.662989 79.673434 
L 350.001004 83.98291 
L 355.339019 73.663254 
L 360.677034 76.470205 
L 366.015049 75.314425 
L 371.353064 73.333035 
L 376.691079 80.928302 
L 382.029094 86.872397 
L 387.367109 85.221276 
L 392.705124 71.681914 
L 398.043139 82.579423 
L 403.381154 69.370304 
L 408.719169 95.788591 
" style="fill:none;stroke:#f7b89c;stroke-linecap:round;stroke-width:3;"/>
    <defs>
     <path d="M 0 3 
C 0.795609 3 1.55874 2.683901 2.12132 2.12132 
C 2.683901 1.55874 3 0.795609 3 0 
C 3 -0.795609 2.683901 -1.55874 2.12132 -2.12132 
C 1.55874 -2.683901 0.795609 -3 0 -3 
C -0.795609 -3 -1.55874 -2.683901 -2.12132 -2.12132 
C -2.683901 -1.55874 -3 -0.795609 -3 0 
C -3 0.795609 -2.683901 1.55874 -2.12132 2.12132 
C -1.55874 2.683901 -0.795609 3 0 3 
z
" id="m59bd14fdbf"/>
    </defs>
    <g clip-path="url(#p027ac29a9a)">
     <use style="fill:#f7b89c;" x="115.128343" xlink:href="#m59bd14fdbf" y="388.41528"/>
     <use style="fill:#f7b89c;" x="120.466358" xlink:href="#m59bd14fdbf" y="312.022365"/>
     <use style="fill:#f7b89c;" x="125.804373" xlink:href="#m59bd14fdbf" y="252.107863"/>
     <use style="fill:#f7b89c;" x="131.142388" xlink:href="#m59bd14fdbf" y="211.335629"/>
     <use style="fill:#f7b89c;" x="136.480403" xlink:href="#m59bd14fdbf" y="183.7285"/>
     <use style="fill:#f7b89c;" x="141.818418" xlink:href="#m59bd14fdbf" y="162.043483"/>
     <use style="fill:#f7b89c;" x="147.156433" xlink:href="#m59bd14fdbf" y="142.2958"/>
     <use style="fill:#f7b89c;" x="152.494448" xlink:href="#m59bd14fdbf" y="130.319508"/>
     <use style="fill:#f7b89c;" x="157.832463" xlink:href="#m59bd14fdbf" y="118.189104"/>
     <use style="fill:#f7b89c;" x="163.170478" xlink:href="#m59bd14fdbf" y="107.005356"/>
     <use style="fill:#f7b89c;" x="168.508493" xlink:href="#m59bd14fdbf" y="104.407558"/>
     <use style="fill:#f7b89c;" x="173.846508" xlink:href="#m59bd14fdbf" y="99.289013"/>
     <use style="fill:#f7b89c;" x="179.184523" xlink:href="#m59bd14fdbf" y="91.055311"/>
     <use style="fill:#f7b89c;" x="184.522538" xlink:href="#m59bd14fdbf" y="89.833464"/>
     <use style="fill:#f7b89c;" x="189.860553" xlink:href="#m59bd14fdbf" y="88.721693"/>
     <use style="fill:#f7b89c;" x="195.198568" xlink:href="#m59bd14fdbf" y="82.953696"/>
     <use style="fill:#f7b89c;" x="200.536583" xlink:href="#m59bd14fdbf" y="82.79959"/>
     <use style="fill:#f7b89c;" x="205.874598" xlink:href="#m59bd14fdbf" y="82.018056"/>
     <use style="fill:#f7b89c;" x="211.212613" xlink:href="#m59bd14fdbf" y="81.874953"/>
     <use style="fill:#f7b89c;" x="216.550628" xlink:href="#m59bd14fdbf" y="82.601454"/>
     <use style="fill:#f7b89c;" x="221.888643" xlink:href="#m59bd14fdbf" y="77.912199"/>
     <use style="fill:#f7b89c;" x="227.226658" xlink:href="#m59bd14fdbf" y="80.587061"/>
     <use style="fill:#f7b89c;" x="232.564673" xlink:href="#m59bd14fdbf" y="78.605691"/>
     <use style="fill:#f7b89c;" x="237.902688" xlink:href="#m59bd14fdbf" y="79.00196"/>
     <use style="fill:#f7b89c;" x="243.240703" xlink:href="#m59bd14fdbf" y="75.762571"/>
     <use style="fill:#f7b89c;" x="248.578718" xlink:href="#m59bd14fdbf" y="76.045623"/>
     <use style="fill:#f7b89c;" x="253.916733" xlink:href="#m59bd14fdbf" y="76.399447"/>
     <use style="fill:#f7b89c;" x="259.254748" xlink:href="#m59bd14fdbf" y="76.092801"/>
     <use style="fill:#f7b89c;" x="264.592763" xlink:href="#m59bd14fdbf" y="75.974865"/>
     <use style="fill:#f7b89c;" x="269.930778" xlink:href="#m59bd14fdbf" y="77.562503"/>
     <use style="fill:#f7b89c;" x="275.268793" xlink:href="#m59bd14fdbf" y="76.55912"/>
     <use style="fill:#f7b89c;" x="280.606808" xlink:href="#m59bd14fdbf" y="74.984173"/>
     <use style="fill:#f7b89c;" x="285.944823" xlink:href="#m59bd14fdbf" y="78.811827"/>
     <use style="fill:#f7b89c;" x="291.282838" xlink:href="#m59bd14fdbf" y="77.671036"/>
     <use style="fill:#f7b89c;" x="296.620853" xlink:href="#m59bd14fdbf" y="76.486719"/>
     <use style="fill:#f7b89c;" x="301.958868" xlink:href="#m59bd14fdbf" y="74.411783"/>
     <use style="fill:#f7b89c;" x="307.296883" xlink:href="#m59bd14fdbf" y="75.908823"/>
     <use style="fill:#f7b89c;" x="312.634898" xlink:href="#m59bd14fdbf" y="74.583181"/>
     <use style="fill:#f7b89c;" x="317.972913" xlink:href="#m59bd14fdbf" y="82.44185"/>
     <use style="fill:#f7b89c;" x="323.310928" xlink:href="#m59bd14fdbf" y="79.343194"/>
     <use style="fill:#f7b89c;" x="328.648944" xlink:href="#m59bd14fdbf" y="76.782091"/>
     <use style="fill:#f7b89c;" x="333.986959" xlink:href="#m59bd14fdbf" y="81.447221"/>
     <use style="fill:#f7b89c;" x="339.324974" xlink:href="#m59bd14fdbf" y="75.710683"/>
     <use style="fill:#f7b89c;" x="344.662989" xlink:href="#m59bd14fdbf" y="79.673434"/>
     <use style="fill:#f7b89c;" x="350.001004" xlink:href="#m59bd14fdbf" y="83.98291"/>
     <use style="fill:#f7b89c;" x="355.339019" xlink:href="#m59bd14fdbf" y="73.663254"/>
     <use style="fill:#f7b89c;" x="360.677034" xlink:href="#m59bd14fdbf" y="76.470205"/>
     <use style="fill:#f7b89c;" x="366.015049" xlink:href="#m59bd14fdbf" y="75.314425"/>
     <use style="fill:#f7b89c;" x="371.353064" xlink:href="#m59bd14fdbf" y="73.333035"/>
     <use style="fill:#f7b89c;" x="376.691079" xlink:href="#m59bd14fdbf" y="80.928302"/>
     <use style="fill:#f7b89c;" x="382.029094" xlink:href="#m59bd14fdbf" y="86.872397"/>
     <use style="fill:#f7b89c;" x="387.367109" xlink:href="#m59bd14fdbf" y="85.221276"/>
     <use style="fill:#f7b89c;" x="392.705124" xlink:href="#m59bd14fdbf" y="71.681914"/>
     <use style="fill:#f7b89c;" x="398.043139" xlink:href="#m59bd14fdbf" y="82.579423"/>
     <use style="fill:#f7b89c;" x="403.381154" xlink:href="#m59bd14fdbf" y="69.370304"/>
     <use style="fill:#f7b89c;" x="408.719169" xlink:href="#m59bd14fdbf" y="95.788591"/>
    </g>
   </g>
   <g id="line2d_10">
    <path clip-path="url(#p027ac29a9a)" d="M 115.128343 234.451635 
L 120.466358 147.865662 
L 125.804373 113.686985 
L 131.142388 94.621778 
L 136.480403 87.026523 
L 141.818418 82.18317 
L 147.156433 76.591288 
L 152.494448 74.995191 
L 157.832463 72.958771 
L 163.170478 72.650562 
L 168.508493 71.902043 
L 173.846508 70.107803 
L 179.184523 70.129813 
L 184.522538 69.480366 
L 189.860553 68.434642 
L 195.198568 67.036674 
L 200.536583 68.071384 
L 205.874598 67.939301 
L 211.212613 66.94861 
L 216.550628 66.189083 
L 221.888643 67.807203 
L 227.226658 65.539633 
L 232.564673 66.374644 
L 237.902688 65.953693 
L 243.240703 65.877487 
L 248.578718 64.799923 
L 253.916733 65.895713 
L 259.254748 65.137354 
L 264.592763 64.668461 
L 269.930778 65.490105 
L 275.268793 64.449878 
L 280.606808 64.664532 
L 285.944823 64.127903 
L 291.282838 67.34174 
L 296.620853 63.261049 
L 301.958868 66.158065 
L 307.296883 65.737768 
L 312.634898 63.673848 
L 317.972913 64.369671 
L 323.310928 64.08663 
L 328.648944 64.086627 
L 333.986959 65.297476 
L 339.324974 64.747085 
" style="fill:none;stroke:#aac7fd;stroke-dasharray:12,4.5;stroke-dashoffset:0;stroke-width:3;"/>
    <defs>
     <path d="M -1.5 3 
L 0 1.5 
L 1.5 3 
L 3 1.5 
L 1.5 0 
L 3 -1.5 
L 1.5 -3 
L 0 -1.5 
L -1.5 -3 
L -3 -1.5 
L -1.5 0 
L -3 1.5 
z
" id="m3ba66da370"/>
    </defs>
    <g clip-path="url(#p027ac29a9a)">
     <use style="fill:#aac7fd;" x="115.128343" xlink:href="#m3ba66da370" y="234.451635"/>
     <use style="fill:#aac7fd;" x="120.466358" xlink:href="#m3ba66da370" y="147.865662"/>
     <use style="fill:#aac7fd;" x="125.804373" xlink:href="#m3ba66da370" y="113.686985"/>
     <use style="fill:#aac7fd;" x="131.142388" xlink:href="#m3ba66da370" y="94.621778"/>
     <use style="fill:#aac7fd;" x="136.480403" xlink:href="#m3ba66da370" y="87.026523"/>
     <use style="fill:#aac7fd;" x="141.818418" xlink:href="#m3ba66da370" y="82.18317"/>
     <use style="fill:#aac7fd;" x="147.156433" xlink:href="#m3ba66da370" y="76.591288"/>
     <use style="fill:#aac7fd;" x="152.494448" xlink:href="#m3ba66da370" y="74.995191"/>
     <use style="fill:#aac7fd;" x="157.832463" xlink:href="#m3ba66da370" y="72.958771"/>
     <use style="fill:#aac7fd;" x="163.170478" xlink:href="#m3ba66da370" y="72.650562"/>
     <use style="fill:#aac7fd;" x="168.508493" xlink:href="#m3ba66da370" y="71.902043"/>
     <use style="fill:#aac7fd;" x="173.846508" xlink:href="#m3ba66da370" y="70.107803"/>
     <use style="fill:#aac7fd;" x="179.184523" xlink:href="#m3ba66da370" y="70.129813"/>
     <use style="fill:#aac7fd;" x="184.522538" xlink:href="#m3ba66da370" y="69.480366"/>
     <use style="fill:#aac7fd;" x="189.860553" xlink:href="#m3ba66da370" y="68.434642"/>
     <use style="fill:#aac7fd;" x="195.198568" xlink:href="#m3ba66da370" y="67.036674"/>
     <use style="fill:#aac7fd;" x="200.536583" xlink:href="#m3ba66da370" y="68.071384"/>
     <use style="fill:#aac7fd;" x="205.874598" xlink:href="#m3ba66da370" y="67.939301"/>
     <use style="fill:#aac7fd;" x="211.212613" xlink:href="#m3ba66da370" y="66.94861"/>
     <use style="fill:#aac7fd;" x="216.550628" xlink:href="#m3ba66da370" y="66.189083"/>
     <use style="fill:#aac7fd;" x="221.888643" xlink:href="#m3ba66da370" y="67.807203"/>
     <use style="fill:#aac7fd;" x="227.226658" xlink:href="#m3ba66da370" y="65.539633"/>
     <use style="fill:#aac7fd;" x="232.564673" xlink:href="#m3ba66da370" y="66.374644"/>
     <use style="fill:#aac7fd;" x="237.902688" xlink:href="#m3ba66da370" y="65.953693"/>
     <use style="fill:#aac7fd;" x="243.240703" xlink:href="#m3ba66da370" y="65.877487"/>
     <use style="fill:#aac7fd;" x="248.578718" xlink:href="#m3ba66da370" y="64.799923"/>
     <use style="fill:#aac7fd;" x="253.916733" xlink:href="#m3ba66da370" y="65.895713"/>
     <use style="fill:#aac7fd;" x="259.254748" xlink:href="#m3ba66da370" y="65.137354"/>
     <use style="fill:#aac7fd;" x="264.592763" xlink:href="#m3ba66da370" y="64.668461"/>
     <use style="fill:#aac7fd;" x="269.930778" xlink:href="#m3ba66da370" y="65.490105"/>
     <use style="fill:#aac7fd;" x="275.268793" xlink:href="#m3ba66da370" y="64.449878"/>
     <use style="fill:#aac7fd;" x="280.606808" xlink:href="#m3ba66da370" y="64.664532"/>
     <use style="fill:#aac7fd;" x="285.944823" xlink:href="#m3ba66da370" y="64.127903"/>
     <use style="fill:#aac7fd;" x="291.282838" xlink:href="#m3ba66da370" y="67.34174"/>
     <use style="fill:#aac7fd;" x="296.620853" xlink:href="#m3ba66da370" y="63.261049"/>
     <use style="fill:#aac7fd;" x="301.958868" xlink:href="#m3ba66da370" y="66.158065"/>
     <use style="fill:#aac7fd;" x="307.296883" xlink:href="#m3ba66da370" y="65.737768"/>
     <use style="fill:#aac7fd;" x="312.634898" xlink:href="#m3ba66da370" y="63.673848"/>
     <use style="fill:#aac7fd;" x="317.972913" xlink:href="#m3ba66da370" y="64.369671"/>
     <use style="fill:#aac7fd;" x="323.310928" xlink:href="#m3ba66da370" y="64.08663"/>
     <use style="fill:#aac7fd;" x="328.648944" xlink:href="#m3ba66da370" y="64.086627"/>
     <use style="fill:#aac7fd;" x="333.986959" xlink:href="#m3ba66da370" y="65.297476"/>
     <use style="fill:#aac7fd;" x="339.324974" xlink:href="#m3ba66da370" y="64.747085"/>
    </g>
   </g>
   <g id="line2d_11"/>
   <g id="line2d_12"/>
   <g id="patch_3">
    <path d="M 99.915 457.306875 
L 99.915 39.406875 
" style="fill:none;stroke:#ffffff;stroke-linecap:square;stroke-linejoin:miter;stroke-width:1.25;"/>
   </g>
   <g id="patch_4">
    <path d="M 99.915 457.306875 
L 434.608542 457.306875 
" style="fill:none;stroke:#ffffff;stroke-linecap:square;stroke-linejoin:miter;stroke-width:1.25;"/>
   </g>
   <g id="text_11">
    <!-- Retrain all layers -->
    <g style="fill:#262626;" transform="translate(133.218021 33.406875)scale(0.36 -0.36)">
     <defs>
      <path d="M 7.859375 0 
L 7.859375 71.578125 
L 39.59375 71.578125 
Q 49.171875 71.578125 54.140625 69.640625 
Q 59.125 67.71875 62.109375 62.828125 
Q 65.09375 57.953125 65.09375 52.046875 
Q 65.09375 44.4375 60.15625 39.203125 
Q 55.21875 33.984375 44.921875 32.5625 
Q 48.6875 30.765625 50.640625 29 
Q 54.78125 25.203125 58.5 19.484375 
L 70.953125 0 
L 59.03125 0 
L 49.5625 14.890625 
Q 45.40625 21.34375 42.71875 24.75 
Q 40.046875 28.171875 37.921875 29.53125 
Q 35.796875 30.90625 33.59375 31.453125 
Q 31.984375 31.78125 28.328125 31.78125 
L 17.328125 31.78125 
L 17.328125 0 
z
M 17.328125 39.984375 
L 37.703125 39.984375 
Q 44.1875 39.984375 47.84375 41.328125 
Q 51.515625 42.671875 53.421875 45.625 
Q 55.328125 48.578125 55.328125 52.046875 
Q 55.328125 57.125 51.640625 60.390625 
Q 47.953125 63.671875 39.984375 63.671875 
L 17.328125 63.671875 
z
" id="ArialMT-82"/>
      <path d="M 42.09375 16.703125 
L 51.171875 15.578125 
Q 49.03125 7.625 43.21875 3.21875 
Q 37.40625 -1.171875 28.375 -1.171875 
Q 17 -1.171875 10.328125 5.828125 
Q 3.65625 12.84375 3.65625 25.484375 
Q 3.65625 38.578125 10.390625 45.796875 
Q 17.140625 53.03125 27.875 53.03125 
Q 38.28125 53.03125 44.875 45.953125 
Q 51.46875 38.875 51.46875 26.03125 
Q 51.46875 25.25 51.421875 23.6875 
L 12.75 23.6875 
Q 13.234375 15.140625 17.578125 10.59375 
Q 21.921875 6.0625 28.421875 6.0625 
Q 33.25 6.0625 36.671875 8.59375 
Q 40.09375 11.140625 42.09375 16.703125 
z
M 13.234375 30.90625 
L 42.1875 30.90625 
Q 41.609375 37.453125 38.875 40.71875 
Q 34.671875 45.796875 27.984375 45.796875 
Q 21.921875 45.796875 17.796875 41.75 
Q 13.671875 37.703125 13.234375 30.90625 
z
" id="ArialMT-101"/>
      <path d="M 3.078125 15.484375 
L 11.765625 16.84375 
Q 12.5 11.625 15.84375 8.84375 
Q 19.1875 6.0625 25.203125 6.0625 
Q 31.25 6.0625 34.171875 8.515625 
Q 37.109375 10.984375 37.109375 14.3125 
Q 37.109375 17.28125 34.515625 19 
Q 32.71875 20.171875 25.53125 21.96875 
Q 15.875 24.421875 12.140625 26.203125 
Q 8.40625 27.984375 6.46875 31.125 
Q 4.546875 34.28125 4.546875 38.09375 
Q 4.546875 41.546875 6.125 44.5 
Q 7.71875 47.46875 10.453125 49.421875 
Q 12.5 50.921875 16.03125 51.96875 
Q 19.578125 53.03125 23.640625 53.03125 
Q 29.734375 53.03125 34.34375 51.265625 
Q 38.96875 49.515625 41.15625 46.5 
Q 43.359375 43.5 44.1875 38.484375 
L 35.59375 37.3125 
Q 35.015625 41.3125 32.203125 43.546875 
Q 29.390625 45.796875 24.265625 45.796875 
Q 18.21875 45.796875 15.625 43.796875 
Q 13.03125 41.796875 13.03125 39.109375 
Q 13.03125 37.40625 14.109375 36.03125 
Q 15.1875 34.625 17.484375 33.6875 
Q 18.796875 33.203125 25.25 31.453125 
Q 34.578125 28.953125 38.25 27.359375 
Q 41.9375 25.78125 44.03125 22.75 
Q 46.140625 19.734375 46.140625 15.234375 
Q 46.140625 10.84375 43.578125 6.953125 
Q 41.015625 3.078125 36.171875 0.953125 
Q 31.34375 -1.171875 25.25 -1.171875 
Q 15.140625 -1.171875 9.84375 3.03125 
Q 4.546875 7.234375 3.078125 15.484375 
z
" id="ArialMT-115"/>
     </defs>
     <use xlink:href="#ArialMT-82"/>
     <use x="72.216797" xlink:href="#ArialMT-101"/>
     <use x="127.832031" xlink:href="#ArialMT-116"/>
     <use x="155.615234" xlink:href="#ArialMT-114"/>
     <use x="188.916016" xlink:href="#ArialMT-97"/>
     <use x="244.53125" xlink:href="#ArialMT-105"/>
     <use x="266.748047" xlink:href="#ArialMT-110"/>
     <use x="322.363281" xlink:href="#ArialMT-32"/>
     <use x="350.146484" xlink:href="#ArialMT-97"/>
     <use x="405.761719" xlink:href="#ArialMT-108"/>
     <use x="427.978516" xlink:href="#ArialMT-108"/>
     <use x="450.195312" xlink:href="#ArialMT-32"/>
     <use x="477.978516" xlink:href="#ArialMT-108"/>
     <use x="500.195312" xlink:href="#ArialMT-97"/>
     <use x="555.810547" xlink:href="#ArialMT-121"/>
     <use x="605.810547" xlink:href="#ArialMT-101"/>
     <use x="661.425781" xlink:href="#ArialMT-114"/>
     <use x="694.726562" xlink:href="#ArialMT-115"/>
    </g>
   </g>
  </g>
  <g id="axes_2">
   <g id="patch_5">
    <path d="M 471.205451 457.306875 
L 805.898992 457.306875 
L 805.898992 39.406875 
L 471.205451 39.406875 
z
" style="fill:#eaeaf2;"/>
   </g>
   <g id="matplotlib.axis_3">
    <g id="xtick_4">
     <g id="line2d_13">
      <path clip-path="url(#p404772f733)" d="M 486.418793 457.306875 
L 486.418793 39.406875 
" style="fill:none;stroke:#ffffff;stroke-linecap:round;"/>
     </g>
     <g id="text_12">
      <!-- 0 -->
      <g style="fill:#262626;" transform="translate(477.243246 490.427656)scale(0.33 -0.33)">
       <use xlink:href="#ArialMT-48"/>
      </g>
     </g>
    </g>
    <g id="xtick_5">
     <g id="line2d_14">
      <path clip-path="url(#p404772f733)" d="M 619.869169 457.306875 
L 619.869169 39.406875 
" style="fill:none;stroke:#ffffff;stroke-linecap:round;"/>
     </g>
     <g id="text_13">
      <!-- 25 -->
      <g style="fill:#262626;" transform="translate(601.518075 490.427656)scale(0.33 -0.33)">
       <use xlink:href="#ArialMT-50"/>
       <use x="55.615234" xlink:href="#ArialMT-53"/>
      </g>
     </g>
    </g>
    <g id="xtick_6">
     <g id="line2d_15">
      <path clip-path="url(#p404772f733)" d="M 753.319544 457.306875 
L 753.319544 39.406875 
" style="fill:none;stroke:#ffffff;stroke-linecap:round;"/>
     </g>
     <g id="text_14">
      <!-- 50 -->
      <g style="fill:#262626;" transform="translate(734.96845 490.427656)scale(0.33 -0.33)">
       <use xlink:href="#ArialMT-53"/>
       <use x="55.615234" xlink:href="#ArialMT-48"/>
      </g>
     </g>
    </g>
    <g id="text_15">
     <!-- Epoch -->
     <g style="fill:#262626;" transform="translate(587.516596 526.754531)scale(0.36 -0.36)">
      <use xlink:href="#ArialMT-69"/>
      <use x="66.699219" xlink:href="#ArialMT-112"/>
      <use x="122.314453" xlink:href="#ArialMT-111"/>
      <use x="177.929688" xlink:href="#ArialMT-99"/>
      <use x="227.929688" xlink:href="#ArialMT-104"/>
     </g>
    </g>
   </g>
   <g id="matplotlib.axis_4">
    <g id="ytick_6">
     <g id="line2d_16">
      <path clip-path="url(#p404772f733)" d="M 471.205451 389.494028 
L 805.898992 389.494028 
" style="fill:none;stroke:#ffffff;stroke-linecap:round;"/>
     </g>
    </g>
    <g id="ytick_7">
     <g id="line2d_17">
      <path clip-path="url(#p404772f733)" d="M 471.205451 305.913134 
L 805.898992 305.913134 
" style="fill:none;stroke:#ffffff;stroke-linecap:round;"/>
     </g>
    </g>
    <g id="ytick_8">
     <g id="line2d_18">
      <path clip-path="url(#p404772f733)" d="M 471.205451 222.332241 
L 805.898992 222.332241 
" style="fill:none;stroke:#ffffff;stroke-linecap:round;"/>
     </g>
    </g>
    <g id="ytick_9">
     <g id="line2d_19">
      <path clip-path="url(#p404772f733)" d="M 471.205451 138.751347 
L 805.898992 138.751347 
" style="fill:none;stroke:#ffffff;stroke-linecap:round;"/>
     </g>
    </g>
    <g id="ytick_10">
     <g id="line2d_20">
      <path clip-path="url(#p404772f733)" d="M 471.205451 55.170453 
L 805.898992 55.170453 
" style="fill:none;stroke:#ffffff;stroke-linecap:round;"/>
     </g>
    </g>
   </g>
   <g id="PolyCollection_3">
    <defs>
     <path d="M 486.418793 -204.710076 
L 486.418793 -111.752096 
L 491.756808 -180.062594 
L 497.094823 -258.812164 
L 502.432838 -306.835315 
L 507.770853 -335.316759 
L 513.108868 -363.437152 
L 518.446883 -382.839506 
L 523.784898 -396.754555 
L 529.122913 -407.819335 
L 534.460928 -416.002668 
L 539.798944 -426.909209 
L 545.136959 -430.458109 
L 550.474974 -437.80066 
L 555.812989 -443.439551 
L 561.151004 -447.767317 
L 566.489019 -448.563259 
L 571.827034 -448.164386 
L 577.165049 -451.555612 
L 582.503064 -455.009005 
L 587.841079 -454.614235 
L 593.179094 -456.120866 
L 598.517109 -459.613942 
L 603.855124 -459.589279 
L 609.193139 -458.618609 
L 614.531154 -456.697105 
L 619.869169 -456.739991 
L 625.207184 -457.582499 
L 630.545199 -463.989926 
L 635.883214 -460.560646 
L 641.221229 -455.953791 
L 646.559244 -458.086112 
L 651.897259 -461.376684 
L 657.235274 -460.322658 
L 662.573289 -460.069773 
L 667.911304 -460.078438 
L 673.249319 -455.248867 
L 678.587334 -452.285988 
L 683.925349 -461.301043 
L 689.263364 -458.422718 
L 694.601379 -462.266077 
L 699.939394 -459.976809 
L 705.277409 -463.878501 
L 710.615424 -461.721519 
L 715.953439 -458.530098 
L 721.291454 -461.525849 
L 726.629469 -466.299211 
L 731.967484 -466.762325 
L 737.305499 -446.309603 
L 742.643514 -447.696895 
L 742.643514 -474.316735 
L 742.643514 -474.316735 
L 737.305499 -459.853006 
L 731.967484 -471.432471 
L 726.629469 -470.794855 
L 721.291454 -466.101616 
L 715.953439 -479.004293 
L 710.615424 -472.015256 
L 705.277409 -471.674517 
L 699.939394 -471.943665 
L 694.601379 -470.810197 
L 689.263364 -471.993376 
L 683.925349 -468.968293 
L 678.587334 -470.01068 
L 673.249319 -471.67415 
L 667.911304 -470.322986 
L 662.573289 -472.025522 
L 657.235274 -471.781295 
L 651.897259 -472.451773 
L 646.559244 -471.060449 
L 641.221229 -470.88746 
L 635.883214 -469.794842 
L 630.545199 -471.906501 
L 625.207184 -470.411926 
L 619.869169 -468.9769 
L 614.531154 -468.356889 
L 609.193139 -470.109663 
L 603.855124 -469.799455 
L 598.517109 -468.101625 
L 593.179094 -467.984191 
L 587.841079 -468.147906 
L 582.503064 -467.84119 
L 577.165049 -464.315753 
L 571.827034 -465.637532 
L 566.489019 -463.785665 
L 561.151004 -462.358072 
L 555.812989 -462.370844 
L 550.474974 -458.323021 
L 545.136959 -452.566495 
L 539.798944 -451.448157 
L 534.460928 -443.817871 
L 529.122913 -439.342432 
L 523.784898 -431.980446 
L 518.446883 -420.423861 
L 513.108868 -403.148802 
L 507.770853 -391.09137 
L 502.432838 -366.82427 
L 497.094823 -339.401167 
L 491.756808 -283.79167 
L 486.418793 -204.710076 
z
" id="m346eb39228" style="stroke:#f7b89c;stroke-opacity:0.2;"/>
    </defs>
    <g clip-path="url(#p404772f733)">
     <use style="fill:#f7b89c;fill-opacity:0.2;stroke:#f7b89c;stroke-opacity:0.2;" x="0" xlink:href="#m346eb39228" y="541.109531"/>
    </g>
   </g>
   <g id="PolyCollection_4">
    <defs>
     <path d="M 486.418793 -320.105306 
L 486.418793 -294.179154 
L 491.756808 -384.736663 
L 497.094823 -421.004137 
L 502.432838 -440.003279 
L 507.770853 -450.930434 
L 513.108868 -456.218419 
L 518.446883 -457.574537 
L 523.784898 -460.868826 
L 529.122913 -463.488266 
L 534.460928 -466.200932 
L 539.798944 -467.676456 
L 545.136959 -466.843432 
L 550.474974 -470.525504 
L 555.812989 -468.854868 
L 561.151004 -468.583536 
L 566.489019 -470.121069 
L 571.827034 -470.665138 
L 577.165049 -470.179224 
L 582.503064 -471.047164 
L 587.841079 -472.280617 
L 593.179094 -470.584149 
L 598.517109 -473.77773 
L 603.855124 -472.126831 
L 609.193139 -471.129832 
L 614.531154 -472.011531 
L 619.869169 -474.174682 
L 625.207184 -471.537034 
L 630.545199 -474.331189 
L 635.883214 -471.615205 
L 641.221229 -471.984998 
L 646.559244 -471.936273 
L 651.897259 -473.812404 
L 657.235274 -471.358473 
L 662.573289 -471.840036 
L 667.911304 -472.252302 
L 673.249319 -473.705268 
L 678.587334 -472.764954 
L 683.925349 -475.754548 
L 689.263364 -476.157269 
L 694.601379 -469.710934 
L 699.939394 -468.696763 
L 699.939394 -482.707202 
L 699.939394 -482.707202 
L 694.601379 -479.051227 
L 689.263364 -477.558306 
L 683.925349 -479.392035 
L 678.587334 -478.771118 
L 673.249319 -478.139006 
L 667.911304 -478.962973 
L 662.573289 -479.092187 
L 657.235274 -480.210626 
L 651.897259 -479.793094 
L 646.559244 -479.687861 
L 641.221229 -478.852869 
L 635.883214 -478.778645 
L 630.545199 -479.457762 
L 625.207184 -477.607478 
L 619.869169 -478.521488 
L 614.531154 -478.045108 
L 609.193139 -477.209632 
L 603.855124 -478.286459 
L 598.517109 -477.944246 
L 593.179094 -477.305245 
L 587.841079 -478.859169 
L 582.503064 -478.243344 
L 577.165049 -476.513487 
L 571.827034 -477.084311 
L 566.489019 -477.364194 
L 561.151004 -476.017718 
L 555.812989 -475.526253 
L 550.474974 -476.057139 
L 545.136959 -475.930555 
L 539.798944 -473.446406 
L 534.460928 -475.076031 
L 529.122913 -470.523657 
L 523.784898 -469.686705 
L 518.446883 -467.89548 
L 513.108868 -465.090724 
L 507.770853 -460.07556 
L 502.432838 -450.176293 
L 497.094823 -434.897694 
L 491.756808 -406.682508 
L 486.418793 -320.105306 
z
" id="m925be6ad91" style="stroke:#aac7fd;stroke-opacity:0.2;"/>
    </defs>
    <g clip-path="url(#p404772f733)">
     <use style="fill:#aac7fd;fill-opacity:0.2;stroke:#aac7fd;stroke-opacity:0.2;" x="0" xlink:href="#m925be6ad91" y="541.109531"/>
    </g>
   </g>
   <g id="line2d_21">
    <path clip-path="url(#p404772f733)" d="M 486.418793 382.878446 
L 491.756808 309.182399 
L 497.094823 242.002866 
L 502.432838 204.279739 
L 507.770853 177.905467 
L 513.108868 157.816554 
L 518.446883 139.477848 
L 523.784898 126.742031 
L 529.122913 117.528648 
L 534.460928 111.199262 
L 539.798944 101.930848 
L 545.136959 99.597229 
L 550.474974 93.047691 
L 555.812989 88.204334 
L 561.151004 86.046837 
L 566.489019 84.93507 
L 571.827034 84.208572 
L 577.165049 83.173849 
L 582.503064 79.684433 
L 587.841079 79.728461 
L 593.179094 79.057003 
L 598.517109 77.251748 
L 603.855124 76.415164 
L 609.193139 76.745395 
L 614.531154 78.582534 
L 619.869169 78.251086 
L 625.207184 77.112318 
L 630.545199 73.161318 
L 635.883214 75.931787 
L 641.221229 77.688906 
L 646.559244 76.536251 
L 651.897259 74.195303 
L 657.235274 75.057555 
L 662.573289 75.061884 
L 667.911304 75.90882 
L 673.249319 77.648022 
L 678.587334 79.961197 
L 683.925349 75.974863 
L 689.263364 75.901484 
L 694.601379 74.571394 
L 699.939394 75.149295 
L 705.277409 73.333022 
L 710.615424 74.241144 
L 715.953439 72.342336 
L 721.291454 77.295799 
L 726.629469 72.562498 
L 731.967484 72.012133 
L 737.305499 88.028227 
L 742.643514 80.102716 
L 747.981529 85.881715 
L 753.319544 68.049377 
L 758.657559 71.35167 
L 763.995574 76.965571 
L 769.333589 89.184007 
" style="fill:none;stroke:#f7b89c;stroke-linecap:round;stroke-width:3;"/>
    <g clip-path="url(#p404772f733)">
     <use style="fill:#f7b89c;" x="486.418793" xlink:href="#m59bd14fdbf" y="382.878446"/>
     <use style="fill:#f7b89c;" x="491.756808" xlink:href="#m59bd14fdbf" y="309.182399"/>
     <use style="fill:#f7b89c;" x="497.094823" xlink:href="#m59bd14fdbf" y="242.002866"/>
     <use style="fill:#f7b89c;" x="502.432838" xlink:href="#m59bd14fdbf" y="204.279739"/>
     <use style="fill:#f7b89c;" x="507.770853" xlink:href="#m59bd14fdbf" y="177.905467"/>
     <use style="fill:#f7b89c;" x="513.108868" xlink:href="#m59bd14fdbf" y="157.816554"/>
     <use style="fill:#f7b89c;" x="518.446883" xlink:href="#m59bd14fdbf" y="139.477848"/>
     <use style="fill:#f7b89c;" x="523.784898" xlink:href="#m59bd14fdbf" y="126.742031"/>
     <use style="fill:#f7b89c;" x="529.122913" xlink:href="#m59bd14fdbf" y="117.528648"/>
     <use style="fill:#f7b89c;" x="534.460928" xlink:href="#m59bd14fdbf" y="111.199262"/>
     <use style="fill:#f7b89c;" x="539.798944" xlink:href="#m59bd14fdbf" y="101.930848"/>
     <use style="fill:#f7b89c;" x="545.136959" xlink:href="#m59bd14fdbf" y="99.597229"/>
     <use style="fill:#f7b89c;" x="550.474974" xlink:href="#m59bd14fdbf" y="93.047691"/>
     <use style="fill:#f7b89c;" x="555.812989" xlink:href="#m59bd14fdbf" y="88.204334"/>
     <use style="fill:#f7b89c;" x="561.151004" xlink:href="#m59bd14fdbf" y="86.046837"/>
     <use style="fill:#f7b89c;" x="566.489019" xlink:href="#m59bd14fdbf" y="84.93507"/>
     <use style="fill:#f7b89c;" x="571.827034" xlink:href="#m59bd14fdbf" y="84.208572"/>
     <use style="fill:#f7b89c;" x="577.165049" xlink:href="#m59bd14fdbf" y="83.173849"/>
     <use style="fill:#f7b89c;" x="582.503064" xlink:href="#m59bd14fdbf" y="79.684433"/>
     <use style="fill:#f7b89c;" x="587.841079" xlink:href="#m59bd14fdbf" y="79.728461"/>
     <use style="fill:#f7b89c;" x="593.179094" xlink:href="#m59bd14fdbf" y="79.057003"/>
     <use style="fill:#f7b89c;" x="598.517109" xlink:href="#m59bd14fdbf" y="77.251748"/>
     <use style="fill:#f7b89c;" x="603.855124" xlink:href="#m59bd14fdbf" y="76.415164"/>
     <use style="fill:#f7b89c;" x="609.193139" xlink:href="#m59bd14fdbf" y="76.745395"/>
     <use style="fill:#f7b89c;" x="614.531154" xlink:href="#m59bd14fdbf" y="78.582534"/>
     <use style="fill:#f7b89c;" x="619.869169" xlink:href="#m59bd14fdbf" y="78.251086"/>
     <use style="fill:#f7b89c;" x="625.207184" xlink:href="#m59bd14fdbf" y="77.112318"/>
     <use style="fill:#f7b89c;" x="630.545199" xlink:href="#m59bd14fdbf" y="73.161318"/>
     <use style="fill:#f7b89c;" x="635.883214" xlink:href="#m59bd14fdbf" y="75.931787"/>
     <use style="fill:#f7b89c;" x="641.221229" xlink:href="#m59bd14fdbf" y="77.688906"/>
     <use style="fill:#f7b89c;" x="646.559244" xlink:href="#m59bd14fdbf" y="76.536251"/>
     <use style="fill:#f7b89c;" x="651.897259" xlink:href="#m59bd14fdbf" y="74.195303"/>
     <use style="fill:#f7b89c;" x="657.235274" xlink:href="#m59bd14fdbf" y="75.057555"/>
     <use style="fill:#f7b89c;" x="662.573289" xlink:href="#m59bd14fdbf" y="75.061884"/>
     <use style="fill:#f7b89c;" x="667.911304" xlink:href="#m59bd14fdbf" y="75.90882"/>
     <use style="fill:#f7b89c;" x="673.249319" xlink:href="#m59bd14fdbf" y="77.648022"/>
     <use style="fill:#f7b89c;" x="678.587334" xlink:href="#m59bd14fdbf" y="79.961197"/>
     <use style="fill:#f7b89c;" x="683.925349" xlink:href="#m59bd14fdbf" y="75.974863"/>
     <use style="fill:#f7b89c;" x="689.263364" xlink:href="#m59bd14fdbf" y="75.901484"/>
     <use style="fill:#f7b89c;" x="694.601379" xlink:href="#m59bd14fdbf" y="74.571394"/>
     <use style="fill:#f7b89c;" x="699.939394" xlink:href="#m59bd14fdbf" y="75.149295"/>
     <use style="fill:#f7b89c;" x="705.277409" xlink:href="#m59bd14fdbf" y="73.333022"/>
     <use style="fill:#f7b89c;" x="710.615424" xlink:href="#m59bd14fdbf" y="74.241144"/>
     <use style="fill:#f7b89c;" x="715.953439" xlink:href="#m59bd14fdbf" y="72.342336"/>
     <use style="fill:#f7b89c;" x="721.291454" xlink:href="#m59bd14fdbf" y="77.295799"/>
     <use style="fill:#f7b89c;" x="726.629469" xlink:href="#m59bd14fdbf" y="72.562498"/>
     <use style="fill:#f7b89c;" x="731.967484" xlink:href="#m59bd14fdbf" y="72.012133"/>
     <use style="fill:#f7b89c;" x="737.305499" xlink:href="#m59bd14fdbf" y="88.028227"/>
     <use style="fill:#f7b89c;" x="742.643514" xlink:href="#m59bd14fdbf" y="80.102716"/>
     <use style="fill:#f7b89c;" x="747.981529" xlink:href="#m59bd14fdbf" y="85.881715"/>
     <use style="fill:#f7b89c;" x="753.319544" xlink:href="#m59bd14fdbf" y="68.049377"/>
     <use style="fill:#f7b89c;" x="758.657559" xlink:href="#m59bd14fdbf" y="71.35167"/>
     <use style="fill:#f7b89c;" x="763.995574" xlink:href="#m59bd14fdbf" y="76.965571"/>
     <use style="fill:#f7b89c;" x="769.333589" xlink:href="#m59bd14fdbf" y="89.184007"/>
    </g>
   </g>
   <g id="line2d_22">
    <path clip-path="url(#p404772f733)" d="M 486.418793 233.967301 
L 491.756808 145.399945 
L 497.094823 113.158616 
L 502.432838 96.019745 
L 507.770853 85.606534 
L 513.108868 80.45496 
L 518.446883 78.374523 
L 523.784898 75.831766 
L 529.122913 74.10357 
L 534.460928 70.47105 
L 539.798944 70.5481 
L 545.136959 69.722538 
L 550.474974 67.81821 
L 555.812989 68.918971 
L 561.151004 68.808904 
L 566.489019 67.366899 
L 571.827034 67.234807 
L 577.165049 67.763176 
L 582.503064 66.464277 
L 587.841079 65.539638 
L 593.179094 67.164834 
L 598.517109 65.248543 
L 603.855124 65.902886 
L 609.193139 66.939799 
L 614.531154 66.081212 
L 619.869169 64.761446 
L 625.207184 66.537275 
L 630.545199 64.215056 
L 635.883214 65.912606 
L 641.221229 65.690597 
L 646.559244 65.297465 
L 651.897259 64.306782 
L 657.235274 65.324982 
L 662.573289 65.64342 
L 667.911304 65.501894 
L 673.249319 65.187394 
L 678.587334 65.341495 
L 683.925349 63.53624 
L 689.263364 64.251744 
L 694.601379 66.728451 
L 699.939394 65.407549 
L 705.277409 64.747085 
" style="fill:none;stroke:#aac7fd;stroke-dasharray:12,4.5;stroke-dashoffset:0;stroke-width:3;"/>
    <g clip-path="url(#p404772f733)">
     <use style="fill:#aac7fd;" x="486.418793" xlink:href="#m3ba66da370" y="233.967301"/>
     <use style="fill:#aac7fd;" x="491.756808" xlink:href="#m3ba66da370" y="145.399945"/>
     <use style="fill:#aac7fd;" x="497.094823" xlink:href="#m3ba66da370" y="113.158616"/>
     <use style="fill:#aac7fd;" x="502.432838" xlink:href="#m3ba66da370" y="96.019745"/>
     <use style="fill:#aac7fd;" x="507.770853" xlink:href="#m3ba66da370" y="85.606534"/>
     <use style="fill:#aac7fd;" x="513.108868" xlink:href="#m3ba66da370" y="80.45496"/>
     <use style="fill:#aac7fd;" x="518.446883" xlink:href="#m3ba66da370" y="78.374523"/>
     <use style="fill:#aac7fd;" x="523.784898" xlink:href="#m3ba66da370" y="75.831766"/>
     <use style="fill:#aac7fd;" x="529.122913" xlink:href="#m3ba66da370" y="74.10357"/>
     <use style="fill:#aac7fd;" x="534.460928" xlink:href="#m3ba66da370" y="70.47105"/>
     <use style="fill:#aac7fd;" x="539.798944" xlink:href="#m3ba66da370" y="70.5481"/>
     <use style="fill:#aac7fd;" x="545.136959" xlink:href="#m3ba66da370" y="69.722538"/>
     <use style="fill:#aac7fd;" x="550.474974" xlink:href="#m3ba66da370" y="67.81821"/>
     <use style="fill:#aac7fd;" x="555.812989" xlink:href="#m3ba66da370" y="68.918971"/>
     <use style="fill:#aac7fd;" x="561.151004" xlink:href="#m3ba66da370" y="68.808904"/>
     <use style="fill:#aac7fd;" x="566.489019" xlink:href="#m3ba66da370" y="67.366899"/>
     <use style="fill:#aac7fd;" x="571.827034" xlink:href="#m3ba66da370" y="67.234807"/>
     <use style="fill:#aac7fd;" x="577.165049" xlink:href="#m3ba66da370" y="67.763176"/>
     <use style="fill:#aac7fd;" x="582.503064" xlink:href="#m3ba66da370" y="66.464277"/>
     <use style="fill:#aac7fd;" x="587.841079" xlink:href="#m3ba66da370" y="65.539638"/>
     <use style="fill:#aac7fd;" x="593.179094" xlink:href="#m3ba66da370" y="67.164834"/>
     <use style="fill:#aac7fd;" x="598.517109" xlink:href="#m3ba66da370" y="65.248543"/>
     <use style="fill:#aac7fd;" x="603.855124" xlink:href="#m3ba66da370" y="65.902886"/>
     <use style="fill:#aac7fd;" x="609.193139" xlink:href="#m3ba66da370" y="66.939799"/>
     <use style="fill:#aac7fd;" x="614.531154" xlink:href="#m3ba66da370" y="66.081212"/>
     <use style="fill:#aac7fd;" x="619.869169" xlink:href="#m3ba66da370" y="64.761446"/>
     <use style="fill:#aac7fd;" x="625.207184" xlink:href="#m3ba66da370" y="66.537275"/>
     <use style="fill:#aac7fd;" x="630.545199" xlink:href="#m3ba66da370" y="64.215056"/>
     <use style="fill:#aac7fd;" x="635.883214" xlink:href="#m3ba66da370" y="65.912606"/>
     <use style="fill:#aac7fd;" x="641.221229" xlink:href="#m3ba66da370" y="65.690597"/>
     <use style="fill:#aac7fd;" x="646.559244" xlink:href="#m3ba66da370" y="65.297465"/>
     <use style="fill:#aac7fd;" x="651.897259" xlink:href="#m3ba66da370" y="64.306782"/>
     <use style="fill:#aac7fd;" x="657.235274" xlink:href="#m3ba66da370" y="65.324982"/>
     <use style="fill:#aac7fd;" x="662.573289" xlink:href="#m3ba66da370" y="65.64342"/>
     <use style="fill:#aac7fd;" x="667.911304" xlink:href="#m3ba66da370" y="65.501894"/>
     <use style="fill:#aac7fd;" x="673.249319" xlink:href="#m3ba66da370" y="65.187394"/>
     <use style="fill:#aac7fd;" x="678.587334" xlink:href="#m3ba66da370" y="65.341495"/>
     <use style="fill:#aac7fd;" x="683.925349" xlink:href="#m3ba66da370" y="63.53624"/>
     <use style="fill:#aac7fd;" x="689.263364" xlink:href="#m3ba66da370" y="64.251744"/>
     <use style="fill:#aac7fd;" x="694.601379" xlink:href="#m3ba66da370" y="66.728451"/>
     <use style="fill:#aac7fd;" x="699.939394" xlink:href="#m3ba66da370" y="65.407549"/>
     <use style="fill:#aac7fd;" x="705.277409" xlink:href="#m3ba66da370" y="64.747085"/>
    </g>
   </g>
   <g id="patch_6">
    <path d="M 471.205451 457.306875 
L 471.205451 39.406875 
" style="fill:none;stroke:#ffffff;stroke-linecap:square;stroke-linejoin:miter;stroke-width:1.25;"/>
   </g>
   <g id="patch_7">
    <path d="M 471.205451 457.306875 
L 805.898992 457.306875 
" style="fill:none;stroke:#ffffff;stroke-linecap:square;stroke-linejoin:miter;stroke-width:1.25;"/>
   </g>
   <g id="text_16">
    <!-- Retrain first layer -->
    <g style="fill:#262626;" transform="translate(502.522846 33.406875)scale(0.36 -0.36)">
     <defs>
      <path d="M 8.6875 0 
L 8.6875 45.015625 
L 0.921875 45.015625 
L 0.921875 51.859375 
L 8.6875 51.859375 
L 8.6875 57.375 
Q 8.6875 62.59375 9.625 65.140625 
Q 10.890625 68.5625 14.078125 70.671875 
Q 17.28125 72.796875 23.046875 72.796875 
Q 26.765625 72.796875 31.25 71.921875 
L 29.9375 64.265625 
Q 27.203125 64.75 24.75 64.75 
Q 20.75 64.75 19.09375 63.03125 
Q 17.4375 61.328125 17.4375 56.640625 
L 17.4375 51.859375 
L 27.546875 51.859375 
L 27.546875 45.015625 
L 17.4375 45.015625 
L 17.4375 0 
z
" id="ArialMT-102"/>
     </defs>
     <use xlink:href="#ArialMT-82"/>
     <use x="72.216797" xlink:href="#ArialMT-101"/>
     <use x="127.832031" xlink:href="#ArialMT-116"/>
     <use x="155.615234" xlink:href="#ArialMT-114"/>
     <use x="188.916016" xlink:href="#ArialMT-97"/>
     <use x="244.53125" xlink:href="#ArialMT-105"/>
     <use x="266.748047" xlink:href="#ArialMT-110"/>
     <use x="322.363281" xlink:href="#ArialMT-32"/>
     <use x="350.146484" xlink:href="#ArialMT-102"/>
     <use x="377.929688" xlink:href="#ArialMT-105"/>
     <use x="400.146484" xlink:href="#ArialMT-114"/>
     <use x="433.447266" xlink:href="#ArialMT-115"/>
     <use x="483.447266" xlink:href="#ArialMT-116"/>
     <use x="511.230469" xlink:href="#ArialMT-32"/>
     <use x="539.013672" xlink:href="#ArialMT-108"/>
     <use x="561.230469" xlink:href="#ArialMT-97"/>
     <use x="616.845703" xlink:href="#ArialMT-121"/>
     <use x="666.845703" xlink:href="#ArialMT-101"/>
     <use x="722.460938" xlink:href="#ArialMT-114"/>
    </g>
   </g>
  </g>
  <g id="axes_3">
   <g id="patch_8">
    <path d="M 842.495901 457.306875 
L 1177.189443 457.306875 
L 1177.189443 39.406875 
L 842.495901 39.406875 
z
" style="fill:#eaeaf2;"/>
   </g>
   <g id="matplotlib.axis_5">
    <g id="xtick_7">
     <g id="line2d_23">
      <path clip-path="url(#pcca6af9bbb)" d="M 857.709244 457.306875 
L 857.709244 39.406875 
" style="fill:none;stroke:#ffffff;stroke-linecap:round;"/>
     </g>
     <g id="text_17">
      <!-- 0 -->
      <g style="fill:#262626;" transform="translate(848.533697 490.427656)scale(0.33 -0.33)">
       <use xlink:href="#ArialMT-48"/>
      </g>
     </g>
    </g>
    <g id="xtick_8">
     <g id="line2d_24">
      <path clip-path="url(#pcca6af9bbb)" d="M 991.159619 457.306875 
L 991.159619 39.406875 
" style="fill:none;stroke:#ffffff;stroke-linecap:round;"/>
     </g>
     <g id="text_18">
      <!-- 25 -->
      <g style="fill:#262626;" transform="translate(972.808526 490.427656)scale(0.33 -0.33)">
       <use xlink:href="#ArialMT-50"/>
       <use x="55.615234" xlink:href="#ArialMT-53"/>
      </g>
     </g>
    </g>
    <g id="xtick_9">
     <g id="line2d_25">
      <path clip-path="url(#pcca6af9bbb)" d="M 1124.609995 457.306875 
L 1124.609995 39.406875 
" style="fill:none;stroke:#ffffff;stroke-linecap:round;"/>
     </g>
     <g id="text_19">
      <!-- 50 -->
      <g style="fill:#262626;" transform="translate(1106.258901 490.427656)scale(0.33 -0.33)">
       <use xlink:href="#ArialMT-53"/>
       <use x="55.615234" xlink:href="#ArialMT-48"/>
      </g>
     </g>
    </g>
    <g id="text_20">
     <!-- Epoch -->
     <g style="fill:#262626;" transform="translate(958.807047 526.754531)scale(0.36 -0.36)">
      <use xlink:href="#ArialMT-69"/>
      <use x="66.699219" xlink:href="#ArialMT-112"/>
      <use x="122.314453" xlink:href="#ArialMT-111"/>
      <use x="177.929688" xlink:href="#ArialMT-99"/>
      <use x="227.929688" xlink:href="#ArialMT-104"/>
     </g>
    </g>
   </g>
   <g id="matplotlib.axis_6">
    <g id="ytick_11">
     <g id="line2d_26">
      <path clip-path="url(#pcca6af9bbb)" d="M 842.495901 389.494028 
L 1177.189443 389.494028 
" style="fill:none;stroke:#ffffff;stroke-linecap:round;"/>
     </g>
    </g>
    <g id="ytick_12">
     <g id="line2d_27">
      <path clip-path="url(#pcca6af9bbb)" d="M 842.495901 305.913134 
L 1177.189443 305.913134 
" style="fill:none;stroke:#ffffff;stroke-linecap:round;"/>
     </g>
    </g>
    <g id="ytick_13">
     <g id="line2d_28">
      <path clip-path="url(#pcca6af9bbb)" d="M 842.495901 222.332241 
L 1177.189443 222.332241 
" style="fill:none;stroke:#ffffff;stroke-linecap:round;"/>
     </g>
    </g>
    <g id="ytick_14">
     <g id="line2d_29">
      <path clip-path="url(#pcca6af9bbb)" d="M 842.495901 138.751347 
L 1177.189443 138.751347 
" style="fill:none;stroke:#ffffff;stroke-linecap:round;"/>
     </g>
    </g>
    <g id="ytick_15">
     <g id="line2d_30">
      <path clip-path="url(#pcca6af9bbb)" d="M 842.495901 55.170453 
L 1177.189443 55.170453 
" style="fill:none;stroke:#ffffff;stroke-linecap:round;"/>
     </g>
    </g>
   </g>
   <g id="PolyCollection_5">
    <defs>
     <path d="M 857.709244 -207.797781 
L 857.709244 -112.671164 
L 863.047259 -180.853026 
L 868.385274 -253.170262 
L 873.723289 -301.520884 
L 879.061304 -330.10759 
L 884.399319 -360.152849 
L 889.737334 -377.765287 
L 895.075349 -392.056698 
L 900.413364 -404.288002 
L 905.751379 -419.00901 
L 911.089394 -421.868201 
L 916.427409 -433.991801 
L 921.765424 -439.947265 
L 927.103439 -444.140987 
L 932.441454 -443.485424 
L 937.779469 -446.885404 
L 943.117484 -446.707377 
L 948.455499 -450.595094 
L 953.793514 -450.018116 
L 959.131529 -453.895966 
L 964.469544 -454.904934 
L 969.807559 -457.647968 
L 975.145574 -454.917508 
L 980.483589 -457.031899 
L 985.821604 -456.527054 
L 991.159619 -457.919001 
L 996.497634 -457.261847 
L 1001.835649 -455.272469 
L 1007.173664 -457.666577 
L 1012.511679 -452.081386 
L 1017.849694 -457.402082 
L 1023.187709 -456.320291 
L 1028.525724 -458.901115 
L 1033.863739 -458.748792 
L 1039.201754 -454.384201 
L 1044.539769 -461.609599 
L 1049.877785 -458.807401 
L 1055.2158 -458.954129 
L 1060.553815 -460.137708 
L 1065.89183 -457.437764 
L 1071.229845 -461.195949 
L 1076.56786 -443.197037 
L 1081.905875 -450.239294 
L 1087.24389 -455.045729 
L 1092.581905 -456.946276 
L 1097.91992 -462.473315 
L 1103.257935 -464.986137 
L 1108.59595 -458.299423 
L 1113.933965 -462.184063 
L 1119.27198 -460.863137 
L 1124.609995 -447.241644 
L 1129.94801 -457.185693 
L 1135.286025 -437.141305 
L 1140.62404 -461.842095 
L 1145.962055 -466.238678 
L 1145.962055 -469.974753 
L 1145.962055 -469.974753 
L 1140.62404 -473.05046 
L 1135.286025 -461.426037 
L 1129.94801 -461.855839 
L 1124.609995 -472.460377 
L 1119.27198 -469.736393 
L 1113.933965 -471.05732 
L 1108.59595 -477.914009 
L 1103.257935 -468.255246 
L 1097.91992 -465.594509 
L 1092.581905 -472.992815 
L 1087.24389 -465.788508 
L 1081.905875 -470.594943 
L 1076.56786 -473.532923 
L 1071.229845 -470.641959 
L 1065.89183 -471.217105 
L 1060.553815 -468.810701 
L 1055.2158 -471.255158 
L 1049.877785 -471.320408 
L 1044.539769 -473.516043 
L 1039.201754 -473.683601 
L 1033.863739 -468.548476 
L 1028.525724 -471.808515 
L 1023.187709 -468.83768 
L 1017.849694 -469.488755 
L 1012.511679 -469.525798 
L 1007.173664 -471.58848 
L 1001.835649 -470.464762 
L 996.497634 -471.202234 
L 991.159619 -470.919346 
L 985.821604 -468.920949 
L 980.483589 -470.969866 
L 975.145574 -470.552498 
L 969.807559 -469.385125 
L 964.469544 -468.97998 
L 959.131529 -469.548646 
L 953.793514 -467.878647 
L 948.455499 -465.650531 
L 943.117484 -463.858314 
L 937.779469 -465.26537 
L 932.441454 -460.629791 
L 927.103439 -458.367122 
L 921.765424 -456.044332 
L 916.427409 -454.31647 
L 911.089394 -453.252935 
L 905.751379 -446.953781 
L 900.413364 -442.081219 
L 895.075349 -427.718097 
L 889.737334 -421.13906 
L 884.399319 -412.817529 
L 879.061304 -391.038888 
L 873.723289 -363.266556 
L 868.385274 -330.909278 
L 863.047259 -282.032563 
L 857.709244 -207.797781 
z
" id="m33e0ef774d" style="stroke:#f7b89c;stroke-opacity:0.2;"/>
    </defs>
    <g clip-path="url(#pcca6af9bbb)">
     <use style="fill:#f7b89c;fill-opacity:0.2;stroke:#f7b89c;stroke-opacity:0.2;" x="0" xlink:href="#m33e0ef774d" y="541.109531"/>
    </g>
   </g>
   <g id="PolyCollection_6">
    <defs>
     <path d="M 857.709244 -321.000362 
L 857.709244 -284.566057 
L 863.047259 -384.6001 
L 868.385274 -422.909038 
L 873.723289 -438.873254 
L 879.061304 -448.01987 
L 884.399319 -455.848039 
L 889.737334 -457.127746 
L 895.075349 -461.451841 
L 900.413364 -463.484378 
L 905.751379 -463.075474 
L 911.089394 -466.931909 
L 916.427409 -467.24145 
L 921.765424 -468.340094 
L 927.103439 -468.300121 
L 932.441454 -469.45551 
L 937.779469 -469.537018 
L 943.117484 -469.416085 
L 948.455499 -469.101248 
L 953.793514 -470.314939 
L 959.131529 -470.320461 
L 964.469544 -471.715726 
L 969.807559 -472.115011 
L 975.145574 -471.707386 
L 980.483589 -473.385475 
L 985.821604 -471.537733 
L 991.159619 -471.676483 
L 996.497634 -473.942059 
L 1001.835649 -471.855666 
L 1007.173664 -472.138254 
L 1012.511679 -474.684167 
L 1017.849694 -472.466225 
L 1023.187709 -471.638366 
L 1028.525724 -474.655165 
L 1033.863739 -472.895458 
L 1039.201754 -472.384847 
L 1044.539769 -472.697016 
L 1049.877785 -473.787025 
L 1055.2158 -473.005628 
L 1060.553815 -472.379329 
L 1065.89183 -471.734369 
L 1071.229845 -477.562309 
L 1076.56786 -474.711316 
L 1081.905875 -474.104025 
L 1087.24389 -477.40928 
L 1092.581905 -479.926597 
L 1092.581905 -480.393562 
L 1092.581905 -480.393562 
L 1087.24389 -480.15896 
L 1081.905875 -479.061125 
L 1076.56786 -479.994974 
L 1071.229845 -480.886549 
L 1065.89183 -479.801683 
L 1060.553815 -478.584343 
L 1055.2158 -479.058813 
L 1049.877785 -478.73974 
L 1044.539769 -478.656154 
L 1039.201754 -478.578816 
L 1033.863739 -479.052412 
L 1028.525724 -479.312928 
L 1023.187709 -478.70154 
L 1017.849694 -477.983745 
L 1012.511679 -479.153063 
L 1007.173664 -478.573821 
L 1001.835649 -479.422508 
L 996.497634 -478.837869 
L 991.159619 -479.701068 
L 985.821604 -478.276247 
L 980.483589 -478.466664 
L 975.145574 -476.940888 
L 969.807559 -478.879028 
L 964.469544 -477.183064 
L 959.131529 -477.274874 
L 953.793514 -478.425189 
L 948.455499 -476.688842 
L 943.117484 -477.078493 
L 937.779469 -476.913517 
L 932.441454 -476.576746 
L 927.103439 -475.662698 
L 921.765424 -474.852201 
L 916.427409 -474.453805 
L 911.089394 -473.574524 
L 905.751379 -472.367447 
L 900.413364 -471.165994 
L 895.075349 -469.940261 
L 889.737334 -466.537015 
L 884.399319 -463.942047 
L 879.061304 -460.432355 
L 873.723289 -451.108176 
L 868.385274 -437.439861 
L 863.047259 -402.702204 
L 857.709244 -321.000362 
z
" id="mcdeb8de5f2" style="stroke:#aac7fd;stroke-opacity:0.2;"/>
    </defs>
    <g clip-path="url(#pcca6af9bbb)">
     <use style="fill:#aac7fd;fill-opacity:0.2;stroke:#aac7fd;stroke-opacity:0.2;" x="0" xlink:href="#mcdeb8de5f2" y="541.109531"/>
    </g>
   </g>
   <g id="line2d_31">
    <path clip-path="url(#pcca6af9bbb)" d="M 857.709244 380.875059 
L 863.047259 309.666737 
L 868.385274 249.069762 
L 873.723289 208.715811 
L 879.061304 180.536292 
L 884.399319 154.624342 
L 889.737334 141.657358 
L 895.075349 131.222134 
L 900.413364 117.924921 
L 905.751379 108.128136 
L 911.089394 103.548963 
L 916.427409 96.955395 
L 921.765424 93.113733 
L 927.103439 89.855477 
L 932.441454 89.051924 
L 937.779469 85.034144 
L 943.117484 85.826686 
L 948.455499 82.986719 
L 953.793514 82.16115 
L 959.131529 79.387225 
L 964.469544 79.167074 
L 969.807559 77.592985 
L 975.145574 78.374528 
L 980.483589 77.108649 
L 985.821604 78.38553 
L 991.159619 76.690358 
L 996.497634 76.877491 
L 1001.835649 78.240916 
L 1007.173664 76.482003 
L 1012.511679 80.305939 
L 1017.849694 77.664113 
L 1023.187709 78.530546 
L 1028.525724 75.754716 
L 1033.863739 77.460897 
L 1039.201754 77.07563 
L 1044.539769 73.54671 
L 1049.877785 76.045627 
L 1055.2158 76.004888 
L 1060.553815 76.635327 
L 1065.89183 76.782096 
L 1071.229845 75.190577 
L 1076.56786 82.744551 
L 1081.905875 80.692413 
L 1087.24389 80.692413 
L 1092.581905 76.139986 
L 1097.91992 77.075619 
L 1103.257935 74.48884 
L 1108.59595 73.002816 
L 1113.933965 74.48884 
L 1119.27198 75.809766 
L 1124.609995 81.258521 
L 1129.94801 81.588765 
L 1135.286025 91.82586 
L 1140.62404 73.663254 
L 1145.962055 73.002816 
L 1151.30007 77.295765 
L 1156.638085 73.333035 
L 1161.9761 79.277131 
" style="fill:none;stroke:#f7b89c;stroke-linecap:round;stroke-width:3;"/>
    <g clip-path="url(#pcca6af9bbb)">
     <use style="fill:#f7b89c;" x="857.709244" xlink:href="#m59bd14fdbf" y="380.875059"/>
     <use style="fill:#f7b89c;" x="863.047259" xlink:href="#m59bd14fdbf" y="309.666737"/>
     <use style="fill:#f7b89c;" x="868.385274" xlink:href="#m59bd14fdbf" y="249.069762"/>
     <use style="fill:#f7b89c;" x="873.723289" xlink:href="#m59bd14fdbf" y="208.715811"/>
     <use style="fill:#f7b89c;" x="879.061304" xlink:href="#m59bd14fdbf" y="180.536292"/>
     <use style="fill:#f7b89c;" x="884.399319" xlink:href="#m59bd14fdbf" y="154.624342"/>
     <use style="fill:#f7b89c;" x="889.737334" xlink:href="#m59bd14fdbf" y="141.657358"/>
     <use style="fill:#f7b89c;" x="895.075349" xlink:href="#m59bd14fdbf" y="131.222134"/>
     <use style="fill:#f7b89c;" x="900.413364" xlink:href="#m59bd14fdbf" y="117.924921"/>
     <use style="fill:#f7b89c;" x="905.751379" xlink:href="#m59bd14fdbf" y="108.128136"/>
     <use style="fill:#f7b89c;" x="911.089394" xlink:href="#m59bd14fdbf" y="103.548963"/>
     <use style="fill:#f7b89c;" x="916.427409" xlink:href="#m59bd14fdbf" y="96.955395"/>
     <use style="fill:#f7b89c;" x="921.765424" xlink:href="#m59bd14fdbf" y="93.113733"/>
     <use style="fill:#f7b89c;" x="927.103439" xlink:href="#m59bd14fdbf" y="89.855477"/>
     <use style="fill:#f7b89c;" x="932.441454" xlink:href="#m59bd14fdbf" y="89.051924"/>
     <use style="fill:#f7b89c;" x="937.779469" xlink:href="#m59bd14fdbf" y="85.034144"/>
     <use style="fill:#f7b89c;" x="943.117484" xlink:href="#m59bd14fdbf" y="85.826686"/>
     <use style="fill:#f7b89c;" x="948.455499" xlink:href="#m59bd14fdbf" y="82.986719"/>
     <use style="fill:#f7b89c;" x="953.793514" xlink:href="#m59bd14fdbf" y="82.16115"/>
     <use style="fill:#f7b89c;" x="959.131529" xlink:href="#m59bd14fdbf" y="79.387225"/>
     <use style="fill:#f7b89c;" x="964.469544" xlink:href="#m59bd14fdbf" y="79.167074"/>
     <use style="fill:#f7b89c;" x="969.807559" xlink:href="#m59bd14fdbf" y="77.592985"/>
     <use style="fill:#f7b89c;" x="975.145574" xlink:href="#m59bd14fdbf" y="78.374528"/>
     <use style="fill:#f7b89c;" x="980.483589" xlink:href="#m59bd14fdbf" y="77.108649"/>
     <use style="fill:#f7b89c;" x="985.821604" xlink:href="#m59bd14fdbf" y="78.38553"/>
     <use style="fill:#f7b89c;" x="991.159619" xlink:href="#m59bd14fdbf" y="76.690358"/>
     <use style="fill:#f7b89c;" x="996.497634" xlink:href="#m59bd14fdbf" y="76.877491"/>
     <use style="fill:#f7b89c;" x="1001.835649" xlink:href="#m59bd14fdbf" y="78.240916"/>
     <use style="fill:#f7b89c;" x="1007.173664" xlink:href="#m59bd14fdbf" y="76.482003"/>
     <use style="fill:#f7b89c;" x="1012.511679" xlink:href="#m59bd14fdbf" y="80.305939"/>
     <use style="fill:#f7b89c;" x="1017.849694" xlink:href="#m59bd14fdbf" y="77.664113"/>
     <use style="fill:#f7b89c;" x="1023.187709" xlink:href="#m59bd14fdbf" y="78.530546"/>
     <use style="fill:#f7b89c;" x="1028.525724" xlink:href="#m59bd14fdbf" y="75.754716"/>
     <use style="fill:#f7b89c;" x="1033.863739" xlink:href="#m59bd14fdbf" y="77.460897"/>
     <use style="fill:#f7b89c;" x="1039.201754" xlink:href="#m59bd14fdbf" y="77.07563"/>
     <use style="fill:#f7b89c;" x="1044.539769" xlink:href="#m59bd14fdbf" y="73.54671"/>
     <use style="fill:#f7b89c;" x="1049.877785" xlink:href="#m59bd14fdbf" y="76.045627"/>
     <use style="fill:#f7b89c;" x="1055.2158" xlink:href="#m59bd14fdbf" y="76.004888"/>
     <use style="fill:#f7b89c;" x="1060.553815" xlink:href="#m59bd14fdbf" y="76.635327"/>
     <use style="fill:#f7b89c;" x="1065.89183" xlink:href="#m59bd14fdbf" y="76.782096"/>
     <use style="fill:#f7b89c;" x="1071.229845" xlink:href="#m59bd14fdbf" y="75.190577"/>
     <use style="fill:#f7b89c;" x="1076.56786" xlink:href="#m59bd14fdbf" y="82.744551"/>
     <use style="fill:#f7b89c;" x="1081.905875" xlink:href="#m59bd14fdbf" y="80.692413"/>
     <use style="fill:#f7b89c;" x="1087.24389" xlink:href="#m59bd14fdbf" y="80.692413"/>
     <use style="fill:#f7b89c;" x="1092.581905" xlink:href="#m59bd14fdbf" y="76.139986"/>
     <use style="fill:#f7b89c;" x="1097.91992" xlink:href="#m59bd14fdbf" y="77.075619"/>
     <use style="fill:#f7b89c;" x="1103.257935" xlink:href="#m59bd14fdbf" y="74.48884"/>
     <use style="fill:#f7b89c;" x="1108.59595" xlink:href="#m59bd14fdbf" y="73.002816"/>
     <use style="fill:#f7b89c;" x="1113.933965" xlink:href="#m59bd14fdbf" y="74.48884"/>
     <use style="fill:#f7b89c;" x="1119.27198" xlink:href="#m59bd14fdbf" y="75.809766"/>
     <use style="fill:#f7b89c;" x="1124.609995" xlink:href="#m59bd14fdbf" y="81.258521"/>
     <use style="fill:#f7b89c;" x="1129.94801" xlink:href="#m59bd14fdbf" y="81.588765"/>
     <use style="fill:#f7b89c;" x="1135.286025" xlink:href="#m59bd14fdbf" y="91.82586"/>
     <use style="fill:#f7b89c;" x="1140.62404" xlink:href="#m59bd14fdbf" y="73.663254"/>
     <use style="fill:#f7b89c;" x="1145.962055" xlink:href="#m59bd14fdbf" y="73.002816"/>
     <use style="fill:#f7b89c;" x="1151.30007" xlink:href="#m59bd14fdbf" y="77.295765"/>
     <use style="fill:#f7b89c;" x="1156.638085" xlink:href="#m59bd14fdbf" y="73.333035"/>
     <use style="fill:#f7b89c;" x="1161.9761" xlink:href="#m59bd14fdbf" y="79.277131"/>
    </g>
   </g>
   <g id="line2d_32">
    <path clip-path="url(#pcca6af9bbb)" d="M 857.709244 238.326322 
L 863.047259 147.458379 
L 868.385274 110.935082 
L 873.723289 96.118817 
L 879.061304 86.883419 
L 884.399319 81.214488 
L 889.737334 79.277151 
L 895.075349 75.41348 
L 900.413364 73.784345 
L 905.751379 73.388071 
L 911.089394 70.856315 
L 916.427409 70.261904 
L 921.765424 69.513384 
L 927.103439 69.128122 
L 932.441454 68.093403 
L 937.779469 67.884264 
L 943.117484 67.862242 
L 948.455499 68.214486 
L 953.793514 66.739467 
L 959.131529 67.311864 
L 964.469544 66.660136 
L 969.807559 65.612512 
L 975.145574 66.785395 
L 980.483589 65.183462 
L 985.821604 66.202541 
L 991.159619 65.420756 
L 996.497634 64.719567 
L 1001.835649 65.470444 
L 1007.173664 65.753494 
L 1012.511679 64.190916 
L 1017.849694 65.884546 
L 1023.187709 65.939578 
L 1028.525724 64.125485 
L 1033.863739 65.135596 
L 1039.201754 65.6277 
L 1044.539769 65.432946 
L 1049.877785 64.846149 
L 1055.2158 65.077311 
L 1060.553815 65.627695 
L 1065.89183 65.341505 
L 1071.229845 61.885102 
L 1076.56786 63.756386 
L 1081.905875 64.526956 
L 1087.24389 62.325411 
L 1092.581905 60.949452 
L 1097.91992 66.068012 
L 1103.257935 60.123867 
" style="fill:none;stroke:#aac7fd;stroke-dasharray:12,4.5;stroke-dashoffset:0;stroke-width:3;"/>
    <g clip-path="url(#pcca6af9bbb)">
     <use style="fill:#aac7fd;" x="857.709244" xlink:href="#m3ba66da370" y="238.326322"/>
     <use style="fill:#aac7fd;" x="863.047259" xlink:href="#m3ba66da370" y="147.458379"/>
     <use style="fill:#aac7fd;" x="868.385274" xlink:href="#m3ba66da370" y="110.935082"/>
     <use style="fill:#aac7fd;" x="873.723289" xlink:href="#m3ba66da370" y="96.118817"/>
     <use style="fill:#aac7fd;" x="879.061304" xlink:href="#m3ba66da370" y="86.883419"/>
     <use style="fill:#aac7fd;" x="884.399319" xlink:href="#m3ba66da370" y="81.214488"/>
     <use style="fill:#aac7fd;" x="889.737334" xlink:href="#m3ba66da370" y="79.277151"/>
     <use style="fill:#aac7fd;" x="895.075349" xlink:href="#m3ba66da370" y="75.41348"/>
     <use style="fill:#aac7fd;" x="900.413364" xlink:href="#m3ba66da370" y="73.784345"/>
     <use style="fill:#aac7fd;" x="905.751379" xlink:href="#m3ba66da370" y="73.388071"/>
     <use style="fill:#aac7fd;" x="911.089394" xlink:href="#m3ba66da370" y="70.856315"/>
     <use style="fill:#aac7fd;" x="916.427409" xlink:href="#m3ba66da370" y="70.261904"/>
     <use style="fill:#aac7fd;" x="921.765424" xlink:href="#m3ba66da370" y="69.513384"/>
     <use style="fill:#aac7fd;" x="927.103439" xlink:href="#m3ba66da370" y="69.128122"/>
     <use style="fill:#aac7fd;" x="932.441454" xlink:href="#m3ba66da370" y="68.093403"/>
     <use style="fill:#aac7fd;" x="937.779469" xlink:href="#m3ba66da370" y="67.884264"/>
     <use style="fill:#aac7fd;" x="943.117484" xlink:href="#m3ba66da370" y="67.862242"/>
     <use style="fill:#aac7fd;" x="948.455499" xlink:href="#m3ba66da370" y="68.214486"/>
     <use style="fill:#aac7fd;" x="953.793514" xlink:href="#m3ba66da370" y="66.739467"/>
     <use style="fill:#aac7fd;" x="959.131529" xlink:href="#m3ba66da370" y="67.311864"/>
     <use style="fill:#aac7fd;" x="964.469544" xlink:href="#m3ba66da370" y="66.660136"/>
     <use style="fill:#aac7fd;" x="969.807559" xlink:href="#m3ba66da370" y="65.612512"/>
     <use style="fill:#aac7fd;" x="975.145574" xlink:href="#m3ba66da370" y="66.785395"/>
     <use style="fill:#aac7fd;" x="980.483589" xlink:href="#m3ba66da370" y="65.183462"/>
     <use style="fill:#aac7fd;" x="985.821604" xlink:href="#m3ba66da370" y="66.202541"/>
     <use style="fill:#aac7fd;" x="991.159619" xlink:href="#m3ba66da370" y="65.420756"/>
     <use style="fill:#aac7fd;" x="996.497634" xlink:href="#m3ba66da370" y="64.719567"/>
     <use style="fill:#aac7fd;" x="1001.835649" xlink:href="#m3ba66da370" y="65.470444"/>
     <use style="fill:#aac7fd;" x="1007.173664" xlink:href="#m3ba66da370" y="65.753494"/>
     <use style="fill:#aac7fd;" x="1012.511679" xlink:href="#m3ba66da370" y="64.190916"/>
     <use style="fill:#aac7fd;" x="1017.849694" xlink:href="#m3ba66da370" y="65.884546"/>
     <use style="fill:#aac7fd;" x="1023.187709" xlink:href="#m3ba66da370" y="65.939578"/>
     <use style="fill:#aac7fd;" x="1028.525724" xlink:href="#m3ba66da370" y="64.125485"/>
     <use style="fill:#aac7fd;" x="1033.863739" xlink:href="#m3ba66da370" y="65.135596"/>
     <use style="fill:#aac7fd;" x="1039.201754" xlink:href="#m3ba66da370" y="65.6277"/>
     <use style="fill:#aac7fd;" x="1044.539769" xlink:href="#m3ba66da370" y="65.432946"/>
     <use style="fill:#aac7fd;" x="1049.877785" xlink:href="#m3ba66da370" y="64.846149"/>
     <use style="fill:#aac7fd;" x="1055.2158" xlink:href="#m3ba66da370" y="65.077311"/>
     <use style="fill:#aac7fd;" x="1060.553815" xlink:href="#m3ba66da370" y="65.627695"/>
     <use style="fill:#aac7fd;" x="1065.89183" xlink:href="#m3ba66da370" y="65.341505"/>
     <use style="fill:#aac7fd;" x="1071.229845" xlink:href="#m3ba66da370" y="61.885102"/>
     <use style="fill:#aac7fd;" x="1076.56786" xlink:href="#m3ba66da370" y="63.756386"/>
     <use style="fill:#aac7fd;" x="1081.905875" xlink:href="#m3ba66da370" y="64.526956"/>
     <use style="fill:#aac7fd;" x="1087.24389" xlink:href="#m3ba66da370" y="62.325411"/>
     <use style="fill:#aac7fd;" x="1092.581905" xlink:href="#m3ba66da370" y="60.949452"/>
     <use style="fill:#aac7fd;" x="1097.91992" xlink:href="#m3ba66da370" y="66.068012"/>
     <use style="fill:#aac7fd;" x="1103.257935" xlink:href="#m3ba66da370" y="60.123867"/>
    </g>
   </g>
   <g id="patch_9">
    <path d="M 842.495901 457.306875 
L 842.495901 39.406875 
" style="fill:none;stroke:#ffffff;stroke-linecap:square;stroke-linejoin:miter;stroke-width:1.25;"/>
   </g>
   <g id="patch_10">
    <path d="M 842.495901 457.306875 
L 1177.189443 457.306875 
" style="fill:none;stroke:#ffffff;stroke-linecap:square;stroke-linejoin:miter;stroke-width:1.25;"/>
   </g>
   <g id="text_21">
    <!-- Retrain last layer -->
    <g style="fill:#262626;" transform="translate(874.797672 33.406875)scale(0.36 -0.36)">
     <use xlink:href="#ArialMT-82"/>
     <use x="72.216797" xlink:href="#ArialMT-101"/>
     <use x="127.832031" xlink:href="#ArialMT-116"/>
     <use x="155.615234" xlink:href="#ArialMT-114"/>
     <use x="188.916016" xlink:href="#ArialMT-97"/>
     <use x="244.53125" xlink:href="#ArialMT-105"/>
     <use x="266.748047" xlink:href="#ArialMT-110"/>
     <use x="322.363281" xlink:href="#ArialMT-32"/>
     <use x="350.146484" xlink:href="#ArialMT-108"/>
     <use x="372.363281" xlink:href="#ArialMT-97"/>
     <use x="427.978516" xlink:href="#ArialMT-115"/>
     <use x="477.978516" xlink:href="#ArialMT-116"/>
     <use x="505.761719" xlink:href="#ArialMT-32"/>
     <use x="533.544922" xlink:href="#ArialMT-108"/>
     <use x="555.761719" xlink:href="#ArialMT-97"/>
     <use x="611.376953" xlink:href="#ArialMT-121"/>
     <use x="661.376953" xlink:href="#ArialMT-101"/>
     <use x="716.992188" xlink:href="#ArialMT-114"/>
    </g>
   </g>
  </g>
  <g id="legend_1">
   <g id="patch_11">
    <path d="M 1183.735226 402.201797 
L 1354.059444 402.201797 
Q 1359.059444 402.201797 1359.059444 397.201797 
L 1359.059444 293.611953 
Q 1359.059444 288.611953 1354.059444 288.611953 
L 1183.735226 288.611953 
Q 1178.735226 288.611953 1178.735226 293.611953 
L 1178.735226 397.201797 
Q 1178.735226 402.201797 1183.735226 402.201797 
z
" style="fill:#eaeaf2;opacity:0.8;stroke:#cccccc;stroke-linejoin:miter;"/>
   </g>
   <g id="text_22">
    <!-- Input -->
    <g style="fill:#262626;" transform="translate(1241.098507 316.506484)scale(0.25 -0.25)">
     <defs>
      <path d="M 9.328125 0 
L 9.328125 71.578125 
L 18.796875 71.578125 
L 18.796875 0 
z
" id="ArialMT-73"/>
     </defs>
     <use xlink:href="#ArialMT-73"/>
     <use x="27.783203" xlink:href="#ArialMT-110"/>
     <use x="83.398438" xlink:href="#ArialMT-112"/>
     <use x="139.013672" xlink:href="#ArialMT-117"/>
     <use x="194.628906" xlink:href="#ArialMT-116"/>
    </g>
   </g>
   <g id="line2d_33">
    <path d="M 1188.735226 343.119766 
L 1238.735226 343.119766 
" style="fill:none;stroke:#f7b89c;stroke-linecap:round;stroke-width:1.5;"/>
   </g>
   <g id="line2d_34">
    <defs>
     <path d="M 0 3 
C 0.795609 3 1.55874 2.683901 2.12132 2.12132 
C 2.683901 1.55874 3 0.795609 3 0 
C 3 -0.795609 2.683901 -1.55874 2.12132 -2.12132 
C 1.55874 -2.683901 0.795609 -3 0 -3 
C -0.795609 -3 -1.55874 -2.683901 -2.12132 -2.12132 
C -2.683901 -1.55874 -3 -0.795609 -3 0 
C -3 0.795609 -2.683901 1.55874 -2.12132 2.12132 
C -1.55874 2.683901 -0.795609 3 0 3 
z
" id="m2dba0b7d4e" style="stroke:#f7b89c;"/>
    </defs>
    <g>
     <use style="fill:#f7b89c;stroke:#f7b89c;" x="1213.735226" xlink:href="#m2dba0b7d4e" y="343.119766"/>
    </g>
   </g>
   <g id="text_23">
    <!-- raw -->
    <g style="fill:#262626;" transform="translate(1258.735226 351.869766)scale(0.25 -0.25)">
     <defs>
      <path d="M 16.15625 0 
L 0.296875 51.859375 
L 9.375 51.859375 
L 17.625 21.921875 
L 20.703125 10.796875 
Q 20.90625 11.625 23.390625 21.484375 
L 31.640625 51.859375 
L 40.671875 51.859375 
L 48.4375 21.78125 
L 51.03125 11.859375 
L 54 21.875 
L 62.890625 51.859375 
L 71.4375 51.859375 
L 55.21875 0 
L 46.09375 0 
L 37.84375 31.0625 
L 35.84375 39.890625 
L 25.34375 0 
z
" id="ArialMT-119"/>
     </defs>
     <use xlink:href="#ArialMT-114"/>
     <use x="33.300781" xlink:href="#ArialMT-97"/>
     <use x="88.916016" xlink:href="#ArialMT-119"/>
    </g>
   </g>
   <g id="line2d_35">
    <path d="M 1188.735226 378.483047 
L 1238.735226 378.483047 
" style="fill:none;stroke:#aac7fd;stroke-dasharray:6,2.25;stroke-dashoffset:0;stroke-width:1.5;"/>
   </g>
   <g id="line2d_36">
    <defs>
     <path d="M -1.5 3 
L 0 1.5 
L 1.5 3 
L 3 1.5 
L 1.5 0 
L 3 -1.5 
L 1.5 -3 
L 0 -1.5 
L -1.5 -3 
L -3 -1.5 
L -1.5 0 
L -3 1.5 
z
" id="m96e23c71b6" style="stroke:#aac7fd;stroke-linejoin:miter;"/>
    </defs>
    <g>
     <use style="fill:#aac7fd;stroke:#aac7fd;stroke-linejoin:miter;" x="1213.735226" xlink:href="#m96e23c71b6" y="378.483047"/>
    </g>
   </g>
   <g id="text_24">
    <!-- features -->
    <g style="fill:#262626;" transform="translate(1258.735226 387.233047)scale(0.25 -0.25)">
     <use xlink:href="#ArialMT-102"/>
     <use x="27.783203" xlink:href="#ArialMT-101"/>
     <use x="83.398438" xlink:href="#ArialMT-97"/>
     <use x="139.013672" xlink:href="#ArialMT-116"/>
     <use x="166.796875" xlink:href="#ArialMT-117"/>
     <use x="222.412109" xlink:href="#ArialMT-114"/>
     <use x="255.712891" xlink:href="#ArialMT-101"/>
     <use x="311.328125" xlink:href="#ArialMT-115"/>
    </g>
   </g>
  </g>
 </g>
 <defs>
  <clipPath id="p027ac29a9a">
   <rect height="417.9" width="334.693542" x="99.915" y="39.406875"/>
  </clipPath>
  <clipPath id="p404772f733">
   <rect height="417.9" width="334.693542" x="471.205451" y="39.406875"/>
  </clipPath>
  <clipPath id="pcca6af9bbb">
   <rect height="417.9" width="334.693542" x="842.495901" y="39.406875"/>
  </clipPath>
 </defs>
</svg>
