<?xml version="1.0" encoding="utf-8" standalone="no"?>
<!DOCTYPE svg PUBLIC "-//W3C//DTD SVG 1.1//EN"
  "http://www.w3.org/Graphics/SVG/1.1/DTD/svg11.dtd">
<!-- Created with matplotlib (https://matplotlib.org/) -->
<svg height="864pt" version="1.1" viewBox="0 0 1440 864" width="1440pt" xmlns="http://www.w3.org/2000/svg" xmlns:xlink="http://www.w3.org/1999/xlink">
 <metadata>
  <rdf:RDF xmlns:cc="http://creativecommons.org/ns#" xmlns:dc="http://purl.org/dc/elements/1.1/" xmlns:rdf="http://www.w3.org/1999/02/22-rdf-syntax-ns#">
   <cc:Work>
    <dc:type rdf:resource="http://purl.org/dc/dcmitype/StillImage"/>
    <dc:date>2022-09-09T09:17:23.753417</dc:date>
    <dc:format>image/svg+xml</dc:format>
    <dc:creator>
     <cc:Agent>
      <dc:title>Matplotlib v3.3.2, https://matplotlib.org/</dc:title>
     </cc:Agent>
    </dc:creator>
   </cc:Work>
  </rdf:RDF>
 </metadata>
 <defs>
  <style type="text/css">*{stroke-linecap:butt;stroke-linejoin:round;}</style>
 </defs>
 <g id="figure_1">
  <g id="patch_1">
   <path d="M 0 864 
L 1440 864 
L 1440 0 
L 0 0 
z
" style="fill:#ffffff;"/>
  </g>
  <g id="axes_1">
   <g id="patch_2">
    <path d="M 180 768.96 
L 1296 768.96 
L 1296 103.68 
L 180 103.68 
z
" style="fill:#eaeaf2;"/>
   </g>
   <g id="matplotlib.axis_1">
    <g id="xtick_1">
     <g id="line2d_1">
      <path clip-path="url(#p6861744faf)" d="M 230.727273 768.96 
L 230.727273 103.68 
" style="fill:none;stroke:#ffffff;stroke-linecap:round;"/>
     </g>
     <g id="text_1">
      <!-- 0 -->
      <g style="fill:#262626;" transform="translate(221.551726 802.080781)scale(0.33 -0.33)">
       <defs>
        <path d="M 4.15625 35.296875 
Q 4.15625 48 6.765625 55.734375 
Q 9.375 63.484375 14.515625 67.671875 
Q 19.671875 71.875 27.484375 71.875 
Q 33.25 71.875 37.59375 69.546875 
Q 41.9375 67.234375 44.765625 62.859375 
Q 47.609375 58.5 49.21875 52.21875 
Q 50.828125 45.953125 50.828125 35.296875 
Q 50.828125 22.703125 48.234375 14.96875 
Q 45.65625 7.234375 40.5 3 
Q 35.359375 -1.21875 27.484375 -1.21875 
Q 17.140625 -1.21875 11.234375 6.203125 
Q 4.15625 15.140625 4.15625 35.296875 
z
M 13.1875 35.296875 
Q 13.1875 17.671875 17.3125 11.828125 
Q 21.4375 6 27.484375 6 
Q 33.546875 6 37.671875 11.859375 
Q 41.796875 17.71875 41.796875 35.296875 
Q 41.796875 52.984375 37.671875 58.78125 
Q 33.546875 64.59375 27.390625 64.59375 
Q 21.34375 64.59375 17.71875 59.46875 
Q 13.1875 52.9375 13.1875 35.296875 
z
" id="ArialMT-48"/>
       </defs>
       <use xlink:href="#ArialMT-48"/>
      </g>
     </g>
    </g>
    <g id="xtick_2">
     <g id="line2d_2">
      <path clip-path="url(#p6861744faf)" d="M 439.911903 768.96 
L 439.911903 103.68 
" style="fill:none;stroke:#ffffff;stroke-linecap:round;"/>
     </g>
     <g id="text_2">
      <!-- 20 -->
      <g style="fill:#262626;" transform="translate(421.560809 802.080781)scale(0.33 -0.33)">
       <defs>
        <path d="M 50.34375 8.453125 
L 50.34375 0 
L 3.03125 0 
Q 2.9375 3.171875 4.046875 6.109375 
Q 5.859375 10.9375 9.828125 15.625 
Q 13.8125 20.3125 21.34375 26.46875 
Q 33.015625 36.03125 37.109375 41.625 
Q 41.21875 47.21875 41.21875 52.203125 
Q 41.21875 57.421875 37.46875 61 
Q 33.734375 64.59375 27.734375 64.59375 
Q 21.390625 64.59375 17.578125 60.78125 
Q 13.765625 56.984375 13.71875 50.25 
L 4.6875 51.171875 
Q 5.609375 61.28125 11.65625 66.578125 
Q 17.71875 71.875 27.9375 71.875 
Q 38.234375 71.875 44.234375 66.15625 
Q 50.25 60.453125 50.25 52 
Q 50.25 47.703125 48.484375 43.546875 
Q 46.734375 39.40625 42.65625 34.8125 
Q 38.578125 30.21875 29.109375 22.21875 
Q 21.1875 15.578125 18.9375 13.203125 
Q 16.703125 10.84375 15.234375 8.453125 
z
" id="ArialMT-50"/>
       </defs>
       <use xlink:href="#ArialMT-50"/>
       <use x="55.615234" xlink:href="#ArialMT-48"/>
      </g>
     </g>
    </g>
    <g id="xtick_3">
     <g id="line2d_3">
      <path clip-path="url(#p6861744faf)" d="M 649.096532 768.96 
L 649.096532 103.68 
" style="fill:none;stroke:#ffffff;stroke-linecap:round;"/>
     </g>
     <g id="text_3">
      <!-- 40 -->
      <g style="fill:#262626;" transform="translate(630.745439 802.080781)scale(0.33 -0.33)">
       <defs>
        <path d="M 32.328125 0 
L 32.328125 17.140625 
L 1.265625 17.140625 
L 1.265625 25.203125 
L 33.9375 71.578125 
L 41.109375 71.578125 
L 41.109375 25.203125 
L 50.78125 25.203125 
L 50.78125 17.140625 
L 41.109375 17.140625 
L 41.109375 0 
z
M 32.328125 25.203125 
L 32.328125 57.46875 
L 9.90625 25.203125 
z
" id="ArialMT-52"/>
       </defs>
       <use xlink:href="#ArialMT-52"/>
       <use x="55.615234" xlink:href="#ArialMT-48"/>
      </g>
     </g>
    </g>
    <g id="xtick_4">
     <g id="line2d_4">
      <path clip-path="url(#p6861744faf)" d="M 858.281162 768.96 
L 858.281162 103.68 
" style="fill:none;stroke:#ffffff;stroke-linecap:round;"/>
     </g>
     <g id="text_4">
      <!-- 60 -->
      <g style="fill:#262626;" transform="translate(839.930068 802.080781)scale(0.33 -0.33)">
       <defs>
        <path d="M 49.75 54.046875 
L 41.015625 53.375 
Q 39.84375 58.546875 37.703125 60.890625 
Q 34.125 64.65625 28.90625 64.65625 
Q 24.703125 64.65625 21.53125 62.3125 
Q 17.390625 59.28125 14.984375 53.46875 
Q 12.59375 47.65625 12.5 36.921875 
Q 15.671875 41.75 20.265625 44.09375 
Q 24.859375 46.4375 29.890625 46.4375 
Q 38.671875 46.4375 44.84375 39.96875 
Q 51.03125 33.5 51.03125 23.25 
Q 51.03125 16.5 48.125 10.71875 
Q 45.21875 4.9375 40.140625 1.859375 
Q 35.0625 -1.21875 28.609375 -1.21875 
Q 17.625 -1.21875 10.6875 6.859375 
Q 3.765625 14.9375 3.765625 33.5 
Q 3.765625 54.25 11.421875 63.671875 
Q 18.109375 71.875 29.4375 71.875 
Q 37.890625 71.875 43.28125 67.140625 
Q 48.6875 62.40625 49.75 54.046875 
z
M 13.875 23.1875 
Q 13.875 18.65625 15.796875 14.5 
Q 17.71875 10.359375 21.1875 8.171875 
Q 24.65625 6 28.46875 6 
Q 34.03125 6 38.03125 10.484375 
Q 42.046875 14.984375 42.046875 22.703125 
Q 42.046875 30.125 38.078125 34.390625 
Q 34.125 38.671875 28.125 38.671875 
Q 22.171875 38.671875 18.015625 34.390625 
Q 13.875 30.125 13.875 23.1875 
z
" id="ArialMT-54"/>
       </defs>
       <use xlink:href="#ArialMT-54"/>
       <use x="55.615234" xlink:href="#ArialMT-48"/>
      </g>
     </g>
    </g>
    <g id="xtick_5">
     <g id="line2d_5">
      <path clip-path="url(#p6861744faf)" d="M 1067.465792 768.96 
L 1067.465792 103.68 
" style="fill:none;stroke:#ffffff;stroke-linecap:round;"/>
     </g>
     <g id="text_5">
      <!-- 80 -->
      <g style="fill:#262626;" transform="translate(1049.114698 802.080781)scale(0.33 -0.33)">
       <defs>
        <path d="M 17.671875 38.8125 
Q 12.203125 40.828125 9.5625 44.53125 
Q 6.9375 48.25 6.9375 53.421875 
Q 6.9375 61.234375 12.546875 66.546875 
Q 18.171875 71.875 27.484375 71.875 
Q 36.859375 71.875 42.578125 66.421875 
Q 48.296875 60.984375 48.296875 53.171875 
Q 48.296875 48.1875 45.671875 44.5 
Q 43.0625 40.828125 37.75 38.8125 
Q 44.34375 36.671875 47.78125 31.875 
Q 51.21875 27.09375 51.21875 20.453125 
Q 51.21875 11.28125 44.71875 5.03125 
Q 38.234375 -1.21875 27.640625 -1.21875 
Q 17.046875 -1.21875 10.546875 5.046875 
Q 4.046875 11.328125 4.046875 20.703125 
Q 4.046875 27.6875 7.59375 32.390625 
Q 11.140625 37.109375 17.671875 38.8125 
z
M 15.921875 53.71875 
Q 15.921875 48.640625 19.1875 45.40625 
Q 22.46875 42.1875 27.6875 42.1875 
Q 32.765625 42.1875 36.015625 45.375 
Q 39.265625 48.578125 39.265625 53.21875 
Q 39.265625 58.0625 35.90625 61.359375 
Q 32.5625 64.65625 27.59375 64.65625 
Q 22.5625 64.65625 19.234375 61.421875 
Q 15.921875 58.203125 15.921875 53.71875 
z
M 13.09375 20.65625 
Q 13.09375 16.890625 14.875 13.375 
Q 16.65625 9.859375 20.171875 7.921875 
Q 23.6875 6 27.734375 6 
Q 34.03125 6 38.125 10.046875 
Q 42.234375 14.109375 42.234375 20.359375 
Q 42.234375 26.703125 38.015625 30.859375 
Q 33.796875 35.015625 27.4375 35.015625 
Q 21.234375 35.015625 17.15625 30.90625 
Q 13.09375 26.8125 13.09375 20.65625 
z
" id="ArialMT-56"/>
       </defs>
       <use xlink:href="#ArialMT-56"/>
       <use x="55.615234" xlink:href="#ArialMT-48"/>
      </g>
     </g>
    </g>
    <g id="xtick_6">
     <g id="line2d_6">
      <path clip-path="url(#p6861744faf)" d="M 1276.650422 768.96 
L 1276.650422 103.68 
" style="fill:none;stroke:#ffffff;stroke-linecap:round;"/>
     </g>
     <g id="text_6">
      <!-- 100 -->
      <g style="fill:#262626;" transform="translate(1249.123781 802.080781)scale(0.33 -0.33)">
       <defs>
        <path d="M 37.25 0 
L 28.46875 0 
L 28.46875 56 
Q 25.296875 52.984375 20.140625 49.953125 
Q 14.984375 46.921875 10.890625 45.40625 
L 10.890625 53.90625 
Q 18.265625 57.375 23.78125 62.296875 
Q 29.296875 67.234375 31.59375 71.875 
L 37.25 71.875 
z
" id="ArialMT-49"/>
       </defs>
       <use xlink:href="#ArialMT-49"/>
       <use x="55.615234" xlink:href="#ArialMT-48"/>
       <use x="111.230469" xlink:href="#ArialMT-48"/>
      </g>
     </g>
    </g>
    <g id="text_7">
     <!-- Epoch -->
     <g style="fill:#262626;" transform="translate(686.964375 838.407656)scale(0.36 -0.36)">
      <defs>
       <path d="M 7.90625 0 
L 7.90625 71.578125 
L 59.671875 71.578125 
L 59.671875 63.140625 
L 17.390625 63.140625 
L 17.390625 41.21875 
L 56.984375 41.21875 
L 56.984375 32.8125 
L 17.390625 32.8125 
L 17.390625 8.453125 
L 61.328125 8.453125 
L 61.328125 0 
z
" id="ArialMT-69"/>
       <path d="M 6.59375 -19.875 
L 6.59375 51.859375 
L 14.59375 51.859375 
L 14.59375 45.125 
Q 17.4375 49.078125 21 51.046875 
Q 24.5625 53.03125 29.640625 53.03125 
Q 36.28125 53.03125 41.359375 49.609375 
Q 46.4375 46.1875 49.015625 39.953125 
Q 51.609375 33.734375 51.609375 26.3125 
Q 51.609375 18.359375 48.75 11.984375 
Q 45.90625 5.609375 40.453125 2.21875 
Q 35.015625 -1.171875 29 -1.171875 
Q 24.609375 -1.171875 21.109375 0.6875 
Q 17.625 2.546875 15.375 5.375 
L 15.375 -19.875 
z
M 14.546875 25.640625 
Q 14.546875 15.625 18.59375 10.84375 
Q 22.65625 6.0625 28.421875 6.0625 
Q 34.28125 6.0625 38.453125 11.015625 
Q 42.625 15.96875 42.625 26.375 
Q 42.625 36.28125 38.546875 41.203125 
Q 34.46875 46.140625 28.8125 46.140625 
Q 23.1875 46.140625 18.859375 40.890625 
Q 14.546875 35.640625 14.546875 25.640625 
z
" id="ArialMT-112"/>
       <path d="M 3.328125 25.921875 
Q 3.328125 40.328125 11.328125 47.265625 
Q 18.015625 53.03125 27.640625 53.03125 
Q 38.328125 53.03125 45.109375 46.015625 
Q 51.90625 39.015625 51.90625 26.65625 
Q 51.90625 16.65625 48.90625 10.90625 
Q 45.90625 5.171875 40.15625 2 
Q 34.421875 -1.171875 27.640625 -1.171875 
Q 16.75 -1.171875 10.03125 5.8125 
Q 3.328125 12.796875 3.328125 25.921875 
z
M 12.359375 25.921875 
Q 12.359375 15.96875 16.703125 11.015625 
Q 21.046875 6.0625 27.640625 6.0625 
Q 34.1875 6.0625 38.53125 11.03125 
Q 42.875 16.015625 42.875 26.21875 
Q 42.875 35.84375 38.5 40.796875 
Q 34.125 45.75 27.640625 45.75 
Q 21.046875 45.75 16.703125 40.8125 
Q 12.359375 35.890625 12.359375 25.921875 
z
" id="ArialMT-111"/>
       <path d="M 40.4375 19 
L 49.078125 17.875 
Q 47.65625 8.9375 41.8125 3.875 
Q 35.984375 -1.171875 27.484375 -1.171875 
Q 16.84375 -1.171875 10.375 5.78125 
Q 3.90625 12.75 3.90625 25.734375 
Q 3.90625 34.125 6.6875 40.421875 
Q 9.46875 46.734375 15.15625 49.875 
Q 20.84375 53.03125 27.546875 53.03125 
Q 35.984375 53.03125 41.359375 48.75 
Q 46.734375 44.484375 48.25 36.625 
L 39.703125 35.296875 
Q 38.484375 40.53125 35.375 43.15625 
Q 32.28125 45.796875 27.875 45.796875 
Q 21.234375 45.796875 17.078125 41.03125 
Q 12.9375 36.28125 12.9375 25.984375 
Q 12.9375 15.53125 16.9375 10.796875 
Q 20.953125 6.0625 27.390625 6.0625 
Q 32.5625 6.0625 36.03125 9.234375 
Q 39.5 12.40625 40.4375 19 
z
" id="ArialMT-99"/>
       <path d="M 6.59375 0 
L 6.59375 71.578125 
L 15.375 71.578125 
L 15.375 45.90625 
Q 21.53125 53.03125 30.90625 53.03125 
Q 36.671875 53.03125 40.921875 50.75 
Q 45.171875 48.484375 47 44.484375 
Q 48.828125 40.484375 48.828125 32.859375 
L 48.828125 0 
L 40.046875 0 
L 40.046875 32.859375 
Q 40.046875 39.453125 37.1875 42.453125 
Q 34.328125 45.453125 29.109375 45.453125 
Q 25.203125 45.453125 21.75 43.421875 
Q 18.3125 41.40625 16.84375 37.9375 
Q 15.375 34.46875 15.375 28.375 
L 15.375 0 
z
" id="ArialMT-104"/>
      </defs>
      <use xlink:href="#ArialMT-69"/>
      <use x="66.699219" xlink:href="#ArialMT-112"/>
      <use x="122.314453" xlink:href="#ArialMT-111"/>
      <use x="177.929688" xlink:href="#ArialMT-99"/>
      <use x="227.929688" xlink:href="#ArialMT-104"/>
     </g>
    </g>
   </g>
   <g id="matplotlib.axis_2">
    <g id="ytick_1">
     <g id="line2d_7">
      <path clip-path="url(#p6861744faf)" d="M 180 644.656273 
L 1296 644.656273 
" style="fill:none;stroke:#ffffff;stroke-linecap:round;"/>
     </g>
     <g id="text_8">
      <!-- 0.2 -->
      <g style="fill:#262626;" transform="translate(124.63 656.466663)scale(0.33 -0.33)">
       <defs>
        <path d="M 9.078125 0 
L 9.078125 10.015625 
L 19.09375 10.015625 
L 19.09375 0 
z
" id="ArialMT-46"/>
       </defs>
       <use xlink:href="#ArialMT-48"/>
       <use x="55.615234" xlink:href="#ArialMT-46"/>
       <use x="83.398438" xlink:href="#ArialMT-50"/>
      </g>
     </g>
    </g>
    <g id="ytick_2">
     <g id="line2d_8">
      <path clip-path="url(#p6861744faf)" d="M 180 511.043258 
L 1296 511.043258 
" style="fill:none;stroke:#ffffff;stroke-linecap:round;"/>
     </g>
     <g id="text_9">
      <!-- 0.4 -->
      <g style="fill:#262626;" transform="translate(124.63 522.853649)scale(0.33 -0.33)">
       <use xlink:href="#ArialMT-48"/>
       <use x="55.615234" xlink:href="#ArialMT-46"/>
       <use x="83.398438" xlink:href="#ArialMT-52"/>
      </g>
     </g>
    </g>
    <g id="ytick_3">
     <g id="line2d_9">
      <path clip-path="url(#p6861744faf)" d="M 180 377.430244 
L 1296 377.430244 
" style="fill:none;stroke:#ffffff;stroke-linecap:round;"/>
     </g>
     <g id="text_10">
      <!-- 0.6 -->
      <g style="fill:#262626;" transform="translate(124.63 389.240634)scale(0.33 -0.33)">
       <use xlink:href="#ArialMT-48"/>
       <use x="55.615234" xlink:href="#ArialMT-46"/>
       <use x="83.398438" xlink:href="#ArialMT-54"/>
      </g>
     </g>
    </g>
    <g id="ytick_4">
     <g id="line2d_10">
      <path clip-path="url(#p6861744faf)" d="M 180 243.817229 
L 1296 243.817229 
" style="fill:none;stroke:#ffffff;stroke-linecap:round;"/>
     </g>
     <g id="text_11">
      <!-- 0.8 -->
      <g style="fill:#262626;" transform="translate(124.63 255.62762)scale(0.33 -0.33)">
       <use xlink:href="#ArialMT-48"/>
       <use x="55.615234" xlink:href="#ArialMT-46"/>
       <use x="83.398438" xlink:href="#ArialMT-56"/>
      </g>
     </g>
    </g>
    <g id="ytick_5">
     <g id="line2d_11">
      <path clip-path="url(#p6861744faf)" d="M 180 110.204214 
L 1296 110.204214 
" style="fill:none;stroke:#ffffff;stroke-linecap:round;"/>
     </g>
     <g id="text_12">
      <!-- 1.0 -->
      <g style="fill:#262626;" transform="translate(124.63 122.014605)scale(0.33 -0.33)">
       <use xlink:href="#ArialMT-49"/>
       <use x="55.615234" xlink:href="#ArialMT-46"/>
       <use x="83.398438" xlink:href="#ArialMT-48"/>
      </g>
     </g>
    </g>
    <g id="text_13">
     <!-- Validation Accuracy -->
     <g style="fill:#262626;" transform="translate(113.053125 592.07625)rotate(-90)scale(0.36 -0.36)">
      <defs>
       <path d="M 28.171875 0 
L 0.4375 71.578125 
L 10.6875 71.578125 
L 29.296875 19.578125 
Q 31.546875 13.328125 33.0625 7.859375 
Q 34.71875 13.71875 36.921875 19.578125 
L 56.25 71.578125 
L 65.921875 71.578125 
L 37.890625 0 
z
" id="ArialMT-86"/>
       <path d="M 40.4375 6.390625 
Q 35.546875 2.25 31.03125 0.53125 
Q 26.515625 -1.171875 21.34375 -1.171875 
Q 12.796875 -1.171875 8.203125 3 
Q 3.609375 7.171875 3.609375 13.671875 
Q 3.609375 17.484375 5.34375 20.625 
Q 7.078125 23.78125 9.890625 25.6875 
Q 12.703125 27.59375 16.21875 28.5625 
Q 18.796875 29.25 24.03125 29.890625 
Q 34.671875 31.15625 39.703125 32.90625 
Q 39.75 34.71875 39.75 35.203125 
Q 39.75 40.578125 37.25 42.78125 
Q 33.890625 45.75 27.25 45.75 
Q 21.046875 45.75 18.09375 43.578125 
Q 15.140625 41.40625 13.71875 35.890625 
L 5.125 37.0625 
Q 6.296875 42.578125 8.984375 45.96875 
Q 11.671875 49.359375 16.75 51.1875 
Q 21.828125 53.03125 28.515625 53.03125 
Q 35.15625 53.03125 39.296875 51.46875 
Q 43.453125 49.90625 45.40625 47.53125 
Q 47.359375 45.171875 48.140625 41.546875 
Q 48.578125 39.3125 48.578125 33.453125 
L 48.578125 21.734375 
Q 48.578125 9.46875 49.140625 6.21875 
Q 49.703125 2.984375 51.375 0 
L 42.1875 0 
Q 40.828125 2.734375 40.4375 6.390625 
z
M 39.703125 26.03125 
Q 34.90625 24.078125 25.34375 22.703125 
Q 19.921875 21.921875 17.671875 20.9375 
Q 15.4375 19.96875 14.203125 18.09375 
Q 12.984375 16.21875 12.984375 13.921875 
Q 12.984375 10.40625 15.640625 8.0625 
Q 18.3125 5.71875 23.4375 5.71875 
Q 28.515625 5.71875 32.46875 7.9375 
Q 36.421875 10.15625 38.28125 14.015625 
Q 39.703125 17 39.703125 22.796875 
z
" id="ArialMT-97"/>
       <path d="M 6.390625 0 
L 6.390625 71.578125 
L 15.1875 71.578125 
L 15.1875 0 
z
" id="ArialMT-108"/>
       <path d="M 6.640625 61.46875 
L 6.640625 71.578125 
L 15.4375 71.578125 
L 15.4375 61.46875 
z
M 6.640625 0 
L 6.640625 51.859375 
L 15.4375 51.859375 
L 15.4375 0 
z
" id="ArialMT-105"/>
       <path d="M 40.234375 0 
L 40.234375 6.546875 
Q 35.296875 -1.171875 25.734375 -1.171875 
Q 19.53125 -1.171875 14.328125 2.25 
Q 9.125 5.671875 6.265625 11.796875 
Q 3.421875 17.921875 3.421875 25.875 
Q 3.421875 33.640625 6 39.96875 
Q 8.59375 46.296875 13.765625 49.65625 
Q 18.953125 53.03125 25.34375 53.03125 
Q 30.03125 53.03125 33.6875 51.046875 
Q 37.359375 49.078125 39.65625 45.90625 
L 39.65625 71.578125 
L 48.390625 71.578125 
L 48.390625 0 
z
M 12.453125 25.875 
Q 12.453125 15.921875 16.640625 10.984375 
Q 20.84375 6.0625 26.5625 6.0625 
Q 32.328125 6.0625 36.34375 10.765625 
Q 40.375 15.484375 40.375 25.140625 
Q 40.375 35.796875 36.265625 40.765625 
Q 32.171875 45.75 26.171875 45.75 
Q 20.3125 45.75 16.375 40.96875 
Q 12.453125 36.1875 12.453125 25.875 
z
" id="ArialMT-100"/>
       <path d="M 25.78125 7.859375 
L 27.046875 0.09375 
Q 23.34375 -0.6875 20.40625 -0.6875 
Q 15.625 -0.6875 12.984375 0.828125 
Q 10.359375 2.34375 9.28125 4.8125 
Q 8.203125 7.28125 8.203125 15.1875 
L 8.203125 45.015625 
L 1.765625 45.015625 
L 1.765625 51.859375 
L 8.203125 51.859375 
L 8.203125 64.703125 
L 16.9375 69.96875 
L 16.9375 51.859375 
L 25.78125 51.859375 
L 25.78125 45.015625 
L 16.9375 45.015625 
L 16.9375 14.703125 
Q 16.9375 10.9375 17.40625 9.859375 
Q 17.875 8.796875 18.921875 8.15625 
Q 19.96875 7.515625 21.921875 7.515625 
Q 23.390625 7.515625 25.78125 7.859375 
z
" id="ArialMT-116"/>
       <path d="M 6.59375 0 
L 6.59375 51.859375 
L 14.5 51.859375 
L 14.5 44.484375 
Q 20.21875 53.03125 31 53.03125 
Q 35.6875 53.03125 39.625 51.34375 
Q 43.5625 49.65625 45.515625 46.921875 
Q 47.46875 44.1875 48.25 40.4375 
Q 48.734375 37.984375 48.734375 31.890625 
L 48.734375 0 
L 39.9375 0 
L 39.9375 31.546875 
Q 39.9375 36.921875 38.90625 39.578125 
Q 37.890625 42.234375 35.28125 43.8125 
Q 32.671875 45.40625 29.15625 45.40625 
Q 23.53125 45.40625 19.453125 41.84375 
Q 15.375 38.28125 15.375 28.328125 
L 15.375 0 
z
" id="ArialMT-110"/>
       <path id="ArialMT-32"/>
       <path d="M -0.140625 0 
L 27.34375 71.578125 
L 37.546875 71.578125 
L 66.84375 0 
L 56.0625 0 
L 47.703125 21.6875 
L 17.78125 21.6875 
L 9.90625 0 
z
M 20.515625 29.390625 
L 44.78125 29.390625 
L 37.3125 49.21875 
Q 33.890625 58.25 32.234375 64.0625 
Q 30.859375 57.171875 28.375 50.390625 
z
" id="ArialMT-65"/>
       <path d="M 40.578125 0 
L 40.578125 7.625 
Q 34.515625 -1.171875 24.125 -1.171875 
Q 19.53125 -1.171875 15.546875 0.578125 
Q 11.578125 2.34375 9.640625 5 
Q 7.71875 7.671875 6.9375 11.53125 
Q 6.390625 14.109375 6.390625 19.734375 
L 6.390625 51.859375 
L 15.1875 51.859375 
L 15.1875 23.09375 
Q 15.1875 16.21875 15.71875 13.8125 
Q 16.546875 10.359375 19.234375 8.375 
Q 21.921875 6.390625 25.875 6.390625 
Q 29.828125 6.390625 33.296875 8.421875 
Q 36.765625 10.453125 38.203125 13.9375 
Q 39.65625 17.4375 39.65625 24.078125 
L 39.65625 51.859375 
L 48.4375 51.859375 
L 48.4375 0 
z
" id="ArialMT-117"/>
       <path d="M 6.5 0 
L 6.5 51.859375 
L 14.40625 51.859375 
L 14.40625 44 
Q 17.4375 49.515625 20 51.265625 
Q 22.5625 53.03125 25.640625 53.03125 
Q 30.078125 53.03125 34.671875 50.203125 
L 31.640625 42.046875 
Q 28.421875 43.953125 25.203125 43.953125 
Q 22.3125 43.953125 20.015625 42.21875 
Q 17.71875 40.484375 16.75 37.40625 
Q 15.28125 32.71875 15.28125 27.15625 
L 15.28125 0 
z
" id="ArialMT-114"/>
       <path d="M 6.203125 -19.96875 
L 5.21875 -11.71875 
Q 8.109375 -12.5 10.25 -12.5 
Q 13.1875 -12.5 14.9375 -11.515625 
Q 16.703125 -10.546875 17.828125 -8.796875 
Q 18.65625 -7.46875 20.515625 -2.25 
Q 20.75 -1.515625 21.296875 -0.09375 
L 1.609375 51.859375 
L 11.078125 51.859375 
L 21.875 21.828125 
Q 23.96875 16.109375 25.640625 9.8125 
Q 27.15625 15.875 29.25 21.625 
L 40.328125 51.859375 
L 49.125 51.859375 
L 29.390625 -0.875 
Q 26.21875 -9.421875 24.46875 -12.640625 
Q 22.125 -17 19.09375 -19.015625 
Q 16.0625 -21.046875 11.859375 -21.046875 
Q 9.328125 -21.046875 6.203125 -19.96875 
z
" id="ArialMT-121"/>
      </defs>
      <use xlink:href="#ArialMT-86"/>
      <use x="59.324219" xlink:href="#ArialMT-97"/>
      <use x="114.939453" xlink:href="#ArialMT-108"/>
      <use x="137.15625" xlink:href="#ArialMT-105"/>
      <use x="159.373047" xlink:href="#ArialMT-100"/>
      <use x="214.988281" xlink:href="#ArialMT-97"/>
      <use x="270.603516" xlink:href="#ArialMT-116"/>
      <use x="298.386719" xlink:href="#ArialMT-105"/>
      <use x="320.603516" xlink:href="#ArialMT-111"/>
      <use x="376.21875" xlink:href="#ArialMT-110"/>
      <use x="431.833984" xlink:href="#ArialMT-32"/>
      <use x="454.117188" xlink:href="#ArialMT-65"/>
      <use x="520.816406" xlink:href="#ArialMT-99"/>
      <use x="570.816406" xlink:href="#ArialMT-99"/>
      <use x="620.816406" xlink:href="#ArialMT-117"/>
      <use x="676.431641" xlink:href="#ArialMT-114"/>
      <use x="709.732422" xlink:href="#ArialMT-97"/>
      <use x="765.347656" xlink:href="#ArialMT-99"/>
      <use x="815.347656" xlink:href="#ArialMT-121"/>
     </g>
    </g>
   </g>
   <g id="PolyCollection_1">
    <defs>
     <path d="M 230.727273 -451.284531 
L 230.727273 -404.85457 
L 241.186504 -481.055681 
L 251.645736 -527.999596 
L 262.104967 -567.948878 
L 272.564199 -609.834907 
L 283.02343 -620.24881 
L 293.482662 -637.162926 
L 303.941893 -653.381182 
L 314.401125 -661.351537 
L 324.860356 -665.81211 
L 335.319588 -671.623156 
L 345.778819 -676.895889 
L 356.238051 -681.57023 
L 366.697282 -680.599181 
L 377.156514 -685.951593 
L 387.615745 -684.889442 
L 398.074977 -689.951053 
L 408.534208 -685.20689 
L 418.99344 -686.809683 
L 429.452671 -688.145806 
L 439.911903 -689.450389 
L 450.371134 -691.343222 
L 460.830366 -687.919866 
L 471.289597 -694.11145 
L 481.748828 -686.718482 
L 492.20806 -688.28483 
L 502.667291 -691.850426 
L 513.126523 -690.151535 
L 523.585754 -687.350551 
L 534.044986 -692.756914 
L 544.504217 -684.235601 
L 554.963449 -691.247399 
L 565.42268 -686.328532 
L 575.881912 -687.466678 
L 586.341143 -692.445618 
L 596.800375 -697.631166 
L 607.259606 -688.606474 
L 617.718838 -688.264528 
L 628.178069 -696.883948 
L 638.637301 -696.065715 
L 649.096532 -694.789437 
L 659.555764 -668.535074 
L 659.555764 -712.854669 
L 659.555764 -712.854669 
L 649.096532 -705.869377 
L 638.637301 -702.369741 
L 628.178069 -703.457223 
L 617.718838 -700.642254 
L 607.259606 -702.417785 
L 596.800375 -702.513404 
L 586.341143 -706.488966 
L 575.881912 -702.150976 
L 565.42268 -703.047119 
L 554.963449 -702.127285 
L 544.504217 -707.699184 
L 534.044986 -705.572666 
L 523.585754 -704.973084 
L 513.126523 -702.480096 
L 502.667291 -702.013208 
L 492.20806 -707.773265 
L 481.748828 -699.830221 
L 471.289597 -704.834128 
L 460.830366 -704.211281 
L 450.371134 -706.447373 
L 439.911903 -697.945296 
L 429.452671 -702.252848 
L 418.99344 -702.472482 
L 408.534208 -699.955824 
L 398.074977 -701.487099 
L 387.615745 -700.234756 
L 377.156514 -698.210117 
L 366.697282 -690.280164 
L 356.238051 -696.277526 
L 345.778819 -688.940012 
L 335.319588 -682.893827 
L 324.860356 -679.195468 
L 314.401125 -677.611586 
L 303.941893 -668.603619 
L 293.482662 -661.568072 
L 283.02343 -650.954946 
L 272.564199 -631.454622 
L 262.104967 -611.779732 
L 251.645736 -572.381237 
L 241.186504 -524.616032 
L 230.727273 -451.284531 
z
" id="md106e8308f" style="stroke:#f7b89c;stroke-opacity:0.2;"/>
    </defs>
    <g clip-path="url(#p6861744faf)">
     <use style="fill:#f7b89c;fill-opacity:0.2;stroke:#f7b89c;stroke-opacity:0.2;" x="0" xlink:href="#md106e8308f" y="864"/>
    </g>
   </g>
   <g id="PolyCollection_2">
    <defs>
     <path d="M 230.727273 -172.250265 
L 230.727273 -149.128774 
L 241.186504 -135.787619 
L 251.645736 -139.405519 
L 262.104967 -138.570242 
L 272.564199 -150.174582 
L 283.02343 -163.220001 
L 293.482662 -181.621736 
L 303.941893 -211.525419 
L 314.401125 -271.562194 
L 324.860356 -340.894946 
L 335.319588 -393.511981 
L 345.778819 -451.812081 
L 356.238051 -500.133106 
L 366.697282 -540.203056 
L 377.156514 -558.932048 
L 387.615745 -585.414589 
L 398.074977 -603.850647 
L 408.534208 -591.763177 
L 418.99344 -606.738102 
L 429.452671 -609.455458 
L 439.911903 -624.260232 
L 450.371134 -626.052236 
L 460.830366 -630.165145 
L 471.289597 -637.990294 
L 481.748828 -633.745545 
L 492.20806 -637.240498 
L 502.667291 -643.056382 
L 513.126523 -641.251782 
L 523.585754 -648.772747 
L 534.044986 -650.3282 
L 544.504217 -653.20475 
L 554.963449 -646.784201 
L 565.42268 -649.219309 
L 575.881912 -652.734946 
L 586.341143 -646.979358 
L 596.800375 -649.15511 
L 607.259606 -650.706168 
L 617.718838 -648.441529 
L 628.178069 -651.947398 
L 638.637301 -655.915631 
L 649.096532 -654.791372 
L 659.555764 -648.871416 
L 670.014995 -656.859137 
L 680.474227 -655.76563 
L 690.933458 -663.275366 
L 701.39269 -652.99416 
L 711.851921 -659.84783 
L 722.311153 -645.107637 
L 732.770384 -657.185218 
L 743.229616 -664.048131 
L 753.688847 -648.434918 
L 764.148079 -650.344949 
L 774.60731 -644.886999 
L 774.60731 -675.731068 
L 774.60731 -675.731068 
L 764.148079 -656.932973 
L 753.688847 -671.40673 
L 743.229616 -680.215121 
L 732.770384 -679.208053 
L 722.311153 -665.875874 
L 711.851921 -672.501073 
L 701.39269 -662.584275 
L 690.933458 -670.471071 
L 680.474227 -679.523529 
L 670.014995 -677.038537 
L 659.555764 -673.228885 
L 649.096532 -674.031909 
L 638.637301 -671.6901 
L 628.178069 -673.011493 
L 617.718838 -674.176354 
L 607.259606 -670.928275 
L 596.800375 -673.665126 
L 586.341143 -669.037985 
L 575.881912 -670.443334 
L 565.42268 -663.333062 
L 554.963449 -666.653668 
L 544.504217 -666.508564 
L 534.044986 -666.998129 
L 523.585754 -668.438082 
L 513.126523 -664.948161 
L 502.667291 -667.802012 
L 492.20806 -657.448038 
L 481.748828 -662.136484 
L 471.289597 -659.778223 
L 460.830366 -655.437481 
L 450.371134 -652.312471 
L 439.911903 -647.020529 
L 429.452671 -641.227978 
L 418.99344 -640.942386 
L 408.534208 -632.97151 
L 398.074977 -630.585963 
L 387.615745 -614.603323 
L 377.156514 -618.024577 
L 366.697282 -592.555972 
L 356.238051 -567.215024 
L 345.778819 -523.637409 
L 335.319588 -480.067467 
L 324.860356 -420.92002 
L 314.401125 -357.313505 
L 303.941893 -290.455448 
L 293.482662 -249.134795 
L 283.02343 -215.947002 
L 272.564199 -188.298297 
L 262.104967 -170.719909 
L 251.645736 -173.773096 
L 241.186504 -174.811518 
L 230.727273 -172.250265 
z
" id="m1769feb46a" style="stroke:#f7b89c;stroke-opacity:0.2;"/>
    </defs>
    <g clip-path="url(#p6861744faf)">
     <use style="fill:#f7b89c;fill-opacity:0.2;stroke:#f7b89c;stroke-opacity:0.2;" x="0" xlink:href="#m1769feb46a" y="864"/>
    </g>
   </g>
   <g id="PolyCollection_3">
    <defs>
     <path d="M 230.727273 -450.370176 
L 230.727273 -423.555759 
L 241.186504 -511.874576 
L 251.645736 -560.628738 
L 262.104967 -580.671735 
L 272.564199 -600.302433 
L 283.02343 -613.942597 
L 293.482662 -624.153542 
L 303.941893 -634.163116 
L 314.401125 -641.927005 
L 324.860356 -646.961587 
L 335.319588 -655.082692 
L 345.778819 -662.919643 
L 356.238051 -666.37127 
L 366.697282 -671.658383 
L 377.156514 -677.739156 
L 387.615745 -677.66172 
L 398.074977 -685.462083 
L 408.534208 -688.529451 
L 418.99344 -687.820347 
L 429.452671 -688.072075 
L 439.911903 -692.480695 
L 450.371134 -696.331265 
L 460.830366 -698.29259 
L 471.289597 -691.357302 
L 481.748828 -699.009605 
L 492.20806 -697.767367 
L 502.667291 -698.948921 
L 513.126523 -702.469139 
L 523.585754 -706.023876 
L 534.044986 -702.976022 
L 544.504217 -703.21751 
L 554.963449 -702.764527 
L 565.42268 -703.541097 
L 575.881912 -705.350952 
L 586.341143 -704.145558 
L 596.800375 -706.919691 
L 607.259606 -710.284137 
L 617.718838 -710.187476 
L 628.178069 -710.839682 
L 638.637301 -711.540959 
L 649.096532 -709.877596 
L 659.555764 -709.470016 
L 670.014995 -715.942228 
L 680.474227 -710.497342 
L 690.933458 -709.742626 
L 701.39269 -710.425773 
L 711.851921 -714.248749 
L 722.311153 -719.360053 
L 732.770384 -712.882723 
L 743.229616 -716.656504 
L 753.688847 -714.150727 
L 764.148079 -716.417967 
L 774.60731 -717.852029 
L 785.066542 -710.292154 
L 795.525773 -718.693217 
L 805.985005 -710.63422 
L 816.444236 -714.987009 
L 826.903468 -714.241485 
L 837.362699 -723.164995 
L 847.821931 -718.25716 
L 858.281162 -709.698211 
L 868.740394 -722.646249 
L 879.199625 -717.834973 
L 889.658857 -708.09946 
L 900.118088 -724.647199 
L 910.57732 -719.287095 
L 921.036551 -720.49996 
L 931.495783 -719.359745 
L 941.955014 -722.39063 
L 952.414246 -717.827416 
L 962.873477 -719.302112 
L 973.332709 -716.629616 
L 973.332709 -721.720373 
L 973.332709 -721.720373 
L 962.873477 -723.494552 
L 952.414246 -720.522533 
L 941.955014 -727.181967 
L 931.495783 -728.942362 
L 921.036551 -722.296704 
L 910.57732 -726.474072 
L 900.118088 -727.042895 
L 889.658857 -725.168529 
L 879.199625 -719.032765 
L 868.740394 -727.138109 
L 858.281162 -728.8635 
L 847.821931 -728.139252 
L 837.362699 -725.560635 
L 826.903468 -722.626253 
L 816.444236 -718.281021 
L 805.985005 -720.516313 
L 795.525773 -725.656286 
L 785.066542 -724.034604 
L 774.60731 -723.674145 
L 764.148079 -724.261214 
L 753.688847 -721.023037 
L 743.229616 -719.78771 
L 732.770384 -721.126393 
L 722.311153 -725.024724 
L 711.851921 -721.179089 
L 701.39269 -719.847513 
L 690.933458 -721.143224 
L 680.474227 -719.912065 
L 670.014995 -720.713748 
L 659.555764 -721.849902 
L 649.096532 -720.637692 
L 638.637301 -721.218866 
L 628.178069 -718.366614 
L 617.718838 -718.01783 
L 607.259606 -718.113665 
L 596.800375 -721.86311 
L 586.341143 -718.939301 
L 575.881912 -717.8879 
L 565.42268 -717.58027 
L 554.963449 -716.162371 
L 544.504217 -712.167404 
L 534.044986 -713.255889 
L 523.585754 -714.289011 
L 513.126523 -713.185284 
L 502.667291 -712.740023 
L 492.20806 -709.802134 
L 481.748828 -711.100869 
L 471.289597 -707.626779 
L 460.830366 -707.005431 
L 450.371134 -705.540285 
L 439.911903 -700.728446 
L 429.452671 -698.592113 
L 418.99344 -698.343342 
L 408.534208 -699.828721 
L 398.074977 -694.233665 
L 387.615745 -692.755606 
L 377.156514 -686.826248 
L 366.697282 -688.364062 
L 356.238051 -678.867299 
L 345.778819 -678.04546 
L 335.319588 -674.217031 
L 324.860356 -665.744785 
L 314.401125 -654.032021 
L 303.941893 -653.133493 
L 293.482662 -640.928762 
L 283.02343 -629.233427 
L 272.564199 -620.505306 
L 262.104967 -604.061824 
L 251.645736 -580.523229 
L 241.186504 -537.340234 
L 230.727273 -450.370176 
z
" id="m198de8bd2f" style="stroke:#aac7fd;stroke-opacity:0.2;"/>
    </defs>
    <g clip-path="url(#p6861744faf)">
     <use style="fill:#aac7fd;fill-opacity:0.2;stroke:#aac7fd;stroke-opacity:0.2;" x="0" xlink:href="#m198de8bd2f" y="864"/>
    </g>
   </g>
   <g id="PolyCollection_4">
    <defs>
     <path d="M 230.727273 -156.444406 
L 230.727273 -125.28 
L 241.186504 -139.204306 
L 251.645736 -178.02545 
L 262.104967 -353.02588 
L 272.564199 -470.100845 
L 283.02343 -504.770725 
L 293.482662 -524.930024 
L 303.941893 -547.821525 
L 314.401125 -558.546065 
L 324.860356 -568.837539 
L 335.319588 -577.510779 
L 345.778819 -592.475472 
L 356.238051 -597.948996 
L 366.697282 -609.079052 
L 377.156514 -606.951518 
L 387.615745 -614.241794 
L 398.074977 -615.834814 
L 408.534208 -629.14275 
L 418.99344 -631.16662 
L 429.452671 -635.216632 
L 439.911903 -639.81063 
L 450.371134 -646.386239 
L 460.830366 -651.388412 
L 471.289597 -653.438297 
L 481.748828 -649.042982 
L 492.20806 -657.3403 
L 502.667291 -658.364603 
L 513.126523 -661.485195 
L 523.585754 -665.757754 
L 534.044986 -665.154743 
L 544.504217 -671.507708 
L 554.963449 -672.376384 
L 565.42268 -677.345225 
L 575.881912 -675.369956 
L 586.341143 -680.696707 
L 596.800375 -682.163977 
L 607.259606 -686.635896 
L 617.718838 -683.476592 
L 628.178069 -683.88364 
L 638.637301 -683.446105 
L 649.096532 -688.286323 
L 659.555764 -688.413938 
L 670.014995 -686.027236 
L 680.474227 -687.122664 
L 690.933458 -693.791327 
L 701.39269 -692.038737 
L 711.851921 -692.592148 
L 722.311153 -695.914753 
L 732.770384 -690.698072 
L 743.229616 -697.522279 
L 753.688847 -696.307372 
L 764.148079 -692.093233 
L 774.60731 -697.251251 
L 785.066542 -700.605172 
L 795.525773 -694.472495 
L 805.985005 -701.135194 
L 816.444236 -703.630929 
L 826.903468 -700.754819 
L 837.362699 -707.403066 
L 847.821931 -711.016465 
L 858.281162 -705.396776 
L 868.740394 -706.053094 
L 879.199625 -706.618742 
L 889.658857 -709.554619 
L 900.118088 -704.172246 
L 910.57732 -700.920557 
L 921.036551 -713.78104 
L 931.495783 -709.641682 
L 941.955014 -701.864849 
L 952.414246 -706.17441 
L 962.873477 -713.028822 
L 973.332709 -710.003026 
L 983.79194 -716.644633 
L 994.251172 -714.351764 
L 1004.710403 -707.093434 
L 1015.169634 -701.42501 
L 1025.628866 -719.069114 
L 1025.628866 -719.069114 
L 1025.628866 -719.069114 
L 1015.169634 -723.584835 
L 1004.710403 -713.681458 
L 994.251172 -717.645776 
L 983.79194 -718.740853 
L 973.332709 -720.794584 
L 962.873477 -719.180452 
L 952.414246 -713.188791 
L 941.955014 -712.134096 
L 931.495783 -719.038444 
L 921.036551 -719.981073 
L 910.57732 -712.796066 
L 900.118088 -716.496765 
L 889.658857 -713.478904 
L 879.199625 -717.473522 
L 868.740394 -719.027324 
L 858.281162 -713.260605 
L 847.821931 -718.228346 
L 837.362699 -716.548037 
L 826.903468 -711.903036 
L 816.444236 -713.029987 
L 805.985005 -710.262252 
L 795.525773 -716.191397 
L 785.066542 -716.622911 
L 774.60731 -709.360036 
L 764.148079 -704.307086 
L 753.688847 -705.833676 
L 743.229616 -710.971201 
L 732.770384 -707.302117 
L 722.311153 -707.073296 
L 711.851921 -709.690066 
L 701.39269 -703.185208 
L 690.933458 -707.926215 
L 680.474227 -701.00066 
L 670.014995 -702.792933 
L 659.555764 -698.211755 
L 649.096532 -699.070853 
L 638.637301 -697.289134 
L 628.178069 -695.85061 
L 617.718838 -694.294181 
L 607.259606 -697.179317 
L 596.800375 -696.030297 
L 586.341143 -694.032588 
L 575.881912 -694.238891 
L 565.42268 -692.571617 
L 554.963449 -688.300553 
L 544.504217 -685.51176 
L 534.044986 -682.701809 
L 523.585754 -677.863835 
L 513.126523 -677.16994 
L 502.667291 -675.632074 
L 492.20806 -673.653408 
L 481.748828 -668.976348 
L 471.289597 -667.46851 
L 460.830366 -661.779964 
L 450.371134 -663.278669 
L 439.911903 -658.76638 
L 429.452671 -656.930939 
L 418.99344 -649.43105 
L 408.534208 -643.985996 
L 398.074977 -641.586071 
L 387.615745 -635.90267 
L 377.156514 -630.565058 
L 366.697282 -623.971548 
L 356.238051 -614.311811 
L 345.778819 -613.509897 
L 335.319588 -600.83182 
L 324.860356 -590.832747 
L 314.401125 -577.292936 
L 303.941893 -569.191162 
L 293.482662 -551.658033 
L 283.02343 -534.626662 
L 272.564199 -501.306177 
L 262.104967 -420.916483 
L 251.645736 -261.432 
L 241.186504 -183.021726 
L 230.727273 -156.444406 
z
" id="m01b7b179d8" style="stroke:#aac7fd;stroke-opacity:0.2;"/>
    </defs>
    <g clip-path="url(#p6861744faf)">
     <use style="fill:#aac7fd;fill-opacity:0.2;stroke:#aac7fd;stroke-opacity:0.2;" x="0" xlink:href="#m01b7b179d8" y="864"/>
    </g>
   </g>
   <g id="line2d_12">
    <path clip-path="url(#p6861744faf)" d="M 230.727273 435.930449 
L 241.186504 361.164144 
L 251.645736 313.809584 
L 262.104967 274.135695 
L 272.564199 243.355235 
L 283.02343 228.398122 
L 293.482662 214.634501 
L 303.941893 203.007599 
L 314.401125 194.518438 
L 324.860356 191.496211 
L 335.319588 186.741508 
L 345.778819 181.08205 
L 356.238051 175.076122 
L 366.697282 178.560328 
L 377.156514 171.919145 
L 387.615745 171.437901 
L 398.074977 168.280924 
L 408.534208 171.418643 
L 418.99344 169.358918 
L 429.452671 168.800673 
L 439.911903 170.302158 
L 450.371134 165.104703 
L 460.830366 167.934426 
L 471.289597 164.527211 
L 481.748828 170.725648 
L 492.20806 165.970953 
L 502.667291 167.068183 
L 513.126523 167.684185 
L 523.585754 167.838182 
L 534.044986 164.83521 
L 544.504217 168.032607 
L 554.963449 167.312658 
L 565.42268 169.312174 
L 575.881912 169.191173 
L 586.341143 164.532708 
L 596.800375 163.927715 
L 607.259606 168.487871 
L 617.718838 169.546609 
L 628.178069 163.829414 
L 638.637301 164.782272 
L 649.096532 163.670593 
L 659.555764 173.305129 
L 670.014995 170.764169 
L 680.474227 181.775055 
L 690.933458 166.740937 
L 701.39269 185.374763 
L 711.851921 163.352991 
" style="fill:none;stroke:#f7b89c;stroke-linecap:round;stroke-width:3;"/>
    <defs>
     <path d="M 0 3 
C 0.795609 3 1.55874 2.683901 2.12132 2.12132 
C 2.683901 1.55874 3 0.795609 3 0 
C 3 -0.795609 2.683901 -1.55874 2.12132 -2.12132 
C 1.55874 -2.683901 0.795609 -3 0 -3 
C -0.795609 -3 -1.55874 -2.683901 -2.12132 -2.12132 
C -2.683901 -1.55874 -3 -0.795609 -3 0 
C -3 0.795609 -2.683901 1.55874 -2.12132 2.12132 
C -1.55874 2.683901 -0.795609 3 0 3 
z
" id="m2a052f5f30"/>
    </defs>
    <g clip-path="url(#p6861744faf)">
     <use style="fill:#f7b89c;" x="230.727273" xlink:href="#m2a052f5f30" y="435.930449"/>
     <use style="fill:#f7b89c;" x="241.186504" xlink:href="#m2a052f5f30" y="361.164144"/>
     <use style="fill:#f7b89c;" x="251.645736" xlink:href="#m2a052f5f30" y="313.809584"/>
     <use style="fill:#f7b89c;" x="262.104967" xlink:href="#m2a052f5f30" y="274.135695"/>
     <use style="fill:#f7b89c;" x="272.564199" xlink:href="#m2a052f5f30" y="243.355235"/>
     <use style="fill:#f7b89c;" x="283.02343" xlink:href="#m2a052f5f30" y="228.398122"/>
     <use style="fill:#f7b89c;" x="293.482662" xlink:href="#m2a052f5f30" y="214.634501"/>
     <use style="fill:#f7b89c;" x="303.941893" xlink:href="#m2a052f5f30" y="203.007599"/>
     <use style="fill:#f7b89c;" x="314.401125" xlink:href="#m2a052f5f30" y="194.518438"/>
     <use style="fill:#f7b89c;" x="324.860356" xlink:href="#m2a052f5f30" y="191.496211"/>
     <use style="fill:#f7b89c;" x="335.319588" xlink:href="#m2a052f5f30" y="186.741508"/>
     <use style="fill:#f7b89c;" x="345.778819" xlink:href="#m2a052f5f30" y="181.08205"/>
     <use style="fill:#f7b89c;" x="356.238051" xlink:href="#m2a052f5f30" y="175.076122"/>
     <use style="fill:#f7b89c;" x="366.697282" xlink:href="#m2a052f5f30" y="178.560328"/>
     <use style="fill:#f7b89c;" x="377.156514" xlink:href="#m2a052f5f30" y="171.919145"/>
     <use style="fill:#f7b89c;" x="387.615745" xlink:href="#m2a052f5f30" y="171.437901"/>
     <use style="fill:#f7b89c;" x="398.074977" xlink:href="#m2a052f5f30" y="168.280924"/>
     <use style="fill:#f7b89c;" x="408.534208" xlink:href="#m2a052f5f30" y="171.418643"/>
     <use style="fill:#f7b89c;" x="418.99344" xlink:href="#m2a052f5f30" y="169.358918"/>
     <use style="fill:#f7b89c;" x="429.452671" xlink:href="#m2a052f5f30" y="168.800673"/>
     <use style="fill:#f7b89c;" x="439.911903" xlink:href="#m2a052f5f30" y="170.302158"/>
     <use style="fill:#f7b89c;" x="450.371134" xlink:href="#m2a052f5f30" y="165.104703"/>
     <use style="fill:#f7b89c;" x="460.830366" xlink:href="#m2a052f5f30" y="167.934426"/>
     <use style="fill:#f7b89c;" x="471.289597" xlink:href="#m2a052f5f30" y="164.527211"/>
     <use style="fill:#f7b89c;" x="481.748828" xlink:href="#m2a052f5f30" y="170.725648"/>
     <use style="fill:#f7b89c;" x="492.20806" xlink:href="#m2a052f5f30" y="165.970953"/>
     <use style="fill:#f7b89c;" x="502.667291" xlink:href="#m2a052f5f30" y="167.068183"/>
     <use style="fill:#f7b89c;" x="513.126523" xlink:href="#m2a052f5f30" y="167.684185"/>
     <use style="fill:#f7b89c;" x="523.585754" xlink:href="#m2a052f5f30" y="167.838182"/>
     <use style="fill:#f7b89c;" x="534.044986" xlink:href="#m2a052f5f30" y="164.83521"/>
     <use style="fill:#f7b89c;" x="544.504217" xlink:href="#m2a052f5f30" y="168.032607"/>
     <use style="fill:#f7b89c;" x="554.963449" xlink:href="#m2a052f5f30" y="167.312658"/>
     <use style="fill:#f7b89c;" x="565.42268" xlink:href="#m2a052f5f30" y="169.312174"/>
     <use style="fill:#f7b89c;" x="575.881912" xlink:href="#m2a052f5f30" y="169.191173"/>
     <use style="fill:#f7b89c;" x="586.341143" xlink:href="#m2a052f5f30" y="164.532708"/>
     <use style="fill:#f7b89c;" x="596.800375" xlink:href="#m2a052f5f30" y="163.927715"/>
     <use style="fill:#f7b89c;" x="607.259606" xlink:href="#m2a052f5f30" y="168.487871"/>
     <use style="fill:#f7b89c;" x="617.718838" xlink:href="#m2a052f5f30" y="169.546609"/>
     <use style="fill:#f7b89c;" x="628.178069" xlink:href="#m2a052f5f30" y="163.829414"/>
     <use style="fill:#f7b89c;" x="638.637301" xlink:href="#m2a052f5f30" y="164.782272"/>
     <use style="fill:#f7b89c;" x="649.096532" xlink:href="#m2a052f5f30" y="163.670593"/>
     <use style="fill:#f7b89c;" x="659.555764" xlink:href="#m2a052f5f30" y="173.305129"/>
     <use style="fill:#f7b89c;" x="670.014995" xlink:href="#m2a052f5f30" y="170.764169"/>
     <use style="fill:#f7b89c;" x="680.474227" xlink:href="#m2a052f5f30" y="181.775055"/>
     <use style="fill:#f7b89c;" x="690.933458" xlink:href="#m2a052f5f30" y="166.740937"/>
     <use style="fill:#f7b89c;" x="701.39269" xlink:href="#m2a052f5f30" y="185.374763"/>
     <use style="fill:#f7b89c;" x="711.851921" xlink:href="#m2a052f5f30" y="163.352991"/>
    </g>
   </g>
   <g id="line2d_13">
    <path clip-path="url(#p6861744faf)" d="M 230.727273 703.31048 
L 241.186504 708.700432 
L 251.645736 707.410692 
L 262.104967 709.354924 
L 272.564199 694.76356 
L 283.02343 674.416499 
L 293.482662 648.621735 
L 303.941893 613.009567 
L 314.401125 549.56215 
L 324.860356 483.092517 
L 335.319588 427.210276 
L 345.778819 376.275255 
L 356.238051 330.325935 
L 366.697282 297.620486 
L 377.156514 275.521687 
L 387.615745 263.991044 
L 398.074977 246.781695 
L 408.534208 251.632657 
L 418.99344 240.159756 
L 429.452671 238.658282 
L 439.911903 228.35962 
L 450.371134 224.817647 
L 460.830366 221.198687 
L 471.289597 215.115742 
L 481.748828 216.058985 
L 492.20806 216.655732 
L 502.667291 208.570803 
L 513.126523 210.900029 
L 523.585754 205.394585 
L 534.044986 205.336836 
L 544.504217 204.143343 
L 554.963449 207.281066 
L 565.42268 207.723815 
L 575.881912 202.41086 
L 586.341143 205.991328 
L 596.800375 202.589882 
L 607.259606 203.182779 
L 617.718838 202.691059 
L 628.178069 201.520555 
L 638.637301 200.197134 
L 649.096532 199.588359 
L 659.555764 202.949849 
L 670.014995 197.051163 
L 680.474227 196.355421 
L 690.933458 197.126782 
L 701.39269 206.210782 
L 711.851921 197.825549 
L 722.311153 208.508244 
L 732.770384 195.803365 
L 743.229616 191.868374 
L 753.688847 204.079176 
L 764.148079 210.361039 
L 774.60731 203.690967 
L 785.066542 187.49226 
L 795.525773 204.432112 
L 805.985005 206.973052 
L 816.444236 198.503146 
L 826.903468 210.996284 
L 837.362699 209.725794 
" style="fill:none;stroke:#f7b89c;stroke-dasharray:12,4.5;stroke-dashoffset:0;stroke-width:3;"/>
    <defs>
     <path d="M -1.5 3 
L 0 1.5 
L 1.5 3 
L 3 1.5 
L 1.5 0 
L 3 -1.5 
L 1.5 -3 
L 0 -1.5 
L -1.5 -3 
L -3 -1.5 
L -1.5 0 
L -3 1.5 
z
" id="m06cad4b5af"/>
    </defs>
    <g clip-path="url(#p6861744faf)">
     <use style="fill:#f7b89c;" x="230.727273" xlink:href="#m06cad4b5af" y="703.31048"/>
     <use style="fill:#f7b89c;" x="241.186504" xlink:href="#m06cad4b5af" y="708.700432"/>
     <use style="fill:#f7b89c;" x="251.645736" xlink:href="#m06cad4b5af" y="707.410692"/>
     <use style="fill:#f7b89c;" x="262.104967" xlink:href="#m06cad4b5af" y="709.354924"/>
     <use style="fill:#f7b89c;" x="272.564199" xlink:href="#m06cad4b5af" y="694.76356"/>
     <use style="fill:#f7b89c;" x="283.02343" xlink:href="#m06cad4b5af" y="674.416499"/>
     <use style="fill:#f7b89c;" x="293.482662" xlink:href="#m06cad4b5af" y="648.621735"/>
     <use style="fill:#f7b89c;" x="303.941893" xlink:href="#m06cad4b5af" y="613.009567"/>
     <use style="fill:#f7b89c;" x="314.401125" xlink:href="#m06cad4b5af" y="549.56215"/>
     <use style="fill:#f7b89c;" x="324.860356" xlink:href="#m06cad4b5af" y="483.092517"/>
     <use style="fill:#f7b89c;" x="335.319588" xlink:href="#m06cad4b5af" y="427.210276"/>
     <use style="fill:#f7b89c;" x="345.778819" xlink:href="#m06cad4b5af" y="376.275255"/>
     <use style="fill:#f7b89c;" x="356.238051" xlink:href="#m06cad4b5af" y="330.325935"/>
     <use style="fill:#f7b89c;" x="366.697282" xlink:href="#m06cad4b5af" y="297.620486"/>
     <use style="fill:#f7b89c;" x="377.156514" xlink:href="#m06cad4b5af" y="275.521687"/>
     <use style="fill:#f7b89c;" x="387.615745" xlink:href="#m06cad4b5af" y="263.991044"/>
     <use style="fill:#f7b89c;" x="398.074977" xlink:href="#m06cad4b5af" y="246.781695"/>
     <use style="fill:#f7b89c;" x="408.534208" xlink:href="#m06cad4b5af" y="251.632657"/>
     <use style="fill:#f7b89c;" x="418.99344" xlink:href="#m06cad4b5af" y="240.159756"/>
     <use style="fill:#f7b89c;" x="429.452671" xlink:href="#m06cad4b5af" y="238.658282"/>
     <use style="fill:#f7b89c;" x="439.911903" xlink:href="#m06cad4b5af" y="228.35962"/>
     <use style="fill:#f7b89c;" x="450.371134" xlink:href="#m06cad4b5af" y="224.817647"/>
     <use style="fill:#f7b89c;" x="460.830366" xlink:href="#m06cad4b5af" y="221.198687"/>
     <use style="fill:#f7b89c;" x="471.289597" xlink:href="#m06cad4b5af" y="215.115742"/>
     <use style="fill:#f7b89c;" x="481.748828" xlink:href="#m06cad4b5af" y="216.058985"/>
     <use style="fill:#f7b89c;" x="492.20806" xlink:href="#m06cad4b5af" y="216.655732"/>
     <use style="fill:#f7b89c;" x="502.667291" xlink:href="#m06cad4b5af" y="208.570803"/>
     <use style="fill:#f7b89c;" x="513.126523" xlink:href="#m06cad4b5af" y="210.900029"/>
     <use style="fill:#f7b89c;" x="523.585754" xlink:href="#m06cad4b5af" y="205.394585"/>
     <use style="fill:#f7b89c;" x="534.044986" xlink:href="#m06cad4b5af" y="205.336836"/>
     <use style="fill:#f7b89c;" x="544.504217" xlink:href="#m06cad4b5af" y="204.143343"/>
     <use style="fill:#f7b89c;" x="554.963449" xlink:href="#m06cad4b5af" y="207.281066"/>
     <use style="fill:#f7b89c;" x="565.42268" xlink:href="#m06cad4b5af" y="207.723815"/>
     <use style="fill:#f7b89c;" x="575.881912" xlink:href="#m06cad4b5af" y="202.41086"/>
     <use style="fill:#f7b89c;" x="586.341143" xlink:href="#m06cad4b5af" y="205.991328"/>
     <use style="fill:#f7b89c;" x="596.800375" xlink:href="#m06cad4b5af" y="202.589882"/>
     <use style="fill:#f7b89c;" x="607.259606" xlink:href="#m06cad4b5af" y="203.182779"/>
     <use style="fill:#f7b89c;" x="617.718838" xlink:href="#m06cad4b5af" y="202.691059"/>
     <use style="fill:#f7b89c;" x="628.178069" xlink:href="#m06cad4b5af" y="201.520555"/>
     <use style="fill:#f7b89c;" x="638.637301" xlink:href="#m06cad4b5af" y="200.197134"/>
     <use style="fill:#f7b89c;" x="649.096532" xlink:href="#m06cad4b5af" y="199.588359"/>
     <use style="fill:#f7b89c;" x="659.555764" xlink:href="#m06cad4b5af" y="202.949849"/>
     <use style="fill:#f7b89c;" x="670.014995" xlink:href="#m06cad4b5af" y="197.051163"/>
     <use style="fill:#f7b89c;" x="680.474227" xlink:href="#m06cad4b5af" y="196.355421"/>
     <use style="fill:#f7b89c;" x="690.933458" xlink:href="#m06cad4b5af" y="197.126782"/>
     <use style="fill:#f7b89c;" x="701.39269" xlink:href="#m06cad4b5af" y="206.210782"/>
     <use style="fill:#f7b89c;" x="711.851921" xlink:href="#m06cad4b5af" y="197.825549"/>
     <use style="fill:#f7b89c;" x="722.311153" xlink:href="#m06cad4b5af" y="208.508244"/>
     <use style="fill:#f7b89c;" x="732.770384" xlink:href="#m06cad4b5af" y="195.803365"/>
     <use style="fill:#f7b89c;" x="743.229616" xlink:href="#m06cad4b5af" y="191.868374"/>
     <use style="fill:#f7b89c;" x="753.688847" xlink:href="#m06cad4b5af" y="204.079176"/>
     <use style="fill:#f7b89c;" x="764.148079" xlink:href="#m06cad4b5af" y="210.361039"/>
     <use style="fill:#f7b89c;" x="774.60731" xlink:href="#m06cad4b5af" y="203.690967"/>
     <use style="fill:#f7b89c;" x="785.066542" xlink:href="#m06cad4b5af" y="187.49226"/>
     <use style="fill:#f7b89c;" x="795.525773" xlink:href="#m06cad4b5af" y="204.432112"/>
     <use style="fill:#f7b89c;" x="805.985005" xlink:href="#m06cad4b5af" y="206.973052"/>
     <use style="fill:#f7b89c;" x="816.444236" xlink:href="#m06cad4b5af" y="198.503146"/>
     <use style="fill:#f7b89c;" x="826.903468" xlink:href="#m06cad4b5af" y="210.996284"/>
     <use style="fill:#f7b89c;" x="837.362699" xlink:href="#m06cad4b5af" y="209.725794"/>
    </g>
   </g>
   <g id="line2d_14">
    <path clip-path="url(#p6861744faf)" d="M 230.727273 427.037033 
L 241.186504 339.392595 
L 251.645736 293.424017 
L 262.104967 271.633221 
L 272.564199 253.59613 
L 283.02343 242.411988 
L 293.482662 231.458848 
L 303.941893 220.351695 
L 314.401125 216.020487 
L 324.860356 207.646814 
L 335.319588 199.350138 
L 345.778819 193.517449 
L 356.238051 191.380716 
L 366.697282 183.988778 
L 377.156514 181.717298 
L 387.615745 178.791337 
L 398.074977 174.152126 
L 408.534208 169.820914 
L 418.99344 170.918155 
L 429.452671 170.667906 
L 439.911903 167.39543 
L 450.371134 163.064225 
L 460.830366 161.350989 
L 471.289597 164.50796 
L 481.748828 158.944763 
L 492.20806 160.21525 
L 502.667291 158.155528 
L 513.126523 156.172789 
L 523.585754 153.843556 
L 534.044986 155.884045 
L 544.504217 156.307543 
L 554.963449 154.536551 
L 565.42268 153.439317 
L 575.881912 152.380574 
L 586.341143 152.457571 
L 596.800375 149.608599 
L 607.259606 149.801099 
L 617.718838 149.897347 
L 628.178069 149.396852 
L 638.637301 147.620087 
L 649.096532 148.742356 
L 659.555764 148.340041 
L 670.014995 145.672012 
L 680.474227 148.795297 
L 690.933458 148.557075 
L 701.39269 148.863357 
L 711.851921 146.286081 
L 722.311153 141.807612 
L 732.770384 146.995442 
L 743.229616 145.777893 
L 753.688847 146.413118 
L 764.148079 143.66041 
L 774.60731 143.236913 
L 785.066542 146.836621 
L 795.525773 141.825249 
L 805.985005 148.424734 
L 816.444236 147.365985 
L 826.903468 145.566131 
L 837.362699 139.637185 
L 847.821931 140.801794 
L 858.281162 144.719145 
L 868.740394 139.107821 
L 879.199625 145.566131 
L 889.658857 147.366005 
L 900.118088 138.154953 
L 910.57732 141.119416 
L 921.036551 142.601668 
L 931.495783 139.848946 
L 941.955014 139.213701 
L 952.414246 144.825025 
L 962.873477 142.601668 
L 973.332709 144.825006 
L 983.79194 147.048383 
L 994.251172 137.096225 
L 1004.710403 141.754661 
L 1015.169634 142.178185 
L 1025.628866 139.00196 
L 1036.088097 139.00196 
" style="fill:none;stroke:#aac7fd;stroke-linecap:round;stroke-width:3;"/>
    <defs>
     <path d="M 0 3 
C 0.795609 3 1.55874 2.683901 2.12132 2.12132 
C 2.683901 1.55874 3 0.795609 3 0 
C 3 -0.795609 2.683901 -1.55874 2.12132 -2.12132 
C 1.55874 -2.683901 0.795609 -3 0 -3 
C -0.795609 -3 -1.55874 -2.683901 -2.12132 -2.12132 
C -2.683901 -1.55874 -3 -0.795609 -3 0 
C -3 0.795609 -2.683901 1.55874 -2.12132 2.12132 
C -1.55874 2.683901 -0.795609 3 0 3 
z
" id="md16af975ec"/>
    </defs>
    <g clip-path="url(#p6861744faf)">
     <use style="fill:#aac7fd;" x="230.727273" xlink:href="#md16af975ec" y="427.037033"/>
     <use style="fill:#aac7fd;" x="241.186504" xlink:href="#md16af975ec" y="339.392595"/>
     <use style="fill:#aac7fd;" x="251.645736" xlink:href="#md16af975ec" y="293.424017"/>
     <use style="fill:#aac7fd;" x="262.104967" xlink:href="#md16af975ec" y="271.633221"/>
     <use style="fill:#aac7fd;" x="272.564199" xlink:href="#md16af975ec" y="253.59613"/>
     <use style="fill:#aac7fd;" x="283.02343" xlink:href="#md16af975ec" y="242.411988"/>
     <use style="fill:#aac7fd;" x="293.482662" xlink:href="#md16af975ec" y="231.458848"/>
     <use style="fill:#aac7fd;" x="303.941893" xlink:href="#md16af975ec" y="220.351695"/>
     <use style="fill:#aac7fd;" x="314.401125" xlink:href="#md16af975ec" y="216.020487"/>
     <use style="fill:#aac7fd;" x="324.860356" xlink:href="#md16af975ec" y="207.646814"/>
     <use style="fill:#aac7fd;" x="335.319588" xlink:href="#md16af975ec" y="199.350138"/>
     <use style="fill:#aac7fd;" x="345.778819" xlink:href="#md16af975ec" y="193.517449"/>
     <use style="fill:#aac7fd;" x="356.238051" xlink:href="#md16af975ec" y="191.380716"/>
     <use style="fill:#aac7fd;" x="366.697282" xlink:href="#md16af975ec" y="183.988778"/>
     <use style="fill:#aac7fd;" x="377.156514" xlink:href="#md16af975ec" y="181.717298"/>
     <use style="fill:#aac7fd;" x="387.615745" xlink:href="#md16af975ec" y="178.791337"/>
     <use style="fill:#aac7fd;" x="398.074977" xlink:href="#md16af975ec" y="174.152126"/>
     <use style="fill:#aac7fd;" x="408.534208" xlink:href="#md16af975ec" y="169.820914"/>
     <use style="fill:#aac7fd;" x="418.99344" xlink:href="#md16af975ec" y="170.918155"/>
     <use style="fill:#aac7fd;" x="429.452671" xlink:href="#md16af975ec" y="170.667906"/>
     <use style="fill:#aac7fd;" x="439.911903" xlink:href="#md16af975ec" y="167.39543"/>
     <use style="fill:#aac7fd;" x="450.371134" xlink:href="#md16af975ec" y="163.064225"/>
     <use style="fill:#aac7fd;" x="460.830366" xlink:href="#md16af975ec" y="161.350989"/>
     <use style="fill:#aac7fd;" x="471.289597" xlink:href="#md16af975ec" y="164.50796"/>
     <use style="fill:#aac7fd;" x="481.748828" xlink:href="#md16af975ec" y="158.944763"/>
     <use style="fill:#aac7fd;" x="492.20806" xlink:href="#md16af975ec" y="160.21525"/>
     <use style="fill:#aac7fd;" x="502.667291" xlink:href="#md16af975ec" y="158.155528"/>
     <use style="fill:#aac7fd;" x="513.126523" xlink:href="#md16af975ec" y="156.172789"/>
     <use style="fill:#aac7fd;" x="523.585754" xlink:href="#md16af975ec" y="153.843556"/>
     <use style="fill:#aac7fd;" x="534.044986" xlink:href="#md16af975ec" y="155.884045"/>
     <use style="fill:#aac7fd;" x="544.504217" xlink:href="#md16af975ec" y="156.307543"/>
     <use style="fill:#aac7fd;" x="554.963449" xlink:href="#md16af975ec" y="154.536551"/>
     <use style="fill:#aac7fd;" x="565.42268" xlink:href="#md16af975ec" y="153.439317"/>
     <use style="fill:#aac7fd;" x="575.881912" xlink:href="#md16af975ec" y="152.380574"/>
     <use style="fill:#aac7fd;" x="586.341143" xlink:href="#md16af975ec" y="152.457571"/>
     <use style="fill:#aac7fd;" x="596.800375" xlink:href="#md16af975ec" y="149.608599"/>
     <use style="fill:#aac7fd;" x="607.259606" xlink:href="#md16af975ec" y="149.801099"/>
     <use style="fill:#aac7fd;" x="617.718838" xlink:href="#md16af975ec" y="149.897347"/>
     <use style="fill:#aac7fd;" x="628.178069" xlink:href="#md16af975ec" y="149.396852"/>
     <use style="fill:#aac7fd;" x="638.637301" xlink:href="#md16af975ec" y="147.620087"/>
     <use style="fill:#aac7fd;" x="649.096532" xlink:href="#md16af975ec" y="148.742356"/>
     <use style="fill:#aac7fd;" x="659.555764" xlink:href="#md16af975ec" y="148.340041"/>
     <use style="fill:#aac7fd;" x="670.014995" xlink:href="#md16af975ec" y="145.672012"/>
     <use style="fill:#aac7fd;" x="680.474227" xlink:href="#md16af975ec" y="148.795297"/>
     <use style="fill:#aac7fd;" x="690.933458" xlink:href="#md16af975ec" y="148.557075"/>
     <use style="fill:#aac7fd;" x="701.39269" xlink:href="#md16af975ec" y="148.863357"/>
     <use style="fill:#aac7fd;" x="711.851921" xlink:href="#md16af975ec" y="146.286081"/>
     <use style="fill:#aac7fd;" x="722.311153" xlink:href="#md16af975ec" y="141.807612"/>
     <use style="fill:#aac7fd;" x="732.770384" xlink:href="#md16af975ec" y="146.995442"/>
     <use style="fill:#aac7fd;" x="743.229616" xlink:href="#md16af975ec" y="145.777893"/>
     <use style="fill:#aac7fd;" x="753.688847" xlink:href="#md16af975ec" y="146.413118"/>
     <use style="fill:#aac7fd;" x="764.148079" xlink:href="#md16af975ec" y="143.66041"/>
     <use style="fill:#aac7fd;" x="774.60731" xlink:href="#md16af975ec" y="143.236913"/>
     <use style="fill:#aac7fd;" x="785.066542" xlink:href="#md16af975ec" y="146.836621"/>
     <use style="fill:#aac7fd;" x="795.525773" xlink:href="#md16af975ec" y="141.825249"/>
     <use style="fill:#aac7fd;" x="805.985005" xlink:href="#md16af975ec" y="148.424734"/>
     <use style="fill:#aac7fd;" x="816.444236" xlink:href="#md16af975ec" y="147.365985"/>
     <use style="fill:#aac7fd;" x="826.903468" xlink:href="#md16af975ec" y="145.566131"/>
     <use style="fill:#aac7fd;" x="837.362699" xlink:href="#md16af975ec" y="139.637185"/>
     <use style="fill:#aac7fd;" x="847.821931" xlink:href="#md16af975ec" y="140.801794"/>
     <use style="fill:#aac7fd;" x="858.281162" xlink:href="#md16af975ec" y="144.719145"/>
     <use style="fill:#aac7fd;" x="868.740394" xlink:href="#md16af975ec" y="139.107821"/>
     <use style="fill:#aac7fd;" x="879.199625" xlink:href="#md16af975ec" y="145.566131"/>
     <use style="fill:#aac7fd;" x="889.658857" xlink:href="#md16af975ec" y="147.366005"/>
     <use style="fill:#aac7fd;" x="900.118088" xlink:href="#md16af975ec" y="138.154953"/>
     <use style="fill:#aac7fd;" x="910.57732" xlink:href="#md16af975ec" y="141.119416"/>
     <use style="fill:#aac7fd;" x="921.036551" xlink:href="#md16af975ec" y="142.601668"/>
     <use style="fill:#aac7fd;" x="931.495783" xlink:href="#md16af975ec" y="139.848946"/>
     <use style="fill:#aac7fd;" x="941.955014" xlink:href="#md16af975ec" y="139.213701"/>
     <use style="fill:#aac7fd;" x="952.414246" xlink:href="#md16af975ec" y="144.825025"/>
     <use style="fill:#aac7fd;" x="962.873477" xlink:href="#md16af975ec" y="142.601668"/>
     <use style="fill:#aac7fd;" x="973.332709" xlink:href="#md16af975ec" y="144.825006"/>
     <use style="fill:#aac7fd;" x="983.79194" xlink:href="#md16af975ec" y="147.048383"/>
     <use style="fill:#aac7fd;" x="994.251172" xlink:href="#md16af975ec" y="137.096225"/>
     <use style="fill:#aac7fd;" x="1004.710403" xlink:href="#md16af975ec" y="141.754661"/>
     <use style="fill:#aac7fd;" x="1015.169634" xlink:href="#md16af975ec" y="142.178185"/>
     <use style="fill:#aac7fd;" x="1025.628866" xlink:href="#md16af975ec" y="139.00196"/>
     <use style="fill:#aac7fd;" x="1036.088097" xlink:href="#md16af975ec" y="139.00196"/>
    </g>
   </g>
   <g id="line2d_15">
    <path clip-path="url(#p6861744faf)" d="M 230.727273 723.137797 
L 241.186504 702.886984 
L 251.645736 644.271275 
L 262.104967 477.028819 
L 272.564199 378.296489 
L 283.02343 344.301306 
L 293.482662 325.705971 
L 303.941893 305.493657 
L 314.401125 296.080499 
L 324.860356 284.164857 
L 335.319588 274.8287 
L 345.778819 261.007316 
L 356.238051 257.869596 
L 366.697282 247.4747 
L 377.156514 245.241712 
L 387.615745 238.927768 
L 398.074977 235.289558 
L 408.534208 227.435627 
L 418.99344 223.701165 
L 429.452671 217.926214 
L 439.911903 214.711495 
L 450.371134 209.167546 
L 460.830366 207.415812 
L 471.289597 203.546596 
L 481.748828 204.990335 
L 492.20806 198.503146 
L 502.667291 197.001661 
L 513.126523 194.672432 
L 523.585754 192.189206 
L 534.044986 190.071724 
L 544.504217 185.490266 
L 554.963449 183.661532 
L 565.42268 179.041579 
L 575.881912 179.195577 
L 586.341143 176.635353 
L 596.800375 174.902863 
L 607.259606 172.092394 
L 617.718838 175.114614 
L 628.178069 174.132875 
L 638.637301 173.63238 
L 649.096532 170.321412 
L 659.555764 170.687153 
L 670.014995 169.589916 
L 680.474227 169.938338 
L 690.933458 163.141229 
L 701.39269 166.388028 
L 711.851921 162.858893 
L 722.311153 162.505975 
L 732.770384 164.999906 
L 743.229616 159.75326 
L 753.688847 162.929476 
L 764.148079 165.799841 
L 774.60731 160.694356 
L 785.066542 155.385958 
L 795.525773 158.668054 
L 805.985005 158.301277 
L 816.444236 155.669542 
L 826.903468 157.671073 
L 837.362699 152.024449 
L 847.821931 149.377594 
L 858.281162 154.671309 
L 868.740394 151.459791 
L 879.199625 151.953868 
L 889.658857 152.483239 
L 900.118088 153.665495 
L 910.57732 157.141689 
L 921.036551 147.118943 
L 931.495783 149.659937 
L 941.955014 157.000528 
L 952.414246 154.3184 
L 962.873477 147.895363 
L 973.332709 148.601195 
L 983.79194 146.307257 
L 994.251172 148.00123 
L 1004.710403 153.612554 
L 1015.169634 151.495078 
L 1025.628866 144.930886 
L 1036.088097 140.907695 
L 1046.547329 137.519708 
L 1057.00656 148.530595 
L 1067.465792 157.000541 
L 1077.925023 148.742356 
L 1088.384255 155.730051 
L 1098.843486 146.62486 
L 1109.302718 154.459561 
L 1119.761949 144.507403 
L 1130.221181 142.601668 
L 1140.680412 133.92 
L 1151.139644 144.295641 
L 1161.598875 146.836621 
L 1172.058107 145.35437 
L 1182.517338 137.307947 
L 1192.97657 150.648091 
L 1203.435801 138.366715 
L 1213.895033 141.966423 
L 1224.354264 143.025151 
L 1234.813496 143.448675 
L 1245.272727 143.872158 
" style="fill:none;stroke:#aac7fd;stroke-dasharray:12,4.5;stroke-dashoffset:0;stroke-width:3;"/>
    <defs>
     <path d="M -1.5 3 
L 0 1.5 
L 1.5 3 
L 3 1.5 
L 1.5 0 
L 3 -1.5 
L 1.5 -3 
L 0 -1.5 
L -1.5 -3 
L -3 -1.5 
L -1.5 0 
L -3 1.5 
z
" id="me86b21ae6f"/>
    </defs>
    <g clip-path="url(#p6861744faf)">
     <use style="fill:#aac7fd;" x="230.727273" xlink:href="#me86b21ae6f" y="723.137797"/>
     <use style="fill:#aac7fd;" x="241.186504" xlink:href="#me86b21ae6f" y="702.886984"/>
     <use style="fill:#aac7fd;" x="251.645736" xlink:href="#me86b21ae6f" y="644.271275"/>
     <use style="fill:#aac7fd;" x="262.104967" xlink:href="#me86b21ae6f" y="477.028819"/>
     <use style="fill:#aac7fd;" x="272.564199" xlink:href="#me86b21ae6f" y="378.296489"/>
     <use style="fill:#aac7fd;" x="283.02343" xlink:href="#me86b21ae6f" y="344.301306"/>
     <use style="fill:#aac7fd;" x="293.482662" xlink:href="#me86b21ae6f" y="325.705971"/>
     <use style="fill:#aac7fd;" x="303.941893" xlink:href="#me86b21ae6f" y="305.493657"/>
     <use style="fill:#aac7fd;" x="314.401125" xlink:href="#me86b21ae6f" y="296.080499"/>
     <use style="fill:#aac7fd;" x="324.860356" xlink:href="#me86b21ae6f" y="284.164857"/>
     <use style="fill:#aac7fd;" x="335.319588" xlink:href="#me86b21ae6f" y="274.8287"/>
     <use style="fill:#aac7fd;" x="345.778819" xlink:href="#me86b21ae6f" y="261.007316"/>
     <use style="fill:#aac7fd;" x="356.238051" xlink:href="#me86b21ae6f" y="257.869596"/>
     <use style="fill:#aac7fd;" x="366.697282" xlink:href="#me86b21ae6f" y="247.4747"/>
     <use style="fill:#aac7fd;" x="377.156514" xlink:href="#me86b21ae6f" y="245.241712"/>
     <use style="fill:#aac7fd;" x="387.615745" xlink:href="#me86b21ae6f" y="238.927768"/>
     <use style="fill:#aac7fd;" x="398.074977" xlink:href="#me86b21ae6f" y="235.289558"/>
     <use style="fill:#aac7fd;" x="408.534208" xlink:href="#me86b21ae6f" y="227.435627"/>
     <use style="fill:#aac7fd;" x="418.99344" xlink:href="#me86b21ae6f" y="223.701165"/>
     <use style="fill:#aac7fd;" x="429.452671" xlink:href="#me86b21ae6f" y="217.926214"/>
     <use style="fill:#aac7fd;" x="439.911903" xlink:href="#me86b21ae6f" y="214.711495"/>
     <use style="fill:#aac7fd;" x="450.371134" xlink:href="#me86b21ae6f" y="209.167546"/>
     <use style="fill:#aac7fd;" x="460.830366" xlink:href="#me86b21ae6f" y="207.415812"/>
     <use style="fill:#aac7fd;" x="471.289597" xlink:href="#me86b21ae6f" y="203.546596"/>
     <use style="fill:#aac7fd;" x="481.748828" xlink:href="#me86b21ae6f" y="204.990335"/>
     <use style="fill:#aac7fd;" x="492.20806" xlink:href="#me86b21ae6f" y="198.503146"/>
     <use style="fill:#aac7fd;" x="502.667291" xlink:href="#me86b21ae6f" y="197.001661"/>
     <use style="fill:#aac7fd;" x="513.126523" xlink:href="#me86b21ae6f" y="194.672432"/>
     <use style="fill:#aac7fd;" x="523.585754" xlink:href="#me86b21ae6f" y="192.189206"/>
     <use style="fill:#aac7fd;" x="534.044986" xlink:href="#me86b21ae6f" y="190.071724"/>
     <use style="fill:#aac7fd;" x="544.504217" xlink:href="#me86b21ae6f" y="185.490266"/>
     <use style="fill:#aac7fd;" x="554.963449" xlink:href="#me86b21ae6f" y="183.661532"/>
     <use style="fill:#aac7fd;" x="565.42268" xlink:href="#me86b21ae6f" y="179.041579"/>
     <use style="fill:#aac7fd;" x="575.881912" xlink:href="#me86b21ae6f" y="179.195577"/>
     <use style="fill:#aac7fd;" x="586.341143" xlink:href="#me86b21ae6f" y="176.635353"/>
     <use style="fill:#aac7fd;" x="596.800375" xlink:href="#me86b21ae6f" y="174.902863"/>
     <use style="fill:#aac7fd;" x="607.259606" xlink:href="#me86b21ae6f" y="172.092394"/>
     <use style="fill:#aac7fd;" x="617.718838" xlink:href="#me86b21ae6f" y="175.114614"/>
     <use style="fill:#aac7fd;" x="628.178069" xlink:href="#me86b21ae6f" y="174.132875"/>
     <use style="fill:#aac7fd;" x="638.637301" xlink:href="#me86b21ae6f" y="173.63238"/>
     <use style="fill:#aac7fd;" x="649.096532" xlink:href="#me86b21ae6f" y="170.321412"/>
     <use style="fill:#aac7fd;" x="659.555764" xlink:href="#me86b21ae6f" y="170.687153"/>
     <use style="fill:#aac7fd;" x="670.014995" xlink:href="#me86b21ae6f" y="169.589916"/>
     <use style="fill:#aac7fd;" x="680.474227" xlink:href="#me86b21ae6f" y="169.938338"/>
     <use style="fill:#aac7fd;" x="690.933458" xlink:href="#me86b21ae6f" y="163.141229"/>
     <use style="fill:#aac7fd;" x="701.39269" xlink:href="#me86b21ae6f" y="166.388028"/>
     <use style="fill:#aac7fd;" x="711.851921" xlink:href="#me86b21ae6f" y="162.858893"/>
     <use style="fill:#aac7fd;" x="722.311153" xlink:href="#me86b21ae6f" y="162.505975"/>
     <use style="fill:#aac7fd;" x="732.770384" xlink:href="#me86b21ae6f" y="164.999906"/>
     <use style="fill:#aac7fd;" x="743.229616" xlink:href="#me86b21ae6f" y="159.75326"/>
     <use style="fill:#aac7fd;" x="753.688847" xlink:href="#me86b21ae6f" y="162.929476"/>
     <use style="fill:#aac7fd;" x="764.148079" xlink:href="#me86b21ae6f" y="165.799841"/>
     <use style="fill:#aac7fd;" x="774.60731" xlink:href="#me86b21ae6f" y="160.694356"/>
     <use style="fill:#aac7fd;" x="785.066542" xlink:href="#me86b21ae6f" y="155.385958"/>
     <use style="fill:#aac7fd;" x="795.525773" xlink:href="#me86b21ae6f" y="158.668054"/>
     <use style="fill:#aac7fd;" x="805.985005" xlink:href="#me86b21ae6f" y="158.301277"/>
     <use style="fill:#aac7fd;" x="816.444236" xlink:href="#me86b21ae6f" y="155.669542"/>
     <use style="fill:#aac7fd;" x="826.903468" xlink:href="#me86b21ae6f" y="157.671073"/>
     <use style="fill:#aac7fd;" x="837.362699" xlink:href="#me86b21ae6f" y="152.024449"/>
     <use style="fill:#aac7fd;" x="847.821931" xlink:href="#me86b21ae6f" y="149.377594"/>
     <use style="fill:#aac7fd;" x="858.281162" xlink:href="#me86b21ae6f" y="154.671309"/>
     <use style="fill:#aac7fd;" x="868.740394" xlink:href="#me86b21ae6f" y="151.459791"/>
     <use style="fill:#aac7fd;" x="879.199625" xlink:href="#me86b21ae6f" y="151.953868"/>
     <use style="fill:#aac7fd;" x="889.658857" xlink:href="#me86b21ae6f" y="152.483239"/>
     <use style="fill:#aac7fd;" x="900.118088" xlink:href="#me86b21ae6f" y="153.665495"/>
     <use style="fill:#aac7fd;" x="910.57732" xlink:href="#me86b21ae6f" y="157.141689"/>
     <use style="fill:#aac7fd;" x="921.036551" xlink:href="#me86b21ae6f" y="147.118943"/>
     <use style="fill:#aac7fd;" x="931.495783" xlink:href="#me86b21ae6f" y="149.659937"/>
     <use style="fill:#aac7fd;" x="941.955014" xlink:href="#me86b21ae6f" y="157.000528"/>
     <use style="fill:#aac7fd;" x="952.414246" xlink:href="#me86b21ae6f" y="154.3184"/>
     <use style="fill:#aac7fd;" x="962.873477" xlink:href="#me86b21ae6f" y="147.895363"/>
     <use style="fill:#aac7fd;" x="973.332709" xlink:href="#me86b21ae6f" y="148.601195"/>
     <use style="fill:#aac7fd;" x="983.79194" xlink:href="#me86b21ae6f" y="146.307257"/>
     <use style="fill:#aac7fd;" x="994.251172" xlink:href="#me86b21ae6f" y="148.00123"/>
     <use style="fill:#aac7fd;" x="1004.710403" xlink:href="#me86b21ae6f" y="153.612554"/>
     <use style="fill:#aac7fd;" x="1015.169634" xlink:href="#me86b21ae6f" y="151.495078"/>
     <use style="fill:#aac7fd;" x="1025.628866" xlink:href="#me86b21ae6f" y="144.930886"/>
     <use style="fill:#aac7fd;" x="1036.088097" xlink:href="#me86b21ae6f" y="140.907695"/>
     <use style="fill:#aac7fd;" x="1046.547329" xlink:href="#me86b21ae6f" y="137.519708"/>
     <use style="fill:#aac7fd;" x="1057.00656" xlink:href="#me86b21ae6f" y="148.530595"/>
     <use style="fill:#aac7fd;" x="1067.465792" xlink:href="#me86b21ae6f" y="157.000541"/>
     <use style="fill:#aac7fd;" x="1077.925023" xlink:href="#me86b21ae6f" y="148.742356"/>
     <use style="fill:#aac7fd;" x="1088.384255" xlink:href="#me86b21ae6f" y="155.730051"/>
     <use style="fill:#aac7fd;" x="1098.843486" xlink:href="#me86b21ae6f" y="146.62486"/>
     <use style="fill:#aac7fd;" x="1109.302718" xlink:href="#me86b21ae6f" y="154.459561"/>
     <use style="fill:#aac7fd;" x="1119.761949" xlink:href="#me86b21ae6f" y="144.507403"/>
     <use style="fill:#aac7fd;" x="1130.221181" xlink:href="#me86b21ae6f" y="142.601668"/>
     <use style="fill:#aac7fd;" x="1140.680412" xlink:href="#me86b21ae6f" y="133.92"/>
     <use style="fill:#aac7fd;" x="1151.139644" xlink:href="#me86b21ae6f" y="144.295641"/>
     <use style="fill:#aac7fd;" x="1161.598875" xlink:href="#me86b21ae6f" y="146.836621"/>
     <use style="fill:#aac7fd;" x="1172.058107" xlink:href="#me86b21ae6f" y="145.35437"/>
     <use style="fill:#aac7fd;" x="1182.517338" xlink:href="#me86b21ae6f" y="137.307947"/>
     <use style="fill:#aac7fd;" x="1192.97657" xlink:href="#me86b21ae6f" y="150.648091"/>
     <use style="fill:#aac7fd;" x="1203.435801" xlink:href="#me86b21ae6f" y="138.366715"/>
     <use style="fill:#aac7fd;" x="1213.895033" xlink:href="#me86b21ae6f" y="141.966423"/>
     <use style="fill:#aac7fd;" x="1224.354264" xlink:href="#me86b21ae6f" y="143.025151"/>
     <use style="fill:#aac7fd;" x="1234.813496" xlink:href="#me86b21ae6f" y="143.448675"/>
     <use style="fill:#aac7fd;" x="1245.272727" xlink:href="#me86b21ae6f" y="143.872158"/>
    </g>
   </g>
   <g id="line2d_16"/>
   <g id="line2d_17"/>
   <g id="line2d_18"/>
   <g id="line2d_19"/>
   <g id="patch_3">
    <path d="M 180 768.96 
L 180 103.68 
" style="fill:none;stroke:#ffffff;stroke-linecap:square;stroke-linejoin:miter;stroke-width:1.25;"/>
   </g>
   <g id="patch_4">
    <path d="M 1296 768.96 
L 1296 103.68 
" style="fill:none;stroke:#ffffff;stroke-linecap:square;stroke-linejoin:miter;stroke-width:1.25;"/>
   </g>
   <g id="patch_5">
    <path d="M 180 768.96 
L 1296 768.96 
" style="fill:none;stroke:#ffffff;stroke-linecap:square;stroke-linejoin:miter;stroke-width:1.25;"/>
   </g>
   <g id="patch_6">
    <path d="M 180 103.68 
L 1296 103.68 
" style="fill:none;stroke:#ffffff;stroke-linecap:square;stroke-linejoin:miter;stroke-width:1.25;"/>
   </g>
   <g id="legend_1">
    <g id="patch_7">
     <path d="M 1027.609375 756.46 
L 1278.5 756.46 
Q 1283.5 756.46 1283.5 751.46 
L 1283.5 541.182656 
Q 1283.5 536.182656 1278.5 536.182656 
L 1027.609375 536.182656 
Q 1022.609375 536.182656 1022.609375 541.182656 
L 1022.609375 751.46 
Q 1022.609375 756.46 1027.609375 756.46 
z
" style="fill:#eaeaf2;opacity:0.8;stroke:#cccccc;stroke-linejoin:miter;"/>
    </g>
    <g id="text_14">
     <!-- Input -->
     <g style="fill:#262626;" transform="translate(1102.609375 564.077188)scale(0.25 -0.25)">
      <defs>
       <path d="M 9.328125 0 
L 9.328125 71.578125 
L 18.796875 71.578125 
L 18.796875 0 
z
" id="ArialMT-73"/>
      </defs>
      <use xlink:href="#ArialMT-73"/>
      <use x="27.783203" xlink:href="#ArialMT-110"/>
      <use x="83.398438" xlink:href="#ArialMT-112"/>
      <use x="139.013672" xlink:href="#ArialMT-117"/>
      <use x="194.628906" xlink:href="#ArialMT-116"/>
     </g>
    </g>
    <g id="line2d_20">
     <path d="M 1032.609375 590.690469 
L 1082.609375 590.690469 
" style="fill:none;stroke:#f7b89c;stroke-linecap:round;stroke-width:1.5;"/>
    </g>
    <g id="line2d_21"/>
    <g id="text_15">
     <!-- raw -->
     <g style="fill:#262626;" transform="translate(1102.609375 599.440469)scale(0.25 -0.25)">
      <defs>
       <path d="M 16.15625 0 
L 0.296875 51.859375 
L 9.375 51.859375 
L 17.625 21.921875 
L 20.703125 10.796875 
Q 20.90625 11.625 23.390625 21.484375 
L 31.640625 51.859375 
L 40.671875 51.859375 
L 48.4375 21.78125 
L 51.03125 11.859375 
L 54 21.875 
L 62.890625 51.859375 
L 71.4375 51.859375 
L 55.21875 0 
L 46.09375 0 
L 37.84375 31.0625 
L 35.84375 39.890625 
L 25.34375 0 
z
" id="ArialMT-119"/>
      </defs>
      <use xlink:href="#ArialMT-114"/>
      <use x="33.300781" xlink:href="#ArialMT-97"/>
      <use x="88.916016" xlink:href="#ArialMT-119"/>
     </g>
    </g>
    <g id="line2d_22">
     <path d="M 1032.609375 626.05375 
L 1082.609375 626.05375 
" style="fill:none;stroke:#aac7fd;stroke-linecap:round;stroke-width:1.5;"/>
    </g>
    <g id="line2d_23"/>
    <g id="text_16">
     <!-- features -->
     <g style="fill:#262626;" transform="translate(1102.609375 634.80375)scale(0.25 -0.25)">
      <defs>
       <path d="M 8.6875 0 
L 8.6875 45.015625 
L 0.921875 45.015625 
L 0.921875 51.859375 
L 8.6875 51.859375 
L 8.6875 57.375 
Q 8.6875 62.59375 9.625 65.140625 
Q 10.890625 68.5625 14.078125 70.671875 
Q 17.28125 72.796875 23.046875 72.796875 
Q 26.765625 72.796875 31.25 71.921875 
L 29.9375 64.265625 
Q 27.203125 64.75 24.75 64.75 
Q 20.75 64.75 19.09375 63.03125 
Q 17.4375 61.328125 17.4375 56.640625 
L 17.4375 51.859375 
L 27.546875 51.859375 
L 27.546875 45.015625 
L 17.4375 45.015625 
L 17.4375 0 
z
" id="ArialMT-102"/>
       <path d="M 42.09375 16.703125 
L 51.171875 15.578125 
Q 49.03125 7.625 43.21875 3.21875 
Q 37.40625 -1.171875 28.375 -1.171875 
Q 17 -1.171875 10.328125 5.828125 
Q 3.65625 12.84375 3.65625 25.484375 
Q 3.65625 38.578125 10.390625 45.796875 
Q 17.140625 53.03125 27.875 53.03125 
Q 38.28125 53.03125 44.875 45.953125 
Q 51.46875 38.875 51.46875 26.03125 
Q 51.46875 25.25 51.421875 23.6875 
L 12.75 23.6875 
Q 13.234375 15.140625 17.578125 10.59375 
Q 21.921875 6.0625 28.421875 6.0625 
Q 33.25 6.0625 36.671875 8.59375 
Q 40.09375 11.140625 42.09375 16.703125 
z
M 13.234375 30.90625 
L 42.1875 30.90625 
Q 41.609375 37.453125 38.875 40.71875 
Q 34.671875 45.796875 27.984375 45.796875 
Q 21.921875 45.796875 17.796875 41.75 
Q 13.671875 37.703125 13.234375 30.90625 
z
" id="ArialMT-101"/>
       <path d="M 3.078125 15.484375 
L 11.765625 16.84375 
Q 12.5 11.625 15.84375 8.84375 
Q 19.1875 6.0625 25.203125 6.0625 
Q 31.25 6.0625 34.171875 8.515625 
Q 37.109375 10.984375 37.109375 14.3125 
Q 37.109375 17.28125 34.515625 19 
Q 32.71875 20.171875 25.53125 21.96875 
Q 15.875 24.421875 12.140625 26.203125 
Q 8.40625 27.984375 6.46875 31.125 
Q 4.546875 34.28125 4.546875 38.09375 
Q 4.546875 41.546875 6.125 44.5 
Q 7.71875 47.46875 10.453125 49.421875 
Q 12.5 50.921875 16.03125 51.96875 
Q 19.578125 53.03125 23.640625 53.03125 
Q 29.734375 53.03125 34.34375 51.265625 
Q 38.96875 49.515625 41.15625 46.5 
Q 43.359375 43.5 44.1875 38.484375 
L 35.59375 37.3125 
Q 35.015625 41.3125 32.203125 43.546875 
Q 29.390625 45.796875 24.265625 45.796875 
Q 18.21875 45.796875 15.625 43.796875 
Q 13.03125 41.796875 13.03125 39.109375 
Q 13.03125 37.40625 14.109375 36.03125 
Q 15.1875 34.625 17.484375 33.6875 
Q 18.796875 33.203125 25.25 31.453125 
Q 34.578125 28.953125 38.25 27.359375 
Q 41.9375 25.78125 44.03125 22.75 
Q 46.140625 19.734375 46.140625 15.234375 
Q 46.140625 10.84375 43.578125 6.953125 
Q 41.015625 3.078125 36.171875 0.953125 
Q 31.34375 -1.171875 25.25 -1.171875 
Q 15.140625 -1.171875 9.84375 3.03125 
Q 4.546875 7.234375 3.078125 15.484375 
z
" id="ArialMT-115"/>
      </defs>
      <use xlink:href="#ArialMT-102"/>
      <use x="27.783203" xlink:href="#ArialMT-101"/>
      <use x="83.398438" xlink:href="#ArialMT-97"/>
      <use x="139.013672" xlink:href="#ArialMT-116"/>
      <use x="166.796875" xlink:href="#ArialMT-117"/>
      <use x="222.412109" xlink:href="#ArialMT-114"/>
      <use x="255.712891" xlink:href="#ArialMT-101"/>
      <use x="311.328125" xlink:href="#ArialMT-115"/>
     </g>
    </g>
    <g id="text_17">
     <!-- Model -->
     <g style="fill:#262626;" transform="translate(1102.609375 670.167031)scale(0.25 -0.25)">
      <defs>
       <path d="M 7.421875 0 
L 7.421875 71.578125 
L 21.6875 71.578125 
L 38.625 20.90625 
Q 40.96875 13.8125 42.046875 10.296875 
Q 43.265625 14.203125 45.84375 21.78125 
L 62.984375 71.578125 
L 75.734375 71.578125 
L 75.734375 0 
L 66.609375 0 
L 66.609375 59.90625 
L 45.796875 0 
L 37.25 0 
L 16.546875 60.9375 
L 16.546875 0 
z
" id="ArialMT-77"/>
      </defs>
      <use xlink:href="#ArialMT-77"/>
      <use x="83.300781" xlink:href="#ArialMT-111"/>
      <use x="138.916016" xlink:href="#ArialMT-100"/>
      <use x="194.53125" xlink:href="#ArialMT-101"/>
      <use x="250.146484" xlink:href="#ArialMT-108"/>
     </g>
    </g>
    <g id="line2d_24">
     <path d="M 1032.609375 696.780313 
L 1082.609375 696.780313 
" style="fill:none;stroke:#333333;stroke-linecap:round;stroke-width:1.5;"/>
    </g>
    <g id="line2d_25">
     <defs>
      <path d="M 0 3 
C 0.795609 3 1.55874 2.683901 2.12132 2.12132 
C 2.683901 1.55874 3 0.795609 3 0 
C 3 -0.795609 2.683901 -1.55874 2.12132 -2.12132 
C 1.55874 -2.683901 0.795609 -3 0 -3 
C -0.795609 -3 -1.55874 -2.683901 -2.12132 -2.12132 
C -2.683901 -1.55874 -3 -0.795609 -3 0 
C -3 0.795609 -2.683901 1.55874 -2.12132 2.12132 
C -1.55874 2.683901 -0.795609 3 0 3 
z
" id="mfe209c2804" style="stroke:#333333;"/>
     </defs>
     <g>
      <use style="fill:#333333;stroke:#333333;" x="1057.609375" xlink:href="#mfe209c2804" y="696.780313"/>
     </g>
    </g>
    <g id="text_18">
     <!-- retrained -->
     <g style="fill:#262626;" transform="translate(1102.609375 705.530313)scale(0.25 -0.25)">
      <use xlink:href="#ArialMT-114"/>
      <use x="33.300781" xlink:href="#ArialMT-101"/>
      <use x="88.916016" xlink:href="#ArialMT-116"/>
      <use x="116.699219" xlink:href="#ArialMT-114"/>
      <use x="150" xlink:href="#ArialMT-97"/>
      <use x="205.615234" xlink:href="#ArialMT-105"/>
      <use x="227.832031" xlink:href="#ArialMT-110"/>
      <use x="283.447266" xlink:href="#ArialMT-101"/>
      <use x="339.0625" xlink:href="#ArialMT-100"/>
     </g>
    </g>
    <g id="line2d_26">
     <path d="M 1032.609375 732.448281 
L 1082.609375 732.448281 
" style="fill:none;stroke:#333333;stroke-dasharray:6,2.25;stroke-dashoffset:0;stroke-width:1.5;"/>
    </g>
    <g id="line2d_27">
     <defs>
      <path d="M -1.5 3 
L 0 1.5 
L 1.5 3 
L 3 1.5 
L 1.5 0 
L 3 -1.5 
L 1.5 -3 
L 0 -1.5 
L -1.5 -3 
L -3 -1.5 
L -1.5 0 
L -3 1.5 
z
" id="mef3f8be051" style="stroke:#333333;stroke-linejoin:miter;"/>
     </defs>
     <g>
      <use style="fill:#333333;stroke:#333333;stroke-linejoin:miter;" x="1057.609375" xlink:href="#mef3f8be051" y="732.448281"/>
     </g>
    </g>
    <g id="text_19">
     <!-- subject-specific -->
     <g style="fill:#262626;" transform="translate(1102.609375 741.198281)scale(0.25 -0.25)">
      <defs>
       <path d="M 14.703125 0 
L 6.546875 0 
L 6.546875 71.578125 
L 15.328125 71.578125 
L 15.328125 46.046875 
Q 20.90625 53.03125 29.546875 53.03125 
Q 34.328125 53.03125 38.59375 51.09375 
Q 42.875 49.171875 45.625 45.671875 
Q 48.390625 42.1875 49.953125 37.25 
Q 51.515625 32.328125 51.515625 26.703125 
Q 51.515625 13.375 44.921875 6.09375 
Q 38.328125 -1.171875 29.109375 -1.171875 
Q 19.921875 -1.171875 14.703125 6.5 
z
M 14.59375 26.3125 
Q 14.59375 17 17.140625 12.84375 
Q 21.296875 6.0625 28.375 6.0625 
Q 34.125 6.0625 38.328125 11.0625 
Q 42.53125 16.0625 42.53125 25.984375 
Q 42.53125 36.140625 38.5 40.96875 
Q 34.46875 45.796875 28.765625 45.796875 
Q 23 45.796875 18.796875 40.796875 
Q 14.59375 35.796875 14.59375 26.3125 
z
" id="ArialMT-98"/>
       <path d="M 6.546875 61.375 
L 6.546875 71.578125 
L 15.328125 71.578125 
L 15.328125 61.375 
z
M -4.59375 -20.125 
L -2.9375 -12.640625 
Q -0.296875 -13.328125 1.21875 -13.328125 
Q 3.90625 -13.328125 5.21875 -11.546875 
Q 6.546875 -9.765625 6.546875 -2.640625 
L 6.546875 51.859375 
L 15.328125 51.859375 
L 15.328125 -2.828125 
Q 15.328125 -12.40625 12.84375 -16.15625 
Q 9.671875 -21.046875 2.296875 -21.046875 
Q -1.265625 -21.046875 -4.59375 -20.125 
z
" id="ArialMT-106"/>
       <path d="M 3.171875 21.484375 
L 3.171875 30.328125 
L 30.171875 30.328125 
L 30.171875 21.484375 
z
" id="ArialMT-45"/>
      </defs>
      <use xlink:href="#ArialMT-115"/>
      <use x="50" xlink:href="#ArialMT-117"/>
      <use x="105.615234" xlink:href="#ArialMT-98"/>
      <use x="161.230469" xlink:href="#ArialMT-106"/>
      <use x="183.447266" xlink:href="#ArialMT-101"/>
      <use x="239.0625" xlink:href="#ArialMT-99"/>
      <use x="289.0625" xlink:href="#ArialMT-116"/>
      <use x="316.845703" xlink:href="#ArialMT-45"/>
      <use x="350.146484" xlink:href="#ArialMT-115"/>
      <use x="400.146484" xlink:href="#ArialMT-112"/>
      <use x="455.761719" xlink:href="#ArialMT-101"/>
      <use x="511.376953" xlink:href="#ArialMT-99"/>
      <use x="561.376953" xlink:href="#ArialMT-105"/>
      <use x="583.59375" xlink:href="#ArialMT-102"/>
      <use x="611.376953" xlink:href="#ArialMT-105"/>
      <use x="633.59375" xlink:href="#ArialMT-99"/>
     </g>
    </g>
   </g>
  </g>
 </g>
 <defs>
  <clipPath id="p6861744faf">
   <rect height="665.28" width="1116" x="180" y="103.68"/>
  </clipPath>
 </defs>
</svg>
