<?xml version="1.0" encoding="utf-8" standalone="no"?>
<!DOCTYPE svg PUBLIC "-//W3C//DTD SVG 1.1//EN"
  "http://www.w3.org/Graphics/SVG/1.1/DTD/svg11.dtd">
<!-- Created with matplotlib (https://matplotlib.org/) -->
<svg height="1043.719531pt" version="1.1" viewBox="0 0 2091.25125 1043.719531" width="2091.25125pt" xmlns="http://www.w3.org/2000/svg" xmlns:xlink="http://www.w3.org/1999/xlink">
 <metadata>
  <rdf:RDF xmlns:cc="http://creativecommons.org/ns#" xmlns:dc="http://purl.org/dc/elements/1.1/" xmlns:rdf="http://www.w3.org/1999/02/22-rdf-syntax-ns#">
   <cc:Work>
    <dc:type rdf:resource="http://purl.org/dc/dcmitype/StillImage"/>
    <dc:date>2022-09-01T08:31:14.091195</dc:date>
    <dc:format>image/svg+xml</dc:format>
    <dc:creator>
     <cc:Agent>
      <dc:title>Matplotlib v3.3.2, https://matplotlib.org/</dc:title>
     </cc:Agent>
    </dc:creator>
   </cc:Work>
  </rdf:RDF>
 </metadata>
 <defs>
  <style type="text/css">*{stroke-linecap:butt;stroke-linejoin:round;}</style>
 </defs>
 <g id="figure_1">
  <g id="patch_1">
   <path d="M 0 1043.719531 
L 2091.25125 1043.719531 
L 2091.25125 0 
L 0 0 
z
" style="fill:#ffffff;"/>
  </g>
  <g id="axes_1">
   <g id="patch_2">
    <path d="M 110.02125 996.84 
L 559.78875 996.84 
L 559.78875 236.16 
L 110.02125 236.16 
z
" style="fill:#eaeaf2;"/>
   </g>
   <g id="matplotlib.axis_1">
    <g id="xtick_1">
     <g id="text_1">
      <!-- features -->
      <g style="fill:#262626;" transform="translate(162.849141 1029.960781)scale(0.33 -0.33)">
       <defs>
        <path d="M 8.6875 0 
L 8.6875 45.015625 
L 0.921875 45.015625 
L 0.921875 51.859375 
L 8.6875 51.859375 
L 8.6875 57.375 
Q 8.6875 62.59375 9.625 65.140625 
Q 10.890625 68.5625 14.078125 70.671875 
Q 17.28125 72.796875 23.046875 72.796875 
Q 26.765625 72.796875 31.25 71.921875 
L 29.9375 64.265625 
Q 27.203125 64.75 24.75 64.75 
Q 20.75 64.75 19.09375 63.03125 
Q 17.4375 61.328125 17.4375 56.640625 
L 17.4375 51.859375 
L 27.546875 51.859375 
L 27.546875 45.015625 
L 17.4375 45.015625 
L 17.4375 0 
z
" id="ArialMT-102"/>
        <path d="M 42.09375 16.703125 
L 51.171875 15.578125 
Q 49.03125 7.625 43.21875 3.21875 
Q 37.40625 -1.171875 28.375 -1.171875 
Q 17 -1.171875 10.328125 5.828125 
Q 3.65625 12.84375 3.65625 25.484375 
Q 3.65625 38.578125 10.390625 45.796875 
Q 17.140625 53.03125 27.875 53.03125 
Q 38.28125 53.03125 44.875 45.953125 
Q 51.46875 38.875 51.46875 26.03125 
Q 51.46875 25.25 51.421875 23.6875 
L 12.75 23.6875 
Q 13.234375 15.140625 17.578125 10.59375 
Q 21.921875 6.0625 28.421875 6.0625 
Q 33.25 6.0625 36.671875 8.59375 
Q 40.09375 11.140625 42.09375 16.703125 
z
M 13.234375 30.90625 
L 42.1875 30.90625 
Q 41.609375 37.453125 38.875 40.71875 
Q 34.671875 45.796875 27.984375 45.796875 
Q 21.921875 45.796875 17.796875 41.75 
Q 13.671875 37.703125 13.234375 30.90625 
z
" id="ArialMT-101"/>
        <path d="M 40.4375 6.390625 
Q 35.546875 2.25 31.03125 0.53125 
Q 26.515625 -1.171875 21.34375 -1.171875 
Q 12.796875 -1.171875 8.203125 3 
Q 3.609375 7.171875 3.609375 13.671875 
Q 3.609375 17.484375 5.34375 20.625 
Q 7.078125 23.78125 9.890625 25.6875 
Q 12.703125 27.59375 16.21875 28.5625 
Q 18.796875 29.25 24.03125 29.890625 
Q 34.671875 31.15625 39.703125 32.90625 
Q 39.75 34.71875 39.75 35.203125 
Q 39.75 40.578125 37.25 42.78125 
Q 33.890625 45.75 27.25 45.75 
Q 21.046875 45.75 18.09375 43.578125 
Q 15.140625 41.40625 13.71875 35.890625 
L 5.125 37.0625 
Q 6.296875 42.578125 8.984375 45.96875 
Q 11.671875 49.359375 16.75 51.1875 
Q 21.828125 53.03125 28.515625 53.03125 
Q 35.15625 53.03125 39.296875 51.46875 
Q 43.453125 49.90625 45.40625 47.53125 
Q 47.359375 45.171875 48.140625 41.546875 
Q 48.578125 39.3125 48.578125 33.453125 
L 48.578125 21.734375 
Q 48.578125 9.46875 49.140625 6.21875 
Q 49.703125 2.984375 51.375 0 
L 42.1875 0 
Q 40.828125 2.734375 40.4375 6.390625 
z
M 39.703125 26.03125 
Q 34.90625 24.078125 25.34375 22.703125 
Q 19.921875 21.921875 17.671875 20.9375 
Q 15.4375 19.96875 14.203125 18.09375 
Q 12.984375 16.21875 12.984375 13.921875 
Q 12.984375 10.40625 15.640625 8.0625 
Q 18.3125 5.71875 23.4375 5.71875 
Q 28.515625 5.71875 32.46875 7.9375 
Q 36.421875 10.15625 38.28125 14.015625 
Q 39.703125 17 39.703125 22.796875 
z
" id="ArialMT-97"/>
        <path d="M 25.78125 7.859375 
L 27.046875 0.09375 
Q 23.34375 -0.6875 20.40625 -0.6875 
Q 15.625 -0.6875 12.984375 0.828125 
Q 10.359375 2.34375 9.28125 4.8125 
Q 8.203125 7.28125 8.203125 15.1875 
L 8.203125 45.015625 
L 1.765625 45.015625 
L 1.765625 51.859375 
L 8.203125 51.859375 
L 8.203125 64.703125 
L 16.9375 69.96875 
L 16.9375 51.859375 
L 25.78125 51.859375 
L 25.78125 45.015625 
L 16.9375 45.015625 
L 16.9375 14.703125 
Q 16.9375 10.9375 17.40625 9.859375 
Q 17.875 8.796875 18.921875 8.15625 
Q 19.96875 7.515625 21.921875 7.515625 
Q 23.390625 7.515625 25.78125 7.859375 
z
" id="ArialMT-116"/>
        <path d="M 40.578125 0 
L 40.578125 7.625 
Q 34.515625 -1.171875 24.125 -1.171875 
Q 19.53125 -1.171875 15.546875 0.578125 
Q 11.578125 2.34375 9.640625 5 
Q 7.71875 7.671875 6.9375 11.53125 
Q 6.390625 14.109375 6.390625 19.734375 
L 6.390625 51.859375 
L 15.1875 51.859375 
L 15.1875 23.09375 
Q 15.1875 16.21875 15.71875 13.8125 
Q 16.546875 10.359375 19.234375 8.375 
Q 21.921875 6.390625 25.875 6.390625 
Q 29.828125 6.390625 33.296875 8.421875 
Q 36.765625 10.453125 38.203125 13.9375 
Q 39.65625 17.4375 39.65625 24.078125 
L 39.65625 51.859375 
L 48.4375 51.859375 
L 48.4375 0 
z
" id="ArialMT-117"/>
        <path d="M 6.5 0 
L 6.5 51.859375 
L 14.40625 51.859375 
L 14.40625 44 
Q 17.4375 49.515625 20 51.265625 
Q 22.5625 53.03125 25.640625 53.03125 
Q 30.078125 53.03125 34.671875 50.203125 
L 31.640625 42.046875 
Q 28.421875 43.953125 25.203125 43.953125 
Q 22.3125 43.953125 20.015625 42.21875 
Q 17.71875 40.484375 16.75 37.40625 
Q 15.28125 32.71875 15.28125 27.15625 
L 15.28125 0 
z
" id="ArialMT-114"/>
        <path d="M 3.078125 15.484375 
L 11.765625 16.84375 
Q 12.5 11.625 15.84375 8.84375 
Q 19.1875 6.0625 25.203125 6.0625 
Q 31.25 6.0625 34.171875 8.515625 
Q 37.109375 10.984375 37.109375 14.3125 
Q 37.109375 17.28125 34.515625 19 
Q 32.71875 20.171875 25.53125 21.96875 
Q 15.875 24.421875 12.140625 26.203125 
Q 8.40625 27.984375 6.46875 31.125 
Q 4.546875 34.28125 4.546875 38.09375 
Q 4.546875 41.546875 6.125 44.5 
Q 7.71875 47.46875 10.453125 49.421875 
Q 12.5 50.921875 16.03125 51.96875 
Q 19.578125 53.03125 23.640625 53.03125 
Q 29.734375 53.03125 34.34375 51.265625 
Q 38.96875 49.515625 41.15625 46.5 
Q 43.359375 43.5 44.1875 38.484375 
L 35.59375 37.3125 
Q 35.015625 41.3125 32.203125 43.546875 
Q 29.390625 45.796875 24.265625 45.796875 
Q 18.21875 45.796875 15.625 43.796875 
Q 13.03125 41.796875 13.03125 39.109375 
Q 13.03125 37.40625 14.109375 36.03125 
Q 15.1875 34.625 17.484375 33.6875 
Q 18.796875 33.203125 25.25 31.453125 
Q 34.578125 28.953125 38.25 27.359375 
Q 41.9375 25.78125 44.03125 22.75 
Q 46.140625 19.734375 46.140625 15.234375 
Q 46.140625 10.84375 43.578125 6.953125 
Q 41.015625 3.078125 36.171875 0.953125 
Q 31.34375 -1.171875 25.25 -1.171875 
Q 15.140625 -1.171875 9.84375 3.03125 
Q 4.546875 7.234375 3.078125 15.484375 
z
" id="ArialMT-115"/>
       </defs>
       <use xlink:href="#ArialMT-102"/>
       <use x="27.783203" xlink:href="#ArialMT-101"/>
       <use x="83.398438" xlink:href="#ArialMT-97"/>
       <use x="139.013672" xlink:href="#ArialMT-116"/>
       <use x="166.796875" xlink:href="#ArialMT-117"/>
       <use x="222.412109" xlink:href="#ArialMT-114"/>
       <use x="255.712891" xlink:href="#ArialMT-101"/>
       <use x="311.328125" xlink:href="#ArialMT-115"/>
      </g>
     </g>
    </g>
    <g id="xtick_2">
     <g id="text_2">
      <!-- raw -->
      <g style="fill:#262626;" transform="translate(420.76125 1029.960781)scale(0.33 -0.33)">
       <defs>
        <path d="M 16.15625 0 
L 0.296875 51.859375 
L 9.375 51.859375 
L 17.625 21.921875 
L 20.703125 10.796875 
Q 20.90625 11.625 23.390625 21.484375 
L 31.640625 51.859375 
L 40.671875 51.859375 
L 48.4375 21.78125 
L 51.03125 11.859375 
L 54 21.875 
L 62.890625 51.859375 
L 71.4375 51.859375 
L 55.21875 0 
L 46.09375 0 
L 37.84375 31.0625 
L 35.84375 39.890625 
L 25.34375 0 
z
" id="ArialMT-119"/>
       </defs>
       <use xlink:href="#ArialMT-114"/>
       <use x="33.300781" xlink:href="#ArialMT-97"/>
       <use x="88.916016" xlink:href="#ArialMT-119"/>
      </g>
     </g>
    </g>
   </g>
   <g id="matplotlib.axis_2">
    <g id="ytick_1">
     <g id="line2d_1">
      <path clip-path="url(#p550155b17f)" d="M 110.02125 888.46901 
L 559.78875 888.46901 
" style="fill:none;stroke:#ffffff;stroke-linecap:round;"/>
     </g>
     <g id="text_3">
      <!-- −20 -->
      <g style="fill:#262626;" transform="translate(44.545 900.2794)scale(0.33 -0.33)">
       <defs>
        <path d="M 52.828125 31.203125 
L 5.5625 31.203125 
L 5.5625 39.40625 
L 52.828125 39.40625 
z
" id="ArialMT-8722"/>
        <path d="M 50.34375 8.453125 
L 50.34375 0 
L 3.03125 0 
Q 2.9375 3.171875 4.046875 6.109375 
Q 5.859375 10.9375 9.828125 15.625 
Q 13.8125 20.3125 21.34375 26.46875 
Q 33.015625 36.03125 37.109375 41.625 
Q 41.21875 47.21875 41.21875 52.203125 
Q 41.21875 57.421875 37.46875 61 
Q 33.734375 64.59375 27.734375 64.59375 
Q 21.390625 64.59375 17.578125 60.78125 
Q 13.765625 56.984375 13.71875 50.25 
L 4.6875 51.171875 
Q 5.609375 61.28125 11.65625 66.578125 
Q 17.71875 71.875 27.9375 71.875 
Q 38.234375 71.875 44.234375 66.15625 
Q 50.25 60.453125 50.25 52 
Q 50.25 47.703125 48.484375 43.546875 
Q 46.734375 39.40625 42.65625 34.8125 
Q 38.578125 30.21875 29.109375 22.21875 
Q 21.1875 15.578125 18.9375 13.203125 
Q 16.703125 10.84375 15.234375 8.453125 
z
" id="ArialMT-50"/>
        <path d="M 4.15625 35.296875 
Q 4.15625 48 6.765625 55.734375 
Q 9.375 63.484375 14.515625 67.671875 
Q 19.671875 71.875 27.484375 71.875 
Q 33.25 71.875 37.59375 69.546875 
Q 41.9375 67.234375 44.765625 62.859375 
Q 47.609375 58.5 49.21875 52.21875 
Q 50.828125 45.953125 50.828125 35.296875 
Q 50.828125 22.703125 48.234375 14.96875 
Q 45.65625 7.234375 40.5 3 
Q 35.359375 -1.21875 27.484375 -1.21875 
Q 17.140625 -1.21875 11.234375 6.203125 
Q 4.15625 15.140625 4.15625 35.296875 
z
M 13.1875 35.296875 
Q 13.1875 17.671875 17.3125 11.828125 
Q 21.4375 6 27.484375 6 
Q 33.546875 6 37.671875 11.859375 
Q 41.796875 17.71875 41.796875 35.296875 
Q 41.796875 52.984375 37.671875 58.78125 
Q 33.546875 64.59375 27.390625 64.59375 
Q 21.34375 64.59375 17.71875 59.46875 
Q 13.1875 52.9375 13.1875 35.296875 
z
" id="ArialMT-48"/>
       </defs>
       <use xlink:href="#ArialMT-8722"/>
       <use x="58.398438" xlink:href="#ArialMT-50"/>
       <use x="114.013672" xlink:href="#ArialMT-48"/>
      </g>
     </g>
    </g>
    <g id="ytick_2">
     <g id="line2d_2">
      <path clip-path="url(#p550155b17f)" d="M 110.02125 734.003251 
L 559.78875 734.003251 
" style="fill:none;stroke:#ffffff;stroke-linecap:round;"/>
     </g>
     <g id="text_4">
      <!-- 0 -->
      <g style="fill:#262626;" transform="translate(82.170156 745.813642)scale(0.33 -0.33)">
       <use xlink:href="#ArialMT-48"/>
      </g>
     </g>
    </g>
    <g id="ytick_3">
     <g id="line2d_3">
      <path clip-path="url(#p550155b17f)" d="M 110.02125 579.537492 
L 559.78875 579.537492 
" style="fill:none;stroke:#ffffff;stroke-linecap:round;"/>
     </g>
     <g id="text_5">
      <!-- 20 -->
      <g style="fill:#262626;" transform="translate(63.819063 591.347883)scale(0.33 -0.33)">
       <use xlink:href="#ArialMT-50"/>
       <use x="55.615234" xlink:href="#ArialMT-48"/>
      </g>
     </g>
    </g>
    <g id="ytick_4">
     <g id="line2d_4">
      <path clip-path="url(#p550155b17f)" d="M 110.02125 425.071733 
L 559.78875 425.071733 
" style="fill:none;stroke:#ffffff;stroke-linecap:round;"/>
     </g>
     <g id="text_6">
      <!-- 40 -->
      <g style="fill:#262626;" transform="translate(63.819063 436.882124)scale(0.33 -0.33)">
       <defs>
        <path d="M 32.328125 0 
L 32.328125 17.140625 
L 1.265625 17.140625 
L 1.265625 25.203125 
L 33.9375 71.578125 
L 41.109375 71.578125 
L 41.109375 25.203125 
L 50.78125 25.203125 
L 50.78125 17.140625 
L 41.109375 17.140625 
L 41.109375 0 
z
M 32.328125 25.203125 
L 32.328125 57.46875 
L 9.90625 25.203125 
z
" id="ArialMT-52"/>
       </defs>
       <use xlink:href="#ArialMT-52"/>
       <use x="55.615234" xlink:href="#ArialMT-48"/>
      </g>
     </g>
    </g>
    <g id="ytick_5">
     <g id="line2d_5">
      <path clip-path="url(#p550155b17f)" d="M 110.02125 270.605974 
L 559.78875 270.605974 
" style="fill:none;stroke:#ffffff;stroke-linecap:round;"/>
     </g>
     <g id="text_7">
      <!-- 60 -->
      <g style="fill:#262626;" transform="translate(63.819063 282.416365)scale(0.33 -0.33)">
       <defs>
        <path d="M 49.75 54.046875 
L 41.015625 53.375 
Q 39.84375 58.546875 37.703125 60.890625 
Q 34.125 64.65625 28.90625 64.65625 
Q 24.703125 64.65625 21.53125 62.3125 
Q 17.390625 59.28125 14.984375 53.46875 
Q 12.59375 47.65625 12.5 36.921875 
Q 15.671875 41.75 20.265625 44.09375 
Q 24.859375 46.4375 29.890625 46.4375 
Q 38.671875 46.4375 44.84375 39.96875 
Q 51.03125 33.5 51.03125 23.25 
Q 51.03125 16.5 48.125 10.71875 
Q 45.21875 4.9375 40.140625 1.859375 
Q 35.0625 -1.21875 28.609375 -1.21875 
Q 17.625 -1.21875 10.6875 6.859375 
Q 3.765625 14.9375 3.765625 33.5 
Q 3.765625 54.25 11.421875 63.671875 
Q 18.109375 71.875 29.4375 71.875 
Q 37.890625 71.875 43.28125 67.140625 
Q 48.6875 62.40625 49.75 54.046875 
z
M 13.875 23.1875 
Q 13.875 18.65625 15.796875 14.5 
Q 17.71875 10.359375 21.1875 8.171875 
Q 24.65625 6 28.46875 6 
Q 34.03125 6 38.03125 10.484375 
Q 42.046875 14.984375 42.046875 22.703125 
Q 42.046875 30.125 38.078125 34.390625 
Q 34.125 38.671875 28.125 38.671875 
Q 22.171875 38.671875 18.015625 34.390625 
Q 13.875 30.125 13.875 23.1875 
z
" id="ArialMT-54"/>
       </defs>
       <use xlink:href="#ArialMT-54"/>
       <use x="55.615234" xlink:href="#ArialMT-48"/>
      </g>
     </g>
    </g>
    <g id="text_8">
     <!-- Percentage Improvement -->
     <g style="fill:#262626;" transform="translate(32.968125 818.589375)rotate(-90)scale(0.36 -0.36)">
      <defs>
       <path d="M 7.71875 0 
L 7.71875 71.578125 
L 34.71875 71.578125 
Q 41.84375 71.578125 45.609375 70.90625 
Q 50.875 70.015625 54.4375 67.546875 
Q 58.015625 65.09375 60.1875 60.640625 
Q 62.359375 56.203125 62.359375 50.875 
Q 62.359375 41.75 56.546875 35.421875 
Q 50.734375 29.109375 35.546875 29.109375 
L 17.1875 29.109375 
L 17.1875 0 
z
M 17.1875 37.546875 
L 35.6875 37.546875 
Q 44.875 37.546875 48.734375 40.96875 
Q 52.59375 44.390625 52.59375 50.59375 
Q 52.59375 55.078125 50.3125 58.265625 
Q 48.046875 61.46875 44.34375 62.5 
Q 41.9375 63.140625 35.5 63.140625 
L 17.1875 63.140625 
z
" id="ArialMT-80"/>
       <path d="M 40.4375 19 
L 49.078125 17.875 
Q 47.65625 8.9375 41.8125 3.875 
Q 35.984375 -1.171875 27.484375 -1.171875 
Q 16.84375 -1.171875 10.375 5.78125 
Q 3.90625 12.75 3.90625 25.734375 
Q 3.90625 34.125 6.6875 40.421875 
Q 9.46875 46.734375 15.15625 49.875 
Q 20.84375 53.03125 27.546875 53.03125 
Q 35.984375 53.03125 41.359375 48.75 
Q 46.734375 44.484375 48.25 36.625 
L 39.703125 35.296875 
Q 38.484375 40.53125 35.375 43.15625 
Q 32.28125 45.796875 27.875 45.796875 
Q 21.234375 45.796875 17.078125 41.03125 
Q 12.9375 36.28125 12.9375 25.984375 
Q 12.9375 15.53125 16.9375 10.796875 
Q 20.953125 6.0625 27.390625 6.0625 
Q 32.5625 6.0625 36.03125 9.234375 
Q 39.5 12.40625 40.4375 19 
z
" id="ArialMT-99"/>
       <path d="M 6.59375 0 
L 6.59375 51.859375 
L 14.5 51.859375 
L 14.5 44.484375 
Q 20.21875 53.03125 31 53.03125 
Q 35.6875 53.03125 39.625 51.34375 
Q 43.5625 49.65625 45.515625 46.921875 
Q 47.46875 44.1875 48.25 40.4375 
Q 48.734375 37.984375 48.734375 31.890625 
L 48.734375 0 
L 39.9375 0 
L 39.9375 31.546875 
Q 39.9375 36.921875 38.90625 39.578125 
Q 37.890625 42.234375 35.28125 43.8125 
Q 32.671875 45.40625 29.15625 45.40625 
Q 23.53125 45.40625 19.453125 41.84375 
Q 15.375 38.28125 15.375 28.328125 
L 15.375 0 
z
" id="ArialMT-110"/>
       <path d="M 4.984375 -4.296875 
L 13.53125 -5.5625 
Q 14.0625 -9.515625 16.5 -11.328125 
Q 19.78125 -13.765625 25.4375 -13.765625 
Q 31.546875 -13.765625 34.859375 -11.328125 
Q 38.1875 -8.890625 39.359375 -4.5 
Q 40.046875 -1.8125 39.984375 6.78125 
Q 34.234375 0 25.640625 0 
Q 14.9375 0 9.078125 7.71875 
Q 3.21875 15.4375 3.21875 26.21875 
Q 3.21875 33.640625 5.90625 39.90625 
Q 8.59375 46.1875 13.6875 49.609375 
Q 18.796875 53.03125 25.6875 53.03125 
Q 34.859375 53.03125 40.828125 45.609375 
L 40.828125 51.859375 
L 48.921875 51.859375 
L 48.921875 7.03125 
Q 48.921875 -5.078125 46.453125 -10.125 
Q 44 -15.1875 38.640625 -18.109375 
Q 33.296875 -21.046875 25.484375 -21.046875 
Q 16.21875 -21.046875 10.5 -16.875 
Q 4.78125 -12.703125 4.984375 -4.296875 
z
M 12.25 26.859375 
Q 12.25 16.65625 16.296875 11.96875 
Q 20.359375 7.28125 26.46875 7.28125 
Q 32.515625 7.28125 36.609375 11.9375 
Q 40.71875 16.609375 40.71875 26.5625 
Q 40.71875 36.078125 36.5 40.90625 
Q 32.28125 45.75 26.3125 45.75 
Q 20.453125 45.75 16.34375 40.984375 
Q 12.25 36.234375 12.25 26.859375 
z
" id="ArialMT-103"/>
       <path id="ArialMT-32"/>
       <path d="M 9.328125 0 
L 9.328125 71.578125 
L 18.796875 71.578125 
L 18.796875 0 
z
" id="ArialMT-73"/>
       <path d="M 6.59375 0 
L 6.59375 51.859375 
L 14.453125 51.859375 
L 14.453125 44.578125 
Q 16.890625 48.390625 20.9375 50.703125 
Q 25 53.03125 30.171875 53.03125 
Q 35.9375 53.03125 39.625 50.640625 
Q 43.3125 48.25 44.828125 43.953125 
Q 50.984375 53.03125 60.84375 53.03125 
Q 68.5625 53.03125 72.703125 48.75 
Q 76.859375 44.484375 76.859375 35.59375 
L 76.859375 0 
L 68.109375 0 
L 68.109375 32.671875 
Q 68.109375 37.9375 67.25 40.25 
Q 66.40625 42.578125 64.15625 43.984375 
Q 61.921875 45.40625 58.890625 45.40625 
Q 53.421875 45.40625 49.796875 41.765625 
Q 46.1875 38.140625 46.1875 30.125 
L 46.1875 0 
L 37.40625 0 
L 37.40625 33.6875 
Q 37.40625 39.546875 35.25 42.46875 
Q 33.109375 45.40625 28.21875 45.40625 
Q 24.515625 45.40625 21.359375 43.453125 
Q 18.21875 41.5 16.796875 37.734375 
Q 15.375 33.984375 15.375 26.90625 
L 15.375 0 
z
" id="ArialMT-109"/>
       <path d="M 6.59375 -19.875 
L 6.59375 51.859375 
L 14.59375 51.859375 
L 14.59375 45.125 
Q 17.4375 49.078125 21 51.046875 
Q 24.5625 53.03125 29.640625 53.03125 
Q 36.28125 53.03125 41.359375 49.609375 
Q 46.4375 46.1875 49.015625 39.953125 
Q 51.609375 33.734375 51.609375 26.3125 
Q 51.609375 18.359375 48.75 11.984375 
Q 45.90625 5.609375 40.453125 2.21875 
Q 35.015625 -1.171875 29 -1.171875 
Q 24.609375 -1.171875 21.109375 0.6875 
Q 17.625 2.546875 15.375 5.375 
L 15.375 -19.875 
z
M 14.546875 25.640625 
Q 14.546875 15.625 18.59375 10.84375 
Q 22.65625 6.0625 28.421875 6.0625 
Q 34.28125 6.0625 38.453125 11.015625 
Q 42.625 15.96875 42.625 26.375 
Q 42.625 36.28125 38.546875 41.203125 
Q 34.46875 46.140625 28.8125 46.140625 
Q 23.1875 46.140625 18.859375 40.890625 
Q 14.546875 35.640625 14.546875 25.640625 
z
" id="ArialMT-112"/>
       <path d="M 3.328125 25.921875 
Q 3.328125 40.328125 11.328125 47.265625 
Q 18.015625 53.03125 27.640625 53.03125 
Q 38.328125 53.03125 45.109375 46.015625 
Q 51.90625 39.015625 51.90625 26.65625 
Q 51.90625 16.65625 48.90625 10.90625 
Q 45.90625 5.171875 40.15625 2 
Q 34.421875 -1.171875 27.640625 -1.171875 
Q 16.75 -1.171875 10.03125 5.8125 
Q 3.328125 12.796875 3.328125 25.921875 
z
M 12.359375 25.921875 
Q 12.359375 15.96875 16.703125 11.015625 
Q 21.046875 6.0625 27.640625 6.0625 
Q 34.1875 6.0625 38.53125 11.03125 
Q 42.875 16.015625 42.875 26.21875 
Q 42.875 35.84375 38.5 40.796875 
Q 34.125 45.75 27.640625 45.75 
Q 21.046875 45.75 16.703125 40.8125 
Q 12.359375 35.890625 12.359375 25.921875 
z
" id="ArialMT-111"/>
       <path d="M 21 0 
L 1.265625 51.859375 
L 10.546875 51.859375 
L 21.6875 20.796875 
Q 23.484375 15.765625 25 10.359375 
Q 26.171875 14.453125 28.265625 20.21875 
L 39.796875 51.859375 
L 48.828125 51.859375 
L 29.203125 0 
z
" id="ArialMT-118"/>
      </defs>
      <use xlink:href="#ArialMT-80"/>
      <use x="66.699219" xlink:href="#ArialMT-101"/>
      <use x="122.314453" xlink:href="#ArialMT-114"/>
      <use x="155.615234" xlink:href="#ArialMT-99"/>
      <use x="205.615234" xlink:href="#ArialMT-101"/>
      <use x="261.230469" xlink:href="#ArialMT-110"/>
      <use x="316.845703" xlink:href="#ArialMT-116"/>
      <use x="344.628906" xlink:href="#ArialMT-97"/>
      <use x="400.244141" xlink:href="#ArialMT-103"/>
      <use x="455.859375" xlink:href="#ArialMT-101"/>
      <use x="511.474609" xlink:href="#ArialMT-32"/>
      <use x="539.257812" xlink:href="#ArialMT-73"/>
      <use x="567.041016" xlink:href="#ArialMT-109"/>
      <use x="650.341797" xlink:href="#ArialMT-112"/>
      <use x="705.957031" xlink:href="#ArialMT-114"/>
      <use x="739.257812" xlink:href="#ArialMT-111"/>
      <use x="794.873047" xlink:href="#ArialMT-118"/>
      <use x="844.873047" xlink:href="#ArialMT-101"/>
      <use x="900.488281" xlink:href="#ArialMT-109"/>
      <use x="983.789062" xlink:href="#ArialMT-101"/>
      <use x="1039.404297" xlink:href="#ArialMT-110"/>
      <use x="1095.019531" xlink:href="#ArialMT-116"/>
     </g>
    </g>
   </g>
   <g id="patch_3">
    <path clip-path="url(#p550155b17f)" d="M 132.509625 508.104465 
L 312.416625 508.104465 
L 312.416625 405.75032 
L 132.509625 405.75032 
L 132.509625 508.104465 
z
" style="fill:#b5caf3;stroke:#797979;stroke-linejoin:miter;stroke-width:1.5;"/>
   </g>
   <g id="patch_4">
    <path clip-path="url(#p550155b17f)" d="M 357.393375 535.908909 
L 537.300375 535.908909 
L 537.300375 427.044392 
L 357.393375 427.044392 
L 357.393375 535.908909 
z
" style="fill:#ecbca7;stroke:#797979;stroke-linejoin:miter;stroke-width:1.5;"/>
   </g>
   <g id="patch_5">
    <path clip-path="url(#p550155b17f)" d="M 222.463125 734.003251 
L 222.463125 734.003251 
L 222.463125 734.003251 
L 222.463125 734.003251 
z
" style="fill:#b5caf3;stroke:#797979;stroke-linejoin:miter;stroke-width:0.75;"/>
   </g>
   <g id="patch_6">
    <path clip-path="url(#p550155b17f)" d="M 222.463125 734.003251 
L 222.463125 734.003251 
L 222.463125 734.003251 
L 222.463125 734.003251 
z
" style="fill:#ecbca7;stroke:#797979;stroke-linejoin:miter;stroke-width:0.75;"/>
   </g>
   <g id="LineCollection_1">
    <path clip-path="url(#p550155b17f)" d="M 110.02125 734.003251 
L 559.78875 734.003251 
" style="fill:none;stroke:#4c72b0;stroke-width:1.5;"/>
   </g>
   <g id="line2d_6">
    <path clip-path="url(#p550155b17f)" d="M 222.463125 508.104465 
L 222.463125 634.707714 
" style="fill:none;stroke:#797979;stroke-linecap:round;stroke-width:1.5;"/>
   </g>
   <g id="line2d_7">
    <path clip-path="url(#p550155b17f)" d="M 222.463125 405.75032 
L 222.463125 271.2879 
" style="fill:none;stroke:#797979;stroke-linecap:round;stroke-width:1.5;"/>
   </g>
   <g id="line2d_8">
    <path clip-path="url(#p550155b17f)" d="M 177.486375 634.707714 
L 267.439875 634.707714 
" style="fill:none;stroke:#797979;stroke-linecap:round;stroke-width:1.5;"/>
   </g>
   <g id="line2d_9">
    <path clip-path="url(#p550155b17f)" d="M 177.486375 271.2879 
L 267.439875 271.2879 
" style="fill:none;stroke:#797979;stroke-linecap:round;stroke-width:1.5;"/>
   </g>
   <g id="line2d_10">
    <defs>
     <path d="M 0 3.535534 
L 2.12132 0 
L 0 -3.535534 
L -2.12132 0 
z
" id="mfc4d12ad95" style="stroke:#797979;stroke-linejoin:miter;"/>
    </defs>
    <g clip-path="url(#p550155b17f)">
     <use style="fill:#797979;stroke:#797979;stroke-linejoin:miter;" x="222.463125" xlink:href="#mfc4d12ad95" y="661.86116"/>
    </g>
   </g>
   <g id="line2d_11">
    <path clip-path="url(#p550155b17f)" d="M 447.346875 535.908909 
L 447.346875 631.445433 
" style="fill:none;stroke:#797979;stroke-linecap:round;stroke-width:1.5;"/>
   </g>
   <g id="line2d_12">
    <path clip-path="url(#p550155b17f)" d="M 447.346875 427.044392 
L 447.346875 270.736364 
" style="fill:none;stroke:#797979;stroke-linecap:round;stroke-width:1.5;"/>
   </g>
   <g id="line2d_13">
    <path clip-path="url(#p550155b17f)" d="M 402.370125 631.445433 
L 492.323625 631.445433 
" style="fill:none;stroke:#797979;stroke-linecap:round;stroke-width:1.5;"/>
   </g>
   <g id="line2d_14">
    <path clip-path="url(#p550155b17f)" d="M 402.370125 270.736364 
L 492.323625 270.736364 
" style="fill:none;stroke:#797979;stroke-linecap:round;stroke-width:1.5;"/>
   </g>
   <g id="line2d_15"/>
   <g id="line2d_16">
    <path clip-path="url(#p550155b17f)" d="M 132.509625 446.454006 
L 312.416625 446.454006 
" style="fill:none;stroke:#797979;stroke-linecap:round;stroke-width:1.5;"/>
   </g>
   <g id="line2d_17">
    <path clip-path="url(#p550155b17f)" d="M 357.393375 473.278337 
L 537.300375 473.278337 
" style="fill:none;stroke:#797979;stroke-linecap:round;stroke-width:1.5;"/>
   </g>
   <g id="patch_7">
    <path d="M 110.02125 996.84 
L 110.02125 236.16 
" style="fill:none;stroke:#ffffff;stroke-linecap:square;stroke-linejoin:miter;stroke-width:1.25;"/>
   </g>
   <g id="patch_8">
    <path d="M 110.02125 996.84 
L 559.78875 996.84 
" style="fill:none;stroke:#ffffff;stroke-linecap:square;stroke-linejoin:miter;stroke-width:1.25;"/>
   </g>
   <g id="text_9">
    <!-- 5 Repetitions for retraining -->
    <g style="fill:#262626;" transform="translate(123.807187 230.16)scale(0.36 -0.36)">
     <defs>
      <path d="M 4.15625 18.75 
L 13.375 19.53125 
Q 14.40625 12.796875 18.140625 9.390625 
Q 21.875 6 27.15625 6 
Q 33.5 6 37.890625 10.78125 
Q 42.28125 15.578125 42.28125 23.484375 
Q 42.28125 31 38.0625 35.34375 
Q 33.84375 39.703125 27 39.703125 
Q 22.75 39.703125 19.328125 37.765625 
Q 15.921875 35.84375 13.96875 32.765625 
L 5.71875 33.84375 
L 12.640625 70.609375 
L 48.25 70.609375 
L 48.25 62.203125 
L 19.671875 62.203125 
L 15.828125 42.96875 
Q 22.265625 47.46875 29.34375 47.46875 
Q 38.71875 47.46875 45.15625 40.96875 
Q 51.609375 34.46875 51.609375 24.265625 
Q 51.609375 14.546875 45.953125 7.46875 
Q 39.0625 -1.21875 27.15625 -1.21875 
Q 17.390625 -1.21875 11.203125 4.25 
Q 5.03125 9.71875 4.15625 18.75 
z
" id="ArialMT-53"/>
      <path d="M 7.859375 0 
L 7.859375 71.578125 
L 39.59375 71.578125 
Q 49.171875 71.578125 54.140625 69.640625 
Q 59.125 67.71875 62.109375 62.828125 
Q 65.09375 57.953125 65.09375 52.046875 
Q 65.09375 44.4375 60.15625 39.203125 
Q 55.21875 33.984375 44.921875 32.5625 
Q 48.6875 30.765625 50.640625 29 
Q 54.78125 25.203125 58.5 19.484375 
L 70.953125 0 
L 59.03125 0 
L 49.5625 14.890625 
Q 45.40625 21.34375 42.71875 24.75 
Q 40.046875 28.171875 37.921875 29.53125 
Q 35.796875 30.90625 33.59375 31.453125 
Q 31.984375 31.78125 28.328125 31.78125 
L 17.328125 31.78125 
L 17.328125 0 
z
M 17.328125 39.984375 
L 37.703125 39.984375 
Q 44.1875 39.984375 47.84375 41.328125 
Q 51.515625 42.671875 53.421875 45.625 
Q 55.328125 48.578125 55.328125 52.046875 
Q 55.328125 57.125 51.640625 60.390625 
Q 47.953125 63.671875 39.984375 63.671875 
L 17.328125 63.671875 
z
" id="ArialMT-82"/>
      <path d="M 6.640625 61.46875 
L 6.640625 71.578125 
L 15.4375 71.578125 
L 15.4375 61.46875 
z
M 6.640625 0 
L 6.640625 51.859375 
L 15.4375 51.859375 
L 15.4375 0 
z
" id="ArialMT-105"/>
     </defs>
     <use xlink:href="#ArialMT-53"/>
     <use x="55.615234" xlink:href="#ArialMT-32"/>
     <use x="83.398438" xlink:href="#ArialMT-82"/>
     <use x="155.615234" xlink:href="#ArialMT-101"/>
     <use x="211.230469" xlink:href="#ArialMT-112"/>
     <use x="266.845703" xlink:href="#ArialMT-101"/>
     <use x="322.460938" xlink:href="#ArialMT-116"/>
     <use x="350.244141" xlink:href="#ArialMT-105"/>
     <use x="372.460938" xlink:href="#ArialMT-116"/>
     <use x="400.244141" xlink:href="#ArialMT-105"/>
     <use x="422.460938" xlink:href="#ArialMT-111"/>
     <use x="478.076172" xlink:href="#ArialMT-110"/>
     <use x="533.691406" xlink:href="#ArialMT-115"/>
     <use x="583.691406" xlink:href="#ArialMT-32"/>
     <use x="611.474609" xlink:href="#ArialMT-102"/>
     <use x="639.257812" xlink:href="#ArialMT-111"/>
     <use x="694.873047" xlink:href="#ArialMT-114"/>
     <use x="728.173828" xlink:href="#ArialMT-32"/>
     <use x="755.957031" xlink:href="#ArialMT-114"/>
     <use x="789.257812" xlink:href="#ArialMT-101"/>
     <use x="844.873047" xlink:href="#ArialMT-116"/>
     <use x="872.65625" xlink:href="#ArialMT-114"/>
     <use x="905.957031" xlink:href="#ArialMT-97"/>
     <use x="961.572266" xlink:href="#ArialMT-105"/>
     <use x="983.789062" xlink:href="#ArialMT-110"/>
     <use x="1039.404297" xlink:href="#ArialMT-105"/>
     <use x="1061.621094" xlink:href="#ArialMT-110"/>
     <use x="1117.236328" xlink:href="#ArialMT-103"/>
    </g>
   </g>
  </g>
  <g id="axes_2">
   <g id="patch_9">
    <path d="M 618.10875 996.84 
L 1067.87625 996.84 
L 1067.87625 236.16 
L 618.10875 236.16 
z
" style="fill:#eaeaf2;"/>
   </g>
   <g id="matplotlib.axis_3">
    <g id="xtick_3">
     <g id="text_10">
      <!-- features -->
      <g style="fill:#262626;" transform="translate(670.936641 1029.960781)scale(0.33 -0.33)">
       <use xlink:href="#ArialMT-102"/>
       <use x="27.783203" xlink:href="#ArialMT-101"/>
       <use x="83.398438" xlink:href="#ArialMT-97"/>
       <use x="139.013672" xlink:href="#ArialMT-116"/>
       <use x="166.796875" xlink:href="#ArialMT-117"/>
       <use x="222.412109" xlink:href="#ArialMT-114"/>
       <use x="255.712891" xlink:href="#ArialMT-101"/>
       <use x="311.328125" xlink:href="#ArialMT-115"/>
      </g>
     </g>
    </g>
    <g id="xtick_4">
     <g id="text_11">
      <!-- raw -->
      <g style="fill:#262626;" transform="translate(928.84875 1029.960781)scale(0.33 -0.33)">
       <use xlink:href="#ArialMT-114"/>
       <use x="33.300781" xlink:href="#ArialMT-97"/>
       <use x="88.916016" xlink:href="#ArialMT-119"/>
      </g>
     </g>
    </g>
   </g>
   <g id="matplotlib.axis_4">
    <g id="ytick_6">
     <g id="line2d_18">
      <path clip-path="url(#pedbd0f945f)" d="M 618.10875 888.46901 
L 1067.87625 888.46901 
" style="fill:none;stroke:#ffffff;stroke-linecap:round;"/>
     </g>
    </g>
    <g id="ytick_7">
     <g id="line2d_19">
      <path clip-path="url(#pedbd0f945f)" d="M 618.10875 734.003251 
L 1067.87625 734.003251 
" style="fill:none;stroke:#ffffff;stroke-linecap:round;"/>
     </g>
    </g>
    <g id="ytick_8">
     <g id="line2d_20">
      <path clip-path="url(#pedbd0f945f)" d="M 618.10875 579.537492 
L 1067.87625 579.537492 
" style="fill:none;stroke:#ffffff;stroke-linecap:round;"/>
     </g>
    </g>
    <g id="ytick_9">
     <g id="line2d_21">
      <path clip-path="url(#pedbd0f945f)" d="M 618.10875 425.071733 
L 1067.87625 425.071733 
" style="fill:none;stroke:#ffffff;stroke-linecap:round;"/>
     </g>
    </g>
    <g id="ytick_10">
     <g id="line2d_22">
      <path clip-path="url(#pedbd0f945f)" d="M 618.10875 270.605974 
L 1067.87625 270.605974 
" style="fill:none;stroke:#ffffff;stroke-linecap:round;"/>
     </g>
    </g>
   </g>
   <g id="patch_10">
    <path clip-path="url(#pedbd0f945f)" d="M 640.597125 618.361758 
L 820.504125 618.361758 
L 820.504125 459.687733 
L 640.597125 459.687733 
L 640.597125 618.361758 
z
" style="fill:#b5caf3;stroke:#797979;stroke-linejoin:miter;stroke-width:1.5;"/>
   </g>
   <g id="patch_11">
    <path clip-path="url(#pedbd0f945f)" d="M 865.480875 741.224185 
L 1045.387875 741.224185 
L 1045.387875 518.472589 
L 865.480875 518.472589 
L 865.480875 741.224185 
z
" style="fill:#ecbca7;stroke:#797979;stroke-linejoin:miter;stroke-width:1.5;"/>
   </g>
   <g id="patch_12">
    <path clip-path="url(#pedbd0f945f)" d="M 730.550625 734.003251 
L 730.550625 734.003251 
L 730.550625 734.003251 
L 730.550625 734.003251 
z
" style="fill:#b5caf3;stroke:#797979;stroke-linejoin:miter;stroke-width:0.75;"/>
   </g>
   <g id="patch_13">
    <path clip-path="url(#pedbd0f945f)" d="M 730.550625 734.003251 
L 730.550625 734.003251 
L 730.550625 734.003251 
L 730.550625 734.003251 
z
" style="fill:#ecbca7;stroke:#797979;stroke-linejoin:miter;stroke-width:0.75;"/>
   </g>
   <g id="LineCollection_2">
    <path clip-path="url(#pedbd0f945f)" d="M 618.10875 734.003251 
L 1067.87625 734.003251 
" style="fill:none;stroke:#4c72b0;stroke-width:1.5;"/>
   </g>
   <g id="line2d_23">
    <path clip-path="url(#pedbd0f945f)" d="M 730.550625 618.361758 
L 730.550625 697.607006 
" style="fill:none;stroke:#797979;stroke-linecap:round;stroke-width:1.5;"/>
   </g>
   <g id="line2d_24">
    <path clip-path="url(#pedbd0f945f)" d="M 730.550625 459.687733 
L 730.550625 359.166307 
" style="fill:none;stroke:#797979;stroke-linecap:round;stroke-width:1.5;"/>
   </g>
   <g id="line2d_25">
    <path clip-path="url(#pedbd0f945f)" d="M 685.573875 697.607006 
L 775.527375 697.607006 
" style="fill:none;stroke:#797979;stroke-linecap:round;stroke-width:1.5;"/>
   </g>
   <g id="line2d_26">
    <path clip-path="url(#pedbd0f945f)" d="M 685.573875 359.166307 
L 775.527375 359.166307 
" style="fill:none;stroke:#797979;stroke-linecap:round;stroke-width:1.5;"/>
   </g>
   <g id="line2d_27"/>
   <g id="line2d_28">
    <path clip-path="url(#pedbd0f945f)" d="M 955.434375 741.224185 
L 955.434375 806.602601 
" style="fill:none;stroke:#797979;stroke-linecap:round;stroke-width:1.5;"/>
   </g>
   <g id="line2d_29">
    <path clip-path="url(#pedbd0f945f)" d="M 955.434375 518.472589 
L 955.434375 447.635727 
" style="fill:none;stroke:#797979;stroke-linecap:round;stroke-width:1.5;"/>
   </g>
   <g id="line2d_30">
    <path clip-path="url(#pedbd0f945f)" d="M 910.457625 806.602601 
L 1000.411125 806.602601 
" style="fill:none;stroke:#797979;stroke-linecap:round;stroke-width:1.5;"/>
   </g>
   <g id="line2d_31">
    <path clip-path="url(#pedbd0f945f)" d="M 910.457625 447.635727 
L 1000.411125 447.635727 
" style="fill:none;stroke:#797979;stroke-linecap:round;stroke-width:1.5;"/>
   </g>
   <g id="line2d_32"/>
   <g id="line2d_33">
    <path clip-path="url(#pedbd0f945f)" d="M 640.597125 486.815052 
L 820.504125 486.815052 
" style="fill:none;stroke:#797979;stroke-linecap:round;stroke-width:1.5;"/>
   </g>
   <g id="line2d_34">
    <path clip-path="url(#pedbd0f945f)" d="M 865.480875 556.707607 
L 1045.387875 556.707607 
" style="fill:none;stroke:#797979;stroke-linecap:round;stroke-width:1.5;"/>
   </g>
   <g id="patch_14">
    <path d="M 618.10875 996.84 
L 618.10875 236.16 
" style="fill:none;stroke:#ffffff;stroke-linecap:square;stroke-linejoin:miter;stroke-width:1.25;"/>
   </g>
   <g id="patch_15">
    <path d="M 618.10875 996.84 
L 1067.87625 996.84 
" style="fill:none;stroke:#ffffff;stroke-linecap:square;stroke-linejoin:miter;stroke-width:1.25;"/>
   </g>
   <g id="text_12">
    <!-- 4 Repetitions for retraining -->
    <g style="fill:#262626;" transform="translate(631.894687 230.16)scale(0.36 -0.36)">
     <use xlink:href="#ArialMT-52"/>
     <use x="55.615234" xlink:href="#ArialMT-32"/>
     <use x="83.398438" xlink:href="#ArialMT-82"/>
     <use x="155.615234" xlink:href="#ArialMT-101"/>
     <use x="211.230469" xlink:href="#ArialMT-112"/>
     <use x="266.845703" xlink:href="#ArialMT-101"/>
     <use x="322.460938" xlink:href="#ArialMT-116"/>
     <use x="350.244141" xlink:href="#ArialMT-105"/>
     <use x="372.460938" xlink:href="#ArialMT-116"/>
     <use x="400.244141" xlink:href="#ArialMT-105"/>
     <use x="422.460938" xlink:href="#ArialMT-111"/>
     <use x="478.076172" xlink:href="#ArialMT-110"/>
     <use x="533.691406" xlink:href="#ArialMT-115"/>
     <use x="583.691406" xlink:href="#ArialMT-32"/>
     <use x="611.474609" xlink:href="#ArialMT-102"/>
     <use x="639.257812" xlink:href="#ArialMT-111"/>
     <use x="694.873047" xlink:href="#ArialMT-114"/>
     <use x="728.173828" xlink:href="#ArialMT-32"/>
     <use x="755.957031" xlink:href="#ArialMT-114"/>
     <use x="789.257812" xlink:href="#ArialMT-101"/>
     <use x="844.873047" xlink:href="#ArialMT-116"/>
     <use x="872.65625" xlink:href="#ArialMT-114"/>
     <use x="905.957031" xlink:href="#ArialMT-97"/>
     <use x="961.572266" xlink:href="#ArialMT-105"/>
     <use x="983.789062" xlink:href="#ArialMT-110"/>
     <use x="1039.404297" xlink:href="#ArialMT-105"/>
     <use x="1061.621094" xlink:href="#ArialMT-110"/>
     <use x="1117.236328" xlink:href="#ArialMT-103"/>
    </g>
   </g>
  </g>
  <g id="axes_3">
   <g id="patch_16">
    <path d="M 1126.19625 996.84 
L 1575.96375 996.84 
L 1575.96375 236.16 
L 1126.19625 236.16 
z
" style="fill:#eaeaf2;"/>
   </g>
   <g id="matplotlib.axis_5">
    <g id="xtick_5">
     <g id="text_13">
      <!-- features -->
      <g style="fill:#262626;" transform="translate(1179.024141 1029.960781)scale(0.33 -0.33)">
       <use xlink:href="#ArialMT-102"/>
       <use x="27.783203" xlink:href="#ArialMT-101"/>
       <use x="83.398438" xlink:href="#ArialMT-97"/>
       <use x="139.013672" xlink:href="#ArialMT-116"/>
       <use x="166.796875" xlink:href="#ArialMT-117"/>
       <use x="222.412109" xlink:href="#ArialMT-114"/>
       <use x="255.712891" xlink:href="#ArialMT-101"/>
       <use x="311.328125" xlink:href="#ArialMT-115"/>
      </g>
     </g>
    </g>
    <g id="xtick_6">
     <g id="text_14">
      <!-- raw -->
      <g style="fill:#262626;" transform="translate(1436.93625 1029.960781)scale(0.33 -0.33)">
       <use xlink:href="#ArialMT-114"/>
       <use x="33.300781" xlink:href="#ArialMT-97"/>
       <use x="88.916016" xlink:href="#ArialMT-119"/>
      </g>
     </g>
    </g>
   </g>
   <g id="matplotlib.axis_6">
    <g id="ytick_11">
     <g id="line2d_35">
      <path clip-path="url(#pd7736c0c95)" d="M 1126.19625 888.46901 
L 1575.96375 888.46901 
" style="fill:none;stroke:#ffffff;stroke-linecap:round;"/>
     </g>
    </g>
    <g id="ytick_12">
     <g id="line2d_36">
      <path clip-path="url(#pd7736c0c95)" d="M 1126.19625 734.003251 
L 1575.96375 734.003251 
" style="fill:none;stroke:#ffffff;stroke-linecap:round;"/>
     </g>
    </g>
    <g id="ytick_13">
     <g id="line2d_37">
      <path clip-path="url(#pd7736c0c95)" d="M 1126.19625 579.537492 
L 1575.96375 579.537492 
" style="fill:none;stroke:#ffffff;stroke-linecap:round;"/>
     </g>
    </g>
    <g id="ytick_14">
     <g id="line2d_38">
      <path clip-path="url(#pd7736c0c95)" d="M 1126.19625 425.071733 
L 1575.96375 425.071733 
" style="fill:none;stroke:#ffffff;stroke-linecap:round;"/>
     </g>
    </g>
    <g id="ytick_15">
     <g id="line2d_39">
      <path clip-path="url(#pd7736c0c95)" d="M 1126.19625 270.605974 
L 1575.96375 270.605974 
" style="fill:none;stroke:#ffffff;stroke-linecap:round;"/>
     </g>
    </g>
   </g>
   <g id="patch_17">
    <path clip-path="url(#pd7736c0c95)" d="M 1148.684625 771.512638 
L 1328.591625 771.512638 
L 1328.591625 536.50133 
L 1148.684625 536.50133 
L 1148.684625 771.512638 
z
" style="fill:#b5caf3;stroke:#797979;stroke-linejoin:miter;stroke-width:1.5;"/>
   </g>
   <g id="patch_18">
    <path clip-path="url(#pd7736c0c95)" d="M 1373.568375 871.106068 
L 1553.475375 871.106068 
L 1553.475375 635.328088 
L 1373.568375 635.328088 
L 1373.568375 871.106068 
z
" style="fill:#ecbca7;stroke:#797979;stroke-linejoin:miter;stroke-width:1.5;"/>
   </g>
   <g id="patch_19">
    <path clip-path="url(#pd7736c0c95)" d="M 1238.638125 734.003251 
L 1238.638125 734.003251 
L 1238.638125 734.003251 
L 1238.638125 734.003251 
z
" style="fill:#b5caf3;stroke:#797979;stroke-linejoin:miter;stroke-width:0.75;"/>
   </g>
   <g id="patch_20">
    <path clip-path="url(#pd7736c0c95)" d="M 1238.638125 734.003251 
L 1238.638125 734.003251 
L 1238.638125 734.003251 
L 1238.638125 734.003251 
z
" style="fill:#ecbca7;stroke:#797979;stroke-linejoin:miter;stroke-width:0.75;"/>
   </g>
   <g id="LineCollection_3">
    <path clip-path="url(#pd7736c0c95)" d="M 1126.19625 734.003251 
L 1575.96375 734.003251 
" style="fill:none;stroke:#4c72b0;stroke-width:1.5;"/>
   </g>
   <g id="line2d_40">
    <path clip-path="url(#pd7736c0c95)" d="M 1238.638125 771.512638 
L 1238.638125 849.640498 
" style="fill:none;stroke:#797979;stroke-linecap:round;stroke-width:1.5;"/>
   </g>
   <g id="line2d_41">
    <path clip-path="url(#pd7736c0c95)" d="M 1238.638125 536.50133 
L 1238.638125 470.434556 
" style="fill:none;stroke:#797979;stroke-linecap:round;stroke-width:1.5;"/>
   </g>
   <g id="line2d_42">
    <path clip-path="url(#pd7736c0c95)" d="M 1193.661375 849.640498 
L 1283.614875 849.640498 
" style="fill:none;stroke:#797979;stroke-linecap:round;stroke-width:1.5;"/>
   </g>
   <g id="line2d_43">
    <path clip-path="url(#pd7736c0c95)" d="M 1193.661375 470.434556 
L 1283.614875 470.434556 
" style="fill:none;stroke:#797979;stroke-linecap:round;stroke-width:1.5;"/>
   </g>
   <g id="line2d_44"/>
   <g id="line2d_45">
    <path clip-path="url(#pd7736c0c95)" d="M 1463.521875 871.106068 
L 1463.521875 938.446304 
" style="fill:none;stroke:#797979;stroke-linecap:round;stroke-width:1.5;"/>
   </g>
   <g id="line2d_46">
    <path clip-path="url(#pd7736c0c95)" d="M 1463.521875 635.328088 
L 1463.521875 560.576938 
" style="fill:none;stroke:#797979;stroke-linecap:round;stroke-width:1.5;"/>
   </g>
   <g id="line2d_47">
    <path clip-path="url(#pd7736c0c95)" d="M 1418.545125 938.446304 
L 1508.498625 938.446304 
" style="fill:none;stroke:#797979;stroke-linecap:round;stroke-width:1.5;"/>
   </g>
   <g id="line2d_48">
    <path clip-path="url(#pd7736c0c95)" d="M 1418.545125 560.576938 
L 1508.498625 560.576938 
" style="fill:none;stroke:#797979;stroke-linecap:round;stroke-width:1.5;"/>
   </g>
   <g id="line2d_49"/>
   <g id="line2d_50">
    <path clip-path="url(#pd7736c0c95)" d="M 1148.684625 569.59079 
L 1328.591625 569.59079 
" style="fill:none;stroke:#797979;stroke-linecap:round;stroke-width:1.5;"/>
   </g>
   <g id="line2d_51">
    <path clip-path="url(#pd7736c0c95)" d="M 1373.568375 655.666689 
L 1553.475375 655.666689 
" style="fill:none;stroke:#797979;stroke-linecap:round;stroke-width:1.5;"/>
   </g>
   <g id="patch_21">
    <path d="M 1126.19625 996.84 
L 1126.19625 236.16 
" style="fill:none;stroke:#ffffff;stroke-linecap:square;stroke-linejoin:miter;stroke-width:1.25;"/>
   </g>
   <g id="patch_22">
    <path d="M 1126.19625 996.84 
L 1575.96375 996.84 
" style="fill:none;stroke:#ffffff;stroke-linecap:square;stroke-linejoin:miter;stroke-width:1.25;"/>
   </g>
   <g id="text_15">
    <!-- 2 Repetitions for retraining -->
    <g style="fill:#262626;" transform="translate(1139.982187 230.16)scale(0.36 -0.36)">
     <use xlink:href="#ArialMT-50"/>
     <use x="55.615234" xlink:href="#ArialMT-32"/>
     <use x="83.398438" xlink:href="#ArialMT-82"/>
     <use x="155.615234" xlink:href="#ArialMT-101"/>
     <use x="211.230469" xlink:href="#ArialMT-112"/>
     <use x="266.845703" xlink:href="#ArialMT-101"/>
     <use x="322.460938" xlink:href="#ArialMT-116"/>
     <use x="350.244141" xlink:href="#ArialMT-105"/>
     <use x="372.460938" xlink:href="#ArialMT-116"/>
     <use x="400.244141" xlink:href="#ArialMT-105"/>
     <use x="422.460938" xlink:href="#ArialMT-111"/>
     <use x="478.076172" xlink:href="#ArialMT-110"/>
     <use x="533.691406" xlink:href="#ArialMT-115"/>
     <use x="583.691406" xlink:href="#ArialMT-32"/>
     <use x="611.474609" xlink:href="#ArialMT-102"/>
     <use x="639.257812" xlink:href="#ArialMT-111"/>
     <use x="694.873047" xlink:href="#ArialMT-114"/>
     <use x="728.173828" xlink:href="#ArialMT-32"/>
     <use x="755.957031" xlink:href="#ArialMT-114"/>
     <use x="789.257812" xlink:href="#ArialMT-101"/>
     <use x="844.873047" xlink:href="#ArialMT-116"/>
     <use x="872.65625" xlink:href="#ArialMT-114"/>
     <use x="905.957031" xlink:href="#ArialMT-97"/>
     <use x="961.572266" xlink:href="#ArialMT-105"/>
     <use x="983.789062" xlink:href="#ArialMT-110"/>
     <use x="1039.404297" xlink:href="#ArialMT-105"/>
     <use x="1061.621094" xlink:href="#ArialMT-110"/>
     <use x="1117.236328" xlink:href="#ArialMT-103"/>
    </g>
   </g>
  </g>
  <g id="axes_4">
   <g id="patch_23">
    <path d="M 1634.28375 996.84 
L 2084.05125 996.84 
L 2084.05125 236.16 
L 1634.28375 236.16 
z
" style="fill:#eaeaf2;"/>
   </g>
   <g id="matplotlib.axis_7">
    <g id="xtick_7">
     <g id="text_16">
      <!-- features -->
      <g style="fill:#262626;" transform="translate(1687.111641 1029.960781)scale(0.33 -0.33)">
       <use xlink:href="#ArialMT-102"/>
       <use x="27.783203" xlink:href="#ArialMT-101"/>
       <use x="83.398438" xlink:href="#ArialMT-97"/>
       <use x="139.013672" xlink:href="#ArialMT-116"/>
       <use x="166.796875" xlink:href="#ArialMT-117"/>
       <use x="222.412109" xlink:href="#ArialMT-114"/>
       <use x="255.712891" xlink:href="#ArialMT-101"/>
       <use x="311.328125" xlink:href="#ArialMT-115"/>
      </g>
     </g>
    </g>
    <g id="xtick_8">
     <g id="text_17">
      <!-- raw -->
      <g style="fill:#262626;" transform="translate(1945.02375 1029.960781)scale(0.33 -0.33)">
       <use xlink:href="#ArialMT-114"/>
       <use x="33.300781" xlink:href="#ArialMT-97"/>
       <use x="88.916016" xlink:href="#ArialMT-119"/>
      </g>
     </g>
    </g>
   </g>
   <g id="matplotlib.axis_8">
    <g id="ytick_16">
     <g id="line2d_52">
      <path clip-path="url(#pfb24b5ffb7)" d="M 1634.28375 888.46901 
L 2084.05125 888.46901 
" style="fill:none;stroke:#ffffff;stroke-linecap:round;"/>
     </g>
    </g>
    <g id="ytick_17">
     <g id="line2d_53">
      <path clip-path="url(#pfb24b5ffb7)" d="M 1634.28375 734.003251 
L 2084.05125 734.003251 
" style="fill:none;stroke:#ffffff;stroke-linecap:round;"/>
     </g>
    </g>
    <g id="ytick_18">
     <g id="line2d_54">
      <path clip-path="url(#pfb24b5ffb7)" d="M 1634.28375 579.537492 
L 2084.05125 579.537492 
" style="fill:none;stroke:#ffffff;stroke-linecap:round;"/>
     </g>
    </g>
    <g id="ytick_19">
     <g id="line2d_55">
      <path clip-path="url(#pfb24b5ffb7)" d="M 1634.28375 425.071733 
L 2084.05125 425.071733 
" style="fill:none;stroke:#ffffff;stroke-linecap:round;"/>
     </g>
    </g>
    <g id="ytick_20">
     <g id="line2d_56">
      <path clip-path="url(#pfb24b5ffb7)" d="M 1634.28375 270.605974 
L 2084.05125 270.605974 
" style="fill:none;stroke:#ffffff;stroke-linecap:round;"/>
     </g>
    </g>
   </g>
   <g id="patch_24">
    <path clip-path="url(#pfb24b5ffb7)" d="M 1656.772125 881.155078 
L 1836.679125 881.155078 
L 1836.679125 579.925154 
L 1656.772125 579.925154 
L 1656.772125 881.155078 
z
" style="fill:#b5caf3;stroke:#797979;stroke-linejoin:miter;stroke-width:1.5;"/>
   </g>
   <g id="patch_25">
    <path clip-path="url(#pfb24b5ffb7)" d="M 1881.655875 893.322 
L 2061.562875 893.322 
L 2061.562875 706.908865 
L 1881.655875 706.908865 
L 1881.655875 893.322 
z
" style="fill:#ecbca7;stroke:#797979;stroke-linejoin:miter;stroke-width:1.5;"/>
   </g>
   <g id="patch_26">
    <path clip-path="url(#pfb24b5ffb7)" d="M 1746.725625 734.003251 
L 1746.725625 734.003251 
L 1746.725625 734.003251 
L 1746.725625 734.003251 
z
" style="fill:#b5caf3;stroke:#797979;stroke-linejoin:miter;stroke-width:0.75;"/>
   </g>
   <g id="patch_27">
    <path clip-path="url(#pfb24b5ffb7)" d="M 1746.725625 734.003251 
L 1746.725625 734.003251 
L 1746.725625 734.003251 
L 1746.725625 734.003251 
z
" style="fill:#ecbca7;stroke:#797979;stroke-linejoin:miter;stroke-width:0.75;"/>
   </g>
   <g id="LineCollection_4">
    <path clip-path="url(#pfb24b5ffb7)" d="M 1634.28375 734.003251 
L 2084.05125 734.003251 
" style="fill:none;stroke:#4c72b0;stroke-width:1.5;"/>
   </g>
   <g id="line2d_57">
    <path clip-path="url(#pfb24b5ffb7)" d="M 1746.725625 881.155078 
L 1746.725625 962.263636 
" style="fill:none;stroke:#797979;stroke-linecap:round;stroke-width:1.5;"/>
   </g>
   <g id="line2d_58">
    <path clip-path="url(#pfb24b5ffb7)" d="M 1746.725625 579.925154 
L 1746.725625 507.06426 
" style="fill:none;stroke:#797979;stroke-linecap:round;stroke-width:1.5;"/>
   </g>
   <g id="line2d_59">
    <path clip-path="url(#pfb24b5ffb7)" d="M 1701.748875 962.263636 
L 1791.702375 962.263636 
" style="fill:none;stroke:#797979;stroke-linecap:round;stroke-width:1.5;"/>
   </g>
   <g id="line2d_60">
    <path clip-path="url(#pfb24b5ffb7)" d="M 1701.748875 507.06426 
L 1791.702375 507.06426 
" style="fill:none;stroke:#797979;stroke-linecap:round;stroke-width:1.5;"/>
   </g>
   <g id="line2d_61"/>
   <g id="line2d_62">
    <path clip-path="url(#pfb24b5ffb7)" d="M 1971.609375 893.322 
L 1971.609375 947.67301 
" style="fill:none;stroke:#797979;stroke-linecap:round;stroke-width:1.5;"/>
   </g>
   <g id="line2d_63">
    <path clip-path="url(#pfb24b5ffb7)" d="M 1971.609375 706.908865 
L 1971.609375 633.51122 
" style="fill:none;stroke:#797979;stroke-linecap:round;stroke-width:1.5;"/>
   </g>
   <g id="line2d_64">
    <path clip-path="url(#pfb24b5ffb7)" d="M 1926.632625 947.67301 
L 2016.586125 947.67301 
" style="fill:none;stroke:#797979;stroke-linecap:round;stroke-width:1.5;"/>
   </g>
   <g id="line2d_65">
    <path clip-path="url(#pfb24b5ffb7)" d="M 1926.632625 633.51122 
L 2016.586125 633.51122 
" style="fill:none;stroke:#797979;stroke-linecap:round;stroke-width:1.5;"/>
   </g>
   <g id="line2d_66"/>
   <g id="line2d_67">
    <path clip-path="url(#pfb24b5ffb7)" d="M 1656.772125 614.465828 
L 1836.679125 614.465828 
" style="fill:none;stroke:#797979;stroke-linecap:round;stroke-width:1.5;"/>
   </g>
   <g id="line2d_68">
    <path clip-path="url(#pfb24b5ffb7)" d="M 1881.655875 734.526551 
L 2061.562875 734.526551 
" style="fill:none;stroke:#797979;stroke-linecap:round;stroke-width:1.5;"/>
   </g>
   <g id="patch_28">
    <path d="M 1634.28375 996.84 
L 1634.28375 236.16 
" style="fill:none;stroke:#ffffff;stroke-linecap:square;stroke-linejoin:miter;stroke-width:1.25;"/>
   </g>
   <g id="patch_29">
    <path d="M 1634.28375 996.84 
L 2084.05125 996.84 
" style="fill:none;stroke:#ffffff;stroke-linecap:square;stroke-linejoin:miter;stroke-width:1.25;"/>
   </g>
   <g id="text_18">
    <!-- 1 Repetition for retraining -->
    <g style="fill:#262626;" transform="translate(1657.069688 230.16)scale(0.36 -0.36)">
     <defs>
      <path d="M 37.25 0 
L 28.46875 0 
L 28.46875 56 
Q 25.296875 52.984375 20.140625 49.953125 
Q 14.984375 46.921875 10.890625 45.40625 
L 10.890625 53.90625 
Q 18.265625 57.375 23.78125 62.296875 
Q 29.296875 67.234375 31.59375 71.875 
L 37.25 71.875 
z
" id="ArialMT-49"/>
     </defs>
     <use xlink:href="#ArialMT-49"/>
     <use x="55.615234" xlink:href="#ArialMT-32"/>
     <use x="83.398438" xlink:href="#ArialMT-82"/>
     <use x="155.615234" xlink:href="#ArialMT-101"/>
     <use x="211.230469" xlink:href="#ArialMT-112"/>
     <use x="266.845703" xlink:href="#ArialMT-101"/>
     <use x="322.460938" xlink:href="#ArialMT-116"/>
     <use x="350.244141" xlink:href="#ArialMT-105"/>
     <use x="372.460938" xlink:href="#ArialMT-116"/>
     <use x="400.244141" xlink:href="#ArialMT-105"/>
     <use x="422.460938" xlink:href="#ArialMT-111"/>
     <use x="478.076172" xlink:href="#ArialMT-110"/>
     <use x="533.691406" xlink:href="#ArialMT-32"/>
     <use x="561.474609" xlink:href="#ArialMT-102"/>
     <use x="589.257812" xlink:href="#ArialMT-111"/>
     <use x="644.873047" xlink:href="#ArialMT-114"/>
     <use x="678.173828" xlink:href="#ArialMT-32"/>
     <use x="705.957031" xlink:href="#ArialMT-114"/>
     <use x="739.257812" xlink:href="#ArialMT-101"/>
     <use x="794.873047" xlink:href="#ArialMT-116"/>
     <use x="822.65625" xlink:href="#ArialMT-114"/>
     <use x="855.957031" xlink:href="#ArialMT-97"/>
     <use x="911.572266" xlink:href="#ArialMT-105"/>
     <use x="933.789062" xlink:href="#ArialMT-110"/>
     <use x="989.404297" xlink:href="#ArialMT-105"/>
     <use x="1011.621094" xlink:href="#ArialMT-110"/>
     <use x="1067.236328" xlink:href="#ArialMT-103"/>
    </g>
   </g>
  </g>
  <g id="text_19">
   <!-- Test set accuracy percentage change on DB3 -->
   <g style="fill:#262626;" transform="translate(626.55075 38.25)scale(0.432 -0.432)">
    <defs>
     <path d="M 25.921875 0 
L 25.921875 63.140625 
L 2.34375 63.140625 
L 2.34375 71.578125 
L 59.078125 71.578125 
L 59.078125 63.140625 
L 35.40625 63.140625 
L 35.40625 0 
z
" id="ArialMT-84"/>
     <path d="M 6.203125 -19.96875 
L 5.21875 -11.71875 
Q 8.109375 -12.5 10.25 -12.5 
Q 13.1875 -12.5 14.9375 -11.515625 
Q 16.703125 -10.546875 17.828125 -8.796875 
Q 18.65625 -7.46875 20.515625 -2.25 
Q 20.75 -1.515625 21.296875 -0.09375 
L 1.609375 51.859375 
L 11.078125 51.859375 
L 21.875 21.828125 
Q 23.96875 16.109375 25.640625 9.8125 
Q 27.15625 15.875 29.25 21.625 
L 40.328125 51.859375 
L 49.125 51.859375 
L 29.390625 -0.875 
Q 26.21875 -9.421875 24.46875 -12.640625 
Q 22.125 -17 19.09375 -19.015625 
Q 16.0625 -21.046875 11.859375 -21.046875 
Q 9.328125 -21.046875 6.203125 -19.96875 
z
" id="ArialMT-121"/>
     <path d="M 6.59375 0 
L 6.59375 71.578125 
L 15.375 71.578125 
L 15.375 45.90625 
Q 21.53125 53.03125 30.90625 53.03125 
Q 36.671875 53.03125 40.921875 50.75 
Q 45.171875 48.484375 47 44.484375 
Q 48.828125 40.484375 48.828125 32.859375 
L 48.828125 0 
L 40.046875 0 
L 40.046875 32.859375 
Q 40.046875 39.453125 37.1875 42.453125 
Q 34.328125 45.453125 29.109375 45.453125 
Q 25.203125 45.453125 21.75 43.421875 
Q 18.3125 41.40625 16.84375 37.9375 
Q 15.375 34.46875 15.375 28.375 
L 15.375 0 
z
" id="ArialMT-104"/>
     <path d="M 7.71875 0 
L 7.71875 71.578125 
L 32.375 71.578125 
Q 40.71875 71.578125 45.125 70.5625 
Q 51.265625 69.140625 55.609375 65.4375 
Q 61.28125 60.640625 64.078125 53.1875 
Q 66.890625 45.75 66.890625 36.1875 
Q 66.890625 28.03125 64.984375 21.734375 
Q 63.09375 15.4375 60.109375 11.296875 
Q 57.125 7.171875 53.578125 4.796875 
Q 50.046875 2.4375 45.046875 1.21875 
Q 40.046875 0 33.546875 0 
z
M 17.1875 8.453125 
L 32.46875 8.453125 
Q 39.546875 8.453125 43.578125 9.765625 
Q 47.609375 11.078125 50 13.484375 
Q 53.375 16.84375 55.25 22.53125 
Q 57.125 28.21875 57.125 36.328125 
Q 57.125 47.5625 53.4375 53.59375 
Q 49.75 59.625 44.484375 61.671875 
Q 40.671875 63.140625 32.234375 63.140625 
L 17.1875 63.140625 
z
" id="ArialMT-68"/>
     <path d="M 7.328125 0 
L 7.328125 71.578125 
L 34.1875 71.578125 
Q 42.390625 71.578125 47.34375 69.40625 
Q 52.296875 67.234375 55.09375 62.71875 
Q 57.90625 58.203125 57.90625 53.265625 
Q 57.90625 48.6875 55.421875 44.625 
Q 52.9375 40.578125 47.90625 38.09375 
Q 54.390625 36.1875 57.875 31.59375 
Q 61.375 27 61.375 20.75 
Q 61.375 15.71875 59.25 11.390625 
Q 57.125 7.078125 54 4.734375 
Q 50.875 2.390625 46.15625 1.1875 
Q 41.453125 0 34.625 0 
z
M 16.796875 41.5 
L 32.28125 41.5 
Q 38.578125 41.5 41.3125 42.328125 
Q 44.921875 43.40625 46.75 45.890625 
Q 48.578125 48.390625 48.578125 52.15625 
Q 48.578125 55.71875 46.875 58.421875 
Q 45.171875 61.140625 41.984375 62.140625 
Q 38.8125 63.140625 31.109375 63.140625 
L 16.796875 63.140625 
z
M 16.796875 8.453125 
L 34.625 8.453125 
Q 39.203125 8.453125 41.0625 8.796875 
Q 44.34375 9.375 46.53125 10.734375 
Q 48.734375 12.109375 50.140625 14.71875 
Q 51.5625 17.328125 51.5625 20.75 
Q 51.5625 24.75 49.515625 27.703125 
Q 47.46875 30.671875 43.828125 31.859375 
Q 40.1875 33.0625 33.34375 33.0625 
L 16.796875 33.0625 
z
" id="ArialMT-66"/>
     <path d="M 4.203125 18.890625 
L 12.984375 20.0625 
Q 14.5 12.59375 18.140625 9.296875 
Q 21.78125 6 27 6 
Q 33.203125 6 37.46875 10.296875 
Q 41.75 14.59375 41.75 20.953125 
Q 41.75 27 37.796875 30.921875 
Q 33.84375 34.859375 27.734375 34.859375 
Q 25.25 34.859375 21.53125 33.890625 
L 22.515625 41.609375 
Q 23.390625 41.5 23.921875 41.5 
Q 29.546875 41.5 34.03125 44.421875 
Q 38.53125 47.359375 38.53125 53.46875 
Q 38.53125 58.296875 35.25 61.46875 
Q 31.984375 64.65625 26.8125 64.65625 
Q 21.6875 64.65625 18.265625 61.421875 
Q 14.84375 58.203125 13.875 51.765625 
L 5.078125 53.328125 
Q 6.6875 62.15625 12.390625 67.015625 
Q 18.109375 71.875 26.609375 71.875 
Q 32.46875 71.875 37.390625 69.359375 
Q 42.328125 66.84375 44.9375 62.5 
Q 47.5625 58.15625 47.5625 53.265625 
Q 47.5625 48.640625 45.0625 44.828125 
Q 42.578125 41.015625 37.703125 38.765625 
Q 44.046875 37.3125 47.5625 32.6875 
Q 51.078125 28.078125 51.078125 21.140625 
Q 51.078125 11.765625 44.234375 5.25 
Q 37.40625 -1.265625 26.953125 -1.265625 
Q 17.53125 -1.265625 11.296875 4.34375 
Q 5.078125 9.96875 4.203125 18.890625 
z
" id="ArialMT-51"/>
    </defs>
    <use xlink:href="#ArialMT-84"/>
    <use x="49.958984" xlink:href="#ArialMT-101"/>
    <use x="105.574219" xlink:href="#ArialMT-115"/>
    <use x="155.574219" xlink:href="#ArialMT-116"/>
    <use x="183.357422" xlink:href="#ArialMT-32"/>
    <use x="211.140625" xlink:href="#ArialMT-115"/>
    <use x="261.140625" xlink:href="#ArialMT-101"/>
    <use x="316.755859" xlink:href="#ArialMT-116"/>
    <use x="344.539062" xlink:href="#ArialMT-32"/>
    <use x="372.322266" xlink:href="#ArialMT-97"/>
    <use x="427.9375" xlink:href="#ArialMT-99"/>
    <use x="477.9375" xlink:href="#ArialMT-99"/>
    <use x="527.9375" xlink:href="#ArialMT-117"/>
    <use x="583.552734" xlink:href="#ArialMT-114"/>
    <use x="616.853516" xlink:href="#ArialMT-97"/>
    <use x="672.46875" xlink:href="#ArialMT-99"/>
    <use x="722.46875" xlink:href="#ArialMT-121"/>
    <use x="772.46875" xlink:href="#ArialMT-32"/>
    <use x="800.251953" xlink:href="#ArialMT-112"/>
    <use x="855.867188" xlink:href="#ArialMT-101"/>
    <use x="911.482422" xlink:href="#ArialMT-114"/>
    <use x="944.783203" xlink:href="#ArialMT-99"/>
    <use x="994.783203" xlink:href="#ArialMT-101"/>
    <use x="1050.398438" xlink:href="#ArialMT-110"/>
    <use x="1106.013672" xlink:href="#ArialMT-116"/>
    <use x="1133.796875" xlink:href="#ArialMT-97"/>
    <use x="1189.412109" xlink:href="#ArialMT-103"/>
    <use x="1245.027344" xlink:href="#ArialMT-101"/>
    <use x="1300.642578" xlink:href="#ArialMT-32"/>
    <use x="1328.425781" xlink:href="#ArialMT-99"/>
    <use x="1378.425781" xlink:href="#ArialMT-104"/>
    <use x="1434.041016" xlink:href="#ArialMT-97"/>
    <use x="1489.65625" xlink:href="#ArialMT-110"/>
    <use x="1545.271484" xlink:href="#ArialMT-103"/>
    <use x="1600.886719" xlink:href="#ArialMT-101"/>
    <use x="1656.501953" xlink:href="#ArialMT-32"/>
    <use x="1684.285156" xlink:href="#ArialMT-111"/>
    <use x="1739.900391" xlink:href="#ArialMT-110"/>
    <use x="1795.515625" xlink:href="#ArialMT-32"/>
    <use x="1823.298828" xlink:href="#ArialMT-68"/>
    <use x="1895.515625" xlink:href="#ArialMT-66"/>
    <use x="1962.214844" xlink:href="#ArialMT-51"/>
   </g>
  </g>
 </g>
 <defs>
  <clipPath id="p550155b17f">
   <rect height="760.68" width="449.7675" x="110.02125" y="236.16"/>
  </clipPath>
  <clipPath id="pedbd0f945f">
   <rect height="760.68" width="449.7675" x="618.10875" y="236.16"/>
  </clipPath>
  <clipPath id="pd7736c0c95">
   <rect height="760.68" width="449.7675" x="1126.19625" y="236.16"/>
  </clipPath>
  <clipPath id="pfb24b5ffb7">
   <rect height="760.68" width="449.7675" x="1634.28375" y="236.16"/>
  </clipPath>
 </defs>
</svg>
