<?xml version="1.0" encoding="utf-8" standalone="no"?>
<!DOCTYPE svg PUBLIC "-//W3C//DTD SVG 1.1//EN"
  "http://www.w3.org/Graphics/SVG/1.1/DTD/svg11.dtd">
<!-- Created with matplotlib (https://matplotlib.org/) -->
<svg height="864pt" version="1.1" viewBox="0 0 1440 864" width="1440pt" xmlns="http://www.w3.org/2000/svg" xmlns:xlink="http://www.w3.org/1999/xlink">
 <metadata>
  <rdf:RDF xmlns:cc="http://creativecommons.org/ns#" xmlns:dc="http://purl.org/dc/elements/1.1/" xmlns:rdf="http://www.w3.org/1999/02/22-rdf-syntax-ns#">
   <cc:Work>
    <dc:type rdf:resource="http://purl.org/dc/dcmitype/StillImage"/>
    <dc:date>2022-09-09T09:16:52.034746</dc:date>
    <dc:format>image/svg+xml</dc:format>
    <dc:creator>
     <cc:Agent>
      <dc:title>Matplotlib v3.3.2, https://matplotlib.org/</dc:title>
     </cc:Agent>
    </dc:creator>
   </cc:Work>
  </rdf:RDF>
 </metadata>
 <defs>
  <style type="text/css">*{stroke-linecap:butt;stroke-linejoin:round;}</style>
 </defs>
 <g id="figure_1">
  <g id="patch_1">
   <path d="M 0 864 
L 1440 864 
L 1440 0 
L 0 0 
z
" style="fill:#ffffff;"/>
  </g>
  <g id="axes_1">
   <g id="patch_2">
    <path d="M 180 768.96 
L 1296 768.96 
L 1296 103.68 
L 180 103.68 
z
" style="fill:#eaeaf2;"/>
   </g>
   <g id="matplotlib.axis_1">
    <g id="xtick_1">
     <g id="line2d_1">
      <path clip-path="url(#p78457ff47d)" d="M 230.727273 768.96 
L 230.727273 103.68 
" style="fill:none;stroke:#ffffff;stroke-linecap:round;"/>
     </g>
     <g id="text_1">
      <!-- 0 -->
      <g style="fill:#262626;" transform="translate(221.551726 802.080781)scale(0.33 -0.33)">
       <defs>
        <path d="M 4.15625 35.296875 
Q 4.15625 48 6.765625 55.734375 
Q 9.375 63.484375 14.515625 67.671875 
Q 19.671875 71.875 27.484375 71.875 
Q 33.25 71.875 37.59375 69.546875 
Q 41.9375 67.234375 44.765625 62.859375 
Q 47.609375 58.5 49.21875 52.21875 
Q 50.828125 45.953125 50.828125 35.296875 
Q 50.828125 22.703125 48.234375 14.96875 
Q 45.65625 7.234375 40.5 3 
Q 35.359375 -1.21875 27.484375 -1.21875 
Q 17.140625 -1.21875 11.234375 6.203125 
Q 4.15625 15.140625 4.15625 35.296875 
z
M 13.1875 35.296875 
Q 13.1875 17.671875 17.3125 11.828125 
Q 21.4375 6 27.484375 6 
Q 33.546875 6 37.671875 11.859375 
Q 41.796875 17.71875 41.796875 35.296875 
Q 41.796875 52.984375 37.671875 58.78125 
Q 33.546875 64.59375 27.390625 64.59375 
Q 21.34375 64.59375 17.71875 59.46875 
Q 13.1875 52.9375 13.1875 35.296875 
z
" id="ArialMT-48"/>
       </defs>
       <use xlink:href="#ArialMT-48"/>
      </g>
     </g>
    </g>
    <g id="xtick_2">
     <g id="line2d_2">
      <path clip-path="url(#p78457ff47d)" d="M 362.486423 768.96 
L 362.486423 103.68 
" style="fill:none;stroke:#ffffff;stroke-linecap:round;"/>
     </g>
     <g id="text_2">
      <!-- 10 -->
      <g style="fill:#262626;" transform="translate(344.135329 802.080781)scale(0.33 -0.33)">
       <defs>
        <path d="M 37.25 0 
L 28.46875 0 
L 28.46875 56 
Q 25.296875 52.984375 20.140625 49.953125 
Q 14.984375 46.921875 10.890625 45.40625 
L 10.890625 53.90625 
Q 18.265625 57.375 23.78125 62.296875 
Q 29.296875 67.234375 31.59375 71.875 
L 37.25 71.875 
z
" id="ArialMT-49"/>
       </defs>
       <use xlink:href="#ArialMT-49"/>
       <use x="55.615234" xlink:href="#ArialMT-48"/>
      </g>
     </g>
    </g>
    <g id="xtick_3">
     <g id="line2d_3">
      <path clip-path="url(#p78457ff47d)" d="M 494.245573 768.96 
L 494.245573 103.68 
" style="fill:none;stroke:#ffffff;stroke-linecap:round;"/>
     </g>
     <g id="text_3">
      <!-- 20 -->
      <g style="fill:#262626;" transform="translate(475.894479 802.080781)scale(0.33 -0.33)">
       <defs>
        <path d="M 50.34375 8.453125 
L 50.34375 0 
L 3.03125 0 
Q 2.9375 3.171875 4.046875 6.109375 
Q 5.859375 10.9375 9.828125 15.625 
Q 13.8125 20.3125 21.34375 26.46875 
Q 33.015625 36.03125 37.109375 41.625 
Q 41.21875 47.21875 41.21875 52.203125 
Q 41.21875 57.421875 37.46875 61 
Q 33.734375 64.59375 27.734375 64.59375 
Q 21.390625 64.59375 17.578125 60.78125 
Q 13.765625 56.984375 13.71875 50.25 
L 4.6875 51.171875 
Q 5.609375 61.28125 11.65625 66.578125 
Q 17.71875 71.875 27.9375 71.875 
Q 38.234375 71.875 44.234375 66.15625 
Q 50.25 60.453125 50.25 52 
Q 50.25 47.703125 48.484375 43.546875 
Q 46.734375 39.40625 42.65625 34.8125 
Q 38.578125 30.21875 29.109375 22.21875 
Q 21.1875 15.578125 18.9375 13.203125 
Q 16.703125 10.84375 15.234375 8.453125 
z
" id="ArialMT-50"/>
       </defs>
       <use xlink:href="#ArialMT-50"/>
       <use x="55.615234" xlink:href="#ArialMT-48"/>
      </g>
     </g>
    </g>
    <g id="xtick_4">
     <g id="line2d_4">
      <path clip-path="url(#p78457ff47d)" d="M 626.004723 768.96 
L 626.004723 103.68 
" style="fill:none;stroke:#ffffff;stroke-linecap:round;"/>
     </g>
     <g id="text_4">
      <!-- 30 -->
      <g style="fill:#262626;" transform="translate(607.653629 802.080781)scale(0.33 -0.33)">
       <defs>
        <path d="M 4.203125 18.890625 
L 12.984375 20.0625 
Q 14.5 12.59375 18.140625 9.296875 
Q 21.78125 6 27 6 
Q 33.203125 6 37.46875 10.296875 
Q 41.75 14.59375 41.75 20.953125 
Q 41.75 27 37.796875 30.921875 
Q 33.84375 34.859375 27.734375 34.859375 
Q 25.25 34.859375 21.53125 33.890625 
L 22.515625 41.609375 
Q 23.390625 41.5 23.921875 41.5 
Q 29.546875 41.5 34.03125 44.421875 
Q 38.53125 47.359375 38.53125 53.46875 
Q 38.53125 58.296875 35.25 61.46875 
Q 31.984375 64.65625 26.8125 64.65625 
Q 21.6875 64.65625 18.265625 61.421875 
Q 14.84375 58.203125 13.875 51.765625 
L 5.078125 53.328125 
Q 6.6875 62.15625 12.390625 67.015625 
Q 18.109375 71.875 26.609375 71.875 
Q 32.46875 71.875 37.390625 69.359375 
Q 42.328125 66.84375 44.9375 62.5 
Q 47.5625 58.15625 47.5625 53.265625 
Q 47.5625 48.640625 45.0625 44.828125 
Q 42.578125 41.015625 37.703125 38.765625 
Q 44.046875 37.3125 47.5625 32.6875 
Q 51.078125 28.078125 51.078125 21.140625 
Q 51.078125 11.765625 44.234375 5.25 
Q 37.40625 -1.265625 26.953125 -1.265625 
Q 17.53125 -1.265625 11.296875 4.34375 
Q 5.078125 9.96875 4.203125 18.890625 
z
" id="ArialMT-51"/>
       </defs>
       <use xlink:href="#ArialMT-51"/>
       <use x="55.615234" xlink:href="#ArialMT-48"/>
      </g>
     </g>
    </g>
    <g id="xtick_5">
     <g id="line2d_5">
      <path clip-path="url(#p78457ff47d)" d="M 757.763872 768.96 
L 757.763872 103.68 
" style="fill:none;stroke:#ffffff;stroke-linecap:round;"/>
     </g>
     <g id="text_5">
      <!-- 40 -->
      <g style="fill:#262626;" transform="translate(739.412779 802.080781)scale(0.33 -0.33)">
       <defs>
        <path d="M 32.328125 0 
L 32.328125 17.140625 
L 1.265625 17.140625 
L 1.265625 25.203125 
L 33.9375 71.578125 
L 41.109375 71.578125 
L 41.109375 25.203125 
L 50.78125 25.203125 
L 50.78125 17.140625 
L 41.109375 17.140625 
L 41.109375 0 
z
M 32.328125 25.203125 
L 32.328125 57.46875 
L 9.90625 25.203125 
z
" id="ArialMT-52"/>
       </defs>
       <use xlink:href="#ArialMT-52"/>
       <use x="55.615234" xlink:href="#ArialMT-48"/>
      </g>
     </g>
    </g>
    <g id="xtick_6">
     <g id="line2d_6">
      <path clip-path="url(#p78457ff47d)" d="M 889.523022 768.96 
L 889.523022 103.68 
" style="fill:none;stroke:#ffffff;stroke-linecap:round;"/>
     </g>
     <g id="text_6">
      <!-- 50 -->
      <g style="fill:#262626;" transform="translate(871.171929 802.080781)scale(0.33 -0.33)">
       <defs>
        <path d="M 4.15625 18.75 
L 13.375 19.53125 
Q 14.40625 12.796875 18.140625 9.390625 
Q 21.875 6 27.15625 6 
Q 33.5 6 37.890625 10.78125 
Q 42.28125 15.578125 42.28125 23.484375 
Q 42.28125 31 38.0625 35.34375 
Q 33.84375 39.703125 27 39.703125 
Q 22.75 39.703125 19.328125 37.765625 
Q 15.921875 35.84375 13.96875 32.765625 
L 5.71875 33.84375 
L 12.640625 70.609375 
L 48.25 70.609375 
L 48.25 62.203125 
L 19.671875 62.203125 
L 15.828125 42.96875 
Q 22.265625 47.46875 29.34375 47.46875 
Q 38.71875 47.46875 45.15625 40.96875 
Q 51.609375 34.46875 51.609375 24.265625 
Q 51.609375 14.546875 45.953125 7.46875 
Q 39.0625 -1.21875 27.15625 -1.21875 
Q 17.390625 -1.21875 11.203125 4.25 
Q 5.03125 9.71875 4.15625 18.75 
z
" id="ArialMT-53"/>
       </defs>
       <use xlink:href="#ArialMT-53"/>
       <use x="55.615234" xlink:href="#ArialMT-48"/>
      </g>
     </g>
    </g>
    <g id="xtick_7">
     <g id="line2d_7">
      <path clip-path="url(#p78457ff47d)" d="M 1021.282172 768.96 
L 1021.282172 103.68 
" style="fill:none;stroke:#ffffff;stroke-linecap:round;"/>
     </g>
     <g id="text_7">
      <!-- 60 -->
      <g style="fill:#262626;" transform="translate(1002.931079 802.080781)scale(0.33 -0.33)">
       <defs>
        <path d="M 49.75 54.046875 
L 41.015625 53.375 
Q 39.84375 58.546875 37.703125 60.890625 
Q 34.125 64.65625 28.90625 64.65625 
Q 24.703125 64.65625 21.53125 62.3125 
Q 17.390625 59.28125 14.984375 53.46875 
Q 12.59375 47.65625 12.5 36.921875 
Q 15.671875 41.75 20.265625 44.09375 
Q 24.859375 46.4375 29.890625 46.4375 
Q 38.671875 46.4375 44.84375 39.96875 
Q 51.03125 33.5 51.03125 23.25 
Q 51.03125 16.5 48.125 10.71875 
Q 45.21875 4.9375 40.140625 1.859375 
Q 35.0625 -1.21875 28.609375 -1.21875 
Q 17.625 -1.21875 10.6875 6.859375 
Q 3.765625 14.9375 3.765625 33.5 
Q 3.765625 54.25 11.421875 63.671875 
Q 18.109375 71.875 29.4375 71.875 
Q 37.890625 71.875 43.28125 67.140625 
Q 48.6875 62.40625 49.75 54.046875 
z
M 13.875 23.1875 
Q 13.875 18.65625 15.796875 14.5 
Q 17.71875 10.359375 21.1875 8.171875 
Q 24.65625 6 28.46875 6 
Q 34.03125 6 38.03125 10.484375 
Q 42.046875 14.984375 42.046875 22.703125 
Q 42.046875 30.125 38.078125 34.390625 
Q 34.125 38.671875 28.125 38.671875 
Q 22.171875 38.671875 18.015625 34.390625 
Q 13.875 30.125 13.875 23.1875 
z
" id="ArialMT-54"/>
       </defs>
       <use xlink:href="#ArialMT-54"/>
       <use x="55.615234" xlink:href="#ArialMT-48"/>
      </g>
     </g>
    </g>
    <g id="xtick_8">
     <g id="line2d_8">
      <path clip-path="url(#p78457ff47d)" d="M 1153.041322 768.96 
L 1153.041322 103.68 
" style="fill:none;stroke:#ffffff;stroke-linecap:round;"/>
     </g>
     <g id="text_8">
      <!-- 70 -->
      <g style="fill:#262626;" transform="translate(1134.690229 802.080781)scale(0.33 -0.33)">
       <defs>
        <path d="M 4.734375 62.203125 
L 4.734375 70.65625 
L 51.078125 70.65625 
L 51.078125 63.8125 
Q 44.234375 56.546875 37.515625 44.484375 
Q 30.8125 32.421875 27.15625 19.671875 
Q 24.515625 10.6875 23.78125 0 
L 14.75 0 
Q 14.890625 8.453125 18.0625 20.40625 
Q 21.234375 32.375 27.171875 43.484375 
Q 33.109375 54.59375 39.796875 62.203125 
z
" id="ArialMT-55"/>
       </defs>
       <use xlink:href="#ArialMT-55"/>
       <use x="55.615234" xlink:href="#ArialMT-48"/>
      </g>
     </g>
    </g>
    <g id="xtick_9">
     <g id="line2d_9">
      <path clip-path="url(#p78457ff47d)" d="M 1284.800472 768.96 
L 1284.800472 103.68 
" style="fill:none;stroke:#ffffff;stroke-linecap:round;"/>
     </g>
     <g id="text_9">
      <!-- 80 -->
      <g style="fill:#262626;" transform="translate(1266.449379 802.080781)scale(0.33 -0.33)">
       <defs>
        <path d="M 17.671875 38.8125 
Q 12.203125 40.828125 9.5625 44.53125 
Q 6.9375 48.25 6.9375 53.421875 
Q 6.9375 61.234375 12.546875 66.546875 
Q 18.171875 71.875 27.484375 71.875 
Q 36.859375 71.875 42.578125 66.421875 
Q 48.296875 60.984375 48.296875 53.171875 
Q 48.296875 48.1875 45.671875 44.5 
Q 43.0625 40.828125 37.75 38.8125 
Q 44.34375 36.671875 47.78125 31.875 
Q 51.21875 27.09375 51.21875 20.453125 
Q 51.21875 11.28125 44.71875 5.03125 
Q 38.234375 -1.21875 27.640625 -1.21875 
Q 17.046875 -1.21875 10.546875 5.046875 
Q 4.046875 11.328125 4.046875 20.703125 
Q 4.046875 27.6875 7.59375 32.390625 
Q 11.140625 37.109375 17.671875 38.8125 
z
M 15.921875 53.71875 
Q 15.921875 48.640625 19.1875 45.40625 
Q 22.46875 42.1875 27.6875 42.1875 
Q 32.765625 42.1875 36.015625 45.375 
Q 39.265625 48.578125 39.265625 53.21875 
Q 39.265625 58.0625 35.90625 61.359375 
Q 32.5625 64.65625 27.59375 64.65625 
Q 22.5625 64.65625 19.234375 61.421875 
Q 15.921875 58.203125 15.921875 53.71875 
z
M 13.09375 20.65625 
Q 13.09375 16.890625 14.875 13.375 
Q 16.65625 9.859375 20.171875 7.921875 
Q 23.6875 6 27.734375 6 
Q 34.03125 6 38.125 10.046875 
Q 42.234375 14.109375 42.234375 20.359375 
Q 42.234375 26.703125 38.015625 30.859375 
Q 33.796875 35.015625 27.4375 35.015625 
Q 21.234375 35.015625 17.15625 30.90625 
Q 13.09375 26.8125 13.09375 20.65625 
z
" id="ArialMT-56"/>
       </defs>
       <use xlink:href="#ArialMT-56"/>
       <use x="55.615234" xlink:href="#ArialMT-48"/>
      </g>
     </g>
    </g>
    <g id="text_10">
     <!-- Epoch -->
     <g style="fill:#262626;" transform="translate(686.964375 838.407656)scale(0.36 -0.36)">
      <defs>
       <path d="M 7.90625 0 
L 7.90625 71.578125 
L 59.671875 71.578125 
L 59.671875 63.140625 
L 17.390625 63.140625 
L 17.390625 41.21875 
L 56.984375 41.21875 
L 56.984375 32.8125 
L 17.390625 32.8125 
L 17.390625 8.453125 
L 61.328125 8.453125 
L 61.328125 0 
z
" id="ArialMT-69"/>
       <path d="M 6.59375 -19.875 
L 6.59375 51.859375 
L 14.59375 51.859375 
L 14.59375 45.125 
Q 17.4375 49.078125 21 51.046875 
Q 24.5625 53.03125 29.640625 53.03125 
Q 36.28125 53.03125 41.359375 49.609375 
Q 46.4375 46.1875 49.015625 39.953125 
Q 51.609375 33.734375 51.609375 26.3125 
Q 51.609375 18.359375 48.75 11.984375 
Q 45.90625 5.609375 40.453125 2.21875 
Q 35.015625 -1.171875 29 -1.171875 
Q 24.609375 -1.171875 21.109375 0.6875 
Q 17.625 2.546875 15.375 5.375 
L 15.375 -19.875 
z
M 14.546875 25.640625 
Q 14.546875 15.625 18.59375 10.84375 
Q 22.65625 6.0625 28.421875 6.0625 
Q 34.28125 6.0625 38.453125 11.015625 
Q 42.625 15.96875 42.625 26.375 
Q 42.625 36.28125 38.546875 41.203125 
Q 34.46875 46.140625 28.8125 46.140625 
Q 23.1875 46.140625 18.859375 40.890625 
Q 14.546875 35.640625 14.546875 25.640625 
z
" id="ArialMT-112"/>
       <path d="M 3.328125 25.921875 
Q 3.328125 40.328125 11.328125 47.265625 
Q 18.015625 53.03125 27.640625 53.03125 
Q 38.328125 53.03125 45.109375 46.015625 
Q 51.90625 39.015625 51.90625 26.65625 
Q 51.90625 16.65625 48.90625 10.90625 
Q 45.90625 5.171875 40.15625 2 
Q 34.421875 -1.171875 27.640625 -1.171875 
Q 16.75 -1.171875 10.03125 5.8125 
Q 3.328125 12.796875 3.328125 25.921875 
z
M 12.359375 25.921875 
Q 12.359375 15.96875 16.703125 11.015625 
Q 21.046875 6.0625 27.640625 6.0625 
Q 34.1875 6.0625 38.53125 11.03125 
Q 42.875 16.015625 42.875 26.21875 
Q 42.875 35.84375 38.5 40.796875 
Q 34.125 45.75 27.640625 45.75 
Q 21.046875 45.75 16.703125 40.8125 
Q 12.359375 35.890625 12.359375 25.921875 
z
" id="ArialMT-111"/>
       <path d="M 40.4375 19 
L 49.078125 17.875 
Q 47.65625 8.9375 41.8125 3.875 
Q 35.984375 -1.171875 27.484375 -1.171875 
Q 16.84375 -1.171875 10.375 5.78125 
Q 3.90625 12.75 3.90625 25.734375 
Q 3.90625 34.125 6.6875 40.421875 
Q 9.46875 46.734375 15.15625 49.875 
Q 20.84375 53.03125 27.546875 53.03125 
Q 35.984375 53.03125 41.359375 48.75 
Q 46.734375 44.484375 48.25 36.625 
L 39.703125 35.296875 
Q 38.484375 40.53125 35.375 43.15625 
Q 32.28125 45.796875 27.875 45.796875 
Q 21.234375 45.796875 17.078125 41.03125 
Q 12.9375 36.28125 12.9375 25.984375 
Q 12.9375 15.53125 16.9375 10.796875 
Q 20.953125 6.0625 27.390625 6.0625 
Q 32.5625 6.0625 36.03125 9.234375 
Q 39.5 12.40625 40.4375 19 
z
" id="ArialMT-99"/>
       <path d="M 6.59375 0 
L 6.59375 71.578125 
L 15.375 71.578125 
L 15.375 45.90625 
Q 21.53125 53.03125 30.90625 53.03125 
Q 36.671875 53.03125 40.921875 50.75 
Q 45.171875 48.484375 47 44.484375 
Q 48.828125 40.484375 48.828125 32.859375 
L 48.828125 0 
L 40.046875 0 
L 40.046875 32.859375 
Q 40.046875 39.453125 37.1875 42.453125 
Q 34.328125 45.453125 29.109375 45.453125 
Q 25.203125 45.453125 21.75 43.421875 
Q 18.3125 41.40625 16.84375 37.9375 
Q 15.375 34.46875 15.375 28.375 
L 15.375 0 
z
" id="ArialMT-104"/>
      </defs>
      <use xlink:href="#ArialMT-69"/>
      <use x="66.699219" xlink:href="#ArialMT-112"/>
      <use x="122.314453" xlink:href="#ArialMT-111"/>
      <use x="177.929688" xlink:href="#ArialMT-99"/>
      <use x="227.929688" xlink:href="#ArialMT-104"/>
     </g>
    </g>
   </g>
   <g id="matplotlib.axis_2">
    <g id="ytick_1">
     <g id="line2d_10">
      <path clip-path="url(#p78457ff47d)" d="M 180 642.857827 
L 1296 642.857827 
" style="fill:none;stroke:#ffffff;stroke-linecap:round;"/>
     </g>
     <g id="text_11">
      <!-- 0.2 -->
      <g style="fill:#262626;" transform="translate(124.63 654.668218)scale(0.33 -0.33)">
       <defs>
        <path d="M 9.078125 0 
L 9.078125 10.015625 
L 19.09375 10.015625 
L 19.09375 0 
z
" id="ArialMT-46"/>
       </defs>
       <use xlink:href="#ArialMT-48"/>
       <use x="55.615234" xlink:href="#ArialMT-46"/>
       <use x="83.398438" xlink:href="#ArialMT-50"/>
      </g>
     </g>
    </g>
    <g id="ytick_2">
     <g id="line2d_11">
      <path clip-path="url(#p78457ff47d)" d="M 180 512.478538 
L 1296 512.478538 
" style="fill:none;stroke:#ffffff;stroke-linecap:round;"/>
     </g>
     <g id="text_12">
      <!-- 0.4 -->
      <g style="fill:#262626;" transform="translate(124.63 524.288928)scale(0.33 -0.33)">
       <use xlink:href="#ArialMT-48"/>
       <use x="55.615234" xlink:href="#ArialMT-46"/>
       <use x="83.398438" xlink:href="#ArialMT-52"/>
      </g>
     </g>
    </g>
    <g id="ytick_3">
     <g id="line2d_12">
      <path clip-path="url(#p78457ff47d)" d="M 180 382.099248 
L 1296 382.099248 
" style="fill:none;stroke:#ffffff;stroke-linecap:round;"/>
     </g>
     <g id="text_13">
      <!-- 0.6 -->
      <g style="fill:#262626;" transform="translate(124.63 393.909639)scale(0.33 -0.33)">
       <use xlink:href="#ArialMT-48"/>
       <use x="55.615234" xlink:href="#ArialMT-46"/>
       <use x="83.398438" xlink:href="#ArialMT-54"/>
      </g>
     </g>
    </g>
    <g id="ytick_4">
     <g id="line2d_13">
      <path clip-path="url(#p78457ff47d)" d="M 180 251.719958 
L 1296 251.719958 
" style="fill:none;stroke:#ffffff;stroke-linecap:round;"/>
     </g>
     <g id="text_14">
      <!-- 0.8 -->
      <g style="fill:#262626;" transform="translate(124.63 263.530349)scale(0.33 -0.33)">
       <use xlink:href="#ArialMT-48"/>
       <use x="55.615234" xlink:href="#ArialMT-46"/>
       <use x="83.398438" xlink:href="#ArialMT-56"/>
      </g>
     </g>
    </g>
    <g id="ytick_5">
     <g id="line2d_14">
      <path clip-path="url(#p78457ff47d)" d="M 180 121.340669 
L 1296 121.340669 
" style="fill:none;stroke:#ffffff;stroke-linecap:round;"/>
     </g>
     <g id="text_15">
      <!-- 1.0 -->
      <g style="fill:#262626;" transform="translate(124.63 133.151059)scale(0.33 -0.33)">
       <use xlink:href="#ArialMT-49"/>
       <use x="55.615234" xlink:href="#ArialMT-46"/>
       <use x="83.398438" xlink:href="#ArialMT-48"/>
      </g>
     </g>
    </g>
    <g id="text_16">
     <!-- Validation Accuracy -->
     <g style="fill:#262626;" transform="translate(113.053125 592.07625)rotate(-90)scale(0.36 -0.36)">
      <defs>
       <path d="M 28.171875 0 
L 0.4375 71.578125 
L 10.6875 71.578125 
L 29.296875 19.578125 
Q 31.546875 13.328125 33.0625 7.859375 
Q 34.71875 13.71875 36.921875 19.578125 
L 56.25 71.578125 
L 65.921875 71.578125 
L 37.890625 0 
z
" id="ArialMT-86"/>
       <path d="M 40.4375 6.390625 
Q 35.546875 2.25 31.03125 0.53125 
Q 26.515625 -1.171875 21.34375 -1.171875 
Q 12.796875 -1.171875 8.203125 3 
Q 3.609375 7.171875 3.609375 13.671875 
Q 3.609375 17.484375 5.34375 20.625 
Q 7.078125 23.78125 9.890625 25.6875 
Q 12.703125 27.59375 16.21875 28.5625 
Q 18.796875 29.25 24.03125 29.890625 
Q 34.671875 31.15625 39.703125 32.90625 
Q 39.75 34.71875 39.75 35.203125 
Q 39.75 40.578125 37.25 42.78125 
Q 33.890625 45.75 27.25 45.75 
Q 21.046875 45.75 18.09375 43.578125 
Q 15.140625 41.40625 13.71875 35.890625 
L 5.125 37.0625 
Q 6.296875 42.578125 8.984375 45.96875 
Q 11.671875 49.359375 16.75 51.1875 
Q 21.828125 53.03125 28.515625 53.03125 
Q 35.15625 53.03125 39.296875 51.46875 
Q 43.453125 49.90625 45.40625 47.53125 
Q 47.359375 45.171875 48.140625 41.546875 
Q 48.578125 39.3125 48.578125 33.453125 
L 48.578125 21.734375 
Q 48.578125 9.46875 49.140625 6.21875 
Q 49.703125 2.984375 51.375 0 
L 42.1875 0 
Q 40.828125 2.734375 40.4375 6.390625 
z
M 39.703125 26.03125 
Q 34.90625 24.078125 25.34375 22.703125 
Q 19.921875 21.921875 17.671875 20.9375 
Q 15.4375 19.96875 14.203125 18.09375 
Q 12.984375 16.21875 12.984375 13.921875 
Q 12.984375 10.40625 15.640625 8.0625 
Q 18.3125 5.71875 23.4375 5.71875 
Q 28.515625 5.71875 32.46875 7.9375 
Q 36.421875 10.15625 38.28125 14.015625 
Q 39.703125 17 39.703125 22.796875 
z
" id="ArialMT-97"/>
       <path d="M 6.390625 0 
L 6.390625 71.578125 
L 15.1875 71.578125 
L 15.1875 0 
z
" id="ArialMT-108"/>
       <path d="M 6.640625 61.46875 
L 6.640625 71.578125 
L 15.4375 71.578125 
L 15.4375 61.46875 
z
M 6.640625 0 
L 6.640625 51.859375 
L 15.4375 51.859375 
L 15.4375 0 
z
" id="ArialMT-105"/>
       <path d="M 40.234375 0 
L 40.234375 6.546875 
Q 35.296875 -1.171875 25.734375 -1.171875 
Q 19.53125 -1.171875 14.328125 2.25 
Q 9.125 5.671875 6.265625 11.796875 
Q 3.421875 17.921875 3.421875 25.875 
Q 3.421875 33.640625 6 39.96875 
Q 8.59375 46.296875 13.765625 49.65625 
Q 18.953125 53.03125 25.34375 53.03125 
Q 30.03125 53.03125 33.6875 51.046875 
Q 37.359375 49.078125 39.65625 45.90625 
L 39.65625 71.578125 
L 48.390625 71.578125 
L 48.390625 0 
z
M 12.453125 25.875 
Q 12.453125 15.921875 16.640625 10.984375 
Q 20.84375 6.0625 26.5625 6.0625 
Q 32.328125 6.0625 36.34375 10.765625 
Q 40.375 15.484375 40.375 25.140625 
Q 40.375 35.796875 36.265625 40.765625 
Q 32.171875 45.75 26.171875 45.75 
Q 20.3125 45.75 16.375 40.96875 
Q 12.453125 36.1875 12.453125 25.875 
z
" id="ArialMT-100"/>
       <path d="M 25.78125 7.859375 
L 27.046875 0.09375 
Q 23.34375 -0.6875 20.40625 -0.6875 
Q 15.625 -0.6875 12.984375 0.828125 
Q 10.359375 2.34375 9.28125 4.8125 
Q 8.203125 7.28125 8.203125 15.1875 
L 8.203125 45.015625 
L 1.765625 45.015625 
L 1.765625 51.859375 
L 8.203125 51.859375 
L 8.203125 64.703125 
L 16.9375 69.96875 
L 16.9375 51.859375 
L 25.78125 51.859375 
L 25.78125 45.015625 
L 16.9375 45.015625 
L 16.9375 14.703125 
Q 16.9375 10.9375 17.40625 9.859375 
Q 17.875 8.796875 18.921875 8.15625 
Q 19.96875 7.515625 21.921875 7.515625 
Q 23.390625 7.515625 25.78125 7.859375 
z
" id="ArialMT-116"/>
       <path d="M 6.59375 0 
L 6.59375 51.859375 
L 14.5 51.859375 
L 14.5 44.484375 
Q 20.21875 53.03125 31 53.03125 
Q 35.6875 53.03125 39.625 51.34375 
Q 43.5625 49.65625 45.515625 46.921875 
Q 47.46875 44.1875 48.25 40.4375 
Q 48.734375 37.984375 48.734375 31.890625 
L 48.734375 0 
L 39.9375 0 
L 39.9375 31.546875 
Q 39.9375 36.921875 38.90625 39.578125 
Q 37.890625 42.234375 35.28125 43.8125 
Q 32.671875 45.40625 29.15625 45.40625 
Q 23.53125 45.40625 19.453125 41.84375 
Q 15.375 38.28125 15.375 28.328125 
L 15.375 0 
z
" id="ArialMT-110"/>
       <path id="ArialMT-32"/>
       <path d="M -0.140625 0 
L 27.34375 71.578125 
L 37.546875 71.578125 
L 66.84375 0 
L 56.0625 0 
L 47.703125 21.6875 
L 17.78125 21.6875 
L 9.90625 0 
z
M 20.515625 29.390625 
L 44.78125 29.390625 
L 37.3125 49.21875 
Q 33.890625 58.25 32.234375 64.0625 
Q 30.859375 57.171875 28.375 50.390625 
z
" id="ArialMT-65"/>
       <path d="M 40.578125 0 
L 40.578125 7.625 
Q 34.515625 -1.171875 24.125 -1.171875 
Q 19.53125 -1.171875 15.546875 0.578125 
Q 11.578125 2.34375 9.640625 5 
Q 7.71875 7.671875 6.9375 11.53125 
Q 6.390625 14.109375 6.390625 19.734375 
L 6.390625 51.859375 
L 15.1875 51.859375 
L 15.1875 23.09375 
Q 15.1875 16.21875 15.71875 13.8125 
Q 16.546875 10.359375 19.234375 8.375 
Q 21.921875 6.390625 25.875 6.390625 
Q 29.828125 6.390625 33.296875 8.421875 
Q 36.765625 10.453125 38.203125 13.9375 
Q 39.65625 17.4375 39.65625 24.078125 
L 39.65625 51.859375 
L 48.4375 51.859375 
L 48.4375 0 
z
" id="ArialMT-117"/>
       <path d="M 6.5 0 
L 6.5 51.859375 
L 14.40625 51.859375 
L 14.40625 44 
Q 17.4375 49.515625 20 51.265625 
Q 22.5625 53.03125 25.640625 53.03125 
Q 30.078125 53.03125 34.671875 50.203125 
L 31.640625 42.046875 
Q 28.421875 43.953125 25.203125 43.953125 
Q 22.3125 43.953125 20.015625 42.21875 
Q 17.71875 40.484375 16.75 37.40625 
Q 15.28125 32.71875 15.28125 27.15625 
L 15.28125 0 
z
" id="ArialMT-114"/>
       <path d="M 6.203125 -19.96875 
L 5.21875 -11.71875 
Q 8.109375 -12.5 10.25 -12.5 
Q 13.1875 -12.5 14.9375 -11.515625 
Q 16.703125 -10.546875 17.828125 -8.796875 
Q 18.65625 -7.46875 20.515625 -2.25 
Q 20.75 -1.515625 21.296875 -0.09375 
L 1.609375 51.859375 
L 11.078125 51.859375 
L 21.875 21.828125 
Q 23.96875 16.109375 25.640625 9.8125 
Q 27.15625 15.875 29.25 21.625 
L 40.328125 51.859375 
L 49.125 51.859375 
L 29.390625 -0.875 
Q 26.21875 -9.421875 24.46875 -12.640625 
Q 22.125 -17 19.09375 -19.015625 
Q 16.0625 -21.046875 11.859375 -21.046875 
Q 9.328125 -21.046875 6.203125 -19.96875 
z
" id="ArialMT-121"/>
      </defs>
      <use xlink:href="#ArialMT-86"/>
      <use x="59.324219" xlink:href="#ArialMT-97"/>
      <use x="114.939453" xlink:href="#ArialMT-108"/>
      <use x="137.15625" xlink:href="#ArialMT-105"/>
      <use x="159.373047" xlink:href="#ArialMT-100"/>
      <use x="214.988281" xlink:href="#ArialMT-97"/>
      <use x="270.603516" xlink:href="#ArialMT-116"/>
      <use x="298.386719" xlink:href="#ArialMT-105"/>
      <use x="320.603516" xlink:href="#ArialMT-111"/>
      <use x="376.21875" xlink:href="#ArialMT-110"/>
      <use x="431.833984" xlink:href="#ArialMT-32"/>
      <use x="454.117188" xlink:href="#ArialMT-65"/>
      <use x="520.816406" xlink:href="#ArialMT-99"/>
      <use x="570.816406" xlink:href="#ArialMT-99"/>
      <use x="620.816406" xlink:href="#ArialMT-117"/>
      <use x="676.431641" xlink:href="#ArialMT-114"/>
      <use x="709.732422" xlink:href="#ArialMT-97"/>
      <use x="765.347656" xlink:href="#ArialMT-99"/>
      <use x="815.347656" xlink:href="#ArialMT-121"/>
     </g>
    </g>
   </g>
   <g id="PolyCollection_1">
    <defs>
     <path d="M 230.727273 -560.873687 
L 230.727273 -508.16291 
L 243.903188 -571.988829 
L 257.079103 -613.573411 
L 270.255018 -644.151042 
L 283.430933 -662.249509 
L 296.606848 -660.293399 
L 309.782763 -679.156769 
L 322.958678 -684.679424 
L 336.134593 -688.337768 
L 349.310508 -689.820069 
L 362.486423 -692.5404 
L 375.662338 -699.144636 
L 388.838253 -700.835186 
L 402.014168 -699.724123 
L 415.190083 -704.555451 
L 428.365998 -699.250133 
L 441.541913 -702.135983 
L 454.717828 -703.921071 
L 467.893743 -700.158717 
L 481.069658 -706.345551 
L 494.245573 -706.902503 
L 507.421488 -707.245485 
L 520.597403 -708.926957 
L 533.773318 -705.958317 
L 546.949233 -707.624775 
L 560.125148 -707.610388 
L 573.301063 -707.098041 
L 586.476978 -704.832909 
L 599.652893 -707.384839 
L 612.828808 -706.169234 
L 626.004723 -706.334273 
L 639.180638 -703.349008 
L 652.356553 -706.462048 
L 665.532468 -704.020386 
L 678.708383 -706.79079 
L 691.884298 -706.701311 
L 705.060213 -707.666313 
L 718.236128 -705.755348 
L 731.412043 -712.094435 
L 744.587957 -705.963815 
L 757.763872 -719.240296 
L 770.939787 -714.89487 
L 784.115702 -708.422845 
L 797.291617 -706.11054 
L 797.291617 -720.089384 
L 797.291617 -720.089384 
L 784.115702 -719.086658 
L 770.939787 -719.349682 
L 757.763872 -721.365149 
L 744.587957 -720.844116 
L 731.412043 -720.746967 
L 718.236128 -721.641912 
L 705.060213 -721.751462 
L 691.884298 -724.269256 
L 678.708383 -723.992698 
L 665.532468 -722.206264 
L 652.356553 -713.75116 
L 639.180638 -718.868663 
L 626.004723 -719.090577 
L 612.828808 -717.972743 
L 599.652893 -718.230434 
L 586.476978 -719.449378 
L 573.301063 -716.693145 
L 560.125148 -720.398009 
L 546.949233 -719.385834 
L 533.773318 -716.437547 
L 520.597403 -715.526828 
L 507.421488 -717.121003 
L 494.245573 -716.453728 
L 481.069658 -717.066811 
L 467.893743 -710.906061 
L 454.717828 -715.337998 
L 441.541913 -712.46468 
L 428.365998 -712.488129 
L 415.190083 -715.040376 
L 402.014168 -709.320124 
L 388.838253 -711.352089 
L 375.662338 -708.159731 
L 362.486423 -708.028929 
L 349.310508 -703.901953 
L 336.134593 -706.506759 
L 322.958678 -700.736044 
L 309.782763 -698.457258 
L 296.606848 -697.452251 
L 283.430933 -687.806956 
L 270.255018 -674.194575 
L 257.079103 -652.912334 
L 243.903188 -626.529055 
L 230.727273 -560.873687 
z
" id="m09d8a5b967" style="stroke:#f7b89c;stroke-opacity:0.2;"/>
    </defs>
    <g clip-path="url(#p78457ff47d)">
     <use style="fill:#f7b89c;fill-opacity:0.2;stroke:#f7b89c;stroke-opacity:0.2;" x="0" xlink:href="#m09d8a5b967" y="864"/>
    </g>
   </g>
   <g id="PolyCollection_2">
    <defs>
     <path d="M 230.727273 -271.206017 
L 230.727273 -271.206017 
L 243.903188 -156.990845 
L 257.079103 -127.24439 
L 270.255018 -125.28 
L 283.430933 -126.121882 
L 296.606848 -126.402508 
L 309.782763 -135.38257 
L 322.958678 -154.465206 
L 336.134593 -187.859816 
L 349.310508 -230.795738 
L 362.486423 -282.711723 
L 375.662338 -325.647665 
L 388.838253 -363.812919 
L 402.014168 -418.535166 
L 415.190083 -459.787358 
L 428.365998 -516.754611 
L 441.541913 -530.224724 
L 454.717828 -571.476877 
L 467.893743 -587.191976 
L 481.069658 -645.28178 
L 494.245573 -653.13933 
L 507.421488 -635.740442 
L 520.597403 -649.771792 
L 533.773318 -670.257559 
L 546.949233 -675.870122 
L 560.125148 -670.538217 
L 573.301063 -682.885778 
L 586.476978 -687.937065 
L 599.652893 -687.09521 
L 612.828808 -690.462709 
L 626.004723 -688.217683 
L 639.180638 -686.533934 
L 652.356553 -686.253316 
L 665.532468 -695.794614 
L 678.708383 -687.09521 
L 691.884298 -692.707734 
L 705.060213 -675.308847 
L 718.236128 -667.731916 
L 731.412043 -649.210555 
L 744.587957 -675.589504 
L 757.763872 -688.778959 
L 770.939787 -674.186334 
L 784.115702 -654.823079 
L 797.291617 -681.763265 
L 797.291617 -681.763265 
L 797.291617 -681.763265 
L 784.115702 -654.823079 
L 770.939787 -674.186334 
L 757.763872 -688.778959 
L 744.587957 -675.589504 
L 731.412043 -649.210555 
L 718.236128 -667.731916 
L 705.060213 -675.308847 
L 691.884298 -692.707734 
L 678.708383 -687.09521 
L 665.532468 -695.794614 
L 652.356553 -686.253316 
L 639.180638 -686.533934 
L 626.004723 -688.217683 
L 612.828808 -690.462709 
L 599.652893 -687.09521 
L 586.476978 -687.937065 
L 573.301063 -682.885778 
L 560.125148 -670.538217 
L 546.949233 -675.870122 
L 533.773318 -670.257559 
L 520.597403 -649.771792 
L 507.421488 -635.740442 
L 494.245573 -653.13933 
L 481.069658 -645.28178 
L 467.893743 -587.191976 
L 454.717828 -571.476877 
L 441.541913 -530.224724 
L 428.365998 -516.754611 
L 415.190083 -459.787358 
L 402.014168 -418.535166 
L 388.838253 -363.812919 
L 375.662338 -325.647665 
L 362.486423 -282.711723 
L 349.310508 -230.795738 
L 336.134593 -187.859816 
L 322.958678 -154.465206 
L 309.782763 -135.38257 
L 296.606848 -126.402508 
L 283.430933 -126.121882 
L 270.255018 -125.28 
L 257.079103 -127.24439 
L 243.903188 -156.990845 
L 230.727273 -271.206017 
z
" id="m57814ab3b3" style="stroke:#f7b89c;stroke-opacity:0.2;"/>
    </defs>
    <g clip-path="url(#p78457ff47d)">
     <use style="fill:#f7b89c;fill-opacity:0.2;stroke:#f7b89c;stroke-opacity:0.2;" x="0" xlink:href="#m57814ab3b3" y="864"/>
    </g>
   </g>
   <g id="PolyCollection_3">
    <defs>
     <path d="M 230.727273 -496.177734 
L 230.727273 -474.358815 
L 243.903188 -561.6634 
L 257.079103 -619.783934 
L 270.255018 -644.34138 
L 283.430933 -654.471732 
L 296.606848 -664.959311 
L 309.782763 -679.703389 
L 322.958678 -687.213616 
L 336.134593 -687.005138 
L 349.310508 -694.273005 
L 362.486423 -695.676024 
L 375.662338 -695.186858 
L 388.838253 -699.905233 
L 402.014168 -701.246474 
L 415.190083 -703.543481 
L 428.365998 -703.862426 
L 441.541913 -708.153368 
L 454.717828 -709.309593 
L 467.893743 -710.561357 
L 481.069658 -710.306436 
L 494.245573 -710.310747 
L 507.421488 -712.017316 
L 520.597403 -712.635567 
L 533.773318 -713.272647 
L 546.949233 -713.233294 
L 560.125148 -715.150842 
L 573.301063 -717.44265 
L 586.476978 -717.018196 
L 599.652893 -716.84344 
L 612.828808 -713.803611 
L 626.004723 -713.892912 
L 639.180638 -715.211193 
L 652.356553 -719.592791 
L 665.532468 -717.227795 
L 678.708383 -720.260798 
L 691.884298 -719.169288 
L 705.060213 -723.824209 
L 718.236128 -720.294369 
L 731.412043 -721.542984 
L 744.587957 -715.987917 
L 757.763872 -722.209976 
L 770.939787 -720.488027 
L 784.115702 -722.277095 
L 797.291617 -723.648363 
L 810.467532 -719.746308 
L 823.643447 -721.224259 
L 836.819362 -726.988859 
L 849.995277 -727.834273 
L 863.171192 -726.992371 
L 863.171192 -728.579843 
L 863.171192 -728.579843 
L 849.995277 -729.421691 
L 836.819362 -730.08 
L 823.643447 -728.174136 
L 810.467532 -729.652106 
L 797.291617 -727.527366 
L 784.115702 -728.52445 
L 770.939787 -727.413691 
L 757.763872 -726.065926 
L 744.587957 -728.546289 
L 731.412043 -728.603772 
L 718.236128 -727.019384 
L 705.060213 -729.663339 
L 691.884298 -728.10883 
L 678.708383 -727.516222 
L 665.532468 -726.308631 
L 652.356553 -725.939205 
L 639.180638 -726.080224 
L 626.004723 -723.968604 
L 612.828808 -723.309563 
L 599.652893 -725.13396 
L 586.476978 -725.582817 
L 573.301063 -723.84875 
L 560.125148 -726.015839 
L 546.949233 -720.450014 
L 533.773318 -722.543431 
L 520.597403 -722.899861 
L 507.421488 -720.262845 
L 494.245573 -719.275399 
L 481.069658 -717.146933 
L 467.893743 -718.688032 
L 454.717828 -716.235516 
L 441.541913 -717.896878 
L 428.365998 -714.835391 
L 415.190083 -716.725846 
L 402.014168 -711.165311 
L 388.838253 -708.577769 
L 375.662338 -709.198983 
L 362.486423 -707.587304 
L 349.310508 -703.265544 
L 336.134593 -699.532826 
L 322.958678 -693.431191 
L 309.782763 -689.042839 
L 296.606848 -678.530495 
L 283.430933 -668.925165 
L 270.255018 -652.508213 
L 257.079103 -634.522605 
L 243.903188 -584.545629 
L 230.727273 -496.177734 
z
" id="m9ff06117d2" style="stroke:#aac7fd;stroke-opacity:0.2;"/>
    </defs>
    <g clip-path="url(#p78457ff47d)">
     <use style="fill:#aac7fd;fill-opacity:0.2;stroke:#aac7fd;stroke-opacity:0.2;" x="0" xlink:href="#m9ff06117d2" y="864"/>
    </g>
   </g>
   <g id="PolyCollection_4">
    <defs>
     <path d="M 230.727273 -179.565302 
L 230.727273 -153.106149 
L 243.903188 -147.877232 
L 257.079103 -171.989692 
L 270.255018 -260.808687 
L 283.430933 -361.551637 
L 296.606848 -459.441096 
L 309.782763 -505.606947 
L 322.958678 -545.851524 
L 336.134593 -582.623837 
L 349.310508 -581.042048 
L 362.486423 -592.921201 
L 375.662338 -613.274799 
L 388.838253 -621.850976 
L 402.014168 -620.87551 
L 415.190083 -635.619896 
L 428.365998 -641.990607 
L 441.541913 -647.251224 
L 454.717828 -658.198711 
L 467.893743 -655.312785 
L 481.069658 -664.510908 
L 494.245573 -670.242359 
L 507.421488 -667.843548 
L 520.597403 -678.877803 
L 533.773318 -678.348761 
L 546.949233 -682.64394 
L 560.125148 -691.712147 
L 573.301063 -686.551142 
L 586.476978 -686.428562 
L 599.652893 -688.041989 
L 612.828808 -691.483848 
L 626.004723 -695.696574 
L 639.180638 -696.695952 
L 652.356553 -697.221564 
L 665.532468 -695.702011 
L 678.708383 -701.710709 
L 691.884298 -698.012484 
L 705.060213 -697.497028 
L 718.236128 -699.353259 
L 731.412043 -700.693222 
L 744.587957 -698.566557 
L 757.763872 -707.609001 
L 770.939787 -708.835461 
L 784.115702 -708.659299 
L 797.291617 -710.712139 
L 810.467532 -711.299351 
L 823.643447 -706.565412 
L 836.819362 -712.212228 
L 849.995277 -707.116895 
L 863.171192 -706.372608 
L 876.347107 -707.1343 
L 889.523022 -707.43923 
L 902.698937 -712.447262 
L 915.874852 -710.673058 
L 929.050767 -711.113282 
L 942.226682 -709.759336 
L 955.402597 -720.099404 
L 968.578512 -711.219732 
L 981.754427 -713.461837 
L 994.930342 -717.538146 
L 1008.106257 -716.848351 
L 1021.282172 -710.085739 
L 1034.458087 -709.955413 
L 1047.634002 -717.347842 
L 1060.809917 -711.476478 
L 1073.985832 -719.124842 
L 1087.161747 -714.314286 
L 1087.161747 -725.823448 
L 1087.161747 -725.823448 
L 1073.985832 -722.696641 
L 1060.809917 -719.400556 
L 1047.634002 -721.246432 
L 1034.458087 -725.832579 
L 1021.282172 -724.018504 
L 1008.106257 -720.76372 
L 994.930342 -724.002719 
L 981.754427 -724.290543 
L 968.578512 -721.790083 
L 955.402597 -722.002714 
L 942.226682 -718.76043 
L 929.050767 -725.282756 
L 915.874852 -720.765221 
L 902.698937 -717.387439 
L 889.523022 -720.310821 
L 876.347107 -721.708183 
L 863.171192 -721.136888 
L 849.995277 -718.584126 
L 836.819362 -718.041186 
L 823.643447 -719.883942 
L 810.467532 -718.081001 
L 797.291617 -720.351976 
L 784.115702 -719.099642 
L 770.939787 -715.680692 
L 757.763872 -714.973942 
L 744.587957 -717.886243 
L 731.412043 -711.830803 
L 718.236128 -711.430877 
L 705.060213 -709.638944 
L 691.884298 -712.940039 
L 678.708383 -712.833838 
L 665.532468 -710.086985 
L 652.356553 -709.8583 
L 639.180638 -706.174511 
L 626.004723 -704.255364 
L 612.828808 -710.432489 
L 599.652893 -700.572614 
L 586.476978 -700.221658 
L 573.301063 -698.415313 
L 560.125148 -701.336368 
L 546.949233 -695.419091 
L 533.773318 -696.346756 
L 520.597403 -692.39406 
L 507.421488 -687.48869 
L 494.245573 -684.191885 
L 481.069658 -679.989141 
L 467.893743 -679.47757 
L 454.717828 -671.42811 
L 441.541913 -667.839126 
L 428.365998 -662.211414 
L 415.190083 -659.489808 
L 402.014168 -643.084591 
L 388.838253 -638.180358 
L 375.662338 -631.378171 
L 362.486423 -619.796419 
L 349.310508 -611.021441 
L 336.134593 -596.586924 
L 322.958678 -587.560916 
L 309.782763 -543.50515 
L 296.606848 -506.044173 
L 283.430933 -436.062568 
L 270.255018 -318.028744 
L 257.079103 -238.527681 
L 243.903188 -176.880542 
L 230.727273 -179.565302 
z
" id="m1581984681" style="stroke:#aac7fd;stroke-opacity:0.2;"/>
    </defs>
    <g clip-path="url(#p78457ff47d)">
     <use style="fill:#aac7fd;fill-opacity:0.2;stroke:#aac7fd;stroke-opacity:0.2;" x="0" xlink:href="#m1581984681" y="864"/>
    </g>
   </g>
   <g id="line2d_15">
    <path clip-path="url(#p78457ff47d)" d="M 230.727273 329.481702 
L 243.903188 264.741058 
L 257.079103 230.757128 
L 270.255018 204.827191 
L 283.430933 188.971768 
L 296.606848 185.127175 
L 309.782763 175.192987 
L 322.958678 171.292266 
L 336.134593 166.577736 
L 349.310508 167.138989 
L 362.486423 163.715335 
L 375.662338 160.347817 
L 388.838253 157.906363 
L 402.014168 159.477876 
L 415.190083 154.202086 
L 428.365998 158.130869 
L 441.541913 156.699668 
L 454.717828 154.370465 
L 467.893743 158.467611 
L 481.069658 152.293819 
L 494.245573 152.321885 
L 507.421488 151.816756 
L 520.597403 151.773108 
L 533.773318 152.802068 
L 546.949233 150.494696 
L 560.125148 149.995801 
L 573.301063 152.104407 
L 586.476978 151.858856 
L 599.652893 151.192363 
L 612.828808 151.929011 
L 626.004723 151.287575 
L 639.180638 152.891165 
L 652.356553 153.893396 
L 665.532468 150.886675 
L 678.708383 148.608256 
L 691.884298 148.514716 
L 705.060213 149.291112 
L 718.236128 150.30137 
L 731.412043 147.579299 
L 744.587957 150.596035 
L 757.763872 143.697278 
L 770.939787 146.877724 
L 784.115702 150.245249 
L 797.291617 150.900038 
L 810.467532 139.86203 
" style="fill:none;stroke:#f7b89c;stroke-linecap:round;stroke-width:3;"/>
    <defs>
     <path d="M 0 3 
C 0.795609 3 1.55874 2.683901 2.12132 2.12132 
C 2.683901 1.55874 3 0.795609 3 0 
C 3 -0.795609 2.683901 -1.55874 2.12132 -2.12132 
C 1.55874 -2.683901 0.795609 -3 0 -3 
C -0.795609 -3 -1.55874 -2.683901 -2.12132 -2.12132 
C -2.683901 -1.55874 -3 -0.795609 -3 0 
C -3 0.795609 -2.683901 1.55874 -2.12132 2.12132 
C -1.55874 2.683901 -0.795609 3 0 3 
z
" id="m745dfac205"/>
    </defs>
    <g clip-path="url(#p78457ff47d)">
     <use style="fill:#f7b89c;" x="230.727273" xlink:href="#m745dfac205" y="329.481702"/>
     <use style="fill:#f7b89c;" x="243.903188" xlink:href="#m745dfac205" y="264.741058"/>
     <use style="fill:#f7b89c;" x="257.079103" xlink:href="#m745dfac205" y="230.757128"/>
     <use style="fill:#f7b89c;" x="270.255018" xlink:href="#m745dfac205" y="204.827191"/>
     <use style="fill:#f7b89c;" x="283.430933" xlink:href="#m745dfac205" y="188.971768"/>
     <use style="fill:#f7b89c;" x="296.606848" xlink:href="#m745dfac205" y="185.127175"/>
     <use style="fill:#f7b89c;" x="309.782763" xlink:href="#m745dfac205" y="175.192987"/>
     <use style="fill:#f7b89c;" x="322.958678" xlink:href="#m745dfac205" y="171.292266"/>
     <use style="fill:#f7b89c;" x="336.134593" xlink:href="#m745dfac205" y="166.577736"/>
     <use style="fill:#f7b89c;" x="349.310508" xlink:href="#m745dfac205" y="167.138989"/>
     <use style="fill:#f7b89c;" x="362.486423" xlink:href="#m745dfac205" y="163.715335"/>
     <use style="fill:#f7b89c;" x="375.662338" xlink:href="#m745dfac205" y="160.347817"/>
     <use style="fill:#f7b89c;" x="388.838253" xlink:href="#m745dfac205" y="157.906363"/>
     <use style="fill:#f7b89c;" x="402.014168" xlink:href="#m745dfac205" y="159.477876"/>
     <use style="fill:#f7b89c;" x="415.190083" xlink:href="#m745dfac205" y="154.202086"/>
     <use style="fill:#f7b89c;" x="428.365998" xlink:href="#m745dfac205" y="158.130869"/>
     <use style="fill:#f7b89c;" x="441.541913" xlink:href="#m745dfac205" y="156.699668"/>
     <use style="fill:#f7b89c;" x="454.717828" xlink:href="#m745dfac205" y="154.370465"/>
     <use style="fill:#f7b89c;" x="467.893743" xlink:href="#m745dfac205" y="158.467611"/>
     <use style="fill:#f7b89c;" x="481.069658" xlink:href="#m745dfac205" y="152.293819"/>
     <use style="fill:#f7b89c;" x="494.245573" xlink:href="#m745dfac205" y="152.321885"/>
     <use style="fill:#f7b89c;" x="507.421488" xlink:href="#m745dfac205" y="151.816756"/>
     <use style="fill:#f7b89c;" x="520.597403" xlink:href="#m745dfac205" y="151.773108"/>
     <use style="fill:#f7b89c;" x="533.773318" xlink:href="#m745dfac205" y="152.802068"/>
     <use style="fill:#f7b89c;" x="546.949233" xlink:href="#m745dfac205" y="150.494696"/>
     <use style="fill:#f7b89c;" x="560.125148" xlink:href="#m745dfac205" y="149.995801"/>
     <use style="fill:#f7b89c;" x="573.301063" xlink:href="#m745dfac205" y="152.104407"/>
     <use style="fill:#f7b89c;" x="586.476978" xlink:href="#m745dfac205" y="151.858856"/>
     <use style="fill:#f7b89c;" x="599.652893" xlink:href="#m745dfac205" y="151.192363"/>
     <use style="fill:#f7b89c;" x="612.828808" xlink:href="#m745dfac205" y="151.929011"/>
     <use style="fill:#f7b89c;" x="626.004723" xlink:href="#m745dfac205" y="151.287575"/>
     <use style="fill:#f7b89c;" x="639.180638" xlink:href="#m745dfac205" y="152.891165"/>
     <use style="fill:#f7b89c;" x="652.356553" xlink:href="#m745dfac205" y="153.893396"/>
     <use style="fill:#f7b89c;" x="665.532468" xlink:href="#m745dfac205" y="150.886675"/>
     <use style="fill:#f7b89c;" x="678.708383" xlink:href="#m745dfac205" y="148.608256"/>
     <use style="fill:#f7b89c;" x="691.884298" xlink:href="#m745dfac205" y="148.514716"/>
     <use style="fill:#f7b89c;" x="705.060213" xlink:href="#m745dfac205" y="149.291112"/>
     <use style="fill:#f7b89c;" x="718.236128" xlink:href="#m745dfac205" y="150.30137"/>
     <use style="fill:#f7b89c;" x="731.412043" xlink:href="#m745dfac205" y="147.579299"/>
     <use style="fill:#f7b89c;" x="744.587957" xlink:href="#m745dfac205" y="150.596035"/>
     <use style="fill:#f7b89c;" x="757.763872" xlink:href="#m745dfac205" y="143.697278"/>
     <use style="fill:#f7b89c;" x="770.939787" xlink:href="#m745dfac205" y="146.877724"/>
     <use style="fill:#f7b89c;" x="784.115702" xlink:href="#m745dfac205" y="150.245249"/>
     <use style="fill:#f7b89c;" x="797.291617" xlink:href="#m745dfac205" y="150.900038"/>
     <use style="fill:#f7b89c;" x="810.467532" xlink:href="#m745dfac205" y="139.86203"/>
    </g>
   </g>
   <g id="line2d_16">
    <path clip-path="url(#p78457ff47d)" d="M 230.727273 592.793983 
L 243.903188 707.009155 
L 257.079103 736.75561 
L 270.255018 738.72 
L 283.430933 737.878118 
L 296.606848 737.597492 
L 309.782763 728.61743 
L 322.958678 709.534794 
L 336.134593 676.140184 
L 349.310508 633.204262 
L 362.486423 581.288277 
L 375.662338 538.352335 
L 388.838253 500.187081 
L 402.014168 445.464834 
L 415.190083 404.212642 
L 428.365998 347.245389 
L 441.541913 333.775276 
L 454.717828 292.523123 
L 467.893743 276.808024 
L 481.069658 218.71822 
L 494.245573 210.86067 
L 507.421488 228.259558 
L 520.597403 214.228208 
L 533.773318 193.742441 
L 546.949233 188.129878 
L 560.125148 193.461783 
L 573.301063 181.114222 
L 586.476978 176.062935 
L 599.652893 176.90479 
L 612.828808 173.537291 
L 626.004723 175.782317 
L 639.180638 177.466066 
L 652.356553 177.746684 
L 665.532468 168.205386 
L 678.708383 176.90479 
L 691.884298 171.292266 
L 705.060213 188.691153 
L 718.236128 196.268084 
L 731.412043 214.789445 
L 744.587957 188.410496 
L 757.763872 175.221041 
L 770.939787 189.813666 
L 784.115702 209.176921 
L 797.291617 182.236735 
" style="fill:none;stroke:#f7b89c;stroke-dasharray:12,4.5;stroke-dashoffset:0;stroke-width:3;"/>
    <defs>
     <path d="M -1.5 3 
L 0 1.5 
L 1.5 3 
L 3 1.5 
L 1.5 0 
L 3 -1.5 
L 1.5 -3 
L 0 -1.5 
L -1.5 -3 
L -3 -1.5 
L -1.5 0 
L -3 1.5 
z
" id="mc8aeb34239"/>
    </defs>
    <g clip-path="url(#p78457ff47d)">
     <use style="fill:#f7b89c;" x="230.727273" xlink:href="#mc8aeb34239" y="592.793983"/>
     <use style="fill:#f7b89c;" x="243.903188" xlink:href="#mc8aeb34239" y="707.009155"/>
     <use style="fill:#f7b89c;" x="257.079103" xlink:href="#mc8aeb34239" y="736.75561"/>
     <use style="fill:#f7b89c;" x="270.255018" xlink:href="#mc8aeb34239" y="738.72"/>
     <use style="fill:#f7b89c;" x="283.430933" xlink:href="#mc8aeb34239" y="737.878118"/>
     <use style="fill:#f7b89c;" x="296.606848" xlink:href="#mc8aeb34239" y="737.597492"/>
     <use style="fill:#f7b89c;" x="309.782763" xlink:href="#mc8aeb34239" y="728.61743"/>
     <use style="fill:#f7b89c;" x="322.958678" xlink:href="#mc8aeb34239" y="709.534794"/>
     <use style="fill:#f7b89c;" x="336.134593" xlink:href="#mc8aeb34239" y="676.140184"/>
     <use style="fill:#f7b89c;" x="349.310508" xlink:href="#mc8aeb34239" y="633.204262"/>
     <use style="fill:#f7b89c;" x="362.486423" xlink:href="#mc8aeb34239" y="581.288277"/>
     <use style="fill:#f7b89c;" x="375.662338" xlink:href="#mc8aeb34239" y="538.352335"/>
     <use style="fill:#f7b89c;" x="388.838253" xlink:href="#mc8aeb34239" y="500.187081"/>
     <use style="fill:#f7b89c;" x="402.014168" xlink:href="#mc8aeb34239" y="445.464834"/>
     <use style="fill:#f7b89c;" x="415.190083" xlink:href="#mc8aeb34239" y="404.212642"/>
     <use style="fill:#f7b89c;" x="428.365998" xlink:href="#mc8aeb34239" y="347.245389"/>
     <use style="fill:#f7b89c;" x="441.541913" xlink:href="#mc8aeb34239" y="333.775276"/>
     <use style="fill:#f7b89c;" x="454.717828" xlink:href="#mc8aeb34239" y="292.523123"/>
     <use style="fill:#f7b89c;" x="467.893743" xlink:href="#mc8aeb34239" y="276.808024"/>
     <use style="fill:#f7b89c;" x="481.069658" xlink:href="#mc8aeb34239" y="218.71822"/>
     <use style="fill:#f7b89c;" x="494.245573" xlink:href="#mc8aeb34239" y="210.86067"/>
     <use style="fill:#f7b89c;" x="507.421488" xlink:href="#mc8aeb34239" y="228.259558"/>
     <use style="fill:#f7b89c;" x="520.597403" xlink:href="#mc8aeb34239" y="214.228208"/>
     <use style="fill:#f7b89c;" x="533.773318" xlink:href="#mc8aeb34239" y="193.742441"/>
     <use style="fill:#f7b89c;" x="546.949233" xlink:href="#mc8aeb34239" y="188.129878"/>
     <use style="fill:#f7b89c;" x="560.125148" xlink:href="#mc8aeb34239" y="193.461783"/>
     <use style="fill:#f7b89c;" x="573.301063" xlink:href="#mc8aeb34239" y="181.114222"/>
     <use style="fill:#f7b89c;" x="586.476978" xlink:href="#mc8aeb34239" y="176.062935"/>
     <use style="fill:#f7b89c;" x="599.652893" xlink:href="#mc8aeb34239" y="176.90479"/>
     <use style="fill:#f7b89c;" x="612.828808" xlink:href="#mc8aeb34239" y="173.537291"/>
     <use style="fill:#f7b89c;" x="626.004723" xlink:href="#mc8aeb34239" y="175.782317"/>
     <use style="fill:#f7b89c;" x="639.180638" xlink:href="#mc8aeb34239" y="177.466066"/>
     <use style="fill:#f7b89c;" x="652.356553" xlink:href="#mc8aeb34239" y="177.746684"/>
     <use style="fill:#f7b89c;" x="665.532468" xlink:href="#mc8aeb34239" y="168.205386"/>
     <use style="fill:#f7b89c;" x="678.708383" xlink:href="#mc8aeb34239" y="176.90479"/>
     <use style="fill:#f7b89c;" x="691.884298" xlink:href="#mc8aeb34239" y="171.292266"/>
     <use style="fill:#f7b89c;" x="705.060213" xlink:href="#mc8aeb34239" y="188.691153"/>
     <use style="fill:#f7b89c;" x="718.236128" xlink:href="#mc8aeb34239" y="196.268084"/>
     <use style="fill:#f7b89c;" x="731.412043" xlink:href="#mc8aeb34239" y="214.789445"/>
     <use style="fill:#f7b89c;" x="744.587957" xlink:href="#mc8aeb34239" y="188.410496"/>
     <use style="fill:#f7b89c;" x="757.763872" xlink:href="#mc8aeb34239" y="175.221041"/>
     <use style="fill:#f7b89c;" x="770.939787" xlink:href="#mc8aeb34239" y="189.813666"/>
     <use style="fill:#f7b89c;" x="784.115702" xlink:href="#mc8aeb34239" y="209.176921"/>
     <use style="fill:#f7b89c;" x="797.291617" xlink:href="#mc8aeb34239" y="182.236735"/>
    </g>
   </g>
   <g id="line2d_17">
    <path clip-path="url(#p78457ff47d)" d="M 230.727273 378.731726 
L 243.903188 290.895485 
L 257.079103 236.84673 
L 270.255018 215.575204 
L 283.430933 202.301552 
L 296.606848 192.255097 
L 309.782763 179.626886 
L 322.958678 173.677597 
L 336.134593 170.731018 
L 349.310508 165.230725 
L 362.486423 162.368336 
L 375.662338 161.807079 
L 388.838253 159.758499 
L 402.014168 157.794107 
L 415.190083 153.865337 
L 428.365998 154.651092 
L 441.541913 150.974877 
L 454.717828 151.227446 
L 467.893743 149.375306 
L 481.069658 150.273316 
L 494.245573 149.206927 
L 507.421488 147.859919 
L 520.597403 146.232286 
L 533.773318 146.091961 
L 546.949233 147.158346 
L 560.125148 143.416659 
L 573.301063 143.3543 
L 586.476978 142.699493 
L 599.652893 143.0113 
L 612.828808 145.443413 
L 626.004723 145.069242 
L 639.180638 143.354291 
L 652.356553 141.234002 
L 665.532468 142.231787 
L 678.708383 140.11149 
L 691.884298 140.360941 
L 705.060213 137.256226 
L 718.236128 140.343123 
L 731.412043 138.926622 
L 744.587957 141.732897 
L 757.763872 139.862049 
L 770.939787 140.049141 
L 784.115702 138.599227 
L 797.291617 138.412135 
L 810.467532 139.300793 
L 823.643447 139.300803 
L 836.819362 135.465571 
L 849.995277 135.372018 
L 863.171192 136.213893 
L 876.347107 137.336425 
L 889.523022 137.897662 
L 902.698937 136.775149 
L 915.874852 137.336425 
L 929.050767 143.790843 
L 942.226682 137.617043 
L 955.402597 142.107055 
L 968.578512 136.494531 
L 981.754427 136.494531 
" style="fill:none;stroke:#aac7fd;stroke-linecap:round;stroke-width:3;"/>
    <defs>
     <path d="M 0 3 
C 0.795609 3 1.55874 2.683901 2.12132 2.12132 
C 2.683901 1.55874 3 0.795609 3 0 
C 3 -0.795609 2.683901 -1.55874 2.12132 -2.12132 
C 1.55874 -2.683901 0.795609 -3 0 -3 
C -0.795609 -3 -1.55874 -2.683901 -2.12132 -2.12132 
C -2.683901 -1.55874 -3 -0.795609 -3 0 
C -3 0.795609 -2.683901 1.55874 -2.12132 2.12132 
C -1.55874 2.683901 -0.795609 3 0 3 
z
" id="m97cb7c9740"/>
    </defs>
    <g clip-path="url(#p78457ff47d)">
     <use style="fill:#aac7fd;" x="230.727273" xlink:href="#m97cb7c9740" y="378.731726"/>
     <use style="fill:#aac7fd;" x="243.903188" xlink:href="#m97cb7c9740" y="290.895485"/>
     <use style="fill:#aac7fd;" x="257.079103" xlink:href="#m97cb7c9740" y="236.84673"/>
     <use style="fill:#aac7fd;" x="270.255018" xlink:href="#m97cb7c9740" y="215.575204"/>
     <use style="fill:#aac7fd;" x="283.430933" xlink:href="#m97cb7c9740" y="202.301552"/>
     <use style="fill:#aac7fd;" x="296.606848" xlink:href="#m97cb7c9740" y="192.255097"/>
     <use style="fill:#aac7fd;" x="309.782763" xlink:href="#m97cb7c9740" y="179.626886"/>
     <use style="fill:#aac7fd;" x="322.958678" xlink:href="#m97cb7c9740" y="173.677597"/>
     <use style="fill:#aac7fd;" x="336.134593" xlink:href="#m97cb7c9740" y="170.731018"/>
     <use style="fill:#aac7fd;" x="349.310508" xlink:href="#m97cb7c9740" y="165.230725"/>
     <use style="fill:#aac7fd;" x="362.486423" xlink:href="#m97cb7c9740" y="162.368336"/>
     <use style="fill:#aac7fd;" x="375.662338" xlink:href="#m97cb7c9740" y="161.807079"/>
     <use style="fill:#aac7fd;" x="388.838253" xlink:href="#m97cb7c9740" y="159.758499"/>
     <use style="fill:#aac7fd;" x="402.014168" xlink:href="#m97cb7c9740" y="157.794107"/>
     <use style="fill:#aac7fd;" x="415.190083" xlink:href="#m97cb7c9740" y="153.865337"/>
     <use style="fill:#aac7fd;" x="428.365998" xlink:href="#m97cb7c9740" y="154.651092"/>
     <use style="fill:#aac7fd;" x="441.541913" xlink:href="#m97cb7c9740" y="150.974877"/>
     <use style="fill:#aac7fd;" x="454.717828" xlink:href="#m97cb7c9740" y="151.227446"/>
     <use style="fill:#aac7fd;" x="467.893743" xlink:href="#m97cb7c9740" y="149.375306"/>
     <use style="fill:#aac7fd;" x="481.069658" xlink:href="#m97cb7c9740" y="150.273316"/>
     <use style="fill:#aac7fd;" x="494.245573" xlink:href="#m97cb7c9740" y="149.206927"/>
     <use style="fill:#aac7fd;" x="507.421488" xlink:href="#m97cb7c9740" y="147.859919"/>
     <use style="fill:#aac7fd;" x="520.597403" xlink:href="#m97cb7c9740" y="146.232286"/>
     <use style="fill:#aac7fd;" x="533.773318" xlink:href="#m97cb7c9740" y="146.091961"/>
     <use style="fill:#aac7fd;" x="546.949233" xlink:href="#m97cb7c9740" y="147.158346"/>
     <use style="fill:#aac7fd;" x="560.125148" xlink:href="#m97cb7c9740" y="143.416659"/>
     <use style="fill:#aac7fd;" x="573.301063" xlink:href="#m97cb7c9740" y="143.3543"/>
     <use style="fill:#aac7fd;" x="586.476978" xlink:href="#m97cb7c9740" y="142.699493"/>
     <use style="fill:#aac7fd;" x="599.652893" xlink:href="#m97cb7c9740" y="143.0113"/>
     <use style="fill:#aac7fd;" x="612.828808" xlink:href="#m97cb7c9740" y="145.443413"/>
     <use style="fill:#aac7fd;" x="626.004723" xlink:href="#m97cb7c9740" y="145.069242"/>
     <use style="fill:#aac7fd;" x="639.180638" xlink:href="#m97cb7c9740" y="143.354291"/>
     <use style="fill:#aac7fd;" x="652.356553" xlink:href="#m97cb7c9740" y="141.234002"/>
     <use style="fill:#aac7fd;" x="665.532468" xlink:href="#m97cb7c9740" y="142.231787"/>
     <use style="fill:#aac7fd;" x="678.708383" xlink:href="#m97cb7c9740" y="140.11149"/>
     <use style="fill:#aac7fd;" x="691.884298" xlink:href="#m97cb7c9740" y="140.360941"/>
     <use style="fill:#aac7fd;" x="705.060213" xlink:href="#m97cb7c9740" y="137.256226"/>
     <use style="fill:#aac7fd;" x="718.236128" xlink:href="#m97cb7c9740" y="140.343123"/>
     <use style="fill:#aac7fd;" x="731.412043" xlink:href="#m97cb7c9740" y="138.926622"/>
     <use style="fill:#aac7fd;" x="744.587957" xlink:href="#m97cb7c9740" y="141.732897"/>
     <use style="fill:#aac7fd;" x="757.763872" xlink:href="#m97cb7c9740" y="139.862049"/>
     <use style="fill:#aac7fd;" x="770.939787" xlink:href="#m97cb7c9740" y="140.049141"/>
     <use style="fill:#aac7fd;" x="784.115702" xlink:href="#m97cb7c9740" y="138.599227"/>
     <use style="fill:#aac7fd;" x="797.291617" xlink:href="#m97cb7c9740" y="138.412135"/>
     <use style="fill:#aac7fd;" x="810.467532" xlink:href="#m97cb7c9740" y="139.300793"/>
     <use style="fill:#aac7fd;" x="823.643447" xlink:href="#m97cb7c9740" y="139.300803"/>
     <use style="fill:#aac7fd;" x="836.819362" xlink:href="#m97cb7c9740" y="135.465571"/>
     <use style="fill:#aac7fd;" x="849.995277" xlink:href="#m97cb7c9740" y="135.372018"/>
     <use style="fill:#aac7fd;" x="863.171192" xlink:href="#m97cb7c9740" y="136.213893"/>
     <use style="fill:#aac7fd;" x="876.347107" xlink:href="#m97cb7c9740" y="137.336425"/>
     <use style="fill:#aac7fd;" x="889.523022" xlink:href="#m97cb7c9740" y="137.897662"/>
     <use style="fill:#aac7fd;" x="902.698937" xlink:href="#m97cb7c9740" y="136.775149"/>
     <use style="fill:#aac7fd;" x="915.874852" xlink:href="#m97cb7c9740" y="137.336425"/>
     <use style="fill:#aac7fd;" x="929.050767" xlink:href="#m97cb7c9740" y="143.790843"/>
     <use style="fill:#aac7fd;" x="942.226682" xlink:href="#m97cb7c9740" y="137.617043"/>
     <use style="fill:#aac7fd;" x="955.402597" xlink:href="#m97cb7c9740" y="142.107055"/>
     <use style="fill:#aac7fd;" x="968.578512" xlink:href="#m97cb7c9740" y="136.494531"/>
     <use style="fill:#aac7fd;" x="981.754427" xlink:href="#m97cb7c9740" y="136.494531"/>
    </g>
   </g>
   <g id="line2d_18">
    <path clip-path="url(#p78457ff47d)" d="M 230.727273 697.664275 
L 243.903188 701.621113 
L 257.079103 658.741313 
L 270.255018 574.581285 
L 283.430933 465.192897 
L 296.606848 381.257366 
L 309.782763 339.443952 
L 322.958678 297.29378 
L 336.134593 274.39462 
L 349.310508 267.968256 
L 362.486423 257.64119 
L 375.662338 241.673515 
L 388.838253 233.984333 
L 402.014168 232.01995 
L 415.190083 216.445148 
L 428.365998 211.89899 
L 441.541913 206.454825 
L 454.717828 199.18659 
L 467.893743 196.604822 
L 481.069658 191.749976 
L 494.245573 186.782878 
L 507.421488 186.333881 
L 520.597403 178.364068 
L 533.773318 176.652241 
L 546.949233 174.968484 
L 560.125148 167.475743 
L 573.301063 171.516773 
L 586.476978 170.67489 
L 599.652893 169.692698 
L 612.828808 163.041831 
L 626.004723 164.024031 
L 639.180638 162.564768 
L 652.356553 160.460068 
L 665.532468 161.105502 
L 678.708383 156.727726 
L 691.884298 158.523739 
L 705.060213 160.432014 
L 718.236128 158.607932 
L 731.412043 157.737988 
L 744.587957 155.7736 
L 757.763872 152.708528 
L 770.939787 151.741923 
L 784.115702 150.120529 
L 797.291617 148.467942 
L 810.467532 149.309824 
L 823.643447 150.775323 
L 836.819362 148.873293 
L 849.995277 151.14949 
L 863.171192 150.245252 
L 876.347107 149.578759 
L 889.523022 150.124974 
L 902.698937 149.08265 
L 915.874852 148.28086 
L 929.050767 145.801981 
L 942.226682 149.740117 
L 955.402597 142.948941 
L 968.578512 147.495092 
L 981.754427 145.12381 
L 994.930342 143.229567 
L 1008.106257 145.193965 
L 1021.282172 146.947878 
L 1034.458087 146.106004 
L 1047.634002 144.702863 
L 1060.809917 148.561483 
L 1073.985832 143.089258 
L 1087.161747 143.931133 
L 1100.337662 151.648393 
L 1113.513577 136.213912 
L 1126.689492 147.438961 
L 1139.865407 140.142687 
L 1153.041322 141.2652 
L 1166.217237 139.581411 
L 1179.393152 143.510186 
L 1192.569067 139.300793 
L 1205.744982 142.107055 
L 1218.920897 136.494531 
L 1232.096812 144.913317 
L 1245.272727 138.739556 
" style="fill:none;stroke:#aac7fd;stroke-dasharray:12,4.5;stroke-dashoffset:0;stroke-width:3;"/>
    <defs>
     <path d="M -1.5 3 
L 0 1.5 
L 1.5 3 
L 3 1.5 
L 1.5 0 
L 3 -1.5 
L 1.5 -3 
L 0 -1.5 
L -1.5 -3 
L -3 -1.5 
L -1.5 0 
L -3 1.5 
z
" id="mf9ae1cfe39"/>
    </defs>
    <g clip-path="url(#p78457ff47d)">
     <use style="fill:#aac7fd;" x="230.727273" xlink:href="#mf9ae1cfe39" y="697.664275"/>
     <use style="fill:#aac7fd;" x="243.903188" xlink:href="#mf9ae1cfe39" y="701.621113"/>
     <use style="fill:#aac7fd;" x="257.079103" xlink:href="#mf9ae1cfe39" y="658.741313"/>
     <use style="fill:#aac7fd;" x="270.255018" xlink:href="#mf9ae1cfe39" y="574.581285"/>
     <use style="fill:#aac7fd;" x="283.430933" xlink:href="#mf9ae1cfe39" y="465.192897"/>
     <use style="fill:#aac7fd;" x="296.606848" xlink:href="#mf9ae1cfe39" y="381.257366"/>
     <use style="fill:#aac7fd;" x="309.782763" xlink:href="#mf9ae1cfe39" y="339.443952"/>
     <use style="fill:#aac7fd;" x="322.958678" xlink:href="#mf9ae1cfe39" y="297.29378"/>
     <use style="fill:#aac7fd;" x="336.134593" xlink:href="#mf9ae1cfe39" y="274.39462"/>
     <use style="fill:#aac7fd;" x="349.310508" xlink:href="#mf9ae1cfe39" y="267.968256"/>
     <use style="fill:#aac7fd;" x="362.486423" xlink:href="#mf9ae1cfe39" y="257.64119"/>
     <use style="fill:#aac7fd;" x="375.662338" xlink:href="#mf9ae1cfe39" y="241.673515"/>
     <use style="fill:#aac7fd;" x="388.838253" xlink:href="#mf9ae1cfe39" y="233.984333"/>
     <use style="fill:#aac7fd;" x="402.014168" xlink:href="#mf9ae1cfe39" y="232.01995"/>
     <use style="fill:#aac7fd;" x="415.190083" xlink:href="#mf9ae1cfe39" y="216.445148"/>
     <use style="fill:#aac7fd;" x="428.365998" xlink:href="#mf9ae1cfe39" y="211.89899"/>
     <use style="fill:#aac7fd;" x="441.541913" xlink:href="#mf9ae1cfe39" y="206.454825"/>
     <use style="fill:#aac7fd;" x="454.717828" xlink:href="#mf9ae1cfe39" y="199.18659"/>
     <use style="fill:#aac7fd;" x="467.893743" xlink:href="#mf9ae1cfe39" y="196.604822"/>
     <use style="fill:#aac7fd;" x="481.069658" xlink:href="#mf9ae1cfe39" y="191.749976"/>
     <use style="fill:#aac7fd;" x="494.245573" xlink:href="#mf9ae1cfe39" y="186.782878"/>
     <use style="fill:#aac7fd;" x="507.421488" xlink:href="#mf9ae1cfe39" y="186.333881"/>
     <use style="fill:#aac7fd;" x="520.597403" xlink:href="#mf9ae1cfe39" y="178.364068"/>
     <use style="fill:#aac7fd;" x="533.773318" xlink:href="#mf9ae1cfe39" y="176.652241"/>
     <use style="fill:#aac7fd;" x="546.949233" xlink:href="#mf9ae1cfe39" y="174.968484"/>
     <use style="fill:#aac7fd;" x="560.125148" xlink:href="#mf9ae1cfe39" y="167.475743"/>
     <use style="fill:#aac7fd;" x="573.301063" xlink:href="#mf9ae1cfe39" y="171.516773"/>
     <use style="fill:#aac7fd;" x="586.476978" xlink:href="#mf9ae1cfe39" y="170.67489"/>
     <use style="fill:#aac7fd;" x="599.652893" xlink:href="#mf9ae1cfe39" y="169.692698"/>
     <use style="fill:#aac7fd;" x="612.828808" xlink:href="#mf9ae1cfe39" y="163.041831"/>
     <use style="fill:#aac7fd;" x="626.004723" xlink:href="#mf9ae1cfe39" y="164.024031"/>
     <use style="fill:#aac7fd;" x="639.180638" xlink:href="#mf9ae1cfe39" y="162.564768"/>
     <use style="fill:#aac7fd;" x="652.356553" xlink:href="#mf9ae1cfe39" y="160.460068"/>
     <use style="fill:#aac7fd;" x="665.532468" xlink:href="#mf9ae1cfe39" y="161.105502"/>
     <use style="fill:#aac7fd;" x="678.708383" xlink:href="#mf9ae1cfe39" y="156.727726"/>
     <use style="fill:#aac7fd;" x="691.884298" xlink:href="#mf9ae1cfe39" y="158.523739"/>
     <use style="fill:#aac7fd;" x="705.060213" xlink:href="#mf9ae1cfe39" y="160.432014"/>
     <use style="fill:#aac7fd;" x="718.236128" xlink:href="#mf9ae1cfe39" y="158.607932"/>
     <use style="fill:#aac7fd;" x="731.412043" xlink:href="#mf9ae1cfe39" y="157.737988"/>
     <use style="fill:#aac7fd;" x="744.587957" xlink:href="#mf9ae1cfe39" y="155.7736"/>
     <use style="fill:#aac7fd;" x="757.763872" xlink:href="#mf9ae1cfe39" y="152.708528"/>
     <use style="fill:#aac7fd;" x="770.939787" xlink:href="#mf9ae1cfe39" y="151.741923"/>
     <use style="fill:#aac7fd;" x="784.115702" xlink:href="#mf9ae1cfe39" y="150.120529"/>
     <use style="fill:#aac7fd;" x="797.291617" xlink:href="#mf9ae1cfe39" y="148.467942"/>
     <use style="fill:#aac7fd;" x="810.467532" xlink:href="#mf9ae1cfe39" y="149.309824"/>
     <use style="fill:#aac7fd;" x="823.643447" xlink:href="#mf9ae1cfe39" y="150.775323"/>
     <use style="fill:#aac7fd;" x="836.819362" xlink:href="#mf9ae1cfe39" y="148.873293"/>
     <use style="fill:#aac7fd;" x="849.995277" xlink:href="#mf9ae1cfe39" y="151.14949"/>
     <use style="fill:#aac7fd;" x="863.171192" xlink:href="#mf9ae1cfe39" y="150.245252"/>
     <use style="fill:#aac7fd;" x="876.347107" xlink:href="#mf9ae1cfe39" y="149.578759"/>
     <use style="fill:#aac7fd;" x="889.523022" xlink:href="#mf9ae1cfe39" y="150.124974"/>
     <use style="fill:#aac7fd;" x="902.698937" xlink:href="#mf9ae1cfe39" y="149.08265"/>
     <use style="fill:#aac7fd;" x="915.874852" xlink:href="#mf9ae1cfe39" y="148.28086"/>
     <use style="fill:#aac7fd;" x="929.050767" xlink:href="#mf9ae1cfe39" y="145.801981"/>
     <use style="fill:#aac7fd;" x="942.226682" xlink:href="#mf9ae1cfe39" y="149.740117"/>
     <use style="fill:#aac7fd;" x="955.402597" xlink:href="#mf9ae1cfe39" y="142.948941"/>
     <use style="fill:#aac7fd;" x="968.578512" xlink:href="#mf9ae1cfe39" y="147.495092"/>
     <use style="fill:#aac7fd;" x="981.754427" xlink:href="#mf9ae1cfe39" y="145.12381"/>
     <use style="fill:#aac7fd;" x="994.930342" xlink:href="#mf9ae1cfe39" y="143.229567"/>
     <use style="fill:#aac7fd;" x="1008.106257" xlink:href="#mf9ae1cfe39" y="145.193965"/>
     <use style="fill:#aac7fd;" x="1021.282172" xlink:href="#mf9ae1cfe39" y="146.947878"/>
     <use style="fill:#aac7fd;" x="1034.458087" xlink:href="#mf9ae1cfe39" y="146.106004"/>
     <use style="fill:#aac7fd;" x="1047.634002" xlink:href="#mf9ae1cfe39" y="144.702863"/>
     <use style="fill:#aac7fd;" x="1060.809917" xlink:href="#mf9ae1cfe39" y="148.561483"/>
     <use style="fill:#aac7fd;" x="1073.985832" xlink:href="#mf9ae1cfe39" y="143.089258"/>
     <use style="fill:#aac7fd;" x="1087.161747" xlink:href="#mf9ae1cfe39" y="143.931133"/>
     <use style="fill:#aac7fd;" x="1100.337662" xlink:href="#mf9ae1cfe39" y="151.648393"/>
     <use style="fill:#aac7fd;" x="1113.513577" xlink:href="#mf9ae1cfe39" y="136.213912"/>
     <use style="fill:#aac7fd;" x="1126.689492" xlink:href="#mf9ae1cfe39" y="147.438961"/>
     <use style="fill:#aac7fd;" x="1139.865407" xlink:href="#mf9ae1cfe39" y="140.142687"/>
     <use style="fill:#aac7fd;" x="1153.041322" xlink:href="#mf9ae1cfe39" y="141.2652"/>
     <use style="fill:#aac7fd;" x="1166.217237" xlink:href="#mf9ae1cfe39" y="139.581411"/>
     <use style="fill:#aac7fd;" x="1179.393152" xlink:href="#mf9ae1cfe39" y="143.510186"/>
     <use style="fill:#aac7fd;" x="1192.569067" xlink:href="#mf9ae1cfe39" y="139.300793"/>
     <use style="fill:#aac7fd;" x="1205.744982" xlink:href="#mf9ae1cfe39" y="142.107055"/>
     <use style="fill:#aac7fd;" x="1218.920897" xlink:href="#mf9ae1cfe39" y="136.494531"/>
     <use style="fill:#aac7fd;" x="1232.096812" xlink:href="#mf9ae1cfe39" y="144.913317"/>
     <use style="fill:#aac7fd;" x="1245.272727" xlink:href="#mf9ae1cfe39" y="138.739556"/>
    </g>
   </g>
   <g id="line2d_19"/>
   <g id="line2d_20"/>
   <g id="line2d_21"/>
   <g id="line2d_22"/>
   <g id="patch_3">
    <path d="M 180 768.96 
L 180 103.68 
" style="fill:none;stroke:#ffffff;stroke-linecap:square;stroke-linejoin:miter;stroke-width:1.25;"/>
   </g>
   <g id="patch_4">
    <path d="M 1296 768.96 
L 1296 103.68 
" style="fill:none;stroke:#ffffff;stroke-linecap:square;stroke-linejoin:miter;stroke-width:1.25;"/>
   </g>
   <g id="patch_5">
    <path d="M 180 768.96 
L 1296 768.96 
" style="fill:none;stroke:#ffffff;stroke-linecap:square;stroke-linejoin:miter;stroke-width:1.25;"/>
   </g>
   <g id="patch_6">
    <path d="M 180 103.68 
L 1296 103.68 
" style="fill:none;stroke:#ffffff;stroke-linecap:square;stroke-linejoin:miter;stroke-width:1.25;"/>
   </g>
   <g id="legend_1">
    <g id="patch_7">
     <path d="M 1027.609375 756.46 
L 1278.5 756.46 
Q 1283.5 756.46 1283.5 751.46 
L 1283.5 541.182656 
Q 1283.5 536.182656 1278.5 536.182656 
L 1027.609375 536.182656 
Q 1022.609375 536.182656 1022.609375 541.182656 
L 1022.609375 751.46 
Q 1022.609375 756.46 1027.609375 756.46 
z
" style="fill:#eaeaf2;opacity:0.8;stroke:#cccccc;stroke-linejoin:miter;"/>
    </g>
    <g id="text_17">
     <!-- Input -->
     <g style="fill:#262626;" transform="translate(1102.609375 564.077188)scale(0.25 -0.25)">
      <defs>
       <path d="M 9.328125 0 
L 9.328125 71.578125 
L 18.796875 71.578125 
L 18.796875 0 
z
" id="ArialMT-73"/>
      </defs>
      <use xlink:href="#ArialMT-73"/>
      <use x="27.783203" xlink:href="#ArialMT-110"/>
      <use x="83.398438" xlink:href="#ArialMT-112"/>
      <use x="139.013672" xlink:href="#ArialMT-117"/>
      <use x="194.628906" xlink:href="#ArialMT-116"/>
     </g>
    </g>
    <g id="line2d_23">
     <path d="M 1032.609375 590.690469 
L 1082.609375 590.690469 
" style="fill:none;stroke:#f7b89c;stroke-linecap:round;stroke-width:1.5;"/>
    </g>
    <g id="line2d_24"/>
    <g id="text_18">
     <!-- raw -->
     <g style="fill:#262626;" transform="translate(1102.609375 599.440469)scale(0.25 -0.25)">
      <defs>
       <path d="M 16.15625 0 
L 0.296875 51.859375 
L 9.375 51.859375 
L 17.625 21.921875 
L 20.703125 10.796875 
Q 20.90625 11.625 23.390625 21.484375 
L 31.640625 51.859375 
L 40.671875 51.859375 
L 48.4375 21.78125 
L 51.03125 11.859375 
L 54 21.875 
L 62.890625 51.859375 
L 71.4375 51.859375 
L 55.21875 0 
L 46.09375 0 
L 37.84375 31.0625 
L 35.84375 39.890625 
L 25.34375 0 
z
" id="ArialMT-119"/>
      </defs>
      <use xlink:href="#ArialMT-114"/>
      <use x="33.300781" xlink:href="#ArialMT-97"/>
      <use x="88.916016" xlink:href="#ArialMT-119"/>
     </g>
    </g>
    <g id="line2d_25">
     <path d="M 1032.609375 626.05375 
L 1082.609375 626.05375 
" style="fill:none;stroke:#aac7fd;stroke-linecap:round;stroke-width:1.5;"/>
    </g>
    <g id="line2d_26"/>
    <g id="text_19">
     <!-- features -->
     <g style="fill:#262626;" transform="translate(1102.609375 634.80375)scale(0.25 -0.25)">
      <defs>
       <path d="M 8.6875 0 
L 8.6875 45.015625 
L 0.921875 45.015625 
L 0.921875 51.859375 
L 8.6875 51.859375 
L 8.6875 57.375 
Q 8.6875 62.59375 9.625 65.140625 
Q 10.890625 68.5625 14.078125 70.671875 
Q 17.28125 72.796875 23.046875 72.796875 
Q 26.765625 72.796875 31.25 71.921875 
L 29.9375 64.265625 
Q 27.203125 64.75 24.75 64.75 
Q 20.75 64.75 19.09375 63.03125 
Q 17.4375 61.328125 17.4375 56.640625 
L 17.4375 51.859375 
L 27.546875 51.859375 
L 27.546875 45.015625 
L 17.4375 45.015625 
L 17.4375 0 
z
" id="ArialMT-102"/>
       <path d="M 42.09375 16.703125 
L 51.171875 15.578125 
Q 49.03125 7.625 43.21875 3.21875 
Q 37.40625 -1.171875 28.375 -1.171875 
Q 17 -1.171875 10.328125 5.828125 
Q 3.65625 12.84375 3.65625 25.484375 
Q 3.65625 38.578125 10.390625 45.796875 
Q 17.140625 53.03125 27.875 53.03125 
Q 38.28125 53.03125 44.875 45.953125 
Q 51.46875 38.875 51.46875 26.03125 
Q 51.46875 25.25 51.421875 23.6875 
L 12.75 23.6875 
Q 13.234375 15.140625 17.578125 10.59375 
Q 21.921875 6.0625 28.421875 6.0625 
Q 33.25 6.0625 36.671875 8.59375 
Q 40.09375 11.140625 42.09375 16.703125 
z
M 13.234375 30.90625 
L 42.1875 30.90625 
Q 41.609375 37.453125 38.875 40.71875 
Q 34.671875 45.796875 27.984375 45.796875 
Q 21.921875 45.796875 17.796875 41.75 
Q 13.671875 37.703125 13.234375 30.90625 
z
" id="ArialMT-101"/>
       <path d="M 3.078125 15.484375 
L 11.765625 16.84375 
Q 12.5 11.625 15.84375 8.84375 
Q 19.1875 6.0625 25.203125 6.0625 
Q 31.25 6.0625 34.171875 8.515625 
Q 37.109375 10.984375 37.109375 14.3125 
Q 37.109375 17.28125 34.515625 19 
Q 32.71875 20.171875 25.53125 21.96875 
Q 15.875 24.421875 12.140625 26.203125 
Q 8.40625 27.984375 6.46875 31.125 
Q 4.546875 34.28125 4.546875 38.09375 
Q 4.546875 41.546875 6.125 44.5 
Q 7.71875 47.46875 10.453125 49.421875 
Q 12.5 50.921875 16.03125 51.96875 
Q 19.578125 53.03125 23.640625 53.03125 
Q 29.734375 53.03125 34.34375 51.265625 
Q 38.96875 49.515625 41.15625 46.5 
Q 43.359375 43.5 44.1875 38.484375 
L 35.59375 37.3125 
Q 35.015625 41.3125 32.203125 43.546875 
Q 29.390625 45.796875 24.265625 45.796875 
Q 18.21875 45.796875 15.625 43.796875 
Q 13.03125 41.796875 13.03125 39.109375 
Q 13.03125 37.40625 14.109375 36.03125 
Q 15.1875 34.625 17.484375 33.6875 
Q 18.796875 33.203125 25.25 31.453125 
Q 34.578125 28.953125 38.25 27.359375 
Q 41.9375 25.78125 44.03125 22.75 
Q 46.140625 19.734375 46.140625 15.234375 
Q 46.140625 10.84375 43.578125 6.953125 
Q 41.015625 3.078125 36.171875 0.953125 
Q 31.34375 -1.171875 25.25 -1.171875 
Q 15.140625 -1.171875 9.84375 3.03125 
Q 4.546875 7.234375 3.078125 15.484375 
z
" id="ArialMT-115"/>
      </defs>
      <use xlink:href="#ArialMT-102"/>
      <use x="27.783203" xlink:href="#ArialMT-101"/>
      <use x="83.398438" xlink:href="#ArialMT-97"/>
      <use x="139.013672" xlink:href="#ArialMT-116"/>
      <use x="166.796875" xlink:href="#ArialMT-117"/>
      <use x="222.412109" xlink:href="#ArialMT-114"/>
      <use x="255.712891" xlink:href="#ArialMT-101"/>
      <use x="311.328125" xlink:href="#ArialMT-115"/>
     </g>
    </g>
    <g id="text_20">
     <!-- Model -->
     <g style="fill:#262626;" transform="translate(1102.609375 670.167031)scale(0.25 -0.25)">
      <defs>
       <path d="M 7.421875 0 
L 7.421875 71.578125 
L 21.6875 71.578125 
L 38.625 20.90625 
Q 40.96875 13.8125 42.046875 10.296875 
Q 43.265625 14.203125 45.84375 21.78125 
L 62.984375 71.578125 
L 75.734375 71.578125 
L 75.734375 0 
L 66.609375 0 
L 66.609375 59.90625 
L 45.796875 0 
L 37.25 0 
L 16.546875 60.9375 
L 16.546875 0 
z
" id="ArialMT-77"/>
      </defs>
      <use xlink:href="#ArialMT-77"/>
      <use x="83.300781" xlink:href="#ArialMT-111"/>
      <use x="138.916016" xlink:href="#ArialMT-100"/>
      <use x="194.53125" xlink:href="#ArialMT-101"/>
      <use x="250.146484" xlink:href="#ArialMT-108"/>
     </g>
    </g>
    <g id="line2d_27">
     <path d="M 1032.609375 696.780313 
L 1082.609375 696.780313 
" style="fill:none;stroke:#333333;stroke-linecap:round;stroke-width:1.5;"/>
    </g>
    <g id="line2d_28">
     <defs>
      <path d="M 0 3 
C 0.795609 3 1.55874 2.683901 2.12132 2.12132 
C 2.683901 1.55874 3 0.795609 3 0 
C 3 -0.795609 2.683901 -1.55874 2.12132 -2.12132 
C 1.55874 -2.683901 0.795609 -3 0 -3 
C -0.795609 -3 -1.55874 -2.683901 -2.12132 -2.12132 
C -2.683901 -1.55874 -3 -0.795609 -3 0 
C -3 0.795609 -2.683901 1.55874 -2.12132 2.12132 
C -1.55874 2.683901 -0.795609 3 0 3 
z
" id="m7b8a801e81" style="stroke:#333333;"/>
     </defs>
     <g>
      <use style="fill:#333333;stroke:#333333;" x="1057.609375" xlink:href="#m7b8a801e81" y="696.780313"/>
     </g>
    </g>
    <g id="text_21">
     <!-- retrained -->
     <g style="fill:#262626;" transform="translate(1102.609375 705.530313)scale(0.25 -0.25)">
      <use xlink:href="#ArialMT-114"/>
      <use x="33.300781" xlink:href="#ArialMT-101"/>
      <use x="88.916016" xlink:href="#ArialMT-116"/>
      <use x="116.699219" xlink:href="#ArialMT-114"/>
      <use x="150" xlink:href="#ArialMT-97"/>
      <use x="205.615234" xlink:href="#ArialMT-105"/>
      <use x="227.832031" xlink:href="#ArialMT-110"/>
      <use x="283.447266" xlink:href="#ArialMT-101"/>
      <use x="339.0625" xlink:href="#ArialMT-100"/>
     </g>
    </g>
    <g id="line2d_29">
     <path d="M 1032.609375 732.448281 
L 1082.609375 732.448281 
" style="fill:none;stroke:#333333;stroke-dasharray:6,2.25;stroke-dashoffset:0;stroke-width:1.5;"/>
    </g>
    <g id="line2d_30">
     <defs>
      <path d="M -1.5 3 
L 0 1.5 
L 1.5 3 
L 3 1.5 
L 1.5 0 
L 3 -1.5 
L 1.5 -3 
L 0 -1.5 
L -1.5 -3 
L -3 -1.5 
L -1.5 0 
L -3 1.5 
z
" id="mde2c36dae4" style="stroke:#333333;stroke-linejoin:miter;"/>
     </defs>
     <g>
      <use style="fill:#333333;stroke:#333333;stroke-linejoin:miter;" x="1057.609375" xlink:href="#mde2c36dae4" y="732.448281"/>
     </g>
    </g>
    <g id="text_22">
     <!-- subject-specific -->
     <g style="fill:#262626;" transform="translate(1102.609375 741.198281)scale(0.25 -0.25)">
      <defs>
       <path d="M 14.703125 0 
L 6.546875 0 
L 6.546875 71.578125 
L 15.328125 71.578125 
L 15.328125 46.046875 
Q 20.90625 53.03125 29.546875 53.03125 
Q 34.328125 53.03125 38.59375 51.09375 
Q 42.875 49.171875 45.625 45.671875 
Q 48.390625 42.1875 49.953125 37.25 
Q 51.515625 32.328125 51.515625 26.703125 
Q 51.515625 13.375 44.921875 6.09375 
Q 38.328125 -1.171875 29.109375 -1.171875 
Q 19.921875 -1.171875 14.703125 6.5 
z
M 14.59375 26.3125 
Q 14.59375 17 17.140625 12.84375 
Q 21.296875 6.0625 28.375 6.0625 
Q 34.125 6.0625 38.328125 11.0625 
Q 42.53125 16.0625 42.53125 25.984375 
Q 42.53125 36.140625 38.5 40.96875 
Q 34.46875 45.796875 28.765625 45.796875 
Q 23 45.796875 18.796875 40.796875 
Q 14.59375 35.796875 14.59375 26.3125 
z
" id="ArialMT-98"/>
       <path d="M 6.546875 61.375 
L 6.546875 71.578125 
L 15.328125 71.578125 
L 15.328125 61.375 
z
M -4.59375 -20.125 
L -2.9375 -12.640625 
Q -0.296875 -13.328125 1.21875 -13.328125 
Q 3.90625 -13.328125 5.21875 -11.546875 
Q 6.546875 -9.765625 6.546875 -2.640625 
L 6.546875 51.859375 
L 15.328125 51.859375 
L 15.328125 -2.828125 
Q 15.328125 -12.40625 12.84375 -16.15625 
Q 9.671875 -21.046875 2.296875 -21.046875 
Q -1.265625 -21.046875 -4.59375 -20.125 
z
" id="ArialMT-106"/>
       <path d="M 3.171875 21.484375 
L 3.171875 30.328125 
L 30.171875 30.328125 
L 30.171875 21.484375 
z
" id="ArialMT-45"/>
      </defs>
      <use xlink:href="#ArialMT-115"/>
      <use x="50" xlink:href="#ArialMT-117"/>
      <use x="105.615234" xlink:href="#ArialMT-98"/>
      <use x="161.230469" xlink:href="#ArialMT-106"/>
      <use x="183.447266" xlink:href="#ArialMT-101"/>
      <use x="239.0625" xlink:href="#ArialMT-99"/>
      <use x="289.0625" xlink:href="#ArialMT-116"/>
      <use x="316.845703" xlink:href="#ArialMT-45"/>
      <use x="350.146484" xlink:href="#ArialMT-115"/>
      <use x="400.146484" xlink:href="#ArialMT-112"/>
      <use x="455.761719" xlink:href="#ArialMT-101"/>
      <use x="511.376953" xlink:href="#ArialMT-99"/>
      <use x="561.376953" xlink:href="#ArialMT-105"/>
      <use x="583.59375" xlink:href="#ArialMT-102"/>
      <use x="611.376953" xlink:href="#ArialMT-105"/>
      <use x="633.59375" xlink:href="#ArialMT-99"/>
     </g>
    </g>
   </g>
  </g>
 </g>
 <defs>
  <clipPath id="p78457ff47d">
   <rect height="665.28" width="1116" x="180" y="103.68"/>
  </clipPath>
 </defs>
</svg>
